<?xml version="1.0" encoding="utf-8"?>
<!-- Generator: Adobe Illustrator 17.0.0, SVG Export Plug-In . SVG Version: 6.00 Build 0)  -->
<!DOCTYPE svg PUBLIC "-//W3C//DTD SVG 1.1//EN" "http://www.w3.org/Graphics/SVG/1.1/DTD/svg11.dtd">
<svg version="1.1" id="Layer_1" xmlns="http://www.w3.org/2000/svg" xmlns:xlink="http://www.w3.org/1999/xlink" x="0px" y="0px"
	 width="1149.115px" height="983.883px" viewBox="0 0 1149.115 983.883" enable-background="new 0 0 1149.115 983.883"
	 xml:space="preserve">
<g>
	<defs>
		<path id="SVGID_2_" d="M-665.641,734.546c25.985-5.82,53.928-3.507,77.683,6.43l440.948,184.452V47h-1024.74v602.316
			l272.082,113.814c23.755,9.937,51.698,12.25,77.683,6.43L-665.641,734.546z"/>
	</defs>
	<clipPath id="SVGID_1_">
		<use xlink:href="#SVGID_2_"  overflow="visible"/>
	</clipPath>
	
		<linearGradient id="SVGID_3_" gradientUnits="userSpaceOnUse" x1="-3620.3445" y1="797.5513" x2="-3620.3445" y2="443.5398" gradientTransform="matrix(-1 0 0 1 -4234.4302 0)">
		<stop  offset="0" style="stop-color:#293B83"/>
		<stop  offset="1" style="stop-color:#344C96;stop-opacity:0"/>
	</linearGradient>
	<path opacity="0.5" clip-path="url(#SVGID_1_)" fill="url(#SVGID_3_)" fill-opacity="0.8" d="M-1224.509,891.961l-13.029-6.684
		v2.489l8.178,4.196H-1224.509z M-1203.468,353.337l30.802,10.457l-30.802,10.462l-28.929-9.826v1.649l26.494,9.001l-26.494,9.001
		v1.649l28.929-9.826l30.802,10.462l-30.811,10.462l-28.92-9.826v1.649l26.494,9.001l-26.494,8.995v1.649l28.92-9.82l30.811,10.457
		l-30.811,10.462l-28.92-9.826v1.649l26.494,9.001l-26.494,9.001v1.649l28.92-9.826l30.811,10.463l-30.802,10.462l-28.929-9.826
		v1.649l26.494,9.001l-26.494,8.995v1.649l28.92-9.82l30.811,10.457l-30.811,10.462l-28.92-9.826v1.649l26.494,9.001l-26.494,9.001
		v1.649l28.92-9.826l30.811,10.462l-30.811,10.462l-28.92-9.826v1.649l26.494,9.001l-26.494,9.001v1.649l28.92-9.826l30.811,10.457
		l-30.811,10.462l-28.92-9.82v1.649l26.494,8.995l-26.494,9.001v1.649l28.92-9.826l30.811,10.462l-30.811,10.463l-28.92-9.826v1.649
		l26.494,9.001l-26.494,9.001v1.649l28.92-9.826l30.811,10.462l-30.811,10.457l-28.92-9.82v1.649l26.494,8.995l-26.494,9.001v1.649
		l28.92-9.826l30.811,10.462l-30.811,10.462l-28.92-9.826v1.649l26.494,9.001l-26.494,9.001v1.649l28.92-9.826l30.811,10.462
		l-30.811,10.457l-28.92-9.82v1.649l26.494,8.995l-26.494,9.001v1.649l28.92-9.826l30.811,10.462l-30.811,10.463l-28.92-9.826v1.649
		l26.494,9.001l-26.494,9.001v1.649l28.92-9.826l30.811,10.462l-30.811,10.457l-28.92-9.82v1.649l26.494,8.995l-26.494,9.001v1.649
		l28.92-9.826l30.811,10.462l-30.811,10.462l-28.92-9.826v1.649l26.494,9.001l-26.494,9.001v1.649l28.92-9.826l30.811,10.462
		l-30.811,10.457l-28.92-9.82v1.649l26.494,8.995l-26.494,9.001v1.649l28.92-9.826l30.811,10.463l-30.811,10.462l-28.92-9.826v1.649
		l26.494,9.001l-26.494,9.001v1.649l28.92-9.826l30.811,10.463l-30.811,10.462l-28.92-9.826v1.649l26.494,9.001l-26.494,8.996v1.649
		l28.92-9.82l30.811,10.457l-30.811,10.463l-28.92-9.826v1.649l26.494,9.001l-26.494,9.001v1.649l28.92-9.826l30.811,10.463
		l-30.811,10.462l-28.92-9.826v1.649l26.494,9.001l-26.494,8.995v1.649l28.92-9.826l30.811,10.462l-30.811,10.463l-28.92-9.826
		v1.649l26.494,9.001l-26.494,9.001v1.649l28.92-9.826l30.811,10.462l-30.811,10.462l-28.92-9.826v1.649l26.494,9.001l-26.494,8.995
		v1.649l28.92-9.82l30.811,10.457l-30.811,10.462l-28.92-9.826v1.649l26.494,9.001l-26.494,9.001v1.649l28.92-9.826l30.811,10.462
		l-30.811,10.462l-28.92-9.826v1.649l26.494,9.001l-26.494,8.995v1.649l28.92-9.82l30.802,10.457l-30.802,10.462l-28.92-9.826v1.649
		l26.494,9.001l-26.494,9.001v1.649l28.92-9.826l30.811,10.462l-30.811,10.462l-28.92-9.826v1.649l26.494,9.001l-26.494,8.995v1.649
		l28.92-9.82l30.811,10.457l-14.921,5.066h4.86l12.486-4.242l12.485,4.242h4.851l-14.911-5.066l30.802-10.457l30.802,10.457
		l-14.911,5.066h4.851l12.486-4.242l12.495,4.242h4.85l-14.911-5.066l30.801-10.457l30.802,10.457l-14.911,5.066h4.85l12.486-4.242
		l12.485,4.242h4.851l-14.911-5.066l30.801-10.457l30.802,10.457l-14.911,5.066h4.86l12.486-4.242l12.485,4.242h4.851l-14.911-5.066
		l30.802-10.457l30.802,10.457l-14.911,5.066h4.851l12.486-4.242l12.486,4.242h4.86l-14.911-5.066l30.802-10.457l30.801,10.457
		l-14.911,5.066h4.851l12.486-4.242l12.486,4.242h4.85l-14.911-5.066l30.802-10.457l30.801,10.457l-14.911,5.066h4.85l12.495-4.242
		l12.486,4.242h4.851l-14.911-5.066l30.801-10.457l30.802,10.457l-14.911,5.066h4.851l12.485-4.242l12.485,4.242h4.851
		l-14.911-5.066l30.801-10.457l30.811,10.457l-14.92,5.066h4.86l12.485-4.242l12.485,4.242h4.851l-14.911-5.066l30.802-10.457
		l30.801,10.457l-14.911,5.066h4.851l12.486-4.242l12.495,4.242h4.85l-14.911-5.066l30.802-10.457l30.802,10.457l-14.911,5.066h4.85
		l12.485-4.242l12.486,4.242h4.851l-14.911-5.066l30.802-10.457l30.811,10.457l-14.921,5.066h4.86l12.486-4.242l12.485,4.242h4.851
		l-14.911-5.066l30.801-10.457l30.802,10.457l-14.911,5.066h4.85l12.486-4.242l12.486,4.242h4.86l-14.911-5.066l30.802-10.457
		l30.802,10.457l-14.911,5.066h4.851l12.486-4.242l12.486,4.242h4.85l-14.911-5.066l30.802-10.457l30.801,10.457l-14.911,5.066
		h4.851l12.495-4.242l12.486,4.242h4.851l-14.911-5.066l30.801-10.457l30.802,10.457l-14.911,5.066h4.85l12.486-4.242l12.485,4.242
		h4.86l-14.921-5.066l30.811-10.457l30.801,10.457l-14.911,5.066h4.851l12.485-4.242l12.486,4.242h4.851l-14.911-5.066
		l30.802-10.457l30.802,10.457l-14.911,5.066h4.851l12.485-4.242l12.495,4.242h4.851l-14.911-5.066l30.802-10.457l16.56,5.624
		v-1.649l-14.135-4.799l14.135-4.799v-1.649l-16.56,5.624l-30.802-10.462l30.802-10.462l16.56,5.623v-1.649l-14.135-4.799
		l14.135-4.799v-1.649l-16.56,5.624l-30.802-10.462l30.802-10.457l16.56,5.624v-1.649l-14.135-4.799l14.135-4.799v-1.649
		l-16.56,5.623l-30.802-10.462L-7.194,849.9l16.56,5.624v-1.649l-14.135-4.799l14.135-4.799v-1.649l-16.56,5.623l-30.802-10.462
		l30.802-10.457l16.56,5.624v-1.649l-14.135-4.799l14.135-4.799v-1.649l-16.56,5.624l-30.802-10.462l30.802-10.462l16.56,5.624
		v-1.649l-14.135-4.799l14.135-4.799v-1.649l-16.56,5.624l-30.802-10.463l30.802-10.457l16.56,5.624v-1.649l-14.135-4.799
		l14.135-4.799v-1.649l-16.56,5.624l-30.802-10.462l30.802-10.463l16.56,5.624v-1.649l-14.135-4.799l14.135-4.799v-1.649
		l-16.56,5.624l-30.802-10.463l30.802-10.463l16.56,5.624v-1.649l-14.135-4.799l14.135-4.799v-1.649l-16.56,5.624l-30.802-10.457
		l30.802-10.463l16.56,5.624v-1.649l-14.135-4.799l14.135-4.799v-1.649l-16.56,5.624l-30.802-10.462L-7.194,691.9l16.56,5.624
		v-1.649l-14.135-4.799l14.135-4.799v-1.649l-16.56,5.624l-30.802-10.457l30.802-10.462l16.56,5.623v-1.649l-14.135-4.799
		l14.135-4.799v-1.649l-16.56,5.624l-30.802-10.462l30.802-10.462l16.56,5.623v-1.649l-14.135-4.799l14.135-4.799v-1.649
		l-16.56,5.624l-30.802-10.457l30.802-10.462l16.56,5.624v-1.649l-14.135-4.799l14.135-4.799v-1.649l-16.56,5.624l-30.802-10.463
		l30.802-10.462l16.56,5.623v-1.649l-14.135-4.799l14.135-4.799v-1.649l-16.56,5.624l-30.802-10.457l30.802-10.462l16.56,5.624
		v-1.649l-14.135-4.799l14.135-4.799v-1.649l-16.56,5.624l-30.802-10.462l30.802-10.462l16.56,5.624v-1.649l-14.135-4.799
		l14.135-4.799v-1.649l-16.56,5.624l-30.802-10.457l30.802-10.462l16.56,5.624v-1.649l-14.135-4.799l14.135-4.799v-1.649
		l-16.56,5.624l-30.802-10.463l30.802-10.462l16.56,5.623v-1.649l-14.135-4.799l14.135-4.799v-1.649l-16.56,5.624l-30.802-10.462
		l47.361-16.086v-1.649l-49.797,16.91l-30.802-10.457l80.598-27.373v-1.649l-83.023,28.197l-30.802-10.462l113.825-38.66v-1.643
		l-116.25,39.479l-30.801-10.462L9.366,415.424v-1.649l-149.477,50.766l-30.811-10.462L9.366,392.85v-1.649l-182.714,62.052
		l-30.801-10.457L9.366,370.281v-1.649l-215.941,73.34l-30.801-10.462L0.034,350.88h-4.85l-234.984,79.805l-30.802-10.462
		L-66.43,350.88h-4.86l-201.748,68.518l-30.802-10.462l170.946-58.055h-4.861l-168.511,57.231l-30.801-10.457l137.719-46.774h-4.851
		l-135.294,45.95l-30.802-10.462l104.493-35.487h-4.86l-102.067,34.663l-30.801-10.462l71.256-24.2h-4.851l-68.831,23.376
		l-30.801-10.462l38.019-12.913h-4.851l-35.594,12.089l-30.802-10.457l4.802-1.632h-4.86l-2.377,0.807l-2.377-0.807h-4.851
		l4.802,1.632l-30.802,10.457l-30.802-10.457l4.802-1.632h-4.851l-2.377,0.807l-2.377-0.807h-4.851l4.802,1.632l-30.811,10.457
		l-30.802-10.457l4.802-1.632h-4.85l-2.377,0.807l-2.377-0.807h-4.851l4.802,1.632l-30.802,10.457l-30.802-10.457l4.802-1.632
		h-4.851l-2.377,0.807l-2.377-0.807h-4.86l4.802,1.632l-30.802,10.457l-30.802-10.457l4.802-1.632h-4.851l-2.377,0.807l-2.376-0.807
		h-4.851l4.802,1.632l-30.802,10.457l-30.811-10.457l4.802-1.632h-4.851l-2.377,0.807l-2.377-0.807h-4.851l4.802,1.632
		l-30.802,10.457l-30.802-10.457l4.802-1.632h-4.851l-2.377,0.807l-2.377-0.807h-4.86l4.802,1.632l-30.802,10.457l-30.801-10.457
		l4.802-1.632h-4.851l-2.377,0.807l-2.377-0.807h-4.851l4.802,1.632l-30.802,10.457l-30.801-10.457l4.802-1.632h-4.86l-2.377,0.807
		l-2.377-0.807h-4.851l4.802,1.632l-30.801,10.457l-30.802-10.457l4.802-1.632h-4.851l-2.377,0.807l-2.377-0.807h-4.86l4.802,1.632
		l-30.802,10.457l-30.802-10.457l4.802-1.632h-4.85l-2.377,0.807l-2.377-0.807h-4.851l4.802,1.632l-30.802,10.457l-30.802-10.457
		l4.802-1.632h-4.861l-2.377,0.807l-2.377-0.807h-4.851l4.802,1.632l-26.494,8.995v1.649L-1203.468,353.337z M-1106.212,363.794
		l-30.802,10.462l-30.802-10.462l30.802-10.457L-1106.212,363.794z M-472.418,645.109l-30.802-10.457l30.802-10.462l30.801,10.462
		L-472.418,645.109z M-439.182,635.476l30.801,10.457l-30.801,10.463l-30.802-10.463L-439.182,635.476z M-474.844,645.933
		l-30.802,10.463l-30.802-10.463l30.802-10.457L-474.844,645.933z M-538.872,645.109l-30.802-10.457l30.802-10.462l30.802,10.462
		L-538.872,645.109z M-541.297,645.933l-30.811,10.463l-30.802-10.463l30.802-10.457L-541.297,645.933z M-605.336,645.109
		l-30.802-10.457l30.802-10.462l30.801,10.462L-605.336,645.109z M-607.761,645.933l-30.802,10.463l-30.802-10.463l30.802-10.457
		L-607.761,645.933z M-671.799,645.109l-30.801-10.457l30.811-10.462l30.801,10.462L-671.799,645.109z M-674.224,645.933
		l-30.802,10.463l-30.802-10.463l30.802-10.457L-674.224,645.933z M-738.253,645.109l-30.801-10.457l30.801-10.462l30.802,10.462
		L-738.253,645.109z M-740.678,645.933l-30.802,10.463l-30.811-10.463l30.811-10.457L-740.678,645.933z M-771.48,633.827
		l-30.811-10.463l30.811-10.462l30.802,10.462L-771.48,633.827z M-769.054,612.078l30.801-10.462l30.802,10.462l-30.802,10.463
		L-769.054,612.078z M-705.026,612.903l30.802,10.462l-30.802,10.463l-30.802-10.463L-705.026,612.903z M-702.601,612.078
		l30.801-10.462l30.811,10.462l-30.801,10.463L-702.601,612.078z M-638.563,612.903l30.802,10.462l-30.802,10.463l-30.802-10.463
		L-638.563,612.903z M-636.137,612.078l30.802-10.462l30.801,10.462l-30.801,10.463L-636.137,612.078z M-572.109,612.903
		l30.811,10.462l-30.811,10.463l-30.802-10.463L-572.109,612.903z M-569.674,612.078l30.802-10.462l30.802,10.462l-30.802,10.463
		L-569.674,612.078z M-505.645,612.903l30.802,10.462l-30.802,10.463l-30.802-10.463L-505.645,612.903z M-503.22,612.078
		l30.802-10.462l30.801,10.462l-30.801,10.463L-503.22,612.078z M-439.182,612.903l30.801,10.462l-30.801,10.463l-30.802-10.463
		L-439.182,612.903z M-405.955,624.189l30.802,10.462l-30.802,10.457l-30.801-10.457L-405.955,624.189z M-405.955,646.758
		l30.802,10.462l-30.802,10.462l-30.801-10.462L-405.955,646.758z M-408.38,668.507l-30.801,10.463l-30.802-10.463l30.802-10.462
		L-408.38,668.507z M-472.418,667.683l-30.802-10.462l30.802-10.462l30.801,10.462L-472.418,667.683z M-474.844,668.507
		l-30.802,10.463l-30.802-10.463l30.802-10.462L-474.844,668.507z M-538.872,667.683l-30.802-10.462l30.802-10.462l30.802,10.462
		L-538.872,667.683z M-541.307,668.507l-30.802,10.463l-30.802-10.463l30.802-10.462L-541.307,668.507z M-605.336,667.683
		l-30.802-10.462l30.802-10.462l30.801,10.462L-605.336,667.683z M-607.761,668.507l-30.802,10.463l-30.802-10.463l30.802-10.462
		L-607.761,668.507z M-671.789,667.683l-30.811-10.462l30.801-10.462l30.811,10.462L-671.789,667.683z M-674.224,668.507
		l-30.802,10.463l-30.802-10.463l30.802-10.462L-674.224,668.507z M-738.253,667.683l-30.801-10.462l30.801-10.462l30.802,10.462
		L-738.253,667.683z M-740.678,668.507l-30.802,10.463l-30.811-10.463l30.811-10.462L-740.678,668.507z M-804.716,667.683
		l-30.802-10.462l30.802-10.462l30.801,10.462L-804.716,667.683z M-804.716,645.109l-30.802-10.457l30.802-10.462l30.801,10.462
		L-804.716,645.109z M-804.716,622.541l-30.802-10.463l30.802-10.462l30.801,10.462L-804.716,622.541z M-804.716,599.967
		l-30.802-10.457l30.802-10.462l30.801,10.462L-804.716,599.967z M-771.48,590.334l30.802,10.457l-30.802,10.462l-30.811-10.462
		L-771.48,590.334z M-769.054,589.51l30.801-10.462l30.802,10.462l-30.802,10.457L-769.054,589.51z M-705.026,590.334l30.802,10.457
		l-30.802,10.462l-30.802-10.462L-705.026,590.334z M-702.601,589.51l30.801-10.462l30.811,10.462l-30.811,10.457L-702.601,589.51z
		 M-638.563,590.334l30.802,10.457l-30.802,10.462l-30.802-10.462L-638.563,590.334z M-636.137,589.51l30.802-10.462l30.801,10.462
		l-30.801,10.457L-636.137,589.51z M-572.109,590.334l30.811,10.457l-30.811,10.462l-30.802-10.462L-572.109,590.334z
		 M-569.674,589.51l30.802-10.462l30.802,10.462l-30.802,10.457L-569.674,589.51z M-505.645,590.334l30.802,10.457l-30.802,10.462
		l-30.802-10.462L-505.645,590.334z M-503.22,589.51l30.802-10.462l30.801,10.462l-30.801,10.457L-503.22,589.51z M-439.182,590.334
		l30.801,10.457l-30.801,10.462l-30.802-10.462L-439.182,590.334z M-405.955,601.616l30.802,10.462l-30.802,10.463l-30.801-10.463
		L-405.955,601.616z M-372.728,612.903l30.802,10.462l-30.802,10.463l-30.801-10.463L-372.728,612.903z M-372.728,635.476
		l30.802,10.457l-30.802,10.463l-30.801-10.463L-372.728,635.476z M-372.728,658.045l30.802,10.462l-30.802,10.463l-30.801-10.463
		L-372.728,658.045z M-372.728,680.619l30.802,10.457l-30.802,10.462l-30.801-10.462L-372.728,680.619z M-405.955,690.251
		l-30.801-10.457l30.801-10.462l30.802,10.462L-405.955,690.251z M-408.38,691.075l-30.801,10.462l-30.802-10.462l30.802-10.457
		L-408.38,691.075z M-472.418,690.251l-30.802-10.457l30.802-10.462l30.801,10.462L-472.418,690.251z M-474.844,691.075
		l-30.802,10.462l-30.802-10.462l30.802-10.457L-474.844,691.075z M-538.872,690.251l-30.802-10.457l30.802-10.462l30.802,10.462
		L-538.872,690.251z M-541.297,691.075l-30.811,10.462l-30.802-10.462l30.802-10.457L-541.297,691.075z M-605.336,690.251
		l-30.802-10.457l30.802-10.462l30.801,10.462L-605.336,690.251z M-607.761,691.075l-30.802,10.462l-30.802-10.462l30.802-10.457
		L-607.761,691.075z M-671.799,690.251l-30.801-10.457l30.811-10.462l30.801,10.462L-671.799,690.251z M-674.224,691.075
		l-30.802,10.462l-30.802-10.462l30.802-10.457L-674.224,691.075z M-738.253,690.251l-30.801-10.457l30.801-10.462l30.802,10.462
		L-738.253,690.251z M-740.678,691.075l-30.802,10.462l-30.811-10.462l30.811-10.457L-740.678,691.075z M-804.716,690.251
		l-30.802-10.457l30.802-10.462l30.801,10.462L-804.716,690.251z M-807.142,691.075l-30.802,10.462l-30.802-10.462l30.802-10.457
		L-807.142,691.075z M-837.943,678.97l-30.802-10.463l30.802-10.462l30.802,10.462L-837.943,678.97z M-837.943,656.396
		l-30.802-10.463l30.802-10.457l30.802,10.457L-837.943,656.396z M-837.943,633.827l-30.802-10.463l30.802-10.462l30.802,10.462
		L-837.943,633.827z M-837.943,611.253l-30.802-10.462l30.802-10.457l30.802,10.457L-837.943,611.253z M-837.943,588.685
		l-30.802-10.462l30.802-10.462l30.802,10.462L-837.943,588.685z M-835.518,566.936l30.802-10.462l30.801,10.462l-30.801,10.462
		L-835.518,566.936z M-771.48,567.76l30.802,10.462l-30.802,10.462l-30.802-10.462L-771.48,567.76z M-769.054,566.936l30.801-10.462
		l30.802,10.462l-30.802,10.462L-769.054,566.936z M-705.026,567.76l30.802,10.462l-30.802,10.462l-30.802-10.462L-705.026,567.76z
		 M-702.601,566.936l30.811-10.462l30.801,10.462l-30.811,10.462L-702.601,566.936z M-638.563,567.76l30.802,10.462l-30.802,10.462
		l-30.802-10.462L-638.563,567.76z M-636.137,566.936l30.802-10.462l30.801,10.462l-30.801,10.462L-636.137,566.936z
		 M-572.109,567.76l30.811,10.462l-30.811,10.462l-30.802-10.462L-572.109,567.76z M-569.674,566.936l30.802-10.462l30.802,10.462
		l-30.802,10.462L-569.674,566.936z M-505.645,567.76l30.802,10.462l-30.802,10.462l-30.802-10.462L-505.645,567.76z
		 M-503.22,566.936l30.802-10.462l30.801,10.462l-30.801,10.462L-503.22,566.936z M-439.182,567.76l30.801,10.462l-30.801,10.462
		l-30.802-10.462L-439.182,567.76z M-405.955,579.047l30.802,10.462l-30.802,10.457l-30.801-10.457L-405.955,579.047z
		 M-372.728,590.334l30.802,10.457l-30.802,10.462l-30.801-10.462L-372.728,590.334z M-339.492,601.616l30.802,10.462
		l-30.802,10.463l-30.802-10.463L-339.492,601.616z M-339.492,624.189l30.802,10.462l-30.802,10.457l-30.802-10.457
		L-339.492,624.189z M-339.492,646.758l30.802,10.462l-30.802,10.462l-30.802-10.462L-339.492,646.758z M-339.492,669.332
		l30.802,10.462l-30.802,10.457l-30.802-10.457L-339.492,669.332z M-339.492,691.9l30.802,10.463l-30.802,10.462l-30.802-10.462
		L-339.492,691.9z M-341.926,713.649l-30.802,10.463l-30.801-10.463l30.801-10.462L-341.926,713.649z M-405.955,712.825
		l-30.801-10.462l30.801-10.463l30.802,10.463L-405.955,712.825z M-408.38,713.649l-30.801,10.463l-30.802-10.463l30.802-10.462
		L-408.38,713.649z M-472.418,712.825l-30.802-10.462l30.802-10.463l30.801,10.463L-472.418,712.825z M-474.844,713.649
		l-30.802,10.463l-30.802-10.463l30.802-10.462L-474.844,713.649z M-538.872,712.825l-30.802-10.462l30.802-10.463l30.802,10.463
		L-538.872,712.825z M-541.297,713.649l-30.811,10.463l-30.802-10.463l30.802-10.462L-541.297,713.649z M-605.336,712.825
		l-30.802-10.462l30.802-10.463l30.801,10.463L-605.336,712.825z M-607.761,713.649l-30.802,10.463l-30.802-10.463l30.802-10.462
		L-607.761,713.649z M-671.799,712.825l-30.801-10.462l30.801-10.463l30.802,10.463L-671.799,712.825z M-674.224,713.649
		l-30.802,10.463l-30.802-10.463l30.802-10.462L-674.224,713.649z M-738.253,712.825l-30.801-10.462l30.801-10.463l30.802,10.463
		L-738.253,712.825z M-740.678,713.649l-30.802,10.463l-30.811-10.463l30.811-10.462L-740.678,713.649z M-804.716,712.825
		l-30.802-10.462l30.802-10.463l30.801,10.463L-804.716,712.825z M-807.142,713.649l-30.802,10.463l-30.802-10.463l30.802-10.462
		L-807.142,713.649z M-871.17,712.825l-30.802-10.462l30.802-10.463l30.801,10.463L-871.17,712.825z M-871.17,690.251
		l-30.811-10.457l30.811-10.462l30.801,10.462L-871.17,690.251z M-871.17,667.683l-30.802-10.462l30.802-10.462l30.801,10.462
		L-871.17,667.683z M-871.17,645.109l-30.802-10.457l30.802-10.462l30.801,10.462L-871.17,645.109z M-871.17,622.541l-30.811-10.463
		l30.811-10.462l30.801,10.462L-871.17,622.541z M-871.17,599.967l-30.802-10.457l30.802-10.462l30.801,10.462L-871.17,599.967z
		 M-871.17,577.398l-30.811-10.462l30.811-10.462l30.801,10.462L-871.17,577.398z M-871.17,554.825l-30.802-10.457l30.802-10.462
		l30.801,10.462L-871.17,554.825z M-837.943,545.192l30.802,10.457l-30.802,10.462l-30.802-10.462L-837.943,545.192z
		 M-835.518,544.368l30.802-10.462l30.801,10.462l-30.801,10.457L-835.518,544.368z M-771.48,545.192l30.802,10.457l-30.802,10.462
		l-30.811-10.462L-771.48,545.192z M-769.054,544.368l30.801-10.462l30.802,10.462l-30.802,10.457L-769.054,544.368z
		 M-705.026,545.192l30.802,10.457l-30.802,10.462l-30.802-10.462L-705.026,545.192z M-702.601,544.368l30.801-10.462l30.811,10.462
		l-30.801,10.457L-702.601,544.368z M-638.563,545.192l30.802,10.457l-30.802,10.462l-30.802-10.462L-638.563,545.192z
		 M-636.137,544.368l30.802-10.462l30.801,10.462l-30.801,10.457L-636.137,544.368z M-572.109,545.192l30.802,10.457l-30.802,10.462
		l-30.802-10.462L-572.109,545.192z M-569.674,544.368l30.802-10.462l30.802,10.462l-30.802,10.457L-569.674,544.368z
		 M-505.645,545.192l30.802,10.457l-30.802,10.462l-30.802-10.462L-505.645,545.192z M-503.22,544.368l30.802-10.462l30.801,10.462
		l-30.801,10.457L-503.22,544.368z M-439.182,545.192l30.801,10.457l-30.801,10.462l-30.802-10.462L-439.182,545.192z
		 M-405.955,556.473l30.802,10.462l-30.802,10.462l-30.801-10.462L-405.955,556.473z M-372.728,567.76l30.802,10.462l-30.802,10.462
		l-30.801-10.462L-372.728,567.76z M-339.492,579.047l30.802,10.462l-30.802,10.457l-30.802-10.457L-339.492,579.047z
		 M-306.265,590.334l30.802,10.457l-30.802,10.462l-30.801-10.462L-306.265,590.334z M-306.265,612.903l30.802,10.462
		l-30.802,10.463l-30.801-10.463L-306.265,612.903z M-306.265,635.476l30.802,10.457l-30.802,10.463l-30.801-10.463
		L-306.265,635.476z M-306.265,658.045l30.802,10.462l-30.802,10.463l-30.801-10.463L-306.265,658.045z M-306.265,680.619
		l30.802,10.457l-30.802,10.462l-30.801-10.462L-306.265,680.619z M-306.265,703.187l30.802,10.462l-30.802,10.463l-30.801-10.463
		L-306.265,703.187z M-306.265,725.761l30.802,10.462l-30.802,10.457l-30.801-10.462L-306.265,725.761z M-339.492,735.393
		l-30.802-10.457l30.802-10.463l30.802,10.463L-339.492,735.393z M-341.926,736.217l-30.802,10.462l-30.801-10.462l30.801-10.457
		L-341.926,736.217z M-405.955,735.399l-30.801-10.462l30.801-10.463l30.802,10.463L-405.955,735.399z M-408.38,736.217
		l-30.801,10.462l-30.802-10.462l30.802-10.457L-408.38,736.217z M-472.418,735.399l-30.802-10.462l30.802-10.463l30.801,10.463
		L-472.418,735.399z M-474.844,736.217l-30.802,10.462l-30.802-10.457l30.802-10.462L-474.844,736.217z M-538.872,735.399
		l-30.802-10.462l30.802-10.463l30.802,10.463L-538.872,735.399z M-541.307,736.223l-30.802,10.457l-30.802-10.462l30.802-10.457
		L-541.307,736.223z M-605.336,735.399l-30.802-10.462l30.802-10.463l30.801,10.463L-605.336,735.399z M-607.761,736.217
		l-30.802,10.462l-30.802-10.462l30.802-10.457L-607.761,736.217z M-671.789,735.399l-30.811-10.462l30.801-10.463l30.811,10.463
		L-671.789,735.399z M-674.224,736.217l-30.802,10.462l-30.802-10.462l30.802-10.457L-674.224,736.217z M-738.253,735.393
		l-30.801-10.457l30.801-10.463l30.802,10.463L-738.253,735.393z M-740.678,736.217l-30.802,10.462l-30.811-10.457l30.811-10.462
		L-740.678,736.217z M-804.716,735.399l-30.802-10.462l30.802-10.463l30.801,10.463L-804.716,735.399z M-807.142,736.223
		l-30.802,10.457l-30.802-10.457l30.802-10.462L-807.142,736.223z M-871.17,735.399l-30.811-10.462l30.811-10.463l30.801,10.463
		L-871.17,735.399z M-873.605,736.223l-30.802,10.457l-30.801-10.457l30.801-10.462L-873.605,736.223z M-904.407,724.112
		l-30.801-10.463l30.801-10.462l30.802,10.462L-904.407,724.112z M-904.407,701.538l-30.801-10.462l30.801-10.457l30.802,10.457
		L-904.407,701.538z M-904.407,678.97l-30.801-10.463l30.801-10.462l30.802,10.462L-904.407,678.97z M-904.407,656.396
		l-30.801-10.463l30.801-10.457l30.802,10.457L-904.407,656.396z M-904.407,633.827l-30.801-10.463l30.801-10.462l30.802,10.462
		L-904.407,633.827z M-904.407,611.253l-30.801-10.462l30.801-10.457l30.802,10.457L-904.407,611.253z M-904.407,588.685
		l-30.801-10.462l30.801-10.462l30.802,10.462L-904.407,588.685z M-904.407,566.111l-30.801-10.462l30.801-10.457l30.802,10.457
		L-904.407,566.111z M-904.407,543.543l-30.801-10.462l30.801-10.462l30.802,10.462L-904.407,543.543z M-901.972,521.794
		l30.802-10.462l30.801,10.462l-30.801,10.463L-901.972,521.794z M-837.943,522.618l30.802,10.462l-30.802,10.462l-30.802-10.462
		L-837.943,522.618z M-835.518,521.794l30.802-10.462l30.801,10.462l-30.801,10.463L-835.518,521.794z M-771.48,522.618
		l30.802,10.462l-30.802,10.462l-30.811-10.462L-771.48,522.618z M-769.054,521.794l30.801-10.462l30.802,10.462l-30.802,10.463
		L-769.054,521.794z M-705.026,522.618l30.802,10.462l-30.802,10.462l-30.802-10.462L-705.026,522.618z M-702.601,521.794
		l30.811-10.462l30.801,10.462l-30.811,10.463L-702.601,521.794z M-638.563,522.618l30.802,10.462l-30.802,10.462l-30.802-10.462
		L-638.563,522.618z M-636.137,521.794l30.802-10.462l30.801,10.462l-30.801,10.463L-636.137,521.794z M-572.109,522.618
		l30.811,10.462l-30.811,10.462l-30.802-10.462L-572.109,522.618z M-569.674,521.794l30.802-10.462l30.802,10.462l-30.802,10.463
		L-569.674,521.794z M-505.645,522.618l30.802,10.462l-30.802,10.462l-30.802-10.462L-505.645,522.618z M-503.22,521.794
		l30.802-10.462l30.801,10.462l-30.801,10.463L-503.22,521.794z M-439.182,522.618l30.801,10.462l-30.801,10.462l-30.802-10.462
		L-439.182,522.618z M-405.955,533.905l30.802,10.462l-30.802,10.457l-30.801-10.457L-405.955,533.905z M-372.728,545.192
		l30.802,10.457l-30.802,10.462l-30.801-10.462L-372.728,545.192z M-339.492,556.473l30.802,10.462l-30.802,10.462l-30.802-10.462
		L-339.492,556.473z M-306.265,567.76l30.802,10.462l-30.802,10.462l-30.801-10.462L-306.265,567.76z M-273.038,579.047
		l30.801,10.462l-30.801,10.457l-30.802-10.457L-273.038,579.047z M-273.038,601.616l30.801,10.462l-30.801,10.463l-30.802-10.463
		L-273.038,601.616z M-273.038,624.189l30.801,10.462l-30.801,10.457l-30.802-10.457L-273.038,624.189z M-273.038,646.758
		l30.801,10.462l-30.801,10.462l-30.802-10.462L-273.038,646.758z M-273.038,669.332l30.801,10.462l-30.801,10.457l-30.802-10.457
		L-273.038,669.332z M-273.038,691.9l30.801,10.463l-30.801,10.462l-30.802-10.462L-273.038,691.9z M-273.038,714.474l30.801,10.463
		l-30.801,10.462l-30.802-10.462L-273.038,714.474z M-273.038,737.042l30.801,10.463l-30.801,10.463l-30.802-10.463
		L-273.038,737.042z M-275.463,758.791l-30.802,10.462l-30.801-10.462l30.801-10.463L-275.463,758.791z M-339.492,757.967
		l-30.802-10.463l30.802-10.463l30.802,10.463L-339.492,757.967z M-341.926,758.791l-30.802,10.462l-30.801-10.462l30.801-10.463
		L-341.926,758.791z M-405.955,757.967l-30.801-10.463l30.801-10.463l30.802,10.463L-405.955,757.967z M-408.38,758.791
		l-30.801,10.462l-30.802-10.462l30.802-10.463L-408.38,758.791z M-472.418,757.967l-30.802-10.463l30.802-10.463l30.801,10.463
		L-472.418,757.967z M-474.844,758.791l-30.802,10.462l-30.802-10.462l30.802-10.463L-474.844,758.791z M-538.872,757.967
		l-30.802-10.463l30.802-10.457l30.802,10.457L-538.872,757.967z M-541.297,758.791l-30.811,10.462l-30.802-10.462l30.802-10.463
		L-541.297,758.791z M-605.336,757.967l-30.802-10.463l30.802-10.463l30.801,10.463L-605.336,757.967z M-607.761,758.791
		l-30.802,10.462l-30.802-10.462l30.802-10.463L-607.761,758.791z M-671.799,757.967l-30.801-10.463l30.811-10.463l30.801,10.463
		L-671.799,757.967z M-674.224,758.791l-30.802,10.462l-30.802-10.462l30.802-10.463L-674.224,758.791z M-738.253,757.967
		l-30.801-10.463l30.801-10.463l30.802,10.463L-738.253,757.967z M-740.678,758.791l-30.802,10.462l-30.811-10.462l30.811-10.463
		L-740.678,758.791z M-804.716,757.967l-30.802-10.463l30.802-10.463l30.801,10.463L-804.716,757.967z M-807.142,758.791
		l-30.802,10.462l-30.802-10.462l30.802-10.463L-807.142,758.791z M-871.17,757.967l-30.802-10.463l30.802-10.457l30.801,10.457
		L-871.17,757.967z M-873.605,758.791l-30.802,10.462l-30.801-10.462l30.801-10.463L-873.605,758.791z M-937.634,757.967
		l-30.802-10.463l30.802-10.463l30.802,10.463L-937.634,757.967z M-937.634,735.399l-30.802-10.462l30.802-10.463l30.802,10.463
		L-937.634,735.399z M-937.634,712.825l-30.802-10.462l30.802-10.463l30.802,10.463L-937.634,712.825z M-937.634,690.251
		l-30.802-10.457l30.802-10.462l30.802,10.462L-937.634,690.251z M-937.634,667.683l-30.802-10.462l30.802-10.462l30.802,10.462
		L-937.634,667.683z M-937.634,645.109l-30.802-10.457l30.802-10.462l30.802,10.462L-937.634,645.109z M-937.634,622.541
		l-30.802-10.463l30.802-10.462l30.802,10.462L-937.634,622.541z M-937.634,599.967l-30.802-10.457l30.802-10.462l30.802,10.462
		L-937.634,599.967z M-937.634,577.398l-30.802-10.462l30.802-10.462l30.802,10.462L-937.634,577.398z M-937.634,554.825
		l-30.802-10.457l30.802-10.462l30.802,10.462L-937.634,554.825z M-937.634,532.256l-30.802-10.463l30.802-10.462l30.802,10.462
		L-937.634,532.256z M-937.634,509.682l-30.802-10.457l30.802-10.462l30.802,10.462L-937.634,509.682z M-904.407,500.05
		l30.802,10.457l-30.802,10.462l-30.801-10.462L-904.407,500.05z M-901.981,499.226l30.811-10.462l30.801,10.462l-30.801,10.457
		L-901.981,499.226z M-837.943,500.05l30.802,10.457l-30.802,10.462l-30.802-10.462L-837.943,500.05z M-835.518,499.226
		l30.802-10.462l30.801,10.462l-30.801,10.457L-835.518,499.226z M-771.48,500.05l30.802,10.457l-30.802,10.462l-30.802-10.462
		L-771.48,500.05z M-769.054,499.226l30.801-10.462l30.802,10.457l-30.802,10.462L-769.054,499.226z M-705.026,500.044
		l30.802,10.462l-30.802,10.462l-30.802-10.462L-705.026,500.044z M-702.601,499.22l30.801-10.457l30.811,10.462l-30.801,10.457
		L-702.601,499.22z M-638.563,500.05l30.802,10.457l-30.802,10.462l-30.802-10.462L-638.563,500.05z M-636.137,499.226
		l30.802-10.462l30.801,10.457l-30.801,10.462L-636.137,499.226z M-572.109,500.05l30.811,10.457l-30.811,10.462l-30.802-10.462
		L-572.109,500.05z M-569.674,499.226l30.802-10.462l30.802,10.462l-30.802,10.457L-569.674,499.226z M-505.645,500.05
		l30.802,10.457l-30.802,10.462l-30.802-10.462L-505.645,500.05z M-503.22,499.226l30.802-10.462l30.801,10.462l-30.801,10.457
		L-503.22,499.226z M-439.182,500.05l30.801,10.457l-30.801,10.462l-30.802-10.462L-439.182,500.05z M-405.955,511.332
		l30.802,10.462l-30.802,10.463l-30.801-10.463L-405.955,511.332z M-372.728,522.618l30.802,10.462l-30.802,10.462l-30.801-10.462
		L-372.728,522.618z M-339.492,533.905l30.802,10.462l-30.802,10.457l-30.802-10.457L-339.492,533.905z M-306.265,545.192
		l30.802,10.457l-30.802,10.462l-30.801-10.462L-306.265,545.192z M-273.038,556.473l30.801,10.462l-30.801,10.462l-30.802-10.462
		L-273.038,556.473z M-239.801,567.76L-209,578.223l-30.801,10.462l-30.811-10.462L-239.801,567.76z M-239.801,590.334L-209,600.791
		l-30.801,10.462l-30.811-10.462L-239.801,590.334z M-239.801,612.903L-209,623.365l-30.801,10.463l-30.811-10.463L-239.801,612.903
		z M-239.801,635.476L-209,645.933l-30.801,10.463l-30.802-10.463L-239.801,635.476z M-239.801,658.045L-209,668.507l-30.801,10.463
		l-30.811-10.463L-239.801,658.045z M-239.801,680.619L-209,691.075l-30.801,10.462l-30.811-10.462L-239.801,680.619z
		 M-239.801,703.187L-209,713.649l-30.801,10.463l-30.811-10.463L-239.801,703.187z M-239.801,725.761L-209,736.223l-30.801,10.457
		l-30.811-10.457L-239.801,725.761z M-239.801,748.329L-209,758.791l-30.801,10.462l-30.802-10.462L-239.801,748.329z
		 M-239.801,770.903L-209,781.365l-30.811,10.457l-30.802-10.457L-239.801,770.903z M-273.038,780.541l-30.802-10.462l30.802-10.463
		l30.801,10.463L-273.038,780.541z M-275.463,781.365l-30.802,10.457l-30.801-10.457l30.801-10.462L-275.463,781.365z
		 M-339.492,780.541l-30.802-10.462l30.802-10.463l30.802,10.463L-339.492,780.541z M-341.926,781.365l-30.802,10.457
		l-30.801-10.457l30.801-10.462L-341.926,781.365z M-405.955,780.541l-30.801-10.462l30.801-10.463l30.802,10.463L-405.955,780.541z
		 M-408.38,781.365l-30.801,10.457l-30.802-10.457l30.802-10.462L-408.38,781.365z M-472.418,780.541l-30.802-10.462l30.802-10.463
		l30.801,10.463L-472.418,780.541z M-474.844,781.365l-30.802,10.457l-30.802-10.457l30.802-10.462L-474.844,781.365z
		 M-538.872,780.541l-30.802-10.462l30.802-10.463l30.802,10.463L-538.872,780.541z M-541.297,781.365l-30.811,10.457
		l-30.802-10.457l30.802-10.462L-541.297,781.365z M-605.336,780.541l-30.802-10.462l30.802-10.463l30.801,10.463L-605.336,780.541z
		 M-607.761,781.365l-30.802,10.457l-30.802-10.457l30.802-10.462L-607.761,781.365z M-671.789,780.541l-30.811-10.462
		l30.801-10.463l30.811,10.463L-671.789,780.541z M-674.224,781.365l-30.802,10.457l-30.802-10.457l30.802-10.462L-674.224,781.365z
		 M-738.253,780.541l-30.801-10.462l30.801-10.463l30.802,10.463L-738.253,780.541z M-740.678,781.365l-30.802,10.457
		l-30.811-10.457l30.811-10.462L-740.678,781.365z M-804.716,780.541l-30.802-10.462l30.802-10.463l30.801,10.463L-804.716,780.541z
		 M-807.142,781.365l-30.802,10.457l-30.802-10.462l30.802-10.457L-807.142,781.365z M-871.17,780.541l-30.802-10.462l30.802-10.463
		l30.801,10.463L-871.17,780.541z M-873.605,781.36l-30.802,10.462l-30.801-10.457l30.801-10.462L-873.605,781.36z
		 M-937.634,780.541l-30.802-10.462l30.802-10.463l30.802,10.463L-937.634,780.541z M-940.059,781.365l-30.802,10.457
		l-30.801-10.457l30.801-10.462L-940.059,781.365z M-970.86,769.254l-30.801-10.462l30.801-10.463l30.802,10.463L-970.86,769.254z
		 M-970.86,746.68l-30.801-10.462l30.801-10.457l30.802,10.462L-970.86,746.68z M-970.86,724.112l-30.801-10.463l30.801-10.462
		l30.802,10.462L-970.86,724.112z M-970.86,701.538l-30.801-10.462l30.801-10.457l30.802,10.457L-970.86,701.538z M-970.86,678.97
		l-30.801-10.463l30.801-10.462l30.802,10.462L-970.86,678.97z M-970.86,656.396l-30.801-10.463l30.801-10.457l30.802,10.457
		L-970.86,656.396z M-970.86,633.827l-30.801-10.463l30.801-10.462l30.802,10.462L-970.86,633.827z M-970.86,611.253l-30.801-10.462
		l30.801-10.457l30.802,10.457L-970.86,611.253z M-970.86,588.685l-30.801-10.462l30.801-10.462l30.802,10.462L-970.86,588.685z
		 M-970.86,566.111l-30.801-10.462l30.801-10.457l30.802,10.457L-970.86,566.111z M-970.86,543.543l-30.801-10.462l30.801-10.462
		l30.802,10.462L-970.86,543.543z M-970.86,520.969l-30.801-10.462l30.801-10.457l30.802,10.457L-970.86,520.969z M-970.86,498.401
		l-30.801-10.462l30.801-10.462l30.802,10.462L-970.86,498.401z M-968.435,476.652l30.802-10.462l30.802,10.462l-30.802,10.462
		L-968.435,476.652z M-904.407,477.476l30.802,10.462l-30.802,10.462l-30.801-10.462L-904.407,477.476z M-901.972,476.652
		l30.802-10.462l30.801,10.462l-30.801,10.462L-901.972,476.652z M-837.943,477.476l30.802,10.462l-30.802,10.462l-30.802-10.462
		L-837.943,477.476z M-835.518,476.652l30.802-10.462l30.801,10.462l-30.801,10.462L-835.518,476.652z M-771.48,477.476
		l30.802,10.462l-30.802,10.462l-30.811-10.462L-771.48,477.476z M-769.054,476.652l30.801-10.462l30.802,10.462l-30.802,10.462
		L-769.054,476.652z M-705.026,477.476l30.802,10.462l-30.802,10.457l-30.802-10.457L-705.026,477.476z M-702.601,476.652
		l30.811-10.462l30.801,10.462l-30.811,10.462L-702.601,476.652z M-638.563,477.476l30.802,10.462l-30.802,10.462l-30.802-10.462
		L-638.563,477.476z M-636.137,476.652l30.802-10.462l30.801,10.462l-30.801,10.462L-636.137,476.652z M-572.109,477.476
		l30.802,10.462l-30.802,10.462l-30.802-10.462L-572.109,477.476z M-569.674,476.652l30.802-10.462l30.802,10.462l-30.802,10.462
		L-569.674,476.652z M-505.645,477.476l30.802,10.462l-30.802,10.462l-30.802-10.462L-505.645,477.476z M-503.22,476.652
		l30.802-10.462l30.811,10.462l-30.811,10.462L-503.22,476.652z M-439.182,477.476l30.801,10.462l-30.801,10.462l-30.802-10.462
		L-439.182,477.476z M-405.955,488.763l30.802,10.457l-30.802,10.462l-30.801-10.457L-405.955,488.763z M-372.728,500.044
		l30.802,10.462l-30.802,10.462l-30.801-10.462L-372.728,500.044z M-339.492,511.332l30.802,10.462l-30.802,10.463l-30.802-10.463
		L-339.492,511.332z M-306.265,522.618l30.802,10.462l-30.802,10.462l-30.801-10.462L-306.265,522.618z M-273.038,533.905
		l30.801,10.462l-30.801,10.457l-30.802-10.457L-273.038,533.905z M-239.801,545.192L-209,555.649l-30.801,10.462l-30.811-10.462
		L-239.801,545.192z M-206.575,556.473l30.802,10.462l-30.802,10.462l-30.801-10.462L-206.575,556.473z M-206.575,579.047
		l30.802,10.462l-30.802,10.457l-30.801-10.457L-206.575,579.047z M-206.575,601.616l30.802,10.462l-30.802,10.463l-30.801-10.463
		L-206.575,601.616z M-206.575,624.189l30.802,10.462l-30.802,10.457l-30.801-10.457L-206.575,624.189z M-206.575,646.758
		l30.802,10.462l-30.802,10.462l-30.801-10.462L-206.575,646.758z M-206.575,669.332l30.802,10.462l-30.802,10.457l-30.801-10.457
		L-206.575,669.332z M-206.575,691.9l30.802,10.463l-30.802,10.462l-30.801-10.462L-206.575,691.9z M-206.575,714.474l30.802,10.463
		l-30.802,10.462l-30.801-10.462L-206.575,714.474z M-206.575,737.048l30.802,10.457l-30.802,10.463l-30.801-10.463
		L-206.575,737.048z M-206.575,759.616l30.802,10.463l-30.802,10.462l-30.801-10.462L-206.575,759.616z M-206.575,782.19
		l30.802,10.457l-30.802,10.463l-30.801-10.463L-206.575,782.19z M-209,803.933l-30.801,10.463l-30.811-10.463l30.802-10.462
		L-209,803.933z M-273.038,803.109l-30.802-10.463l30.802-10.457l30.801,10.457L-273.038,803.109z M-275.463,803.933l-30.802,10.463
		l-30.801-10.463l30.801-10.462L-275.463,803.933z M-339.492,803.109l-30.802-10.463l30.802-10.457l30.802,10.457L-339.492,803.109z
		 M-341.926,803.933l-30.802,10.463l-30.801-10.463l30.801-10.462L-341.926,803.933z M-405.955,803.109l-30.801-10.463
		l30.801-10.457l30.802,10.457L-405.955,803.109z M-408.38,803.933l-30.801,10.463l-30.802-10.463l30.802-10.462L-408.38,803.933z
		 M-472.418,803.109l-30.802-10.463l30.802-10.457l30.801,10.457L-472.418,803.109z M-474.844,803.933l-30.802,10.463
		l-30.802-10.463l30.802-10.462L-474.844,803.933z M-538.872,803.109l-30.802-10.463l30.802-10.457l30.802,10.457L-538.872,803.109z
		 M-541.297,803.933l-30.811,10.463l-30.802-10.463l30.802-10.462L-541.297,803.933z M-605.336,803.109l-30.802-10.463
		l30.802-10.457l30.801,10.457L-605.336,803.109z M-607.761,803.933l-30.802,10.463l-30.802-10.463l30.802-10.462L-607.761,803.933z
		 M-671.799,803.109l-30.801-10.463l30.811-10.457l30.801,10.457L-671.799,803.109z M-674.224,803.933l-30.802,10.463
		l-30.802-10.463l30.802-10.462L-674.224,803.933z M-738.253,803.109l-30.801-10.463l30.801-10.457l30.802,10.457L-738.253,803.109z
		 M-740.678,803.933l-30.802,10.463l-30.811-10.463l30.811-10.462L-740.678,803.933z M-804.716,803.109l-30.802-10.463
		l30.802-10.457l30.801,10.457L-804.716,803.109z M-807.142,803.933l-30.802,10.463l-30.802-10.463l30.802-10.462L-807.142,803.933z
		 M-871.17,803.109l-30.811-10.463l30.811-10.462l30.801,10.462L-871.17,803.109z M-873.605,803.933l-30.802,10.463l-30.801-10.463
		l30.801-10.462L-873.605,803.933z M-937.634,803.109l-30.802-10.463l30.802-10.457l30.802,10.457L-937.634,803.109z
		 M-940.059,803.933l-30.802,10.463l-30.801-10.463l30.801-10.462L-940.059,803.933z M-1004.097,803.109l-30.801-10.463
		l30.801-10.457l30.802,10.457L-1004.097,803.109z M-1004.097,780.541l-30.801-10.462l30.801-10.463l30.802,10.463
		L-1004.097,780.541z M-1004.097,757.967l-30.801-10.463l30.801-10.463l30.802,10.463L-1004.097,757.967z M-1004.097,735.393
		l-30.801-10.457l30.801-10.463l30.802,10.463L-1004.097,735.393z M-1004.097,712.825l-30.801-10.462l30.801-10.463l30.802,10.463
		L-1004.097,712.825z M-1004.097,690.251l-30.801-10.457l30.801-10.462l30.802,10.462L-1004.097,690.251z M-1004.097,667.683
		l-30.801-10.462l30.801-10.462l30.802,10.462L-1004.097,667.683z M-1004.097,645.109l-30.801-10.457l30.801-10.462l30.802,10.462
		L-1004.097,645.109z M-1004.097,622.541l-30.801-10.463l30.801-10.462l30.802,10.462L-1004.097,622.541z M-1004.097,599.967
		l-30.801-10.457l30.801-10.462l30.802,10.462L-1004.097,599.967z M-1004.097,577.398l-30.801-10.462l30.801-10.462l30.802,10.462
		L-1004.097,577.398z M-1004.097,554.825l-30.801-10.457l30.801-10.462l30.802,10.462L-1004.097,554.825z M-1004.097,532.256
		l-30.801-10.463l30.801-10.462l30.802,10.462L-1004.097,532.256z M-1004.097,509.682l-30.801-10.462l30.801-10.457l30.802,10.462
		L-1004.097,509.682z M-1004.097,487.114l-30.801-10.462l30.801-10.462l30.802,10.462L-1004.097,487.114z M-1004.097,464.54
		l-30.801-10.462l30.801-10.457l30.802,10.457L-1004.097,464.54z M-970.86,454.902l30.802,10.462l-30.802,10.462l-30.801-10.462
		L-970.86,454.902z M-968.435,454.078l30.802-10.457l30.802,10.457l-30.802,10.462L-968.435,454.078z M-904.407,454.902
		l30.802,10.462l-30.802,10.462l-30.801-10.462L-904.407,454.902z M-901.972,454.078l30.802-10.457l30.801,10.457l-30.801,10.462
		L-901.972,454.078z M-837.943,454.902l30.802,10.462l-30.802,10.462l-30.802-10.462L-837.943,454.902z M-835.518,454.078
		l30.802-10.457l30.801,10.457l-30.801,10.462L-835.518,454.078z M-771.48,454.902l30.802,10.462l-30.802,10.462l-30.802-10.462
		L-771.48,454.902z M-769.054,454.078l30.801-10.457l30.802,10.457l-30.802,10.462L-769.054,454.078z M-705.026,454.902
		l30.802,10.462l-30.802,10.462l-30.802-10.462L-705.026,454.902z M-702.601,454.078l30.811-10.457l30.801,10.457l-30.811,10.462
		L-702.601,454.078z M-638.563,454.902l30.802,10.462l-30.802,10.462l-30.802-10.462L-638.563,454.902z M-636.137,454.078
		l30.802-10.457l30.801,10.457l-30.801,10.462L-636.137,454.078z M-572.109,454.902l30.811,10.462l-30.811,10.462l-30.802-10.462
		L-572.109,454.902z M-569.674,454.078l30.802-10.457l30.802,10.457l-30.802,10.462L-569.674,454.078z M-505.645,454.902
		l30.802,10.462l-30.802,10.462l-30.802-10.462L-505.645,454.902z M-503.22,454.078l30.802-10.457l30.801,10.457l-30.801,10.462
		L-503.22,454.078z M-439.182,454.902l30.801,10.462l-30.801,10.462l-30.802-10.462L-439.182,454.902z M-405.955,466.189
		l30.802,10.462l-30.802,10.462l-30.801-10.462L-405.955,466.189z M-372.728,477.476l30.802,10.462l-30.802,10.457l-30.801-10.457
		L-372.728,477.476z M-339.492,488.763l30.802,10.462l-30.802,10.457l-30.802-10.462L-339.492,488.763z M-306.265,500.05
		l30.802,10.457l-30.802,10.462l-30.801-10.462L-306.265,500.05z M-273.038,511.332l30.801,10.462l-30.801,10.463l-30.802-10.463
		L-273.038,511.332z M-239.801,522.618L-209,533.081l-30.801,10.462l-30.802-10.462L-239.801,522.618z M-206.575,533.905
		l30.802,10.462l-30.802,10.457l-30.801-10.457L-206.575,533.905z M-173.348,545.192l30.801,10.457l-30.801,10.462l-30.801-10.462
		L-173.348,545.192z M-173.348,567.76l30.801,10.462l-30.801,10.462l-30.801-10.462L-173.348,567.76z M-173.348,590.334
		l30.801,10.457l-30.801,10.462l-30.801-10.462L-173.348,590.334z M-173.348,612.903l30.801,10.462l-30.801,10.463l-30.801-10.463
		L-173.348,612.903z M-173.348,635.476l30.801,10.457l-30.801,10.463l-30.801-10.463L-173.348,635.476z M-173.348,658.045
		l30.801,10.462l-30.801,10.463l-30.801-10.463L-173.348,658.045z M-173.348,680.619l30.801,10.457l-30.801,10.462l-30.801-10.462
		L-173.348,680.619z M-173.348,703.187l30.801,10.462l-30.801,10.463l-30.801-10.463L-173.348,703.187z M-173.348,725.761
		l30.801,10.462l-30.801,10.457l-30.801-10.457L-173.348,725.761z M-173.348,748.329l30.801,10.463l-30.801,10.462l-30.801-10.462
		L-173.348,748.329z M-173.348,770.903l30.801,10.462l-30.801,10.457l-30.801-10.462L-173.348,770.903z M-173.348,793.471
		l30.801,10.462l-30.801,10.463l-30.801-10.463L-173.348,793.471z M-173.348,816.045l30.801,10.462l-30.801,10.457l-30.801-10.457
		L-173.348,816.045z M-206.575,825.683l-30.801-10.462l30.801-10.462l30.802,10.462L-206.575,825.683z M-209,826.507l-30.801,10.457
		l-30.811-10.457l30.811-10.462L-209,826.507z M-273.038,825.683l-30.802-10.462l30.802-10.462l30.801,10.462L-273.038,825.683z
		 M-275.463,826.507l-30.802,10.457l-30.801-10.457l30.801-10.462L-275.463,826.507z M-339.492,825.683l-30.802-10.462
		l30.802-10.462l30.802,10.462L-339.492,825.683z M-341.926,826.507l-30.802,10.457l-30.801-10.457l30.801-10.462L-341.926,826.507z
		 M-405.955,825.683l-30.801-10.462l30.801-10.462l30.802,10.462L-405.955,825.683z M-408.38,826.507l-30.801,10.457l-30.802-10.457
		l30.802-10.462L-408.38,826.507z M-472.418,825.683l-30.802-10.462l30.802-10.462l30.801,10.462L-472.418,825.683z
		 M-474.844,826.507l-30.802,10.457l-30.802-10.457l30.802-10.462L-474.844,826.507z M-538.872,825.683l-30.802-10.462
		l30.802-10.462l30.802,10.462L-538.872,825.683z M-541.297,826.507l-30.811,10.457l-30.802-10.457l30.802-10.462L-541.297,826.507z
		 M-605.336,825.683l-30.802-10.462l30.802-10.462l30.801,10.462L-605.336,825.683z M-607.761,826.507l-30.802,10.457
		l-30.802-10.457l30.802-10.462L-607.761,826.507z M-671.799,825.683l-30.801-10.462l30.801-10.462l30.811,10.462L-671.799,825.683z
		 M-674.224,826.507l-30.802,10.457l-30.802-10.457l30.802-10.462L-674.224,826.507z M-738.253,825.683l-30.801-10.462
		l30.801-10.462l30.802,10.462L-738.253,825.683z M-740.678,826.507l-30.802,10.457l-30.811-10.457l30.811-10.462L-740.678,826.507z
		 M-804.716,825.683l-30.802-10.462l30.802-10.462l30.801,10.462L-804.716,825.683z M-807.142,826.507l-30.802,10.457
		l-30.802-10.457l30.802-10.462L-807.142,826.507z M-871.17,825.683l-30.802-10.462l30.802-10.462l30.801,10.462L-871.17,825.683z
		 M-873.605,826.507l-30.802,10.457l-30.801-10.457l30.801-10.462L-873.605,826.507z M-937.634,825.683l-30.802-10.462
		l30.802-10.462l30.802,10.462L-937.634,825.683z M-940.059,826.507l-30.802,10.457l-30.801-10.457l30.801-10.462L-940.059,826.507z
		 M-1004.097,825.683l-30.801-10.462l30.801-10.462l30.802,10.462L-1004.097,825.683z M-1006.522,826.507l-30.801,10.457
		l-30.802-10.457l30.802-10.462L-1006.522,826.507z M-1037.323,814.396l-30.802-10.463l30.802-10.462l30.801,10.462
		L-1037.323,814.396z M-1037.323,791.822l-30.802-10.457l30.802-10.462l30.801,10.462L-1037.323,791.822z M-1037.323,769.254
		l-30.802-10.462l30.802-10.463l30.801,10.463L-1037.323,769.254z M-1037.323,746.68l-30.802-10.462l30.802-10.457l30.801,10.457
		L-1037.323,746.68z M-1037.323,724.112l-30.802-10.463l30.802-10.462l30.801,10.462L-1037.323,724.112z M-1037.323,701.538
		l-30.802-10.457l30.802-10.463l30.801,10.457L-1037.323,701.538z M-1037.323,678.97l-30.802-10.463l30.802-10.462l30.801,10.462
		L-1037.323,678.97z M-1037.323,656.396l-30.802-10.463l30.802-10.457l30.801,10.457L-1037.323,656.396z M-1037.323,633.827
		l-30.802-10.463l30.802-10.462l30.801,10.462L-1037.323,633.827z M-1037.323,611.253l-30.802-10.462l30.802-10.457l30.801,10.457
		L-1037.323,611.253z M-1037.323,588.685l-30.802-10.462l30.802-10.462l30.801,10.462L-1037.323,588.685z M-1037.323,566.111
		l-30.802-10.462l30.802-10.457l30.801,10.457L-1037.323,566.111z M-1037.323,543.543l-30.802-10.462l30.802-10.462l30.801,10.462
		L-1037.323,543.543z M-1037.323,520.969l-30.802-10.462l30.802-10.462l30.801,10.462L-1037.323,520.969z M-1037.323,498.395
		l-30.802-10.457l30.802-10.462l30.801,10.462L-1037.323,498.395z M-1037.323,475.827l-30.802-10.462l30.802-10.462l30.801,10.462
		L-1037.323,475.827z M-1037.323,453.259l-30.802-10.462l30.802-10.462l30.801,10.462L-1037.323,453.259z M-1034.898,431.51
		l30.801-10.463l30.802,10.463l-30.802,10.462L-1034.898,431.51z M-970.86,432.334l30.802,10.462l-30.802,10.457l-30.801-10.457
		L-970.86,432.334z M-968.435,431.51l30.802-10.463l30.802,10.463l-30.802,10.462L-968.435,431.51z M-904.407,432.334l30.802,10.462
		l-30.802,10.457l-30.801-10.457L-904.407,432.334z M-901.972,431.51l30.802-10.463l30.801,10.463l-30.801,10.462L-901.972,431.51z
		 M-837.943,432.334l30.802,10.462l-30.802,10.457l-30.802-10.457L-837.943,432.334z M-835.518,431.51l30.802-10.463l30.801,10.463
		l-30.801,10.462L-835.518,431.51z M-771.48,432.334l30.802,10.462l-30.802,10.457l-30.811-10.457L-771.48,432.334z
		 M-769.054,431.51l30.801-10.463l30.802,10.463l-30.802,10.462L-769.054,431.51z M-705.026,432.334l30.802,10.462l-30.802,10.457
		l-30.802-10.457L-705.026,432.334z M-702.601,431.51l30.801-10.463l30.811,10.463l-30.801,10.462L-702.601,431.51z
		 M-638.563,432.334l30.802,10.462l-30.802,10.457l-30.802-10.457L-638.563,432.334z M-636.137,431.51l30.802-10.463l30.801,10.463
		l-30.801,10.462L-636.137,431.51z M-572.109,432.334l30.811,10.462l-30.811,10.457l-30.802-10.457L-572.109,432.334z
		 M-569.674,431.51l30.802-10.463l30.802,10.463l-30.802,10.462L-569.674,431.51z M-505.645,432.334l30.802,10.462l-30.802,10.457
		l-30.802-10.457L-505.645,432.334z M-503.22,431.51l30.802-10.463l30.801,10.463l-30.801,10.462L-503.22,431.51z M-439.182,432.334
		l30.801,10.462l-30.801,10.457l-30.802-10.457L-439.182,432.334z M-405.955,443.621l30.802,10.457l-30.802,10.462l-30.801-10.462
		L-405.955,443.621z M-372.728,454.902l30.802,10.462l-30.802,10.462l-30.801-10.462L-372.728,454.902z M-339.492,466.189
		l30.802,10.462l-30.802,10.462l-30.802-10.462L-339.492,466.189z M-306.265,477.476l30.802,10.462l-30.802,10.462l-30.801-10.462
		L-306.265,477.476z M-273.038,488.763l30.801,10.457l-30.801,10.462l-30.802-10.457L-273.038,488.763z M-239.801,500.044
		L-209,510.507l-30.801,10.462l-30.811-10.462L-239.801,500.044z M-206.575,511.332l30.802,10.462l-30.802,10.463l-30.801-10.463
		L-206.575,511.332z M-173.348,522.618l30.801,10.462l-30.801,10.462l-30.801-10.462L-173.348,522.618z M-140.111,533.905
		l30.801,10.462l-30.801,10.457l-30.811-10.457L-140.111,533.905z M-140.111,556.473l30.801,10.462l-30.801,10.462l-30.811-10.462
		L-140.111,556.473z M-140.111,579.047l30.801,10.462l-30.811,10.457l-30.801-10.457L-140.111,579.047z M-140.111,601.616
		l30.801,10.462l-30.801,10.463l-30.811-10.463L-140.111,601.616z M-140.111,624.189l30.801,10.462l-30.811,10.457l-30.801-10.457
		L-140.111,624.189z M-140.121,646.758l30.811,10.462l-30.801,10.462l-30.811-10.462L-140.121,646.758z M-140.111,669.332
		l30.801,10.462l-30.801,10.457l-30.811-10.457L-140.111,669.332z M-140.111,691.9l30.801,10.463l-30.811,10.462l-30.801-10.462
		L-140.111,691.9z M-140.111,714.474l30.801,10.463l-30.801,10.462l-30.811-10.462L-140.111,714.474z M-140.111,737.048
		l30.801,10.457l-30.811,10.463l-30.801-10.463L-140.111,737.048z M-140.121,759.616l30.811,10.463l-30.811,10.462l-30.801-10.462
		L-140.121,759.616z M-140.111,782.19l30.801,10.457l-30.801,10.463l-30.811-10.463L-140.111,782.19z M-140.111,804.758
		l30.801,10.462l-30.811,10.462l-30.801-10.462L-140.111,804.758z M-140.121,827.332l30.811,10.457l-30.801,10.462l-30.811-10.462
		L-140.121,827.332z M-142.546,849.076l-30.801,10.462l-30.801-10.462l30.801-10.463L-142.546,849.076z M-206.575,848.251
		l-30.801-10.462l30.801-10.457l30.802,10.457L-206.575,848.251z M-209,849.076l-30.801,10.462l-30.811-10.462l30.802-10.463
		L-209,849.076z M-273.038,848.251l-30.802-10.462l30.802-10.457l30.801,10.457L-273.038,848.251z M-275.463,849.076l-30.802,10.462
		l-30.801-10.462l30.801-10.463L-275.463,849.076z M-339.492,848.251l-30.802-10.462l30.802-10.457l30.802,10.457L-339.492,848.251z
		 M-341.926,849.076l-30.802,10.462l-30.801-10.462l30.801-10.463L-341.926,849.076z M-405.955,848.251l-30.801-10.462
		l30.801-10.457l30.802,10.457L-405.955,848.251z M-408.38,849.076l-30.801,10.462l-30.802-10.462l30.802-10.463L-408.38,849.076z
		 M-472.418,848.251l-30.802-10.462l30.802-10.457l30.801,10.457L-472.418,848.251z M-474.844,849.076l-30.802,10.462
		l-30.802-10.462l30.802-10.463L-474.844,849.076z M-538.872,848.251l-30.802-10.462l30.802-10.457l30.802,10.457L-538.872,848.251z
		 M-541.307,849.076l-30.802,10.462l-30.802-10.462l30.802-10.463L-541.307,849.076z M-605.336,848.251l-30.802-10.462
		l30.802-10.457l30.801,10.457L-605.336,848.251z M-607.761,849.076l-30.802,10.462l-30.802-10.462l30.802-10.463L-607.761,849.076z
		 M-671.789,848.251l-30.811-10.462l30.801-10.457l30.811,10.457L-671.789,848.251z M-674.224,849.076l-30.802,10.462
		l-30.802-10.462l30.802-10.463L-674.224,849.076z M-738.253,848.251l-30.801-10.462l30.801-10.457l30.802,10.457L-738.253,848.251z
		 M-740.678,849.076l-30.802,10.462l-30.811-10.462l30.811-10.463L-740.678,849.076z M-804.716,848.251l-30.802-10.462
		l30.802-10.457l30.801,10.457L-804.716,848.251z M-807.142,849.076l-30.802,10.462l-30.802-10.462l30.802-10.463L-807.142,849.076z
		 M-871.17,848.251l-30.811-10.462l30.811-10.457l30.801,10.457L-871.17,848.251z M-873.605,849.076l-30.802,10.462l-30.801-10.462
		l30.801-10.463L-873.605,849.076z M-937.634,848.251l-30.802-10.462l30.802-10.457l30.802,10.457L-937.634,848.251z
		 M-940.059,849.076l-30.802,10.462l-30.801-10.462l30.801-10.463L-940.059,849.076z M-1004.097,848.251l-30.801-10.462
		l30.801-10.457l30.802,10.457L-1004.097,848.251z M-1006.522,849.076l-30.801,10.462l-30.802-10.462l30.802-10.463
		L-1006.522,849.076z M-1070.551,848.251l-30.801-10.462l30.801-10.457l30.802,10.457L-1070.551,848.251z M-1070.551,825.683
		l-30.801-10.462l30.801-10.462l30.802,10.462L-1070.551,825.683z M-1070.551,803.109l-30.801-10.463l30.801-10.457l30.802,10.457
		L-1070.551,803.109z M-1070.551,780.541l-30.801-10.462l30.801-10.463l30.802,10.463L-1070.551,780.541z M-1070.551,757.967
		l-30.801-10.463l30.801-10.463l30.802,10.463L-1070.551,757.967z M-1070.551,735.399l-30.801-10.462l30.801-10.463l30.802,10.463
		L-1070.551,735.399z M-1070.551,712.825l-30.801-10.462l30.801-10.463l30.802,10.463L-1070.551,712.825z M-1070.551,690.256
		l-30.801-10.462l30.801-10.462l30.802,10.462L-1070.551,690.256z M-1070.551,667.683l-30.801-10.462l30.801-10.462l30.802,10.462
		L-1070.551,667.683z M-1070.551,645.109l-30.801-10.457l30.801-10.462l30.802,10.462L-1070.551,645.109z M-1070.551,622.541
		l-30.801-10.463l30.801-10.462l30.802,10.462L-1070.551,622.541z M-1070.551,599.967l-30.801-10.457l30.801-10.462l30.802,10.462
		L-1070.551,599.967z M-1070.551,577.398l-30.801-10.462l30.801-10.462l30.802,10.462L-1070.551,577.398z M-1070.551,554.825
		l-30.801-10.457l30.801-10.462l30.802,10.462L-1070.551,554.825z M-1070.551,532.256l-30.801-10.463l30.801-10.462l30.802,10.462
		L-1070.551,532.256z M-1070.551,509.682l-30.801-10.457l30.801-10.462l30.802,10.457L-1070.551,509.682z M-1070.551,487.114
		l-30.801-10.462l30.801-10.462l30.802,10.462L-1070.551,487.114z M-1070.551,464.54l-30.801-10.462l30.801-10.457l30.802,10.457
		L-1070.551,464.54z M-1070.551,441.972l-30.801-10.462l30.801-10.463l30.802,10.463L-1070.551,441.972z M-1070.551,419.398
		l-30.801-10.462l30.801-10.457l30.802,10.457L-1070.551,419.398z M-1037.323,409.76l30.801,10.463l-30.801,10.462l-30.802-10.462
		L-1037.323,409.76z M-1034.898,408.936l30.801-10.457l30.802,10.457l-30.802,10.462L-1034.898,408.936z M-970.86,409.76
		l30.802,10.463l-30.802,10.462l-30.801-10.462L-970.86,409.76z M-968.435,408.936l30.802-10.457l30.802,10.457l-30.802,10.462
		L-968.435,408.936z M-904.407,409.76l30.802,10.463l-30.802,10.462l-30.801-10.462L-904.407,409.76z M-901.972,408.936
		l30.802-10.457l30.801,10.457l-30.801,10.462L-901.972,408.936z M-837.943,409.76l30.802,10.463l-30.802,10.462l-30.802-10.462
		L-837.943,409.76z M-835.518,408.936l30.802-10.457l30.801,10.457l-30.801,10.462L-835.518,408.936z M-771.48,409.76l30.802,10.463
		l-30.802,10.462l-30.811-10.462L-771.48,409.76z M-769.054,408.936l30.801-10.457l30.802,10.457l-30.802,10.462L-769.054,408.936z
		 M-705.026,409.76l30.802,10.463l-30.802,10.462l-30.802-10.462L-705.026,409.76z M-702.601,408.936l30.811-10.457l30.801,10.457
		l-30.811,10.462L-702.601,408.936z M-638.563,409.76l30.802,10.463l-30.802,10.462l-30.802-10.462L-638.563,409.76z
		 M-636.137,408.936l30.802-10.457l30.801,10.457l-30.801,10.462L-636.137,408.936z M-572.109,409.76l30.811,10.463l-30.811,10.462
		l-30.802-10.462L-572.109,409.76z M-569.674,408.936l30.802-10.457l30.802,10.457l-30.802,10.462L-569.674,408.936z
		 M-505.645,409.76l30.802,10.463l-30.802,10.462l-30.802-10.462L-505.645,409.76z M-503.22,408.936l30.802-10.457l30.801,10.457
		l-30.801,10.462L-503.22,408.936z M-439.182,409.76l30.801,10.463l-30.801,10.462l-30.802-10.462L-439.182,409.76z
		 M-405.955,421.047l30.802,10.463l-30.802,10.462l-30.801-10.462L-405.955,421.047z M-372.728,432.334l30.802,10.462
		l-30.802,10.457l-30.801-10.457L-372.728,432.334z M-339.492,443.621l30.802,10.457l-30.802,10.462l-30.802-10.462
		L-339.492,443.621z M-306.265,454.902l30.802,10.462l-30.802,10.462l-30.801-10.462L-306.265,454.902z M-273.038,466.189
		l30.801,10.462l-30.801,10.462l-30.802-10.462L-273.038,466.189z M-239.801,477.476L-209,487.939l-30.801,10.462l-30.811-10.462
		L-239.801,477.476z M-206.575,488.763l30.802,10.462l-30.802,10.457l-30.801-10.457L-206.575,488.763z M-173.348,500.05
		l30.801,10.457l-30.801,10.462l-30.801-10.462L-173.348,500.05z M-140.111,511.332l30.801,10.462l-30.811,10.463l-30.801-10.463
		L-140.111,511.332z M-106.884,522.618l30.801,10.462l-30.801,10.462l-30.801-10.462L-106.884,522.618z M-106.884,545.192
		l30.801,10.457l-30.801,10.462l-30.801-10.462L-106.884,545.192z M-106.884,567.76l30.801,10.462l-30.801,10.462l-30.801-10.462
		L-106.884,567.76z M-106.884,590.334l30.801,10.457l-30.801,10.462l-30.801-10.462L-106.884,590.334z M-106.884,612.903
		l30.801,10.462l-30.801,10.463l-30.801-10.463L-106.884,612.903z M-106.884,635.476l30.801,10.457l-30.801,10.463l-30.801-10.463
		L-106.884,635.476z M-106.884,658.045l30.801,10.462l-30.801,10.463l-30.801-10.463L-106.884,658.045z M-106.884,680.619
		l30.801,10.457l-30.801,10.462l-30.801-10.462L-106.884,680.619z M-106.884,703.187l30.801,10.462l-30.801,10.463l-30.801-10.463
		L-106.884,703.187z M-106.884,725.761l30.801,10.457l-30.801,10.462l-30.801-10.462L-106.884,725.761z M-106.884,748.329
		l30.801,10.463l-30.801,10.462l-30.801-10.462L-106.884,748.329z M-106.884,770.903l30.801,10.462l-30.801,10.457l-30.801-10.457
		L-106.884,770.903z M-106.884,793.471l30.801,10.462l-30.801,10.463l-30.801-10.463L-106.884,793.471z M-106.884,816.045
		l30.801,10.462l-30.801,10.457l-30.801-10.457L-106.884,816.045z M-106.884,838.613l30.801,10.463l-30.801,10.462l-30.801-10.462
		L-106.884,838.613z M-106.884,861.187l30.801,10.463l-30.801,10.457l-30.801-10.457L-106.884,861.187z M-140.121,870.825
		l-30.801-10.462l30.811-10.462l30.801,10.462L-140.121,870.825z M-142.546,871.649l-30.801,10.457l-30.801-10.457l30.801-10.463
		L-142.546,871.649z M-206.575,870.825l-30.801-10.462l30.801-10.462l30.802,10.462L-206.575,870.825z M-209,871.649l-30.801,10.457
		l-30.802-10.457l30.802-10.463L-209,871.649z M-273.038,870.825l-30.802-10.462l30.802-10.462l30.801,10.462L-273.038,870.825z
		 M-275.463,871.649l-30.802,10.457l-30.801-10.457l30.801-10.463L-275.463,871.649z M-339.492,870.825l-30.802-10.462
		l30.802-10.462l30.802,10.462L-339.492,870.825z M-341.926,871.649l-30.802,10.457l-30.801-10.457l30.801-10.463L-341.926,871.649z
		 M-405.955,870.825l-30.801-10.462l30.801-10.462l30.802,10.462L-405.955,870.825z M-408.38,871.649l-30.801,10.457l-30.802-10.457
		l30.802-10.463L-408.38,871.649z M-472.418,870.825l-30.802-10.462l30.802-10.462l30.801,10.462L-472.418,870.825z
		 M-474.844,871.649l-30.802,10.457l-30.802-10.457l30.802-10.463L-474.844,871.649z M-538.872,870.825l-30.802-10.462
		l30.802-10.462l30.802,10.462L-538.872,870.825z M-541.297,871.649l-30.811,10.457l-30.802-10.457l30.802-10.463L-541.297,871.649z
		 M-605.336,870.825l-30.802-10.462l30.802-10.462l30.801,10.462L-605.336,870.825z M-607.761,871.649l-30.802,10.457
		l-30.802-10.457l30.802-10.463L-607.761,871.649z M-671.799,870.825l-30.801-10.462l30.811-10.462l30.801,10.462L-671.799,870.825z
		 M-674.224,871.649l-30.802,10.457l-30.802-10.457l30.802-10.463L-674.224,871.649z M-738.253,870.825l-30.801-10.462
		l30.801-10.462l30.802,10.462L-738.253,870.825z M-740.678,871.649l-30.802,10.457l-30.811-10.457l30.811-10.463L-740.678,871.649z
		 M-804.716,870.825l-30.802-10.462l30.802-10.462l30.801,10.462L-804.716,870.825z M-807.142,871.649l-30.802,10.457
		l-30.802-10.457l30.802-10.463L-807.142,871.649z M-871.17,870.825l-30.802-10.462l30.802-10.462l30.801,10.462L-871.17,870.825z
		 M-873.605,871.649l-30.802,10.457l-30.801-10.457l30.801-10.463L-873.605,871.649z M-937.634,870.825l-30.802-10.462
		l30.802-10.462l30.802,10.462L-937.634,870.825z M-940.059,871.649l-30.802,10.457l-30.801-10.457l30.801-10.463L-940.059,871.649z
		 M-1004.097,870.825l-30.801-10.462l30.801-10.462l30.802,10.462L-1004.097,870.825z M-1006.522,871.649l-30.801,10.457
		l-30.802-10.457l30.802-10.463L-1006.522,871.649z M-1070.551,870.825l-30.801-10.462l30.801-10.462l30.802,10.462
		L-1070.551,870.825z M-1072.976,871.649l-30.811,10.457l-30.802-10.457l30.802-10.463L-1072.976,871.649z M-1103.787,859.538
		l-30.802-10.462l30.802-10.463l30.802,10.463L-1103.787,859.538z M-1103.787,836.964l-30.802-10.457l30.802-10.462l30.811,10.462
		L-1103.787,836.964z M-1103.787,814.396l-30.802-10.463l30.802-10.462l30.811,10.462L-1103.787,814.396z M-1103.787,791.822
		l-30.802-10.457l30.802-10.462l30.802,10.462L-1103.787,791.822z M-1103.787,769.254l-30.802-10.462l30.802-10.463l30.811,10.463
		L-1103.787,769.254z M-1103.787,746.68l-30.802-10.462l30.802-10.457l30.802,10.457L-1103.787,746.68z M-1103.787,724.112
		l-30.802-10.463l30.802-10.462l30.811,10.462L-1103.787,724.112z M-1103.787,701.538l-30.802-10.462l30.802-10.457l30.811,10.457
		L-1103.787,701.538z M-1103.787,678.97l-30.802-10.463l30.802-10.462l30.802,10.462L-1103.787,678.97z M-1103.787,656.396
		l-30.802-10.463l30.802-10.457l30.811,10.457L-1103.787,656.396z M-1103.787,633.827l-30.802-10.463l30.802-10.462l30.802,10.462
		L-1103.787,633.827z M-1103.787,611.253l-30.802-10.462l30.802-10.457l30.811,10.457L-1103.787,611.253z M-1103.787,588.685
		l-30.802-10.462l30.802-10.462l30.811,10.462L-1103.787,588.685z M-1103.787,566.111l-30.802-10.462l30.802-10.457l30.802,10.457
		L-1103.787,566.111z M-1103.787,543.543l-30.802-10.462l30.802-10.462l30.811,10.462L-1103.787,543.543z M-1103.787,520.969
		l-30.802-10.462l30.802-10.457l30.802,10.457L-1103.787,520.969z M-1103.787,498.401l-30.802-10.462l30.802-10.462l30.811,10.462
		L-1103.787,498.401z M-1103.787,475.827l-30.802-10.462l30.802-10.462l30.811,10.462L-1103.787,475.827z M-1103.787,453.253
		l-30.802-10.457l30.802-10.462l30.802,10.462L-1103.787,453.253z M-1103.787,430.685l-30.802-10.462l30.802-10.463l30.811,10.463
		L-1103.787,430.685z M-1103.787,408.111l-30.802-10.457l30.802-10.463l30.811,10.463L-1103.787,408.111z M-1101.352,386.368
		l30.801-10.462l30.802,10.462l-30.802,10.462L-1101.352,386.368z M-1037.323,387.192l30.801,10.463l-30.801,10.457l-30.802-10.457
		L-1037.323,387.192z M-1034.898,386.368l30.801-10.462l30.802,10.462l-30.802,10.462L-1034.898,386.368z M-970.86,387.192
		l30.802,10.463l-30.802,10.457l-30.801-10.457L-970.86,387.192z M-968.435,386.368l30.802-10.462l30.802,10.462l-30.802,10.462
		L-968.435,386.368z M-904.407,387.192l30.802,10.463l-30.802,10.457l-30.801-10.457L-904.407,387.192z M-901.972,386.368
		l30.802-10.462l30.801,10.462l-30.801,10.462L-901.972,386.368z M-837.943,387.192l30.802,10.463l-30.802,10.457l-30.802-10.457
		L-837.943,387.192z M-835.518,386.368l30.802-10.462l30.801,10.462l-30.801,10.462L-835.518,386.368z M-771.48,387.192
		l30.802,10.463l-30.802,10.457l-30.802-10.457L-771.48,387.192z M-769.054,386.368l30.801-10.462l30.802,10.462l-30.802,10.462
		L-769.054,386.368z M-705.026,387.192l30.802,10.463l-30.802,10.457l-30.802-10.457L-705.026,387.192z M-702.601,386.368
		l30.801-10.462l30.811,10.462l-30.811,10.462L-702.601,386.368z M-638.563,387.192l30.802,10.463l-30.802,10.457l-30.802-10.457
		L-638.563,387.192z M-636.137,386.368l30.802-10.462l30.801,10.462l-30.801,10.462L-636.137,386.368z M-572.109,387.192
		l30.811,10.463l-30.811,10.457l-30.802-10.457L-572.109,387.192z M-569.674,386.368l30.802-10.462l30.802,10.462l-30.802,10.462
		L-569.674,386.368z M-505.645,387.192l30.802,10.463l-30.802,10.457l-30.802-10.457L-505.645,387.192z M-503.22,386.368
		l30.802-10.462l30.801,10.462l-30.801,10.462L-503.22,386.368z M-439.182,387.192l30.801,10.463l-30.801,10.457l-30.802-10.457
		L-439.182,387.192z M-405.955,398.479l30.802,10.457l-30.802,10.462l-30.801-10.462L-405.955,398.479z M-372.728,409.76
		l30.802,10.463l-30.802,10.462l-30.801-10.462L-372.728,409.76z M-339.492,421.047l30.802,10.463l-30.802,10.462l-30.802-10.462
		L-339.492,421.047z M-306.265,432.334l30.802,10.462l-30.802,10.457l-30.801-10.457L-306.265,432.334z M-273.038,443.621
		l30.801,10.457l-30.801,10.462l-30.802-10.462L-273.038,443.621z M-239.801,454.902L-209,465.365l-30.801,10.462l-30.811-10.462
		L-239.801,454.902z M-206.575,466.189l30.802,10.462l-30.802,10.462l-30.801-10.462L-206.575,466.189z M-173.348,477.476
		l30.801,10.462l-30.801,10.462l-30.801-10.462L-173.348,477.476z M-140.111,488.763l30.801,10.462l-30.801,10.457l-30.811-10.457
		L-140.111,488.763z M-106.884,500.05l30.801,10.457l-30.801,10.462l-30.801-10.462L-106.884,500.05z M-73.657,511.332
		l30.802,10.462l-30.802,10.463l-30.802-10.463L-73.657,511.332z M-73.657,533.905l30.802,10.462l-30.802,10.457l-30.802-10.457
		L-73.657,533.905z M-73.657,556.473l30.802,10.462l-30.802,10.462l-30.802-10.462L-73.657,556.473z M-73.657,579.047l30.802,10.462
		l-30.802,10.457l-30.802-10.457L-73.657,579.047z M-73.657,601.616l30.802,10.462l-30.802,10.463l-30.802-10.463L-73.657,601.616z
		 M-73.657,624.189l30.802,10.462l-30.802,10.457l-30.802-10.457L-73.657,624.189z M-73.657,646.758l30.802,10.462l-30.802,10.462
		l-30.802-10.462L-73.657,646.758z M-73.657,669.332l30.802,10.462l-30.802,10.457l-30.802-10.457L-73.657,669.332z M-73.657,691.9
		l30.802,10.463l-30.802,10.462l-30.802-10.462L-73.657,691.9z M-73.657,714.474l30.802,10.463l-30.802,10.457l-30.802-10.457
		L-73.657,714.474z M-73.657,737.042l30.802,10.463l-30.802,10.463l-30.802-10.463L-73.657,737.042z M-73.657,759.616l30.802,10.463
		l-30.802,10.462l-30.802-10.462L-73.657,759.616z M-73.657,782.19l30.802,10.457l-30.802,10.463l-30.802-10.463L-73.657,782.19z
		 M-73.657,804.758l30.802,10.462l-30.802,10.462l-30.802-10.462L-73.657,804.758z M-73.657,827.332l30.802,10.457l-30.802,10.462
		l-30.802-10.462L-73.657,827.332z M-73.657,849.9l30.802,10.462l-30.802,10.462l-30.802-10.462L-73.657,849.9z M-73.657,872.474
		l30.802,10.457l-30.802,10.462l-30.802-10.462L-73.657,872.474z M-76.083,894.218l-30.801,10.462l-30.801-10.462l30.801-10.463
		L-76.083,894.218z M-140.121,893.393l-30.801-10.462l30.801-10.457l30.811,10.457L-140.121,893.393z M-142.546,894.218
		l-30.801,10.462l-30.801-10.462l30.801-10.463L-142.546,894.218z M-206.575,893.393l-30.801-10.462l30.801-10.457l30.802,10.457
		L-206.575,893.393z M-209,894.218l-30.801,10.462l-30.802-10.462l30.802-10.463L-209,894.218z M-273.038,893.393l-30.802-10.462
		l30.802-10.457l30.801,10.457L-273.038,893.393z M-275.463,894.218l-30.802,10.462l-30.801-10.462l30.801-10.463L-275.463,894.218z
		 M-339.492,893.393l-30.802-10.462l30.802-10.457l30.802,10.457L-339.492,893.393z M-341.926,894.218l-30.802,10.462
		l-30.801-10.462l30.801-10.463L-341.926,894.218z M-405.955,893.393l-30.801-10.462l30.801-10.457l30.802,10.457L-405.955,893.393z
		 M-408.38,894.218l-30.801,10.462l-30.802-10.462l30.802-10.463L-408.38,894.218z M-472.418,893.393l-30.802-10.462l30.802-10.457
		l30.801,10.457L-472.418,893.393z M-474.844,894.218l-30.802,10.462l-30.802-10.462l30.802-10.463L-474.844,894.218z
		 M-538.872,893.393l-30.802-10.462l30.802-10.457l30.802,10.457L-538.872,893.393z M-541.297,894.218l-30.811,10.462
		l-30.802-10.462l30.802-10.463L-541.297,894.218z M-605.336,893.393l-30.802-10.462l30.802-10.457l30.801,10.457L-605.336,893.393z
		 M-607.761,894.218l-30.802,10.462l-30.802-10.462l30.802-10.463L-607.761,894.218z M-671.789,893.393l-30.811-10.462
		l30.801-10.457l30.811,10.457L-671.789,893.393z M-674.224,894.218l-30.802,10.462l-30.802-10.462l30.802-10.463L-674.224,894.218z
		 M-738.253,893.393l-30.801-10.462l30.801-10.457l30.802,10.457L-738.253,893.393z M-740.678,894.218l-30.802,10.462
		l-30.811-10.462l30.811-10.463L-740.678,894.218z M-804.716,893.393l-30.802-10.462l30.802-10.457l30.801,10.457L-804.716,893.393z
		 M-807.142,894.218l-30.802,10.462l-30.802-10.462l30.802-10.463L-807.142,894.218z M-871.17,893.393l-30.802-10.462l30.802-10.457
		l30.801,10.457L-871.17,893.393z M-873.605,894.218l-30.802,10.462l-30.801-10.462l30.801-10.463L-873.605,894.218z
		 M-937.634,893.393l-30.802-10.462l30.802-10.457l30.802,10.457L-937.634,893.393z M-940.059,894.218l-30.802,10.462
		l-30.801-10.462l30.801-10.463L-940.059,894.218z M-1004.097,893.393l-30.801-10.462l30.801-10.457l30.802,10.457
		L-1004.097,893.393z M-1006.522,894.218l-30.801,10.462l-30.802-10.462l30.802-10.463L-1006.522,894.218z M-1070.551,893.393
		l-30.801-10.462l30.801-10.457l30.802,10.457L-1070.551,893.393z M-1072.985,894.218l-30.802,10.462l-30.802-10.462l30.802-10.463
		L-1072.985,894.218z M-1137.014,893.393l-30.802-10.462l30.802-10.457l30.802,10.457L-1137.014,893.393z M-1137.014,870.825
		l-30.802-10.462l30.802-10.462l30.802,10.462L-1137.014,870.825z M-1137.014,848.251l-30.802-10.462l30.802-10.457l30.802,10.457
		L-1137.014,848.251z M-1137.014,825.683l-30.802-10.462l30.802-10.462l30.802,10.462L-1137.014,825.683z M-1137.014,803.109
		l-30.802-10.463l30.802-10.457l30.802,10.457L-1137.014,803.109z M-1137.014,780.541l-30.802-10.462l30.802-10.463l30.802,10.463
		L-1137.014,780.541z M-1137.014,757.967l-30.802-10.463l30.802-10.463l30.802,10.463L-1137.014,757.967z M-1137.014,735.399
		l-30.802-10.462l30.802-10.463l30.802,10.463L-1137.014,735.399z M-1137.014,712.825l-30.802-10.462l30.802-10.463l30.802,10.463
		L-1137.014,712.825z M-1137.014,690.251l-30.802-10.457l30.802-10.462l30.802,10.462L-1137.014,690.251z M-1137.014,667.683
		l-30.802-10.462l30.802-10.462l30.802,10.462L-1137.014,667.683z M-1137.014,645.109l-30.802-10.457l30.802-10.462l30.802,10.462
		L-1137.014,645.109z M-1137.014,622.541l-30.802-10.463l30.802-10.462l30.802,10.462L-1137.014,622.541z M-1137.014,599.967
		l-30.802-10.457l30.802-10.462l30.802,10.462L-1137.014,599.967z M-1137.014,577.398l-30.802-10.462l30.802-10.462l30.802,10.462
		L-1137.014,577.398z M-1137.014,554.825l-30.802-10.457l30.802-10.462l30.802,10.462L-1137.014,554.825z M-1137.014,532.256
		l-30.802-10.463l30.802-10.462l30.802,10.462L-1137.014,532.256z M-1137.014,509.682l-30.802-10.457l30.802-10.462l30.802,10.462
		L-1137.014,509.682z M-1137.014,487.114l-30.802-10.462l30.802-10.462l30.802,10.462L-1137.014,487.114z M-1137.014,464.54
		l-30.802-10.462l30.802-10.457l30.802,10.457L-1137.014,464.54z M-1137.014,441.972l-30.802-10.462l30.802-10.463l30.802,10.463
		L-1137.014,441.972z M-1137.014,419.398l-30.802-10.462l30.802-10.457l30.802,10.457L-1137.014,419.398z M-1137.014,396.83
		l-30.802-10.462l30.802-10.462l30.802,10.462L-1137.014,396.83z M-1103.787,364.618l30.811,10.463l-30.811,10.462l-30.802-10.462
		L-1103.787,364.618z M-1039.749,363.794l-30.802,10.462l-30.801-10.462l30.801-10.457L-1039.749,363.794z M-1037.323,364.618
		l30.801,10.463l-30.801,10.462l-30.802-10.462L-1037.323,364.618z M-973.295,363.794l-30.802,10.462l-30.801-10.462l30.801-10.457
		L-973.295,363.794z M-970.86,364.618l30.802,10.463l-30.802,10.462l-30.801-10.462L-970.86,364.618z M-906.832,363.794
		l-30.802,10.462l-30.802-10.462l30.802-10.457L-906.832,363.794z M-904.407,364.618l30.802,10.463l-30.802,10.462l-30.801-10.462
		L-904.407,364.618z M-840.369,363.794l-30.801,10.462l-30.802-10.462l30.802-10.457L-840.369,363.794z M-837.943,364.618
		l30.802,10.463l-30.802,10.462l-30.802-10.462L-837.943,364.618z M-773.915,363.794l-30.801,10.462l-30.802-10.462l30.802-10.457
		L-773.915,363.794z M-771.48,364.618l30.802,10.463l-30.802,10.462l-30.811-10.462L-771.48,364.618z M-707.451,363.794
		l-30.802,10.462l-30.801-10.462l30.801-10.457L-707.451,363.794z M-705.026,364.618l30.802,10.463l-30.802,10.462l-30.802-10.462
		L-705.026,364.618z M-640.988,363.794l-30.811,10.462l-30.801-10.462l30.811-10.457L-640.988,363.794z M-638.563,364.618
		l30.802,10.463l-30.802,10.462l-30.802-10.462L-638.563,364.618z M-574.534,363.794l-30.801,10.462l-30.802-10.462l30.802-10.457
		L-574.534,363.794z M-572.109,364.618l30.802,10.463l-30.802,10.462l-30.802-10.462L-572.109,364.618z M-508.071,363.794
		l-30.802,10.462l-30.802-10.462l30.802-10.457L-508.071,363.794z M-505.645,364.618l30.802,10.463l-30.802,10.462l-30.802-10.462
		L-505.645,364.618z M-441.617,363.794l-30.801,10.462l-30.802-10.462l30.802-10.457L-441.617,363.794z M-408.38,375.081
		l-30.801,10.462l-30.802-10.462l30.802-10.463L-408.38,375.081z M-375.153,386.368l-30.802,10.462l-30.801-10.462l30.801-10.462
		L-375.153,386.368z M-341.926,397.654l-30.802,10.457l-30.801-10.457l30.801-10.463L-341.926,397.654z M-308.69,408.936
		l-30.802,10.462l-30.802-10.462l30.802-10.457L-308.69,408.936z M-275.463,420.223l-30.802,10.462l-30.801-10.462l30.801-10.463
		L-275.463,420.223z M-242.236,431.51l-30.801,10.462l-30.802-10.462l30.802-10.463L-242.236,431.51z M-209,442.797l-30.801,10.457
		l-30.802-10.457l30.802-10.462L-209,442.797z M-175.773,454.078l-30.802,10.462l-30.801-10.462l30.801-10.457L-175.773,454.078z
		 M-142.546,465.365l-30.801,10.462l-30.801-10.462l30.801-10.462L-142.546,465.365z M-109.309,476.652l-30.801,10.462
		l-30.811-10.462l30.811-10.462L-109.309,476.652z M-76.083,487.939l-30.801,10.462l-30.801-10.462l30.801-10.462L-76.083,487.939z
		 M-42.856,499.22l-30.802,10.462l-30.802-10.457l30.802-10.462L-42.856,499.22z M-40.43,520.969l-30.802-10.462l30.802-10.462
		l30.811,10.462L-40.43,520.969z M-40.43,543.543l-30.802-10.462l30.802-10.462l30.811,10.462L-40.43,543.543z M-40.43,566.111
		l-30.802-10.462l30.802-10.457l30.811,10.457L-40.43,566.111z M-40.43,588.685l-30.802-10.462l30.802-10.462l30.811,10.462
		L-40.43,588.685z M-40.43,611.253l-30.802-10.462l30.802-10.457l30.802,10.457L-40.43,611.253z M-40.43,633.827l-30.802-10.463
		l30.802-10.462l30.811,10.462L-40.43,633.827z M-40.43,656.396l-30.802-10.463l30.802-10.457l30.802,10.457L-40.43,656.396z
		 M-40.43,678.97l-30.802-10.463l30.802-10.462l30.811,10.462L-40.43,678.97z M-40.43,701.538l-30.802-10.462l30.802-10.457
		l30.811,10.457L-40.43,701.538z M-40.43,724.112l-30.802-10.463l30.802-10.462l30.802,10.462L-40.43,724.112z M-40.43,746.68
		l-30.802-10.462l30.802-10.457l30.811,10.457L-40.43,746.68z M-40.43,769.254l-30.802-10.462l30.802-10.463l30.802,10.463
		L-40.43,769.254z M-40.43,791.822l-30.802-10.457l30.802-10.462l30.811,10.462L-40.43,791.822z M-40.43,814.396l-30.802-10.463
		l30.802-10.462l30.802,10.462L-40.43,814.396z M-40.43,836.964l-30.802-10.457l30.802-10.462l30.811,10.462L-40.43,836.964z
		 M-40.43,859.538l-30.802-10.462l30.802-10.463l30.811,10.463L-40.43,859.538z M-40.43,882.106l-30.802-10.457l30.802-10.463
		l30.802,10.463L-40.43,882.106z M-40.43,904.68l-30.802-10.462l30.802-10.463l30.811,10.463L-40.43,904.68z M-71.232,916.792
		l30.802-10.462l30.802,10.462l-30.802,10.457L-71.232,916.792z M-73.657,915.967l-30.802-10.462l30.802-10.462l30.802,10.462
		L-73.657,915.967z M-137.686,916.792l30.801-10.462l30.801,10.462l-30.801,10.457L-137.686,916.792z M-140.111,915.967
		l-30.811-10.462l30.811-10.462l30.801,10.462L-140.111,915.967z M-204.149,916.792l30.801-10.462l30.801,10.462l-30.801,10.457
		L-204.149,916.792z M-206.575,915.967l-30.801-10.462l30.801-10.462l30.802,10.462L-206.575,915.967z M-270.613,916.792
		l30.811-10.462L-209,916.792l-30.801,10.457L-270.613,916.792z M-273.038,915.967l-30.802-10.462l30.802-10.462l30.801,10.462
		L-273.038,915.967z M-337.066,916.792l30.801-10.462l30.802,10.462l-30.802,10.457L-337.066,916.792z M-339.492,915.967
		l-30.802-10.462l30.802-10.462l30.802,10.462L-339.492,915.967z M-403.53,916.792l30.801-10.462l30.802,10.462l-30.802,10.457
		L-403.53,916.792z M-405.955,915.967l-30.801-10.462l30.801-10.462l30.802,10.462L-405.955,915.967z M-469.983,916.792
		l30.802-10.462l30.801,10.462l-30.801,10.457L-469.983,916.792z M-472.418,915.967l-30.802-10.462l30.802-10.462l30.801,10.462
		L-472.418,915.967z M-536.447,916.792l30.802-10.462l30.802,10.462l-30.802,10.457L-536.447,916.792z M-538.872,915.967
		l-30.802-10.462l30.802-10.462l30.802,10.462L-538.872,915.967z M-602.91,916.792l30.802-10.462l30.802,10.462l-30.802,10.457
		L-602.91,916.792z M-605.336,915.967l-30.802-10.462l30.802-10.462l30.801,10.462L-605.336,915.967z M-669.364,916.792
		l30.802-10.462l30.802,10.462l-30.802,10.457L-669.364,916.792z M-671.799,915.967l-30.801-10.462l30.811-10.462l30.801,10.462
		L-671.799,915.967z M-735.828,916.792l30.802-10.462l30.802,10.462l-30.802,10.457L-735.828,916.792z M-738.253,915.967
		l-30.801-10.462l30.801-10.462l30.802,10.462L-738.253,915.967z M-802.291,916.792l30.811-10.462l30.802,10.462l-30.802,10.457
		L-802.291,916.792z M-804.716,915.967l-30.802-10.462l30.802-10.462l30.801,10.462L-804.716,915.967z M-868.745,916.792
		l30.802-10.462l30.802,10.462l-30.802,10.457L-868.745,916.792z M-871.17,915.967l-30.811-10.462l30.811-10.462l30.801,10.462
		L-871.17,915.967z M-935.208,916.792l30.801-10.462l30.802,10.462l-30.802,10.457L-935.208,916.792z M-937.634,915.967
		l-30.802-10.462l30.802-10.462l30.802,10.462L-937.634,915.967z M-1001.662,916.792l30.801-10.462l30.802,10.462l-30.802,10.457
		L-1001.662,916.792z M-1004.097,915.967l-30.801-10.462l30.801-10.462l30.802,10.462L-1004.097,915.967z M-1068.125,916.792
		l30.802-10.462l30.801,10.462l-30.801,10.457L-1068.125,916.792z M-1070.551,915.967l-30.801-10.462l30.801-10.462l30.802,10.462
		L-1070.551,915.967z M-1134.589,916.792l30.802-10.462l30.811,10.462l-30.811,10.457L-1134.589,916.792z M-1137.014,915.967
		l-30.802-10.462l30.802-10.462l30.802,10.462L-1137.014,915.967z M-1170.241,906.329l30.802,10.462l-30.802,10.457l-30.802-10.457
		L-1170.241,906.329z M-1170.241,883.755l30.802,10.463l-30.802,10.462l-30.802-10.462L-1170.241,883.755z M-1170.241,861.187
		l30.802,10.463l-30.802,10.457l-30.802-10.457L-1170.241,861.187z M-1170.241,838.613l30.802,10.463l-30.802,10.462l-30.802-10.462
		L-1170.241,838.613z M-1170.241,816.045l30.802,10.462l-30.802,10.457l-30.802-10.457L-1170.241,816.045z M-1170.241,793.471
		l30.802,10.462l-30.802,10.463l-30.802-10.463L-1170.241,793.471z M-1170.241,770.903l30.802,10.462l-30.802,10.457l-30.802-10.457
		L-1170.241,770.903z M-1170.241,748.329l30.802,10.463l-30.802,10.462l-30.802-10.462L-1170.241,748.329z M-1170.241,725.761
		l30.802,10.457l-30.802,10.462l-30.802-10.457L-1170.241,725.761z M-1170.241,703.187l30.802,10.462l-30.802,10.463l-30.802-10.463
		L-1170.241,703.187z M-1170.241,680.619l30.802,10.457l-30.802,10.462l-30.802-10.462L-1170.241,680.619z M-1170.241,658.045
		l30.802,10.462l-30.802,10.463l-30.802-10.463L-1170.241,658.045z M-1170.241,635.476l30.802,10.457l-30.802,10.463l-30.802-10.463
		L-1170.241,635.476z M-1170.241,612.903l30.802,10.462l-30.802,10.463l-30.802-10.463L-1170.241,612.903z M-1170.241,590.334
		l30.802,10.457l-30.802,10.462l-30.802-10.462L-1170.241,590.334z M-1170.241,567.76l30.802,10.462l-30.802,10.462l-30.802-10.462
		L-1170.241,567.76z M-1170.241,545.192l30.802,10.457l-30.802,10.462l-30.802-10.462L-1170.241,545.192z M-1170.241,522.618
		l30.802,10.462l-30.802,10.462l-30.802-10.462L-1170.241,522.618z M-1170.241,500.044l30.802,10.462l-30.802,10.462l-30.802-10.462
		L-1170.241,500.044z M-1170.241,477.476l30.802,10.462l-30.802,10.462l-30.802-10.462L-1170.241,477.476z M-1170.241,454.902
		l30.802,10.462l-30.802,10.462l-30.802-10.462L-1170.241,454.902z M-1170.241,432.334l30.802,10.462l-30.802,10.457l-30.802-10.457
		L-1170.241,432.334z M-1170.241,409.76l30.802,10.463l-30.802,10.462l-30.802-10.462L-1170.241,409.76z M-1170.241,387.192
		l30.802,10.463l-30.802,10.457l-30.802-10.457L-1170.241,387.192z M-1170.241,364.618l30.802,10.463l-30.802,10.462l-30.802-10.462
		L-1170.241,364.618z M4.225,891.617l-0.669,0.343h0.669V891.617z"/>
</g>
<linearGradient id="SVGID_4_" gradientUnits="userSpaceOnUse" x1="54.5765" y1="491.9415" x2="1078.3497" y2="491.9415">
	<stop  offset="0" style="stop-color:#E23D28"/>
	<stop  offset="0.0093" style="stop-color:#E23D28"/>
	<stop  offset="0.2809" style="stop-color:#E23D28"/>
	<stop  offset="0.8782" style="stop-color:#F06929"/>
</linearGradient>
<path fill="url(#SVGID_4_)" d="M494.974,847.03c23.777,9.794,51.747,12.073,77.757,6.338l156.492-34.51
	c26.009-5.736,53.979-3.456,77.757,6.337L1078.35,936.97v-58.527V657.555V261.04L755.974,144.375
	c-28.146-10.186-61.255-12.557-92.043-6.591l-185.245,35.892c-30.788,5.965-63.897,3.594-92.043-6.591L54.576,46.913v618.723
	L494.974,847.03z"/>
</svg>
