<?xml version="1.0" encoding="utf-8"?>
<!-- Generator: Adobe Illustrator 17.0.0, SVG Export Plug-In . SVG Version: 6.00 Build 0)  -->
<!DOCTYPE svg PUBLIC "-//W3C//DTD SVG 1.1//EN" "http://www.w3.org/Graphics/SVG/1.1/DTD/svg11.dtd">
<svg version="1.1" id="Layer_1" xmlns="http://www.w3.org/2000/svg" xmlns:xlink="http://www.w3.org/1999/xlink" x="0px" y="0px"
	 width="1149.115px" height="983.883px" viewBox="0 0 1149.115 983.883" enable-background="new 0 0 1149.115 983.883"
	 xml:space="preserve">
<linearGradient id="SVGID_1_" gradientUnits="userSpaceOnUse" x1="69.2534" y1="486.2141" x2="1093.2534" y2="486.2141">
	<stop  offset="0" style="stop-color:#1C3852"/>
	<stop  offset="0.0441" style="stop-color:#1D3B58"/>
	<stop  offset="0.2428" style="stop-color:#204572"/>
	<stop  offset="0.4286" style="stop-color:#1F4C86"/>
	<stop  offset="0.5951" style="stop-color:#1D5092"/>
	<stop  offset="0.7258" style="stop-color:#1B5297"/>
</linearGradient>
<path fill="url(#SVGID_1_)" d="M574.996,734.546c25.966-5.82,53.889-3.507,77.627,6.43l440.63,184.452V47h-1024v602.316
	L341.138,763.13c23.738,9.937,51.661,12.25,77.627,6.43L574.996,734.546z"/>
<g>
	<defs>
		<path id="SVGID_2_" d="M576.483,734.546c25.985-5.82,53.928-3.507,77.683,6.43l440.948,184.452V47H70.374v602.316L342.456,763.13
			c23.755,9.937,51.698,12.25,77.683,6.43L576.483,734.546z"/>
	</defs>
	<clipPath id="SVGID_3_">
		<use xlink:href="#SVGID_2_"  overflow="visible"/>
	</clipPath>
	
		<linearGradient id="SVGID_4_" gradientUnits="userSpaceOnUse" x1="-2378.2202" y1="797.5513" x2="-2378.2202" y2="443.5398" gradientTransform="matrix(-1 0 0 1 -1750.1818 0)">
		<stop  offset="0" style="stop-color:#293B83"/>
		<stop  offset="1" style="stop-color:#344C96;stop-opacity:0"/>
	</linearGradient>
	<path opacity="0.5" clip-path="url(#SVGID_3_)" fill="url(#SVGID_4_)" fill-opacity="0.8" d="M17.615,891.961l-13.029-6.684v2.489
		l8.178,4.196H17.615z M38.656,353.337l30.802,10.457l-30.802,10.462L9.727,364.43v1.649l26.494,9.001l-26.494,9.001v1.649
		l28.929-9.826l30.802,10.462L38.647,396.83l-28.92-9.826v1.649l26.494,9.001L9.727,406.65v1.649l28.92-9.82l30.811,10.457
		l-30.811,10.462l-28.92-9.826v1.649l26.494,9.001l-26.494,9.001v1.649l28.92-9.826l30.811,10.463l-30.802,10.462l-28.929-9.826
		v1.649l26.494,9.001l-26.494,8.995v1.649l28.92-9.82l30.811,10.457L38.647,464.54l-28.92-9.826v1.649l26.494,9.001l-26.494,9.001
		v1.649l28.92-9.826l30.811,10.462l-30.811,10.462l-28.92-9.826v1.649l26.494,9.001L9.727,496.94v1.649l28.92-9.826l30.811,10.457
		l-30.811,10.462l-28.92-9.82v1.649l26.494,8.995l-26.494,9.001v1.649l28.92-9.826l30.811,10.462l-30.811,10.463l-28.92-9.826v1.649
		l26.494,9.001l-26.494,9.001v1.649l28.92-9.826l30.811,10.462l-30.811,10.457l-28.92-9.82v1.649l26.494,8.995L9.727,564.65v1.649
		l28.92-9.826l30.811,10.462l-30.811,10.462l-28.92-9.826v1.649l26.494,9.001l-26.494,9.001v1.649l28.92-9.826l30.811,10.462
		l-30.811,10.457l-28.92-9.82v1.649l26.494,8.995l-26.494,9.001v1.649l28.92-9.826l30.811,10.462l-30.811,10.463l-28.92-9.826v1.649
		l26.494,9.001l-26.494,9.001v1.649l28.92-9.826l30.811,10.462l-30.811,10.457l-28.92-9.82v1.649l26.494,8.995l-26.494,9.001v1.649
		l28.92-9.826l30.811,10.462l-30.811,10.462l-28.92-9.826v1.649l26.494,9.001l-26.494,9.001v1.649l28.92-9.826l30.811,10.462
		l-30.811,10.457l-28.92-9.82v1.649l26.494,8.995l-26.494,9.001v1.649l28.92-9.826l30.811,10.463l-30.811,10.462l-28.92-9.826v1.649
		l26.494,9.001L9.727,722.65v1.649l28.92-9.826l30.811,10.463l-30.811,10.462l-28.92-9.826v1.649l26.494,9.001l-26.494,8.996v1.649
		l28.92-9.82l30.811,10.457l-30.811,10.463l-28.92-9.826v1.649l26.494,9.001l-26.494,9.001v1.649l28.92-9.826l30.811,10.463
		l-30.811,10.462l-28.92-9.826v1.649l26.494,9.001l-26.494,8.995v1.649l28.92-9.826l30.811,10.462l-30.811,10.463l-28.92-9.826
		v1.649l26.494,9.001l-26.494,9.001v1.649l28.92-9.826l30.811,10.462l-30.811,10.462l-28.92-9.826v1.649l26.494,9.001l-26.494,8.995
		v1.649l28.92-9.82l30.811,10.457l-30.811,10.462l-28.92-9.826v1.649l26.494,9.001l-26.494,9.001v1.649l28.92-9.826l30.811,10.462
		l-30.811,10.462l-28.92-9.826v1.649l26.494,9.001l-26.494,8.995v1.649l28.92-9.82l30.801,10.457l-30.801,10.462l-28.92-9.826v1.649
		l26.494,9.001l-26.494,9.001v1.649l28.92-9.826l30.811,10.462l-30.811,10.462l-28.92-9.826v1.649l26.494,9.001l-26.494,8.995v1.649
		l28.92-9.82l30.811,10.457l-14.921,5.066h4.86l12.486-4.242l12.485,4.242h4.851l-14.911-5.066l30.801-10.457l30.801,10.457
		l-14.911,5.066h4.851l12.486-4.242l12.495,4.242h4.85l-14.911-5.066l30.801-10.457l30.802,10.457l-14.911,5.066h4.851l12.486-4.242
		l12.485,4.242h4.851l-14.911-5.066l30.801-10.457l30.802,10.457l-14.911,5.066h4.86l12.486-4.242l12.486,4.242h4.851l-14.911-5.066
		l30.801-10.457l30.802,10.457l-14.911,5.066h4.85l12.486-4.242l12.486,4.242h4.86l-14.911-5.066l30.802-10.457l30.801,10.457
		l-14.911,5.066h4.851l12.486-4.242l12.486,4.242h4.85l-14.911-5.066l30.802-10.457l30.801,10.457l-14.911,5.066h4.85l12.495-4.242
		l12.486,4.242h4.851l-14.911-5.066l30.801-10.457l30.802,10.457l-14.911,5.066h4.851l12.485-4.242l12.486,4.242h4.851
		l-14.911-5.066l30.801-10.457l30.811,10.457l-14.92,5.066h4.86l12.485-4.242l12.485,4.242h4.851l-14.911-5.066l30.802-10.457
		l30.801,10.457l-14.911,5.066h4.851l12.486-4.242l12.495,4.242h4.85l-14.911-5.066l30.802-10.457l30.802,10.457l-14.911,5.066h4.85
		l12.485-4.242l12.486,4.242h4.851l-14.911-5.066l30.802-10.457l30.811,10.457l-14.921,5.066h4.86l12.486-4.242l12.485,4.242h4.851
		l-14.911-5.066l30.802-10.457l30.802,10.457l-14.911,5.066h4.85l12.486-4.242l12.486,4.242h4.86l-14.911-5.066l30.802-10.457
		l30.802,10.457l-14.911,5.066h4.851l12.485-4.242l12.486,4.242h4.85l-14.911-5.066l30.802-10.457l30.801,10.457l-14.911,5.066
		h4.851l12.495-4.242l12.485,4.242h4.851l-14.911-5.066l30.801-10.457l30.802,10.457l-14.911,5.066h4.85l12.486-4.242l12.485,4.242
		h4.86l-14.921-5.066l30.811-10.457l30.801,10.457l-14.911,5.066h4.851l12.486-4.242l12.485,4.242h4.851l-14.911-5.066
		l30.802-10.457l30.802,10.457l-14.911,5.066h4.851l12.485-4.242l12.495,4.242h4.851l-14.911-5.066l30.801-10.457l16.56,5.624
		v-1.649l-14.135-4.799l14.135-4.799v-1.649l-16.56,5.624l-30.801-10.462l30.801-10.462l16.56,5.623v-1.649l-14.135-4.799
		l14.135-4.799v-1.649l-16.56,5.624l-30.801-10.462l30.801-10.457l16.56,5.624v-1.649l-14.135-4.799l14.135-4.799v-1.649
		l-16.56,5.623l-30.801-10.462l30.801-10.462l16.56,5.624v-1.649l-14.135-4.799l14.135-4.799v-1.649l-16.56,5.623l-30.801-10.462
		l30.801-10.457l16.56,5.624v-1.649l-14.135-4.799l14.135-4.799v-1.649l-16.56,5.624l-30.801-10.462l30.801-10.462l16.56,5.624
		v-1.649l-14.135-4.799l14.135-4.799v-1.649l-16.56,5.624l-30.801-10.463l30.801-10.457l16.56,5.624v-1.649l-14.135-4.799
		l14.135-4.799v-1.649l-16.56,5.624l-30.801-10.462l30.801-10.463l16.56,5.624v-1.649l-14.135-4.799l14.135-4.799v-1.649
		l-16.56,5.624l-30.801-10.463l30.801-10.463l16.56,5.624v-1.649l-14.135-4.799l14.135-4.799v-1.649l-16.56,5.624l-30.801-10.457
		l30.801-10.463l16.56,5.624v-1.649l-14.135-4.799l14.135-4.799v-1.649l-16.56,5.624l-30.801-10.462l30.801-10.463l16.56,5.624
		v-1.649l-14.135-4.799l14.135-4.799v-1.649l-16.56,5.624l-30.801-10.457l30.801-10.462l16.56,5.623v-1.649l-14.135-4.799
		l14.135-4.799v-1.649l-16.56,5.624l-30.801-10.462l30.801-10.462l16.56,5.623v-1.649l-14.135-4.799l14.135-4.799v-1.649
		l-16.56,5.624l-30.801-10.457l30.801-10.462l16.56,5.624v-1.649l-14.135-4.799l14.135-4.799v-1.649l-16.56,5.624l-30.801-10.463
		l30.801-10.462l16.56,5.623v-1.649l-14.135-4.799l14.135-4.799v-1.649l-16.56,5.624l-30.801-10.457l30.801-10.462l16.56,5.624
		v-1.649l-14.135-4.799l14.135-4.799v-1.649l-16.56,5.624l-30.801-10.462l30.801-10.462l16.56,5.624v-1.649l-14.135-4.799
		l14.135-4.799v-1.649l-16.56,5.624l-30.801-10.457l30.801-10.462l16.56,5.624v-1.649l-14.135-4.799l14.135-4.799v-1.649
		l-16.56,5.624l-30.801-10.463l30.801-10.462l16.56,5.623v-1.649l-14.135-4.799l14.135-4.799v-1.649l-16.56,5.624l-30.801-10.462
		l47.361-16.086v-1.649l-49.797,16.91l-30.802-10.457l80.598-27.373v-1.649l-83.023,28.197l-30.802-10.462l113.825-38.66v-1.643
		l-116.25,39.479l-30.802-10.462l147.052-49.941v-1.649l-149.477,50.766l-30.811-10.462l180.288-61.228v-1.649l-182.714,62.052
		l-30.802-10.457l213.515-72.515v-1.649l-215.941,73.34l-30.801-10.462l237.409-80.629h-4.85l-234.984,79.805l-30.802-10.462
		l204.173-69.342h-4.86l-201.748,68.518l-30.802-10.462l170.946-58.055h-4.86L935.86,408.111l-30.802-10.457l137.719-46.774h-4.851
		l-135.294,45.95l-30.802-10.462l104.492-35.487h-4.86l-102.067,34.663l-30.802-10.462l71.256-24.2H905l-68.831,23.376
		l-30.802-10.462l38.019-12.913h-4.851l-35.594,12.089l-30.802-10.457l4.802-1.632h-4.86l-2.377,0.807l-2.377-0.807h-4.851
		l4.802,1.632l-30.802,10.457l-30.802-10.457l4.802-1.632h-4.851l-2.377,0.807l-2.377-0.807h-4.851l4.802,1.632l-30.812,10.457
		l-30.802-10.457l4.802-1.632h-4.85l-2.377,0.807l-2.377-0.807h-4.851l4.802,1.632l-30.802,10.457l-30.802-10.457l4.802-1.632
		h-4.851l-2.377,0.807l-2.377-0.807h-4.86l4.802,1.632l-30.802,10.457l-30.802-10.457l4.802-1.632h-4.851l-2.377,0.807l-2.377-0.807
		h-4.851l4.802,1.632l-30.802,10.457l-30.811-10.457l4.802-1.632h-4.851l-2.377,0.807l-2.377-0.807h-4.85l4.802,1.632
		l-30.801,10.457l-30.802-10.457l4.802-1.632h-4.851l-2.377,0.807l-2.377-0.807h-4.86l4.802,1.632l-30.802,10.457l-30.801-10.457
		l4.802-1.632h-4.851l-2.377,0.807l-2.377-0.807h-4.851l4.802,1.632l-30.802,10.457l-30.801-10.457l4.802-1.632h-4.86l-2.377,0.807
		l-2.377-0.807H230.8l4.802,1.632l-30.801,10.457l-30.802-10.457l4.802-1.632h-4.851l-2.377,0.807l-2.377-0.807h-4.86l4.802,1.632
		l-30.802,10.457l-30.801-10.457l4.802-1.632h-4.85l-2.377,0.807l-2.377-0.807h-4.851l4.802,1.632l-30.801,10.457l-30.802-10.457
		l4.802-1.632h-4.861l-2.377,0.807l-2.377-0.807h-4.851l4.802,1.632l-26.494,8.995v1.649L38.656,353.337z M135.912,363.794
		l-30.801,10.462l-30.801-10.462l30.801-10.457L135.912,363.794z M769.706,645.109l-30.802-10.457l30.802-10.462l30.801,10.462
		L769.706,645.109z M802.942,635.476l30.802,10.457l-30.802,10.463l-30.802-10.463L802.942,635.476z M767.28,645.933l-30.802,10.463
		l-30.802-10.463l30.802-10.457L767.28,645.933z M703.252,645.109l-30.802-10.457l30.802-10.462l30.802,10.462L703.252,645.109z
		 M700.827,645.933l-30.812,10.463l-30.802-10.463l30.802-10.457L700.827,645.933z M636.789,645.109l-30.802-10.457l30.802-10.462
		l30.801,10.462L636.789,645.109z M634.363,645.933l-30.802,10.463l-30.802-10.463l30.802-10.457L634.363,645.933z M570.325,645.109
		l-30.801-10.457l30.811-10.462l30.801,10.462L570.325,645.109z M567.9,645.933l-30.802,10.463l-30.802-10.463l30.802-10.457
		L567.9,645.933z M503.871,645.109l-30.801-10.457l30.801-10.462l30.802,10.462L503.871,645.109z M501.446,645.933l-30.802,10.463
		l-30.811-10.463l30.811-10.457L501.446,645.933z M470.644,633.827l-30.811-10.463l30.811-10.462l30.802,10.462L470.644,633.827z
		 M473.07,612.078l30.801-10.462l30.802,10.462l-30.802,10.463L473.07,612.078z M537.098,612.903l30.802,10.462l-30.802,10.463
		l-30.802-10.463L537.098,612.903z M539.523,612.078l30.801-10.462l30.811,10.462l-30.801,10.463L539.523,612.078z M603.562,612.903
		l30.802,10.462l-30.802,10.463l-30.802-10.463L603.562,612.903z M605.987,612.078l30.802-10.462l30.801,10.462l-30.801,10.463
		L605.987,612.078z M670.015,612.903l30.812,10.462l-30.812,10.463l-30.802-10.463L670.015,612.903z M672.451,612.078l30.802-10.462
		l30.802,10.462l-30.802,10.463L672.451,612.078z M736.479,612.903l30.802,10.462l-30.802,10.463l-30.802-10.463L736.479,612.903z
		 M738.904,612.078l30.802-10.462l30.801,10.462l-30.801,10.463L738.904,612.078z M802.942,612.903l30.802,10.462l-30.802,10.463
		l-30.802-10.463L802.942,612.903z M836.169,624.189l30.802,10.462l-30.802,10.457l-30.802-10.457L836.169,624.189z
		 M836.169,646.758l30.802,10.462l-30.802,10.462l-30.802-10.462L836.169,646.758z M833.744,668.507l-30.802,10.463l-30.802-10.463
		l30.802-10.462L833.744,668.507z M769.706,667.683l-30.802-10.462l30.802-10.462l30.801,10.462L769.706,667.683z M767.28,668.507
		l-30.802,10.463l-30.802-10.463l30.802-10.462L767.28,668.507z M703.252,667.683l-30.802-10.462l30.802-10.462l30.802,10.462
		L703.252,667.683z M700.817,668.507l-30.802,10.463l-30.802-10.463l30.802-10.462L700.817,668.507z M636.789,667.683
		l-30.802-10.462l30.802-10.462l30.801,10.462L636.789,667.683z M634.363,668.507l-30.802,10.463l-30.802-10.463l30.802-10.462
		L634.363,668.507z M570.335,667.683l-30.811-10.462l30.801-10.462l30.811,10.462L570.335,667.683z M567.9,668.507l-30.802,10.463
		l-30.802-10.463l30.802-10.462L567.9,668.507z M503.871,667.683L473.07,657.22l30.801-10.462l30.802,10.462L503.871,667.683z
		 M501.446,668.507l-30.802,10.463l-30.811-10.463l30.811-10.462L501.446,668.507z M437.408,667.683l-30.802-10.462l30.802-10.462
		l30.801,10.462L437.408,667.683z M437.408,645.109l-30.802-10.457l30.802-10.462l30.801,10.462L437.408,645.109z M437.408,622.541
		l-30.802-10.463l30.802-10.462l30.801,10.462L437.408,622.541z M437.408,599.967l-30.802-10.457l30.802-10.462l30.801,10.462
		L437.408,599.967z M470.644,590.334l30.802,10.457l-30.802,10.462l-30.811-10.462L470.644,590.334z M473.07,589.51l30.801-10.462
		l30.802,10.462l-30.802,10.457L473.07,589.51z M537.098,590.334l30.802,10.457l-30.802,10.462l-30.802-10.462L537.098,590.334z
		 M539.523,589.51l30.801-10.462l30.811,10.462l-30.811,10.457L539.523,589.51z M603.562,590.334l30.802,10.457l-30.802,10.462
		l-30.802-10.462L603.562,590.334z M605.987,589.51l30.802-10.462l30.801,10.462l-30.801,10.457L605.987,589.51z M670.015,590.334
		l30.812,10.457l-30.812,10.462l-30.802-10.462L670.015,590.334z M672.451,589.51l30.802-10.462l30.802,10.462l-30.802,10.457
		L672.451,589.51z M736.479,590.334l30.802,10.457l-30.802,10.462l-30.802-10.462L736.479,590.334z M738.904,589.51l30.802-10.462
		l30.801,10.462l-30.801,10.457L738.904,589.51z M802.942,590.334l30.802,10.457l-30.802,10.462l-30.802-10.462L802.942,590.334z
		 M836.169,601.616l30.802,10.462l-30.802,10.463l-30.802-10.463L836.169,601.616z M869.396,612.903l30.802,10.462l-30.802,10.463
		l-30.802-10.463L869.396,612.903z M869.396,635.476l30.802,10.457l-30.802,10.463l-30.802-10.463L869.396,635.476z
		 M869.396,658.045l30.802,10.462l-30.802,10.463l-30.802-10.463L869.396,658.045z M869.396,680.619l30.802,10.457l-30.802,10.462
		l-30.802-10.462L869.396,680.619z M836.169,690.251l-30.802-10.457l30.802-10.462l30.802,10.462L836.169,690.251z M833.744,691.075
		l-30.802,10.462l-30.802-10.462l30.802-10.457L833.744,691.075z M769.706,690.251l-30.802-10.457l30.802-10.462l30.801,10.462
		L769.706,690.251z M767.28,691.075l-30.802,10.462l-30.802-10.462l30.802-10.457L767.28,691.075z M703.252,690.251l-30.802-10.457
		l30.802-10.462l30.802,10.462L703.252,690.251z M700.827,691.075l-30.812,10.462l-30.802-10.462l30.802-10.457L700.827,691.075z
		 M636.789,690.251l-30.802-10.457l30.802-10.462l30.801,10.462L636.789,690.251z M634.363,691.075l-30.802,10.462l-30.802-10.462
		l30.802-10.457L634.363,691.075z M570.325,690.251l-30.801-10.457l30.811-10.462l30.801,10.462L570.325,690.251z M567.9,691.075
		l-30.802,10.462l-30.802-10.462l30.802-10.457L567.9,691.075z M503.871,690.251l-30.801-10.457l30.801-10.462l30.802,10.462
		L503.871,690.251z M501.446,691.075l-30.802,10.462l-30.811-10.462l30.811-10.457L501.446,691.075z M437.408,690.251
		l-30.802-10.457l30.802-10.462l30.801,10.462L437.408,690.251z M434.983,691.075l-30.801,10.462l-30.802-10.462l30.802-10.457
		L434.983,691.075z M404.181,678.97l-30.802-10.463l30.802-10.462l30.801,10.462L404.181,678.97z M404.181,656.396l-30.802-10.463
		l30.802-10.457l30.801,10.457L404.181,656.396z M404.181,633.827l-30.802-10.463l30.802-10.462l30.801,10.462L404.181,633.827z
		 M404.181,611.253l-30.802-10.462l30.802-10.457l30.801,10.457L404.181,611.253z M404.181,588.685l-30.802-10.462l30.802-10.462
		l30.801,10.462L404.181,588.685z M406.606,566.936l30.802-10.462l30.801,10.462l-30.801,10.462L406.606,566.936z M470.644,567.76
		l30.802,10.462l-30.802,10.462l-30.801-10.462L470.644,567.76z M473.07,566.936l30.801-10.462l30.802,10.462l-30.802,10.462
		L473.07,566.936z M537.098,567.76l30.802,10.462l-30.802,10.462l-30.802-10.462L537.098,567.76z M539.523,566.936l30.811-10.462
		l30.801,10.462l-30.811,10.462L539.523,566.936z M603.562,567.76l30.802,10.462l-30.802,10.462l-30.802-10.462L603.562,567.76z
		 M605.987,566.936l30.802-10.462l30.801,10.462l-30.801,10.462L605.987,566.936z M670.015,567.76l30.812,10.462l-30.812,10.462
		l-30.802-10.462L670.015,567.76z M672.451,566.936l30.802-10.462l30.802,10.462l-30.802,10.462L672.451,566.936z M736.479,567.76
		l30.802,10.462l-30.802,10.462l-30.802-10.462L736.479,567.76z M738.904,566.936l30.802-10.462l30.801,10.462l-30.801,10.462
		L738.904,566.936z M802.942,567.76l30.802,10.462l-30.802,10.462l-30.802-10.462L802.942,567.76z M836.169,579.047l30.802,10.462
		l-30.802,10.457l-30.802-10.457L836.169,579.047z M869.396,590.334l30.802,10.457l-30.802,10.462l-30.802-10.462L869.396,590.334z
		 M902.633,601.616l30.802,10.462l-30.802,10.463l-30.802-10.463L902.633,601.616z M902.633,624.189l30.802,10.462l-30.802,10.457
		l-30.802-10.457L902.633,624.189z M902.633,646.758l30.802,10.462l-30.802,10.462l-30.802-10.462L902.633,646.758z
		 M902.633,669.332l30.802,10.462l-30.802,10.457l-30.802-10.457L902.633,669.332z M902.633,691.9l30.802,10.463l-30.802,10.462
		l-30.802-10.462L902.633,691.9z M900.198,713.649l-30.802,10.463l-30.802-10.463l30.802-10.462L900.198,713.649z M836.169,712.825
		l-30.802-10.462l30.802-10.463l30.802,10.463L836.169,712.825z M833.744,713.649l-30.802,10.463l-30.802-10.463l30.802-10.462
		L833.744,713.649z M769.706,712.825l-30.802-10.462l30.802-10.463l30.801,10.463L769.706,712.825z M767.28,713.649l-30.802,10.463
		l-30.802-10.463l30.802-10.462L767.28,713.649z M703.252,712.825l-30.802-10.462l30.802-10.463l30.802,10.463L703.252,712.825z
		 M700.827,713.649l-30.812,10.463l-30.802-10.463l30.802-10.462L700.827,713.649z M636.789,712.825l-30.802-10.462l30.802-10.463
		l30.801,10.463L636.789,712.825z M634.363,713.649l-30.802,10.463l-30.802-10.463l30.802-10.462L634.363,713.649z M570.325,712.825
		l-30.801-10.462l30.801-10.463l30.802,10.463L570.325,712.825z M567.9,713.649l-30.802,10.463l-30.802-10.463l30.802-10.462
		L567.9,713.649z M503.871,712.825l-30.801-10.462l30.801-10.463l30.802,10.463L503.871,712.825z M501.446,713.649l-30.802,10.463
		l-30.811-10.463l30.811-10.462L501.446,713.649z M437.408,712.825l-30.802-10.462l30.802-10.463l30.801,10.463L437.408,712.825z
		 M434.983,713.649l-30.801,10.463l-30.802-10.463l30.802-10.462L434.983,713.649z M370.954,712.825l-30.802-10.462l30.802-10.463
		l30.801,10.463L370.954,712.825z M370.954,690.251l-30.811-10.457l30.811-10.462l30.801,10.462L370.954,690.251z M370.954,667.683
		l-30.802-10.462l30.802-10.462l30.801,10.462L370.954,667.683z M370.954,645.109l-30.802-10.457l30.802-10.462l30.801,10.462
		L370.954,645.109z M370.954,622.541l-30.811-10.463l30.811-10.462l30.801,10.462L370.954,622.541z M370.954,599.967l-30.802-10.457
		l30.802-10.462l30.801,10.462L370.954,599.967z M370.954,577.398l-30.811-10.462l30.811-10.462l30.801,10.462L370.954,577.398z
		 M370.954,554.825l-30.802-10.457l30.802-10.462l30.801,10.462L370.954,554.825z M404.181,545.192l30.801,10.457l-30.801,10.462
		l-30.802-10.462L404.181,545.192z M406.606,544.368l30.802-10.462l30.801,10.462l-30.801,10.457L406.606,544.368z M470.644,545.192
		l30.802,10.457l-30.802,10.462l-30.811-10.462L470.644,545.192z M473.07,544.368l30.801-10.462l30.802,10.462l-30.802,10.457
		L473.07,544.368z M537.098,545.192l30.802,10.457l-30.802,10.462l-30.802-10.462L537.098,545.192z M539.523,544.368l30.801-10.462
		l30.811,10.462l-30.801,10.457L539.523,544.368z M603.562,545.192l30.802,10.457l-30.802,10.462l-30.802-10.462L603.562,545.192z
		 M605.987,544.368l30.802-10.462l30.801,10.462l-30.801,10.457L605.987,544.368z M670.015,545.192l30.802,10.457l-30.802,10.462
		l-30.802-10.462L670.015,545.192z M672.451,544.368l30.802-10.462l30.802,10.462l-30.802,10.457L672.451,544.368z M736.479,545.192
		l30.802,10.457l-30.802,10.462l-30.802-10.462L736.479,545.192z M738.904,544.368l30.802-10.462l30.801,10.462l-30.801,10.457
		L738.904,544.368z M802.942,545.192l30.802,10.457l-30.802,10.462l-30.802-10.462L802.942,545.192z M836.169,556.473l30.802,10.462
		l-30.802,10.462l-30.802-10.462L836.169,556.473z M869.396,567.76l30.802,10.462l-30.802,10.462l-30.802-10.462L869.396,567.76z
		 M902.633,579.047l30.802,10.462l-30.802,10.457l-30.802-10.457L902.633,579.047z M935.86,590.334l30.802,10.457l-30.802,10.462
		l-30.802-10.462L935.86,590.334z M935.86,612.903l30.802,10.462l-30.802,10.463l-30.802-10.463L935.86,612.903z M935.86,635.476
		l30.802,10.457l-30.802,10.463l-30.802-10.463L935.86,635.476z M935.86,658.045l30.802,10.462L935.86,678.97l-30.802-10.463
		L935.86,658.045z M935.86,680.619l30.802,10.457l-30.802,10.462l-30.802-10.462L935.86,680.619z M935.86,703.187l30.802,10.462
		l-30.802,10.463l-30.802-10.463L935.86,703.187z M935.86,725.761l30.802,10.462L935.86,746.68l-30.802-10.462L935.86,725.761z
		 M902.633,735.393l-30.802-10.457l30.802-10.463l30.802,10.463L902.633,735.393z M900.198,736.217l-30.802,10.462l-30.802-10.462
		l30.802-10.457L900.198,736.217z M836.169,735.399l-30.802-10.462l30.802-10.463l30.802,10.463L836.169,735.399z M833.744,736.217
		l-30.802,10.462l-30.802-10.462l30.802-10.457L833.744,736.217z M769.706,735.399l-30.802-10.462l30.802-10.463l30.801,10.463
		L769.706,735.399z M767.28,736.217l-30.802,10.462l-30.802-10.457l30.802-10.462L767.28,736.217z M703.252,735.399l-30.802-10.462
		l30.802-10.463l30.802,10.463L703.252,735.399z M700.817,736.223l-30.802,10.457l-30.802-10.462l30.802-10.457L700.817,736.223z
		 M636.789,735.399l-30.802-10.462l30.802-10.463l30.801,10.463L636.789,735.399z M634.363,736.217l-30.802,10.462l-30.802-10.462
		l30.802-10.457L634.363,736.217z M570.335,735.399l-30.811-10.462l30.801-10.463l30.811,10.463L570.335,735.399z M567.9,736.217
		l-30.802,10.462l-30.802-10.462l30.802-10.457L567.9,736.217z M503.871,735.393l-30.801-10.457l30.801-10.463l30.802,10.463
		L503.871,735.393z M501.446,736.217l-30.802,10.462l-30.811-10.457l30.811-10.462L501.446,736.217z M437.408,735.399
		l-30.802-10.462l30.802-10.463l30.801,10.463L437.408,735.399z M434.983,736.223l-30.801,10.457l-30.802-10.457l30.802-10.462
		L434.983,736.223z M370.954,735.399l-30.811-10.462l30.811-10.463l30.801,10.463L370.954,735.399z M368.519,736.223l-30.802,10.457
		l-30.801-10.457l30.801-10.462L368.519,736.223z M337.718,724.112l-30.801-10.463l30.801-10.462l30.802,10.462L337.718,724.112z
		 M337.718,701.538l-30.801-10.462l30.801-10.457l30.802,10.457L337.718,701.538z M337.718,678.97l-30.801-10.463l30.801-10.462
		l30.802,10.462L337.718,678.97z M337.718,656.396l-30.801-10.463l30.801-10.457l30.802,10.457L337.718,656.396z M337.718,633.827
		l-30.801-10.463l30.801-10.462l30.802,10.462L337.718,633.827z M337.718,611.253l-30.801-10.462l30.801-10.457l30.802,10.457
		L337.718,611.253z M337.718,588.685l-30.801-10.462l30.801-10.462l30.802,10.462L337.718,588.685z M337.718,566.111l-30.801-10.462
		l30.801-10.457l30.802,10.457L337.718,566.111z M337.718,543.543l-30.801-10.462l30.801-10.462l30.802,10.462L337.718,543.543z
		 M340.153,521.794l30.802-10.462l30.801,10.462l-30.801,10.463L340.153,521.794z M404.181,522.618l30.801,10.462l-30.801,10.462
		l-30.802-10.462L404.181,522.618z M406.606,521.794l30.802-10.462l30.801,10.462l-30.801,10.463L406.606,521.794z M470.644,522.618
		l30.802,10.462l-30.802,10.462l-30.811-10.462L470.644,522.618z M473.07,521.794l30.801-10.462l30.802,10.462l-30.802,10.463
		L473.07,521.794z M537.098,522.618l30.802,10.462l-30.802,10.462l-30.802-10.462L537.098,522.618z M539.523,521.794l30.811-10.462
		l30.801,10.462l-30.811,10.463L539.523,521.794z M603.562,522.618l30.802,10.462l-30.802,10.462l-30.802-10.462L603.562,522.618z
		 M605.987,521.794l30.802-10.462l30.801,10.462l-30.801,10.463L605.987,521.794z M670.015,522.618l30.812,10.462l-30.812,10.462
		l-30.802-10.462L670.015,522.618z M672.451,521.794l30.802-10.462l30.802,10.462l-30.802,10.463L672.451,521.794z M736.479,522.618
		l30.802,10.462l-30.802,10.462l-30.802-10.462L736.479,522.618z M738.904,521.794l30.802-10.462l30.801,10.462l-30.801,10.463
		L738.904,521.794z M802.942,522.618l30.802,10.462l-30.802,10.462l-30.802-10.462L802.942,522.618z M836.169,533.905l30.802,10.462
		l-30.802,10.457l-30.802-10.457L836.169,533.905z M869.396,545.192l30.802,10.457l-30.802,10.462l-30.802-10.462L869.396,545.192z
		 M902.633,556.473l30.802,10.462l-30.802,10.462l-30.802-10.462L902.633,556.473z M935.86,567.76l30.802,10.462l-30.802,10.462
		l-30.802-10.462L935.86,567.76z M969.086,579.047l30.801,10.462l-30.801,10.457l-30.802-10.457L969.086,579.047z M969.086,601.616
		l30.801,10.462l-30.801,10.463l-30.802-10.463L969.086,601.616z M969.086,624.189l30.801,10.462l-30.801,10.457l-30.802-10.457
		L969.086,624.189z M969.086,646.758l30.801,10.462l-30.801,10.462l-30.802-10.462L969.086,646.758z M969.086,669.332l30.801,10.462
		l-30.801,10.457l-30.802-10.457L969.086,669.332z M969.086,691.9l30.801,10.463l-30.801,10.462l-30.802-10.462L969.086,691.9z
		 M969.086,714.474l30.801,10.463l-30.801,10.462l-30.802-10.462L969.086,714.474z M969.086,737.042l30.801,10.463l-30.801,10.463
		l-30.802-10.463L969.086,737.042z M966.661,758.791l-30.802,10.462l-30.802-10.462l30.802-10.463L966.661,758.791z
		 M902.633,757.967l-30.802-10.463l30.802-10.463l30.802,10.463L902.633,757.967z M900.198,758.791l-30.802,10.462l-30.802-10.462
		l30.802-10.463L900.198,758.791z M836.169,757.967l-30.802-10.463l30.802-10.463l30.802,10.463L836.169,757.967z M833.744,758.791
		l-30.802,10.462l-30.802-10.462l30.802-10.463L833.744,758.791z M769.706,757.967l-30.802-10.463l30.802-10.463l30.801,10.463
		L769.706,757.967z M767.28,758.791l-30.802,10.462l-30.802-10.462l30.802-10.463L767.28,758.791z M703.252,757.967l-30.802-10.463
		l30.802-10.457l30.802,10.457L703.252,757.967z M700.827,758.791l-30.812,10.462l-30.802-10.462l30.802-10.463L700.827,758.791z
		 M636.789,757.967l-30.802-10.463l30.802-10.463l30.801,10.463L636.789,757.967z M634.363,758.791l-30.802,10.462l-30.802-10.462
		l30.802-10.463L634.363,758.791z M570.325,757.967l-30.801-10.463l30.811-10.463l30.801,10.463L570.325,757.967z M567.9,758.791
		l-30.802,10.462l-30.802-10.462l30.802-10.463L567.9,758.791z M503.871,757.967l-30.801-10.463l30.801-10.463l30.802,10.463
		L503.871,757.967z M501.446,758.791l-30.802,10.462l-30.811-10.462l30.811-10.463L501.446,758.791z M437.408,757.967
		l-30.802-10.463l30.802-10.463l30.801,10.463L437.408,757.967z M434.983,758.791l-30.801,10.462l-30.802-10.462l30.802-10.463
		L434.983,758.791z M370.954,757.967l-30.802-10.463l30.802-10.457l30.801,10.457L370.954,757.967z M368.519,758.791l-30.802,10.462
		l-30.801-10.462l30.801-10.463L368.519,758.791z M304.491,757.967l-30.801-10.463l30.801-10.463l30.802,10.463L304.491,757.967z
		 M304.491,735.399l-30.801-10.462l30.801-10.463l30.802,10.463L304.491,735.399z M304.491,712.825l-30.801-10.462l30.801-10.463
		l30.802,10.463L304.491,712.825z M304.491,690.251l-30.801-10.457l30.801-10.462l30.802,10.462L304.491,690.251z M304.491,667.683
		l-30.801-10.462l30.801-10.462l30.802,10.462L304.491,667.683z M304.491,645.109l-30.801-10.457l30.801-10.462l30.802,10.462
		L304.491,645.109z M304.491,622.541l-30.801-10.463l30.801-10.462l30.802,10.462L304.491,622.541z M304.491,599.967l-30.801-10.457
		l30.801-10.462l30.802,10.462L304.491,599.967z M304.491,577.398l-30.801-10.462l30.801-10.462l30.802,10.462L304.491,577.398z
		 M304.491,554.825l-30.801-10.457l30.801-10.462l30.802,10.462L304.491,554.825z M304.491,532.256l-30.801-10.463l30.801-10.462
		l30.802,10.462L304.491,532.256z M304.491,509.682l-30.801-10.457l30.801-10.462l30.802,10.462L304.491,509.682z M337.718,500.05
		l30.802,10.457l-30.802,10.462l-30.801-10.462L337.718,500.05z M340.143,499.226l30.811-10.462l30.801,10.462l-30.801,10.457
		L340.143,499.226z M404.181,500.05l30.801,10.457l-30.801,10.462l-30.802-10.462L404.181,500.05z M406.606,499.226l30.802-10.462
		l30.801,10.462l-30.801,10.457L406.606,499.226z M470.644,500.05l30.802,10.457l-30.802,10.462l-30.801-10.462L470.644,500.05z
		 M473.07,499.226l30.801-10.462l30.802,10.457l-30.802,10.462L473.07,499.226z M537.098,500.044l30.802,10.462l-30.802,10.462
		l-30.802-10.462L537.098,500.044z M539.523,499.22l30.801-10.457l30.811,10.462l-30.801,10.457L539.523,499.22z M603.562,500.05
		l30.802,10.457l-30.802,10.462l-30.802-10.462L603.562,500.05z M605.987,499.226l30.802-10.462l30.801,10.457l-30.801,10.462
		L605.987,499.226z M670.015,500.05l30.812,10.457l-30.812,10.462l-30.802-10.462L670.015,500.05z M672.451,499.226l30.802-10.462
		l30.802,10.462l-30.802,10.457L672.451,499.226z M736.479,500.05l30.802,10.457l-30.802,10.462l-30.802-10.462L736.479,500.05z
		 M738.904,499.226l30.802-10.462l30.801,10.462l-30.801,10.457L738.904,499.226z M802.942,500.05l30.802,10.457l-30.802,10.462
		l-30.802-10.462L802.942,500.05z M836.169,511.332l30.802,10.462l-30.802,10.463l-30.802-10.463L836.169,511.332z M869.396,522.618
		l30.802,10.462l-30.802,10.462l-30.802-10.462L869.396,522.618z M902.633,533.905l30.802,10.462l-30.802,10.457l-30.802-10.457
		L902.633,533.905z M935.86,545.192l30.802,10.457l-30.802,10.462l-30.802-10.462L935.86,545.192z M969.086,556.473l30.801,10.462
		l-30.801,10.462l-30.802-10.462L969.086,556.473z M1002.323,567.76l30.801,10.462l-30.801,10.462l-30.811-10.462L1002.323,567.76z
		 M1002.323,590.334l30.801,10.457l-30.801,10.462l-30.811-10.462L1002.323,590.334z M1002.323,612.903l30.801,10.462
		l-30.801,10.463l-30.811-10.463L1002.323,612.903z M1002.323,635.476l30.801,10.457l-30.801,10.463l-30.802-10.463
		L1002.323,635.476z M1002.323,658.045l30.801,10.462l-30.801,10.463l-30.811-10.463L1002.323,658.045z M1002.323,680.619
		l30.801,10.457l-30.801,10.462l-30.811-10.462L1002.323,680.619z M1002.323,703.187l30.801,10.462l-30.801,10.463l-30.811-10.463
		L1002.323,703.187z M1002.323,725.761l30.801,10.462l-30.801,10.457l-30.811-10.457L1002.323,725.761z M1002.323,748.329
		l30.801,10.463l-30.801,10.462l-30.802-10.462L1002.323,748.329z M1002.323,770.903l30.801,10.462l-30.811,10.457l-30.802-10.457
		L1002.323,770.903z M969.086,780.541l-30.802-10.462l30.802-10.463l30.801,10.463L969.086,780.541z M966.661,781.365
		l-30.802,10.457l-30.802-10.457l30.802-10.462L966.661,781.365z M902.633,780.541l-30.802-10.462l30.802-10.463l30.802,10.463
		L902.633,780.541z M900.198,781.365l-30.802,10.457l-30.802-10.457l30.802-10.462L900.198,781.365z M836.169,780.541
		l-30.802-10.462l30.802-10.463l30.802,10.463L836.169,780.541z M833.744,781.365l-30.802,10.457l-30.802-10.457l30.802-10.462
		L833.744,781.365z M769.706,780.541l-30.802-10.462l30.802-10.463l30.801,10.463L769.706,780.541z M767.28,781.365l-30.802,10.457
		l-30.802-10.457l30.802-10.462L767.28,781.365z M703.252,780.541l-30.802-10.462l30.802-10.463l30.802,10.463L703.252,780.541z
		 M700.827,781.365l-30.812,10.457l-30.802-10.457l30.802-10.462L700.827,781.365z M636.789,780.541l-30.802-10.462l30.802-10.463
		l30.801,10.463L636.789,780.541z M634.363,781.365l-30.802,10.457l-30.802-10.457l30.802-10.462L634.363,781.365z M570.335,780.541
		l-30.811-10.462l30.801-10.463l30.811,10.463L570.335,780.541z M567.9,781.365l-30.802,10.457l-30.802-10.457l30.802-10.462
		L567.9,781.365z M503.871,780.541l-30.801-10.462l30.801-10.463l30.802,10.463L503.871,780.541z M501.446,781.365l-30.802,10.457
		l-30.811-10.457l30.811-10.462L501.446,781.365z M437.408,780.541l-30.802-10.462l30.802-10.463l30.801,10.463L437.408,780.541z
		 M434.983,781.365l-30.801,10.457L373.38,781.36l30.802-10.457L434.983,781.365z M370.954,780.541l-30.802-10.462l30.802-10.463
		l30.801,10.463L370.954,780.541z M368.519,781.36l-30.802,10.462l-30.801-10.457l30.801-10.462L368.519,781.36z M304.491,780.541
		l-30.801-10.462l30.801-10.463l30.802,10.463L304.491,780.541z M302.066,781.365l-30.802,10.457l-30.801-10.457l30.801-10.462
		L302.066,781.365z M271.264,769.254l-30.801-10.462l30.801-10.463l30.802,10.463L271.264,769.254z M271.264,746.68l-30.801-10.462
		l30.801-10.457l30.802,10.462L271.264,746.68z M271.264,724.112l-30.801-10.463l30.801-10.462l30.802,10.462L271.264,724.112z
		 M271.264,701.538l-30.801-10.462l30.801-10.457l30.802,10.457L271.264,701.538z M271.264,678.97l-30.801-10.463l30.801-10.462
		l30.802,10.462L271.264,678.97z M271.264,656.396l-30.801-10.463l30.801-10.457l30.802,10.457L271.264,656.396z M271.264,633.827
		l-30.801-10.463l30.801-10.462l30.802,10.462L271.264,633.827z M271.264,611.253l-30.801-10.462l30.801-10.457l30.802,10.457
		L271.264,611.253z M271.264,588.685l-30.801-10.462l30.801-10.462l30.802,10.462L271.264,588.685z M271.264,566.111l-30.801-10.462
		l30.801-10.457l30.802,10.457L271.264,566.111z M271.264,543.543l-30.801-10.462l30.801-10.462l30.802,10.462L271.264,543.543z
		 M271.264,520.969l-30.801-10.462l30.801-10.457l30.802,10.457L271.264,520.969z M271.264,498.401l-30.801-10.462l30.801-10.462
		l30.802,10.462L271.264,498.401z M273.689,476.652l30.801-10.462l30.802,10.462l-30.802,10.462L273.689,476.652z M337.718,477.476
		l30.802,10.462l-30.802,10.462l-30.801-10.462L337.718,477.476z M340.153,476.652l30.802-10.462l30.801,10.462l-30.801,10.462
		L340.153,476.652z M404.181,477.476l30.801,10.462l-30.801,10.462l-30.802-10.462L404.181,477.476z M406.606,476.652l30.802-10.462
		l30.801,10.462l-30.801,10.462L406.606,476.652z M470.644,477.476l30.802,10.462l-30.802,10.462l-30.811-10.462L470.644,477.476z
		 M473.07,476.652l30.801-10.462l30.802,10.462l-30.802,10.462L473.07,476.652z M537.098,477.476l30.802,10.462l-30.802,10.457
		l-30.802-10.457L537.098,477.476z M539.523,476.652l30.811-10.462l30.801,10.462l-30.811,10.462L539.523,476.652z M603.562,477.476
		l30.802,10.462l-30.802,10.462l-30.802-10.462L603.562,477.476z M605.987,476.652l30.802-10.462l30.801,10.462l-30.801,10.462
		L605.987,476.652z M670.015,477.476l30.802,10.462l-30.802,10.462l-30.802-10.462L670.015,477.476z M672.451,476.652l30.802-10.462
		l30.802,10.462l-30.802,10.462L672.451,476.652z M736.479,477.476l30.802,10.462l-30.802,10.462l-30.802-10.462L736.479,477.476z
		 M738.904,476.652l30.802-10.462l30.811,10.462l-30.811,10.462L738.904,476.652z M802.942,477.476l30.802,10.462l-30.802,10.462
		l-30.802-10.462L802.942,477.476z M836.169,488.763l30.802,10.457l-30.802,10.462l-30.802-10.457L836.169,488.763z
		 M869.396,500.044l30.802,10.462l-30.802,10.462l-30.802-10.462L869.396,500.044z M902.633,511.332l30.802,10.462l-30.802,10.463
		l-30.802-10.463L902.633,511.332z M935.86,522.618l30.802,10.462l-30.802,10.462l-30.802-10.462L935.86,522.618z M969.086,533.905
		l30.801,10.462l-30.801,10.457l-30.802-10.457L969.086,533.905z M1002.323,545.192l30.801,10.457l-30.801,10.462l-30.811-10.462
		L1002.323,545.192z M1035.55,556.473l30.802,10.462l-30.802,10.462l-30.801-10.462L1035.55,556.473z M1035.55,579.047
		l30.802,10.462l-30.802,10.457l-30.801-10.457L1035.55,579.047z M1035.55,601.616l30.802,10.462l-30.802,10.463l-30.801-10.463
		L1035.55,601.616z M1035.55,624.189l30.802,10.462l-30.802,10.457l-30.801-10.457L1035.55,624.189z M1035.55,646.758l30.802,10.462
		l-30.802,10.462l-30.801-10.462L1035.55,646.758z M1035.55,669.332l30.802,10.462l-30.802,10.457l-30.801-10.457L1035.55,669.332z
		 M1035.55,691.9l30.802,10.463l-30.802,10.462l-30.801-10.462L1035.55,691.9z M1035.55,714.474l30.802,10.463l-30.802,10.462
		l-30.801-10.462L1035.55,714.474z M1035.55,737.048l30.802,10.457l-30.802,10.463l-30.801-10.463L1035.55,737.048z
		 M1035.55,759.616l30.802,10.463l-30.802,10.462l-30.801-10.462L1035.55,759.616z M1035.55,782.19l30.802,10.457l-30.802,10.463
		l-30.801-10.463L1035.55,782.19z M1033.124,803.933l-30.801,10.463l-30.811-10.463l30.802-10.462L1033.124,803.933z
		 M969.086,803.109l-30.802-10.463l30.802-10.457l30.801,10.457L969.086,803.109z M966.661,803.933l-30.802,10.463l-30.802-10.463
		l30.802-10.462L966.661,803.933z M902.633,803.109l-30.802-10.463l30.802-10.457l30.802,10.457L902.633,803.109z M900.198,803.933
		l-30.802,10.463l-30.802-10.463l30.802-10.462L900.198,803.933z M836.169,803.109l-30.802-10.463l30.802-10.457l30.802,10.457
		L836.169,803.109z M833.744,803.933l-30.802,10.463l-30.802-10.463l30.802-10.462L833.744,803.933z M769.706,803.109
		l-30.802-10.463l30.802-10.457l30.801,10.457L769.706,803.109z M767.28,803.933l-30.802,10.463l-30.802-10.463l30.802-10.462
		L767.28,803.933z M703.252,803.109l-30.802-10.463l30.802-10.457l30.802,10.457L703.252,803.109z M700.827,803.933l-30.812,10.463
		l-30.802-10.463l30.802-10.462L700.827,803.933z M636.789,803.109l-30.802-10.463l30.802-10.457l30.801,10.457L636.789,803.109z
		 M634.363,803.933l-30.802,10.463l-30.802-10.463l30.802-10.462L634.363,803.933z M570.325,803.109l-30.801-10.463l30.811-10.457
		l30.801,10.457L570.325,803.109z M567.9,803.933l-30.802,10.463l-30.802-10.463l30.802-10.462L567.9,803.933z M503.871,803.109
		l-30.801-10.463l30.801-10.457l30.802,10.457L503.871,803.109z M501.446,803.933l-30.802,10.463l-30.811-10.463l30.811-10.462
		L501.446,803.933z M437.408,803.109l-30.802-10.463l30.802-10.457l30.801,10.457L437.408,803.109z M434.983,803.933l-30.801,10.463
		l-30.802-10.463l30.802-10.462L434.983,803.933z M370.954,803.109l-30.811-10.463l30.811-10.462l30.801,10.462L370.954,803.109z
		 M368.519,803.933l-30.802,10.463l-30.801-10.463l30.801-10.462L368.519,803.933z M304.491,803.109l-30.801-10.463l30.801-10.457
		l30.802,10.457L304.491,803.109z M302.066,803.933l-30.802,10.463l-30.801-10.463l30.801-10.462L302.066,803.933z M238.027,803.109
		l-30.801-10.463l30.801-10.457l30.802,10.457L238.027,803.109z M238.027,780.541l-30.801-10.462l30.801-10.463l30.802,10.463
		L238.027,780.541z M238.027,757.967l-30.801-10.463l30.801-10.463l30.802,10.463L238.027,757.967z M238.027,735.393l-30.801-10.457
		l30.801-10.463l30.802,10.463L238.027,735.393z M238.027,712.825l-30.801-10.462l30.801-10.463l30.802,10.463L238.027,712.825z
		 M238.027,690.251l-30.801-10.457l30.801-10.462l30.802,10.462L238.027,690.251z M238.027,667.683l-30.801-10.462l30.801-10.462
		l30.802,10.462L238.027,667.683z M238.027,645.109l-30.801-10.457l30.801-10.462l30.802,10.462L238.027,645.109z M238.027,622.541
		l-30.801-10.463l30.801-10.462l30.802,10.462L238.027,622.541z M238.027,599.967l-30.801-10.457l30.801-10.462l30.802,10.462
		L238.027,599.967z M238.027,577.398l-30.801-10.462l30.801-10.462l30.802,10.462L238.027,577.398z M238.027,554.825l-30.801-10.457
		l30.801-10.462l30.802,10.462L238.027,554.825z M238.027,532.256l-30.801-10.463l30.801-10.462l30.802,10.462L238.027,532.256z
		 M238.027,509.682l-30.801-10.462l30.801-10.457l30.802,10.462L238.027,509.682z M238.027,487.114l-30.801-10.462l30.801-10.462
		l30.802,10.462L238.027,487.114z M238.027,464.54l-30.801-10.462l30.801-10.457l30.802,10.457L238.027,464.54z M271.264,454.902
		l30.802,10.462l-30.802,10.462l-30.801-10.462L271.264,454.902z M273.689,454.078l30.801-10.457l30.802,10.457l-30.802,10.462
		L273.689,454.078z M337.718,454.902l30.802,10.462l-30.802,10.462l-30.801-10.462L337.718,454.902z M340.153,454.078l30.802-10.457
		l30.801,10.457l-30.801,10.462L340.153,454.078z M404.181,454.902l30.801,10.462l-30.801,10.462l-30.802-10.462L404.181,454.902z
		 M406.606,454.078l30.802-10.457l30.801,10.457l-30.801,10.462L406.606,454.078z M470.644,454.902l30.802,10.462l-30.802,10.462
		l-30.801-10.462L470.644,454.902z M473.07,454.078l30.801-10.457l30.802,10.457l-30.802,10.462L473.07,454.078z M537.098,454.902
		l30.802,10.462l-30.802,10.462l-30.802-10.462L537.098,454.902z M539.523,454.078l30.811-10.457l30.801,10.457l-30.811,10.462
		L539.523,454.078z M603.562,454.902l30.802,10.462l-30.802,10.462l-30.802-10.462L603.562,454.902z M605.987,454.078l30.802-10.457
		l30.801,10.457l-30.801,10.462L605.987,454.078z M670.015,454.902l30.812,10.462l-30.812,10.462l-30.802-10.462L670.015,454.902z
		 M672.451,454.078l30.802-10.457l30.802,10.457l-30.802,10.462L672.451,454.078z M736.479,454.902l30.802,10.462l-30.802,10.462
		l-30.802-10.462L736.479,454.902z M738.904,454.078l30.802-10.457l30.801,10.457l-30.801,10.462L738.904,454.078z M802.942,454.902
		l30.802,10.462l-30.802,10.462l-30.802-10.462L802.942,454.902z M836.169,466.189l30.802,10.462l-30.802,10.462l-30.802-10.462
		L836.169,466.189z M869.396,477.476l30.802,10.462l-30.802,10.457l-30.802-10.457L869.396,477.476z M902.633,488.763l30.802,10.462
		l-30.802,10.457l-30.802-10.462L902.633,488.763z M935.86,500.05l30.802,10.457l-30.802,10.462l-30.802-10.462L935.86,500.05z
		 M969.086,511.332l30.801,10.462l-30.801,10.463l-30.802-10.463L969.086,511.332z M1002.323,522.618l30.801,10.462l-30.801,10.462
		l-30.802-10.462L1002.323,522.618z M1035.55,533.905l30.802,10.462l-30.802,10.457l-30.801-10.457L1035.55,533.905z
		 M1068.777,545.192l30.801,10.457l-30.801,10.462l-30.802-10.462L1068.777,545.192z M1068.777,567.76l30.801,10.462l-30.801,10.462
		l-30.802-10.462L1068.777,567.76z M1068.777,590.334l30.801,10.457l-30.801,10.462l-30.802-10.462L1068.777,590.334z
		 M1068.777,612.903l30.801,10.462l-30.801,10.463l-30.802-10.463L1068.777,612.903z M1068.777,635.476l30.801,10.457
		l-30.801,10.463l-30.802-10.463L1068.777,635.476z M1068.777,658.045l30.801,10.462l-30.801,10.463l-30.802-10.463
		L1068.777,658.045z M1068.777,680.619l30.801,10.457l-30.801,10.462l-30.802-10.462L1068.777,680.619z M1068.777,703.187
		l30.801,10.462l-30.801,10.463l-30.802-10.463L1068.777,703.187z M1068.777,725.761l30.801,10.462l-30.801,10.457l-30.802-10.457
		L1068.777,725.761z M1068.777,748.329l30.801,10.463l-30.801,10.462l-30.802-10.462L1068.777,748.329z M1068.777,770.903
		l30.801,10.462l-30.801,10.457l-30.802-10.462L1068.777,770.903z M1068.777,793.471l30.801,10.462l-30.801,10.463l-30.802-10.463
		L1068.777,793.471z M1068.777,816.045l30.801,10.462l-30.801,10.457l-30.802-10.457L1068.777,816.045z M1035.55,825.683
		l-30.801-10.462l30.801-10.462l30.802,10.462L1035.55,825.683z M1033.124,826.507l-30.801,10.457l-30.811-10.457l30.811-10.462
		L1033.124,826.507z M969.086,825.683l-30.802-10.462l30.802-10.462l30.801,10.462L969.086,825.683z M966.661,826.507
		l-30.802,10.457l-30.802-10.457l30.802-10.462L966.661,826.507z M902.633,825.683l-30.802-10.462l30.802-10.462l30.802,10.462
		L902.633,825.683z M900.198,826.507l-30.802,10.457l-30.802-10.457l30.802-10.462L900.198,826.507z M836.169,825.683
		l-30.802-10.462l30.802-10.462l30.802,10.462L836.169,825.683z M833.744,826.507l-30.802,10.457l-30.802-10.457l30.802-10.462
		L833.744,826.507z M769.706,825.683l-30.802-10.462l30.802-10.462l30.801,10.462L769.706,825.683z M767.28,826.507l-30.802,10.457
		l-30.802-10.457l30.802-10.462L767.28,826.507z M703.252,825.683l-30.802-10.462l30.802-10.462l30.802,10.462L703.252,825.683z
		 M700.827,826.507l-30.812,10.457l-30.802-10.457l30.802-10.462L700.827,826.507z M636.789,825.683l-30.802-10.462l30.802-10.462
		l30.801,10.462L636.789,825.683z M634.363,826.507l-30.802,10.457l-30.802-10.457l30.802-10.462L634.363,826.507z M570.325,825.683
		l-30.801-10.462l30.801-10.462l30.811,10.462L570.325,825.683z M567.9,826.507l-30.802,10.457l-30.802-10.457l30.802-10.462
		L567.9,826.507z M503.871,825.683L473.07,815.22l30.801-10.462l30.802,10.462L503.871,825.683z M501.446,826.507l-30.802,10.457
		l-30.811-10.457l30.811-10.462L501.446,826.507z M437.408,825.683l-30.802-10.462l30.802-10.462l30.801,10.462L437.408,825.683z
		 M434.983,826.507l-30.801,10.457l-30.802-10.457l30.802-10.462L434.983,826.507z M370.954,825.683l-30.802-10.462l30.802-10.462
		l30.801,10.462L370.954,825.683z M368.519,826.507l-30.802,10.457l-30.801-10.457l30.801-10.462L368.519,826.507z M304.491,825.683
		l-30.801-10.462l30.801-10.462l30.802,10.462L304.491,825.683z M302.066,826.507l-30.802,10.457l-30.801-10.457l30.801-10.462
		L302.066,826.507z M238.027,825.683l-30.801-10.462l30.801-10.462l30.802,10.462L238.027,825.683z M235.602,826.507l-30.801,10.457
		l-30.802-10.457l30.802-10.462L235.602,826.507z M204.801,814.396l-30.802-10.463l30.802-10.462l30.801,10.462L204.801,814.396z
		 M204.801,791.822l-30.802-10.457l30.802-10.462l30.801,10.462L204.801,791.822z M204.801,769.254l-30.802-10.462l30.802-10.463
		l30.801,10.463L204.801,769.254z M204.801,746.68l-30.802-10.462l30.802-10.457l30.801,10.457L204.801,746.68z M204.801,724.112
		l-30.802-10.463l30.802-10.462l30.801,10.462L204.801,724.112z M204.801,701.538l-30.802-10.457l30.802-10.463l30.801,10.457
		L204.801,701.538z M204.801,678.97l-30.802-10.463l30.802-10.462l30.801,10.462L204.801,678.97z M204.801,656.396l-30.802-10.463
		l30.802-10.457l30.801,10.457L204.801,656.396z M204.801,633.827l-30.802-10.463l30.802-10.462l30.801,10.462L204.801,633.827z
		 M204.801,611.253l-30.802-10.462l30.802-10.457l30.801,10.457L204.801,611.253z M204.801,588.685l-30.802-10.462l30.802-10.462
		l30.801,10.462L204.801,588.685z M204.801,566.111l-30.802-10.462l30.802-10.457l30.801,10.457L204.801,566.111z M204.801,543.543
		l-30.802-10.462l30.802-10.462l30.801,10.462L204.801,543.543z M204.801,520.969l-30.802-10.462l30.802-10.462l30.801,10.462
		L204.801,520.969z M204.801,498.395l-30.802-10.457l30.802-10.462l30.801,10.462L204.801,498.395z M204.801,475.827l-30.802-10.462
		l30.802-10.462l30.801,10.462L204.801,475.827z M204.801,453.259l-30.802-10.462l30.802-10.462l30.801,10.462L204.801,453.259z
		 M207.226,431.51l30.801-10.463l30.802,10.463l-30.802,10.462L207.226,431.51z M271.264,432.334l30.802,10.462l-30.802,10.457
		l-30.801-10.457L271.264,432.334z M273.689,431.51l30.801-10.463l30.802,10.463l-30.802,10.462L273.689,431.51z M337.718,432.334
		l30.802,10.462l-30.802,10.457l-30.801-10.457L337.718,432.334z M340.153,431.51l30.802-10.463l30.801,10.463l-30.801,10.462
		L340.153,431.51z M404.181,432.334l30.801,10.462l-30.801,10.457l-30.802-10.457L404.181,432.334z M406.606,431.51l30.802-10.463
		l30.801,10.463l-30.801,10.462L406.606,431.51z M470.644,432.334l30.802,10.462l-30.802,10.457l-30.811-10.457L470.644,432.334z
		 M473.07,431.51l30.801-10.463l30.802,10.463l-30.802,10.462L473.07,431.51z M537.098,432.334l30.802,10.462l-30.802,10.457
		l-30.802-10.457L537.098,432.334z M539.523,431.51l30.801-10.463l30.811,10.463l-30.801,10.462L539.523,431.51z M603.562,432.334
		l30.802,10.462l-30.802,10.457l-30.802-10.457L603.562,432.334z M605.987,431.51l30.802-10.463l30.801,10.463l-30.801,10.462
		L605.987,431.51z M670.015,432.334l30.812,10.462l-30.812,10.457l-30.802-10.457L670.015,432.334z M672.451,431.51l30.802-10.463
		l30.802,10.463l-30.802,10.462L672.451,431.51z M736.479,432.334l30.802,10.462l-30.802,10.457l-30.802-10.457L736.479,432.334z
		 M738.904,431.51l30.802-10.463l30.801,10.463l-30.801,10.462L738.904,431.51z M802.942,432.334l30.802,10.462l-30.802,10.457
		l-30.802-10.457L802.942,432.334z M836.169,443.621l30.802,10.457l-30.802,10.462l-30.802-10.462L836.169,443.621z
		 M869.396,454.902l30.802,10.462l-30.802,10.462l-30.802-10.462L869.396,454.902z M902.633,466.189l30.802,10.462l-30.802,10.462
		l-30.802-10.462L902.633,466.189z M935.86,477.476l30.802,10.462l-30.802,10.462l-30.802-10.462L935.86,477.476z M969.086,488.763
		l30.801,10.457l-30.801,10.462l-30.802-10.457L969.086,488.763z M1002.323,500.044l30.801,10.462l-30.801,10.462l-30.811-10.462
		L1002.323,500.044z M1035.55,511.332l30.802,10.462l-30.802,10.463l-30.801-10.463L1035.55,511.332z M1068.777,522.618
		l30.801,10.462l-30.801,10.462l-30.802-10.462L1068.777,522.618z M1102.013,533.905l30.801,10.462l-30.801,10.457l-30.811-10.457
		L1102.013,533.905z M1102.013,556.473l30.801,10.462l-30.801,10.462l-30.811-10.462L1102.013,556.473z M1102.013,579.047
		l30.801,10.462l-30.811,10.457l-30.801-10.457L1102.013,579.047z M1102.013,601.616l30.801,10.462l-30.801,10.463l-30.811-10.463
		L1102.013,601.616z M1102.013,624.189l30.801,10.462l-30.811,10.457l-30.801-10.457L1102.013,624.189z M1102.003,646.758
		l30.811,10.462l-30.801,10.462l-30.811-10.462L1102.003,646.758z M1102.013,669.332l30.801,10.462l-30.801,10.457l-30.811-10.457
		L1102.013,669.332z M1102.013,691.9l30.801,10.463l-30.811,10.462l-30.801-10.462L1102.013,691.9z M1102.013,714.474l30.801,10.463
		l-30.801,10.462l-30.811-10.462L1102.013,714.474z M1102.013,737.048l30.801,10.457l-30.811,10.463l-30.801-10.463
		L1102.013,737.048z M1102.003,759.616l30.811,10.463l-30.811,10.462l-30.801-10.462L1102.003,759.616z M1102.013,782.19
		l30.801,10.457l-30.801,10.463l-30.811-10.463L1102.013,782.19z M1102.013,804.758l30.801,10.462l-30.811,10.462l-30.801-10.462
		L1102.013,804.758z M1102.003,827.332l30.811,10.457l-30.801,10.462l-30.811-10.462L1102.003,827.332z M1099.578,849.076
		l-30.801,10.462l-30.802-10.462l30.802-10.463L1099.578,849.076z M1035.55,848.251l-30.801-10.462l30.801-10.457l30.802,10.457
		L1035.55,848.251z M1033.124,849.076l-30.801,10.462l-30.811-10.462l30.802-10.463L1033.124,849.076z M969.086,848.251
		l-30.802-10.462l30.802-10.457l30.801,10.457L969.086,848.251z M966.661,849.076l-30.802,10.462l-30.802-10.462l30.802-10.463
		L966.661,849.076z M902.633,848.251l-30.802-10.462l30.802-10.457l30.802,10.457L902.633,848.251z M900.198,849.076l-30.802,10.462
		l-30.802-10.462l30.802-10.463L900.198,849.076z M836.169,848.251l-30.802-10.462l30.802-10.457l30.802,10.457L836.169,848.251z
		 M833.744,849.076l-30.802,10.462l-30.802-10.462l30.802-10.463L833.744,849.076z M769.706,848.251l-30.802-10.462l30.802-10.457
		l30.801,10.457L769.706,848.251z M767.28,849.076l-30.802,10.462l-30.802-10.462l30.802-10.463L767.28,849.076z M703.252,848.251
		l-30.802-10.462l30.802-10.457l30.802,10.457L703.252,848.251z M700.817,849.076l-30.802,10.462l-30.802-10.462l30.802-10.463
		L700.817,849.076z M636.789,848.251l-30.802-10.462l30.802-10.457l30.801,10.457L636.789,848.251z M634.363,849.076l-30.802,10.462
		l-30.802-10.462l30.802-10.463L634.363,849.076z M570.335,848.251l-30.811-10.462l30.801-10.457l30.811,10.457L570.335,848.251z
		 M567.9,849.076l-30.802,10.462l-30.802-10.462l30.802-10.463L567.9,849.076z M503.871,848.251l-30.801-10.462l30.801-10.457
		l30.802,10.457L503.871,848.251z M501.446,849.076l-30.802,10.462l-30.811-10.462l30.811-10.463L501.446,849.076z M437.408,848.251
		l-30.802-10.462l30.802-10.457l30.801,10.457L437.408,848.251z M434.983,849.076l-30.801,10.462l-30.802-10.462l30.802-10.463
		L434.983,849.076z M370.954,848.251l-30.811-10.462l30.811-10.457l30.801,10.457L370.954,848.251z M368.519,849.076l-30.802,10.462
		l-30.801-10.462l30.801-10.463L368.519,849.076z M304.491,848.251l-30.801-10.462l30.801-10.457l30.802,10.457L304.491,848.251z
		 M302.066,849.076l-30.802,10.462l-30.801-10.462l30.801-10.463L302.066,849.076z M238.027,848.251l-30.801-10.462l30.801-10.457
		l30.802,10.457L238.027,848.251z M235.602,849.076l-30.801,10.462l-30.802-10.462l30.802-10.463L235.602,849.076z M171.574,848.251
		l-30.801-10.462l30.801-10.457l30.802,10.457L171.574,848.251z M171.574,825.683l-30.801-10.462l30.801-10.462l30.802,10.462
		L171.574,825.683z M171.574,803.109l-30.801-10.463l30.801-10.457l30.802,10.457L171.574,803.109z M171.574,780.541l-30.801-10.462
		l30.801-10.463l30.802,10.463L171.574,780.541z M171.574,757.967l-30.801-10.463l30.801-10.463l30.802,10.463L171.574,757.967z
		 M171.574,735.399l-30.801-10.462l30.801-10.463l30.802,10.463L171.574,735.399z M171.574,712.825l-30.801-10.462l30.801-10.463
		l30.802,10.463L171.574,712.825z M171.574,690.256l-30.801-10.462l30.801-10.462l30.802,10.462L171.574,690.256z M171.574,667.683
		l-30.801-10.462l30.801-10.462l30.802,10.462L171.574,667.683z M171.574,645.109l-30.801-10.457l30.801-10.462l30.802,10.462
		L171.574,645.109z M171.574,622.541l-30.801-10.463l30.801-10.462l30.802,10.462L171.574,622.541z M171.574,599.967l-30.801-10.457
		l30.801-10.462l30.802,10.462L171.574,599.967z M171.574,577.398l-30.801-10.462l30.801-10.462l30.802,10.462L171.574,577.398z
		 M171.574,554.825l-30.801-10.457l30.801-10.462l30.802,10.462L171.574,554.825z M171.574,532.256l-30.801-10.463l30.801-10.462
		l30.802,10.462L171.574,532.256z M171.574,509.682l-30.801-10.457l30.801-10.462l30.802,10.457L171.574,509.682z M171.574,487.114
		l-30.801-10.462l30.801-10.462l30.802,10.462L171.574,487.114z M171.574,464.54l-30.801-10.462l30.801-10.457l30.802,10.457
		L171.574,464.54z M171.574,441.972l-30.801-10.462l30.801-10.463l30.802,10.463L171.574,441.972z M171.574,419.398l-30.801-10.462
		l30.801-10.457l30.802,10.457L171.574,419.398z M204.801,409.76l30.801,10.463l-30.801,10.462l-30.802-10.462L204.801,409.76z
		 M207.226,408.936l30.801-10.457l30.802,10.457l-30.802,10.462L207.226,408.936z M271.264,409.76l30.802,10.463l-30.802,10.462
		l-30.801-10.462L271.264,409.76z M273.689,408.936l30.801-10.457l30.802,10.457l-30.802,10.462L273.689,408.936z M337.718,409.76
		l30.802,10.463l-30.802,10.462l-30.801-10.462L337.718,409.76z M340.153,408.936l30.802-10.457l30.801,10.457l-30.801,10.462
		L340.153,408.936z M404.181,409.76l30.801,10.463l-30.801,10.462l-30.802-10.462L404.181,409.76z M406.606,408.936l30.802-10.457
		l30.801,10.457l-30.801,10.462L406.606,408.936z M470.644,409.76l30.802,10.463l-30.802,10.462l-30.811-10.462L470.644,409.76z
		 M473.07,408.936l30.801-10.457l30.802,10.457l-30.802,10.462L473.07,408.936z M537.098,409.76l30.802,10.463l-30.802,10.462
		l-30.802-10.462L537.098,409.76z M539.523,408.936l30.811-10.457l30.801,10.457l-30.811,10.462L539.523,408.936z M603.562,409.76
		l30.802,10.463l-30.802,10.462l-30.802-10.462L603.562,409.76z M605.987,408.936l30.802-10.457l30.801,10.457l-30.801,10.462
		L605.987,408.936z M670.015,409.76l30.812,10.463l-30.812,10.462l-30.802-10.462L670.015,409.76z M672.451,408.936l30.802-10.457
		l30.802,10.457l-30.802,10.462L672.451,408.936z M736.479,409.76l30.802,10.463l-30.802,10.462l-30.802-10.462L736.479,409.76z
		 M738.904,408.936l30.802-10.457l30.801,10.457l-30.801,10.462L738.904,408.936z M802.942,409.76l30.802,10.463l-30.802,10.462
		l-30.802-10.462L802.942,409.76z M836.169,421.047l30.802,10.463l-30.802,10.462l-30.802-10.462L836.169,421.047z M869.396,432.334
		l30.802,10.462l-30.802,10.457l-30.802-10.457L869.396,432.334z M902.633,443.621l30.802,10.457l-30.802,10.462l-30.802-10.462
		L902.633,443.621z M935.86,454.902l30.802,10.462l-30.802,10.462l-30.802-10.462L935.86,454.902z M969.086,466.189l30.801,10.462
		l-30.801,10.462l-30.802-10.462L969.086,466.189z M1002.323,477.476l30.801,10.462l-30.801,10.462l-30.811-10.462L1002.323,477.476
		z M1035.55,488.763l30.802,10.462l-30.802,10.457l-30.801-10.457L1035.55,488.763z M1068.777,500.05l30.801,10.457l-30.801,10.462
		l-30.802-10.462L1068.777,500.05z M1102.013,511.332l30.801,10.462l-30.811,10.463l-30.801-10.463L1102.013,511.332z
		 M1135.24,522.618l30.802,10.462l-30.802,10.462l-30.802-10.462L1135.24,522.618z M1135.24,545.192l30.802,10.457l-30.802,10.462
		l-30.802-10.462L1135.24,545.192z M1135.24,567.76l30.802,10.462l-30.802,10.462l-30.802-10.462L1135.24,567.76z M1135.24,590.334
		l30.802,10.457l-30.802,10.462l-30.802-10.462L1135.24,590.334z M1135.24,612.903l30.802,10.462l-30.802,10.463l-30.802-10.463
		L1135.24,612.903z M1135.24,635.476l30.802,10.457l-30.802,10.463l-30.802-10.463L1135.24,635.476z M1135.24,658.045l30.802,10.462
		l-30.802,10.463l-30.802-10.463L1135.24,658.045z M1135.24,680.619l30.802,10.457l-30.802,10.462l-30.802-10.462L1135.24,680.619z
		 M1135.24,703.187l30.802,10.462l-30.802,10.463l-30.802-10.463L1135.24,703.187z M1135.24,725.761l30.802,10.457l-30.802,10.462
		l-30.802-10.462L1135.24,725.761z M1135.24,748.329l30.802,10.463l-30.802,10.462l-30.802-10.462L1135.24,748.329z
		 M1135.24,770.903l30.802,10.462l-30.802,10.457l-30.802-10.457L1135.24,770.903z M1135.24,793.471l30.802,10.462l-30.802,10.463
		l-30.802-10.463L1135.24,793.471z M1135.24,816.045l30.802,10.462l-30.802,10.457l-30.802-10.457L1135.24,816.045z
		 M1135.24,838.613l30.802,10.463l-30.802,10.462l-30.802-10.462L1135.24,838.613z M1135.24,861.187l30.802,10.463l-30.802,10.457
		l-30.802-10.457L1135.24,861.187z M1102.003,870.825l-30.801-10.462l30.811-10.462l30.801,10.462L1102.003,870.825z
		 M1099.578,871.649l-30.801,10.457l-30.802-10.457l30.802-10.463L1099.578,871.649z M1035.55,870.825l-30.801-10.462l30.801-10.462
		l30.802,10.462L1035.55,870.825z M1033.124,871.649l-30.801,10.457l-30.802-10.457l30.802-10.463L1033.124,871.649z
		 M969.086,870.825l-30.802-10.462l30.802-10.462l30.801,10.462L969.086,870.825z M966.661,871.649l-30.802,10.457l-30.802-10.457
		l30.802-10.463L966.661,871.649z M902.633,870.825l-30.802-10.462l30.802-10.462l30.802,10.462L902.633,870.825z M900.198,871.649
		l-30.802,10.457l-30.802-10.457l30.802-10.463L900.198,871.649z M836.169,870.825l-30.802-10.462l30.802-10.462l30.802,10.462
		L836.169,870.825z M833.744,871.649l-30.802,10.457l-30.802-10.457l30.802-10.463L833.744,871.649z M769.706,870.825
		l-30.802-10.462l30.802-10.462l30.801,10.462L769.706,870.825z M767.28,871.649l-30.802,10.457l-30.802-10.457l30.802-10.463
		L767.28,871.649z M703.252,870.825l-30.802-10.462l30.802-10.462l30.802,10.462L703.252,870.825z M700.827,871.649l-30.812,10.457
		l-30.802-10.457l30.802-10.463L700.827,871.649z M636.789,870.825l-30.802-10.462l30.802-10.462l30.801,10.462L636.789,870.825z
		 M634.363,871.649l-30.802,10.457l-30.802-10.457l30.802-10.463L634.363,871.649z M570.325,870.825l-30.801-10.462l30.811-10.462
		l30.801,10.462L570.325,870.825z M567.9,871.649l-30.802,10.457l-30.802-10.457l30.802-10.463L567.9,871.649z M503.871,870.825
		l-30.801-10.462l30.801-10.462l30.802,10.462L503.871,870.825z M501.446,871.649l-30.802,10.457l-30.811-10.457l30.811-10.463
		L501.446,871.649z M437.408,870.825l-30.802-10.462l30.802-10.462l30.801,10.462L437.408,870.825z M434.983,871.649l-30.801,10.457
		l-30.802-10.457l30.802-10.463L434.983,871.649z M370.954,870.825l-30.802-10.462l30.802-10.462l30.801,10.462L370.954,870.825z
		 M368.519,871.649l-30.802,10.457l-30.801-10.457l30.801-10.463L368.519,871.649z M304.491,870.825l-30.801-10.462l30.801-10.462
		l30.802,10.462L304.491,870.825z M302.066,871.649l-30.802,10.457l-30.801-10.457l30.801-10.463L302.066,871.649z M238.027,870.825
		l-30.801-10.462l30.801-10.462l30.802,10.462L238.027,870.825z M235.602,871.649l-30.801,10.457l-30.802-10.457l30.802-10.463
		L235.602,871.649z M171.574,870.825l-30.801-10.462l30.801-10.462l30.802,10.462L171.574,870.825z M169.148,871.649l-30.811,10.457
		l-30.801-10.457l30.801-10.463L169.148,871.649z M138.337,859.538l-30.801-10.462l30.801-10.463l30.802,10.463L138.337,859.538z
		 M138.337,836.964l-30.801-10.457l30.801-10.462l30.811,10.462L138.337,836.964z M138.337,814.396l-30.801-10.463l30.801-10.462
		l30.811,10.462L138.337,814.396z M138.337,791.822l-30.801-10.457l30.801-10.462l30.802,10.462L138.337,791.822z M138.337,769.254
		l-30.801-10.462l30.801-10.463l30.811,10.463L138.337,769.254z M138.337,746.68l-30.801-10.462l30.801-10.457l30.802,10.457
		L138.337,746.68z M138.337,724.112l-30.801-10.463l30.801-10.462l30.811,10.462L138.337,724.112z M138.337,701.538l-30.801-10.462
		l30.801-10.457l30.811,10.457L138.337,701.538z M138.337,678.97l-30.801-10.463l30.801-10.462l30.802,10.462L138.337,678.97z
		 M138.337,656.396l-30.801-10.463l30.801-10.457l30.811,10.457L138.337,656.396z M138.337,633.827l-30.801-10.463l30.801-10.462
		l30.802,10.462L138.337,633.827z M138.337,611.253l-30.801-10.462l30.801-10.457l30.811,10.457L138.337,611.253z M138.337,588.685
		l-30.801-10.462l30.801-10.462l30.811,10.462L138.337,588.685z M138.337,566.111l-30.801-10.462l30.801-10.457l30.802,10.457
		L138.337,566.111z M138.337,543.543l-30.801-10.462l30.801-10.462l30.811,10.462L138.337,543.543z M138.337,520.969l-30.801-10.462
		l30.801-10.457l30.802,10.457L138.337,520.969z M138.337,498.401l-30.801-10.462l30.801-10.462l30.811,10.462L138.337,498.401z
		 M138.337,475.827l-30.801-10.462l30.801-10.462l30.811,10.462L138.337,475.827z M138.337,453.253l-30.801-10.457l30.801-10.462
		l30.802,10.462L138.337,453.253z M138.337,430.685l-30.801-10.462l30.801-10.463l30.811,10.463L138.337,430.685z M138.337,408.111
		l-30.801-10.457l30.801-10.463l30.811,10.463L138.337,408.111z M140.772,386.368l30.801-10.462l30.802,10.462l-30.802,10.462
		L140.772,386.368z M204.801,387.192l30.801,10.463l-30.801,10.457l-30.802-10.457L204.801,387.192z M207.226,386.368l30.801-10.462
		l30.802,10.462l-30.802,10.462L207.226,386.368z M271.264,387.192l30.802,10.463l-30.802,10.457l-30.801-10.457L271.264,387.192z
		 M273.689,386.368l30.801-10.462l30.802,10.462l-30.802,10.462L273.689,386.368z M337.718,387.192l30.802,10.463l-30.802,10.457
		l-30.801-10.457L337.718,387.192z M340.153,386.368l30.802-10.462l30.801,10.462l-30.801,10.462L340.153,386.368z M404.181,387.192
		l30.801,10.463l-30.801,10.457l-30.802-10.457L404.181,387.192z M406.606,386.368l30.802-10.462l30.801,10.462l-30.801,10.462
		L406.606,386.368z M470.644,387.192l30.802,10.463l-30.802,10.457l-30.801-10.457L470.644,387.192z M473.07,386.368l30.801-10.462
		l30.802,10.462l-30.802,10.462L473.07,386.368z M537.098,387.192l30.802,10.463l-30.802,10.457l-30.802-10.457L537.098,387.192z
		 M539.523,386.368l30.801-10.462l30.811,10.462l-30.811,10.462L539.523,386.368z M603.562,387.192l30.802,10.463l-30.802,10.457
		l-30.802-10.457L603.562,387.192z M605.987,386.368l30.802-10.462l30.801,10.462l-30.801,10.462L605.987,386.368z M670.015,387.192
		l30.812,10.463l-30.812,10.457l-30.802-10.457L670.015,387.192z M672.451,386.368l30.802-10.462l30.802,10.462l-30.802,10.462
		L672.451,386.368z M736.479,387.192l30.802,10.463l-30.802,10.457l-30.802-10.457L736.479,387.192z M738.904,386.368l30.802-10.462
		l30.801,10.462l-30.801,10.462L738.904,386.368z M802.942,387.192l30.802,10.463l-30.802,10.457l-30.802-10.457L802.942,387.192z
		 M836.169,398.479l30.802,10.457l-30.802,10.462l-30.802-10.462L836.169,398.479z M869.396,409.76l30.802,10.463l-30.802,10.462
		l-30.802-10.462L869.396,409.76z M902.633,421.047l30.802,10.463l-30.802,10.462l-30.802-10.462L902.633,421.047z M935.86,432.334
		l30.802,10.462l-30.802,10.457l-30.802-10.457L935.86,432.334z M969.086,443.621l30.801,10.457l-30.801,10.462l-30.802-10.462
		L969.086,443.621z M1002.323,454.902l30.801,10.462l-30.801,10.462l-30.811-10.462L1002.323,454.902z M1035.55,466.189
		l30.802,10.462l-30.802,10.462l-30.801-10.462L1035.55,466.189z M1068.777,477.476l30.801,10.462l-30.801,10.462l-30.802-10.462
		L1068.777,477.476z M1102.013,488.763l30.801,10.462l-30.801,10.457l-30.811-10.457L1102.013,488.763z M1135.24,500.05
		l30.802,10.457l-30.802,10.462l-30.802-10.462L1135.24,500.05z M1168.467,511.332l30.802,10.462l-30.802,10.463l-30.802-10.463
		L1168.467,511.332z M1168.467,533.905l30.802,10.462l-30.802,10.457l-30.802-10.457L1168.467,533.905z M1168.467,556.473
		l30.802,10.462l-30.802,10.462l-30.802-10.462L1168.467,556.473z M1168.467,579.047l30.802,10.462l-30.802,10.457l-30.802-10.457
		L1168.467,579.047z M1168.467,601.616l30.802,10.462l-30.802,10.463l-30.802-10.463L1168.467,601.616z M1168.467,624.189
		l30.802,10.462l-30.802,10.457l-30.802-10.457L1168.467,624.189z M1168.467,646.758l30.802,10.462l-30.802,10.462l-30.802-10.462
		L1168.467,646.758z M1168.467,669.332l30.802,10.462l-30.802,10.457l-30.802-10.457L1168.467,669.332z M1168.467,691.9
		l30.802,10.463l-30.802,10.462l-30.802-10.462L1168.467,691.9z M1168.467,714.474l30.802,10.463l-30.802,10.457l-30.802-10.457
		L1168.467,714.474z M1168.467,737.042l30.802,10.463l-30.802,10.463l-30.802-10.463L1168.467,737.042z M1168.467,759.616
		l30.802,10.463l-30.802,10.462l-30.802-10.462L1168.467,759.616z M1168.467,782.19l30.802,10.457l-30.802,10.463l-30.802-10.463
		L1168.467,782.19z M1168.467,804.758l30.802,10.462l-30.802,10.462l-30.802-10.462L1168.467,804.758z M1168.467,827.332
		l30.802,10.457l-30.802,10.462l-30.802-10.462L1168.467,827.332z M1168.467,849.9l30.802,10.462l-30.802,10.462l-30.802-10.462
		L1168.467,849.9z M1168.467,872.474l30.802,10.457l-30.802,10.462l-30.802-10.462L1168.467,872.474z M1166.042,894.218
		l-30.802,10.462l-30.802-10.462l30.802-10.463L1166.042,894.218z M1102.003,893.393l-30.801-10.462l30.801-10.457l30.811,10.457
		L1102.003,893.393z M1099.578,894.218l-30.801,10.462l-30.802-10.462l30.802-10.463L1099.578,894.218z M1035.55,893.393
		l-30.801-10.462l30.801-10.457l30.802,10.457L1035.55,893.393z M1033.124,894.218l-30.801,10.462l-30.802-10.462l30.802-10.463
		L1033.124,894.218z M969.086,893.393l-30.802-10.462l30.802-10.457l30.801,10.457L969.086,893.393z M966.661,894.218L935.86,904.68
		l-30.802-10.462l30.802-10.463L966.661,894.218z M902.633,893.393l-30.802-10.462l30.802-10.457l30.802,10.457L902.633,893.393z
		 M900.198,894.218l-30.802,10.462l-30.802-10.462l30.802-10.463L900.198,894.218z M836.169,893.393l-30.802-10.462l30.802-10.457
		l30.802,10.457L836.169,893.393z M833.744,894.218l-30.802,10.462l-30.802-10.462l30.802-10.463L833.744,894.218z M769.706,893.393
		l-30.802-10.462l30.802-10.457l30.801,10.457L769.706,893.393z M767.28,894.218l-30.802,10.462l-30.802-10.462l30.802-10.463
		L767.28,894.218z M703.252,893.393l-30.802-10.462l30.802-10.457l30.802,10.457L703.252,893.393z M700.827,894.218l-30.812,10.462
		l-30.802-10.462l30.802-10.463L700.827,894.218z M636.789,893.393l-30.802-10.462l30.802-10.457l30.801,10.457L636.789,893.393z
		 M634.363,894.218l-30.802,10.462l-30.802-10.462l30.802-10.463L634.363,894.218z M570.335,893.393l-30.811-10.462l30.801-10.457
		l30.811,10.457L570.335,893.393z M567.9,894.218l-30.802,10.462l-30.802-10.462l30.802-10.463L567.9,894.218z M503.871,893.393
		l-30.801-10.462l30.801-10.457l30.802,10.457L503.871,893.393z M501.446,894.218l-30.802,10.462l-30.811-10.462l30.811-10.463
		L501.446,894.218z M437.408,893.393l-30.802-10.462l30.802-10.457l30.801,10.457L437.408,893.393z M434.983,894.218l-30.801,10.462
		l-30.802-10.462l30.802-10.463L434.983,894.218z M370.954,893.393l-30.802-10.462l30.802-10.457l30.801,10.457L370.954,893.393z
		 M368.519,894.218l-30.802,10.462l-30.801-10.462l30.801-10.463L368.519,894.218z M304.491,893.393l-30.801-10.462l30.801-10.457
		l30.802,10.457L304.491,893.393z M302.066,894.218l-30.802,10.462l-30.801-10.462l30.801-10.463L302.066,894.218z M238.027,893.393
		l-30.801-10.462l30.801-10.457l30.802,10.457L238.027,893.393z M235.602,894.218l-30.801,10.462l-30.802-10.462l30.802-10.463
		L235.602,894.218z M171.574,893.393l-30.801-10.462l30.801-10.457l30.802,10.457L171.574,893.393z M169.139,894.218l-30.802,10.462
		l-30.801-10.462l30.801-10.463L169.139,894.218z M105.11,893.393l-30.801-10.462l30.801-10.457l30.801,10.457L105.11,893.393z
		 M105.11,870.825l-30.801-10.462L105.11,849.9l30.801,10.462L105.11,870.825z M105.11,848.251l-30.801-10.462l30.801-10.457
		l30.801,10.457L105.11,848.251z M105.11,825.683L74.309,815.22l30.801-10.462l30.801,10.462L105.11,825.683z M105.11,803.109
		l-30.801-10.463l30.801-10.457l30.801,10.457L105.11,803.109z M105.11,780.541l-30.801-10.462l30.801-10.463l30.801,10.463
		L105.11,780.541z M105.11,757.967l-30.801-10.463l30.801-10.463l30.801,10.463L105.11,757.967z M105.11,735.399l-30.801-10.462
		l30.801-10.463l30.801,10.463L105.11,735.399z M105.11,712.825l-30.801-10.462L105.11,691.9l30.801,10.463L105.11,712.825z
		 M105.11,690.251l-30.801-10.457l30.801-10.462l30.801,10.462L105.11,690.251z M105.11,667.683L74.309,657.22l30.801-10.462
		l30.801,10.462L105.11,667.683z M105.11,645.109l-30.801-10.457l30.801-10.462l30.801,10.462L105.11,645.109z M105.11,622.541
		l-30.801-10.463l30.801-10.462l30.801,10.462L105.11,622.541z M105.11,599.967L74.309,589.51l30.801-10.462l30.801,10.462
		L105.11,599.967z M105.11,577.398l-30.801-10.462l30.801-10.462l30.801,10.462L105.11,577.398z M105.11,554.825l-30.801-10.457
		l30.801-10.462l30.801,10.462L105.11,554.825z M105.11,532.256l-30.801-10.463l30.801-10.462l30.801,10.462L105.11,532.256z
		 M105.11,509.682l-30.801-10.457l30.801-10.462l30.801,10.462L105.11,509.682z M105.11,487.114l-30.801-10.462l30.801-10.462
		l30.801,10.462L105.11,487.114z M105.11,464.54l-30.801-10.462l30.801-10.457l30.801,10.457L105.11,464.54z M105.11,441.972
		L74.309,431.51l30.801-10.463l30.801,10.463L105.11,441.972z M105.11,419.398l-30.801-10.462l30.801-10.457l30.801,10.457
		L105.11,419.398z M105.11,396.83l-30.801-10.462l30.801-10.462l30.801,10.462L105.11,396.83z M138.337,364.618l30.811,10.463
		l-30.811,10.462l-30.801-10.462L138.337,364.618z M202.375,363.794l-30.802,10.462l-30.801-10.462l30.801-10.457L202.375,363.794z
		 M204.801,364.618l30.801,10.463l-30.801,10.462l-30.802-10.462L204.801,364.618z M268.829,363.794l-30.802,10.462l-30.801-10.462
		l30.801-10.457L268.829,363.794z M271.264,364.618l30.802,10.463l-30.802,10.462l-30.801-10.462L271.264,364.618z M335.292,363.794
		l-30.802,10.462l-30.801-10.462l30.801-10.457L335.292,363.794z M337.718,364.618l30.802,10.463l-30.802,10.462l-30.801-10.462
		L337.718,364.618z M401.756,363.794l-30.801,10.462l-30.802-10.462l30.802-10.457L401.756,363.794z M404.181,364.618l30.801,10.463
		l-30.801,10.462l-30.802-10.462L404.181,364.618z M468.209,363.794l-30.801,10.462l-30.802-10.462l30.802-10.457L468.209,363.794z
		 M470.644,364.618l30.802,10.463l-30.802,10.462l-30.811-10.462L470.644,364.618z M534.673,363.794l-30.802,10.462l-30.801-10.462
		l30.801-10.457L534.673,363.794z M537.098,364.618l30.802,10.463l-30.802,10.462l-30.802-10.462L537.098,364.618z M601.136,363.794
		l-30.811,10.462l-30.801-10.462l30.811-10.457L601.136,363.794z M603.562,364.618l30.802,10.463l-30.802,10.462l-30.802-10.462
		L603.562,364.618z M667.59,363.794l-30.801,10.462l-30.802-10.462l30.802-10.457L667.59,363.794z M670.015,364.618l30.802,10.463
		l-30.802,10.462l-30.802-10.462L670.015,364.618z M734.054,363.794l-30.802,10.462l-30.802-10.462l30.802-10.457L734.054,363.794z
		 M736.479,364.618l30.802,10.463l-30.802,10.462l-30.802-10.462L736.479,364.618z M800.507,363.794l-30.801,10.462l-30.802-10.462
		l30.802-10.457L800.507,363.794z M833.744,375.081l-30.802,10.462l-30.802-10.462l30.802-10.463L833.744,375.081z M866.971,386.368
		l-30.802,10.462l-30.802-10.462l30.802-10.462L866.971,386.368z M900.198,397.654l-30.802,10.457l-30.802-10.457l30.802-10.463
		L900.198,397.654z M933.434,408.936l-30.802,10.462l-30.802-10.462l30.802-10.457L933.434,408.936z M966.661,420.223
		l-30.802,10.462l-30.802-10.462l30.802-10.463L966.661,420.223z M999.888,431.51l-30.801,10.462l-30.802-10.462l30.802-10.463
		L999.888,431.51z M1033.124,442.797l-30.801,10.457l-30.802-10.457l30.802-10.462L1033.124,442.797z M1066.351,454.078
		l-30.802,10.462l-30.801-10.462l30.801-10.457L1066.351,454.078z M1099.578,465.365l-30.801,10.462l-30.802-10.462l30.802-10.462
		L1099.578,465.365z M1132.815,476.652l-30.801,10.462l-30.811-10.462l30.811-10.462L1132.815,476.652z M1166.042,487.939
		l-30.802,10.462l-30.802-10.462l30.802-10.462L1166.042,487.939z M1199.268,499.22l-30.802,10.462l-30.802-10.457l30.802-10.462
		L1199.268,499.22z M1201.694,520.969l-30.802-10.462l30.802-10.462l30.811,10.462L1201.694,520.969z M1201.694,543.543
		l-30.802-10.462l30.802-10.462l30.811,10.462L1201.694,543.543z M1201.694,566.111l-30.802-10.462l30.802-10.457l30.811,10.457
		L1201.694,566.111z M1201.694,588.685l-30.802-10.462l30.802-10.462l30.811,10.462L1201.694,588.685z M1201.694,611.253
		l-30.802-10.462l30.802-10.457l30.802,10.457L1201.694,611.253z M1201.694,633.827l-30.802-10.463l30.802-10.462l30.811,10.462
		L1201.694,633.827z M1201.694,656.396l-30.802-10.463l30.802-10.457l30.802,10.457L1201.694,656.396z M1201.694,678.97
		l-30.802-10.463l30.802-10.462l30.811,10.462L1201.694,678.97z M1201.694,701.538l-30.802-10.462l30.802-10.457l30.811,10.457
		L1201.694,701.538z M1201.694,724.112l-30.802-10.463l30.802-10.462l30.802,10.462L1201.694,724.112z M1201.694,746.68
		l-30.802-10.462l30.802-10.457l30.811,10.457L1201.694,746.68z M1201.694,769.254l-30.802-10.462l30.802-10.463l30.802,10.463
		L1201.694,769.254z M1201.694,791.822l-30.802-10.457l30.802-10.462l30.811,10.462L1201.694,791.822z M1201.694,814.396
		l-30.802-10.463l30.802-10.462l30.802,10.462L1201.694,814.396z M1201.694,836.964l-30.802-10.457l30.802-10.462l30.811,10.462
		L1201.694,836.964z M1201.694,859.538l-30.802-10.462l30.802-10.463l30.811,10.463L1201.694,859.538z M1201.694,882.106
		l-30.802-10.457l30.802-10.463l30.802,10.463L1201.694,882.106z M1201.694,904.68l-30.802-10.462l30.802-10.463l30.811,10.463
		L1201.694,904.68z M1170.892,916.792l30.802-10.462l30.802,10.462l-30.802,10.457L1170.892,916.792z M1168.467,915.967
		l-30.802-10.462l30.802-10.462l30.802,10.462L1168.467,915.967z M1104.439,916.792l30.802-10.462l30.802,10.462l-30.802,10.457
		L1104.439,916.792z M1102.013,915.967l-30.811-10.462l30.811-10.462l30.801,10.462L1102.013,915.967z M1037.975,916.792
		l30.802-10.462l30.801,10.462l-30.801,10.457L1037.975,916.792z M1035.55,915.967l-30.801-10.462l30.801-10.462l30.802,10.462
		L1035.55,915.967z M971.512,916.792l30.811-10.462l30.801,10.462l-30.801,10.457L971.512,916.792z M969.086,915.967l-30.802-10.462
		l30.802-10.462l30.801,10.462L969.086,915.967z M905.058,916.792l30.802-10.462l30.802,10.462l-30.802,10.457L905.058,916.792z
		 M902.633,915.967l-30.802-10.462l30.802-10.462l30.802,10.462L902.633,915.967z M838.594,916.792l30.802-10.462l30.802,10.462
		l-30.802,10.457L838.594,916.792z M836.169,915.967l-30.802-10.462l30.802-10.462l30.802,10.462L836.169,915.967z M772.141,916.792
		l30.802-10.462l30.802,10.462l-30.802,10.457L772.141,916.792z M769.706,915.967l-30.802-10.462l30.802-10.462l30.801,10.462
		L769.706,915.967z M705.677,916.792l30.802-10.462l30.802,10.462l-30.802,10.457L705.677,916.792z M703.252,915.967l-30.802-10.462
		l30.802-10.462l30.802,10.462L703.252,915.967z M639.214,916.792l30.802-10.462l30.802,10.462l-30.802,10.457L639.214,916.792z
		 M636.789,915.967l-30.802-10.462l30.802-10.462l30.801,10.462L636.789,915.967z M572.76,916.792l30.802-10.462l30.802,10.462
		l-30.802,10.457L572.76,916.792z M570.325,915.967l-30.801-10.462l30.811-10.462l30.801,10.462L570.325,915.967z M506.297,916.792
		l30.802-10.462l30.802,10.462l-30.802,10.457L506.297,916.792z M503.871,915.967l-30.801-10.462l30.801-10.462l30.802,10.462
		L503.871,915.967z M439.833,916.792l30.811-10.462l30.802,10.462l-30.802,10.457L439.833,916.792z M437.408,915.967l-30.802-10.462
		l30.802-10.462l30.801,10.462L437.408,915.967z M373.38,916.792l30.802-10.462l30.801,10.462l-30.801,10.457L373.38,916.792z
		 M370.954,915.967l-30.811-10.462l30.811-10.462l30.801,10.462L370.954,915.967z M306.916,916.792l30.801-10.462l30.802,10.462
		l-30.802,10.457L306.916,916.792z M304.491,915.967l-30.801-10.462l30.801-10.462l30.802,10.462L304.491,915.967z M240.463,916.792
		l30.801-10.462l30.802,10.462l-30.802,10.457L240.463,916.792z M238.027,915.967l-30.801-10.462l30.801-10.462l30.802,10.462
		L238.027,915.967z M173.999,916.792l30.802-10.462l30.801,10.462l-30.801,10.457L173.999,916.792z M171.574,915.967l-30.801-10.462
		l30.801-10.462l30.802,10.462L171.574,915.967z M107.535,916.792l30.801-10.462l30.811,10.462l-30.811,10.457L107.535,916.792z
		 M105.11,915.967l-30.801-10.462l30.801-10.462l30.801,10.462L105.11,915.967z M71.883,906.329l30.801,10.462l-30.801,10.457
		l-30.802-10.457L71.883,906.329z M71.883,883.755l30.801,10.463L71.883,904.68l-30.802-10.462L71.883,883.755z M71.883,861.187
		l30.801,10.463l-30.801,10.457l-30.802-10.457L71.883,861.187z M71.883,838.613l30.801,10.463l-30.801,10.462l-30.802-10.462
		L71.883,838.613z M71.883,816.045l30.801,10.462l-30.801,10.457l-30.802-10.457L71.883,816.045z M71.883,793.471l30.801,10.462
		l-30.801,10.463l-30.802-10.463L71.883,793.471z M71.883,770.903l30.801,10.462l-30.801,10.457l-30.802-10.457L71.883,770.903z
		 M71.883,748.329l30.801,10.463l-30.801,10.462l-30.802-10.462L71.883,748.329z M71.883,725.761l30.801,10.457L71.883,746.68
		l-30.802-10.457L71.883,725.761z M71.883,703.187l30.801,10.462l-30.801,10.463l-30.802-10.463L71.883,703.187z M71.883,680.619
		l30.801,10.457l-30.801,10.462l-30.802-10.462L71.883,680.619z M71.883,658.045l30.801,10.462L71.883,678.97l-30.802-10.463
		L71.883,658.045z M71.883,635.476l30.801,10.457l-30.801,10.463l-30.802-10.463L71.883,635.476z M71.883,612.903l30.801,10.462
		l-30.801,10.463l-30.802-10.463L71.883,612.903z M71.883,590.334l30.801,10.457l-30.801,10.462l-30.802-10.462L71.883,590.334z
		 M71.883,567.76l30.801,10.462l-30.801,10.462l-30.802-10.462L71.883,567.76z M71.883,545.192l30.801,10.457l-30.801,10.462
		l-30.802-10.462L71.883,545.192z M71.883,522.618l30.801,10.462l-30.801,10.462l-30.802-10.462L71.883,522.618z M71.883,500.044
		l30.801,10.462l-30.801,10.462l-30.802-10.462L71.883,500.044z M71.883,477.476l30.801,10.462l-30.801,10.462l-30.802-10.462
		L71.883,477.476z M71.883,454.902l30.801,10.462l-30.801,10.462l-30.802-10.462L71.883,454.902z M71.883,432.334l30.801,10.462
		l-30.801,10.457l-30.802-10.457L71.883,432.334z M71.883,409.76l30.801,10.463l-30.801,10.462l-30.802-10.462L71.883,409.76z
		 M71.883,387.192l30.801,10.463l-30.801,10.457l-30.802-10.457L71.883,387.192z M71.883,364.618l30.801,10.463l-30.801,10.462
		l-30.802-10.462L71.883,364.618z M1246.35,891.617l-0.669,0.343h0.669V891.617z"/>
</g>
</svg>
