<?xml version="1.0" encoding="utf-8"?>
<!-- Generator: Adobe Illustrator 17.0.0, SVG Export Plug-In . SVG Version: 6.00 Build 0)  -->
<!DOCTYPE svg PUBLIC "-//W3C//DTD SVG 1.1//EN" "http://www.w3.org/Graphics/SVG/1.1/DTD/svg11.dtd">
<svg version="1.1" id="Layer_1" xmlns="http://www.w3.org/2000/svg" xmlns:xlink="http://www.w3.org/1999/xlink" x="0px" y="0px"
	 width="450.045px" height="402.04px" viewBox="0 0 450.045 402.04" enable-background="new 0 0 450.045 402.04"
	 xml:space="preserve">
<g opacity="0.8">
	<g>
		
			<linearGradient id="SVGID_1_" gradientUnits="userSpaceOnUse" x1="1098.3325" y1="3882.6733" x2="1098.3325" y2="3998.9067" gradientTransform="matrix(-0.7071 -0.7071 0.7071 -0.7071 -1743.5876 3837.1079)">
			<stop  offset="0" style="stop-color:#F47D53;stop-opacity:0"/>
			<stop  offset="0.2167" style="stop-color:#F47850;stop-opacity:0.2167"/>
			<stop  offset="0.509" style="stop-color:#F26B48;stop-opacity:0.509"/>
			<stop  offset="0.8428" style="stop-color:#F0523C;stop-opacity:0.8428"/>
			<stop  offset="1" style="stop-color:#EF4137"/>
		</linearGradient>
		<circle fill="url(#SVGID_1_)" cx="266.314" cy="273.944" r="58.116"/>
		
			<linearGradient id="SVGID_3_" gradientUnits="userSpaceOnUse" x1="-2285.6768" y1="2002.7053" x2="-2096.6621" y2="2002.7053" gradientTransform="matrix(0 1 -1 0 2275.7813 2355.6565)">
			<stop  offset="0" style="stop-color:#F47D53;stop-opacity:0"/>
			<stop  offset="0.125" style="stop-color:#EF7B54;stop-opacity:0.125"/>
			<stop  offset="0.251" style="stop-color:#E47758;stop-opacity:0.251"/>
			<stop  offset="0.3776" style="stop-color:#D4705E;stop-opacity:0.3776"/>
			<stop  offset="0.5046" style="stop-color:#BE6765;stop-opacity:0.5046"/>
			<stop  offset="0.632" style="stop-color:#A25C6C;stop-opacity:0.632"/>
			<stop  offset="0.7597" style="stop-color:#825174;stop-opacity:0.7597"/>
			<stop  offset="0.8852" style="stop-color:#5B457C;stop-opacity:0.8852"/>
			<stop  offset="1" style="stop-color:#293B83"/>
		</linearGradient>
		<path fill="url(#SVGID_3_)" d="M339.903,231.314c36.908-36.907,36.908-96.746,0-133.653c-36.908-36.907-96.746-36.907-133.654,0
			c-36.907,36.907-36.907,96.746,0,133.653C243.157,268.221,302.995,268.221,339.903,231.314z M218.889,218.675
			c-14.474-14.475-22.446-33.719-22.446-54.188s7.972-39.713,22.446-54.187c14.474-14.475,33.719-22.445,54.187-22.445
			c20.47,0,39.715,7.971,54.189,22.445c14.471,14.473,22.444,33.718,22.444,54.187s-7.972,39.714-22.446,54.188
			c-14.471,14.473-33.716,22.444-54.187,22.444C252.607,241.119,233.363,233.149,218.889,218.675z"/>
	</g>
</g>
</svg>
