<svg xmlns="http://www.w3.org/2000/svg" xmlns:xlink="http://www.w3.org/1999/xlink" viewBox="0 0 807.22 365.96"><defs><style>.cls-1{isolation:isolate;}.cls-2{fill:url(#linear-gradient);}.cls-3,.cls-4{fill-opacity:0.8;opacity:0.5;mix-blend-mode:overlay;}.cls-3{fill:url(#linear-gradient-2);}.cls-4{fill:url(#linear-gradient-3);}.cls-5{opacity:0.8;}.cls-6{fill:url(#linear-gradient-4);}.cls-7{fill:url(#linear-gradient-5);}.cls-8{fill:url(#linear-gradient-6);}.cls-9{fill:url(#linear-gradient-7);}</style><linearGradient id="linear-gradient" y1="138.18" x2="807.22" y2="138.18" gradientUnits="userSpaceOnUse"><stop offset="0" stop-color="#1c3852"/><stop offset="0.15" stop-color="#1c4068"/><stop offset="0.37" stop-color="#1b4a82"/><stop offset="0.57" stop-color="#1b5091"/><stop offset="0.73" stop-color="#1b5297"/></linearGradient><linearGradient id="linear-gradient-2" x1="803.49" y1="269.14" x2="803.49" y2="267.54" gradientUnits="userSpaceOnUse"><stop offset="0" stop-color="#293b83"/><stop offset="1" stop-color="#344c96" stop-opacity="0"/></linearGradient><linearGradient id="linear-gradient-3" x1="403.61" y1="176.73" x2="403.61" y2="-54.15" xlink:href="#linear-gradient-2"/><linearGradient id="linear-gradient-4" x1="1649.7" y1="4922.18" x2="1649.7" y2="4955.81" gradientTransform="translate(-2300.13 4835.92) rotate(-135)" gradientUnits="userSpaceOnUse"><stop offset="0" stop-color="#f47d53" stop-opacity="0"/><stop offset="0.1" stop-color="#f47b52" stop-opacity="0.03"/><stop offset="0.23" stop-color="#f47750" stop-opacity="0.1"/><stop offset="0.38" stop-color="#f3704d" stop-opacity="0.22"/><stop offset="0.54" stop-color="#f26648" stop-opacity="0.38"/><stop offset="0.72" stop-color="#f15942" stop-opacity="0.59"/><stop offset="0.9" stop-color="#f04a3b" stop-opacity="0.85"/><stop offset="1" stop-color="#ef4137"/></linearGradient><linearGradient id="linear-gradient-5" x1="-2924.86" y1="2791.39" x2="-2869.09" y2="2791.39" gradientTransform="translate(2819.04 3041.74) rotate(90)" gradientUnits="userSpaceOnUse"><stop offset="0" stop-color="#f47d53" stop-opacity="0"/><stop offset="0.17" stop-color="#ee7b54" stop-opacity="0.03"/><stop offset="0.35" stop-color="#db7559" stop-opacity="0.12"/><stop offset="0.52" stop-color="#bc6b60" stop-opacity="0.28"/><stop offset="0.7" stop-color="#905c6b" stop-opacity="0.49"/><stop offset="0.88" stop-color="#584a78" stop-opacity="0.77"/><stop offset="1" stop-color="#293b83"/></linearGradient><linearGradient id="linear-gradient-6" x1="746.7" y1="372.91" x2="789.6" y2="330.02" gradientTransform="matrix(1, 0, 0, 1, 0, 0)" xlink:href="#linear-gradient-4"/><linearGradient id="linear-gradient-7" x1="806.8" y1="322.6" x2="722.93" y2="321.75" gradientUnits="userSpaceOnUse"><stop offset="0" stop-color="#f47d53" stop-opacity="0"/><stop offset="0.11" stop-color="#cf715c" stop-opacity="0.18"/><stop offset="0.34" stop-color="#6f5272" stop-opacity="0.65"/><stop offset="0.5" stop-color="#293b83"/><stop offset="1" stop-color="#293b83"/></linearGradient></defs><g class="cls-1"><g id="Layer_1" data-name="Layer 1"><path class="cls-2" d="M0,0V86.22L214.33,164.6C233,171.44,255.05,173,275.52,169l123.16-24.12c20.47-4,42.48-2.41,61.19,4.43l347.35,127V0Z"/><polygon class="cls-3" points="807.22 267.12 799.76 269.29 801.05 269.75 807.22 267.96 807.22 267.12"/><path class="cls-4" d="M789.79,0h-6.9l1.54.45-24.26,7-24.26-7L737.44,0h-6.9l1.54.45-24.26,7-24.26-7L685.09,0H678.2l1.53.45-24.26,7-24.26-7L632.75,0h-6.9l1.53.45-24.26,7-24.26-7L580.4,0h-6.9L575,.45l-24.26,7-24.26-7L528.05,0h-6.9l1.54.45-24.26,7-24.26-7L475.7,0h-6.9l1.54.45-24.26,7-24.26-7L423.35,0h-6.89L418,.45l-24.27,7-24.26-7L371,0h-6.89l1.54.45-24.27,7-24.26-7L318.66,0h-6.9l1.53.45L289,7.48l-24.26-7L266.31,0h-6.89L261,.45l-24.26,7-24.26-7L214,0h-6.9l1.53.45-24.26,7-24.26-7L161.61,0h-6.9l1.54.45L132,7.48l-24.26-7L109.26,0h-6.89l1.54.45-24.26,7L55.39.45,56.92,0H50l1.54.45-24.26,7L3,.45,4.57,0H0V1.33L1.12,1,25.39,8l-24.27,7L0,14.75v1.76l1.12-.33,24.27,7-24.27,7L0,29.93v1.76l1.12-.32,24.27,7-24.27,7L0,45.11v1.77l1.12-.33,24.27,7-24.27,7L0,60.29v1.77l1.12-.33,24.27,7-24.27,7L0,75.48v1.76l1.12-.33,24.27,7L7.86,89l1.71.61L27.3,84.5l24.26,7L31.32,97.41,33,98,53.47,92.1l24.26,7-23,6.66,1.71.61,23.16-6.71,24.26,7-24.26,7-13.57-3.93,16.46,5.88,21.37,6.2-2.22.64,1.72.61,2.41-.7,24.26,7-4.93,1.43,1.71.61,5.13-1.49,24.26,7-7.64,2.22,1.71.61,7.85-2.27,24.26,7-10.36,3,1.71.61,10.56-3.07,24.26,7-13.08,3.8,1.72.61,13.27-3.85,24.26,7-15.55,4.51,1.89.57,15.58-4.52,24.26,7-6,1.73c1.44,0,2.87-.06,4.31-.14l3.59-1,2.1.61c.93-.09,1.87-.18,2.8-.3l-3-.86,24.26-7,8.53,2.47,2.31-.44-8.93-2.59,24.27-7,13.9,4,2.31-.44-14.3-4.15,24.26-7,19.28,5.6,2.3-.45-19.67-5.7,24.27-7,24.26,7-1.9.55,8.76-1.68c.7-.13,1.41-.24,2.11-.36l19.12-5.54,16.26,4.71q4.29.52,8.47,1.35l-22.82-6.62,24.26-7,24.26,7-24,7q1.1.23,2.16.48l23.78-6.89,24.26,7-24.26,7-8.71-2.53,16.52,5.9,16.46,4.77-1.71.5,1.71.61,1.91-.55,24.26,7-4.42,1.28,1.71.61L524.6,168l24.26,7-7.14,2.07,1.72.61,7.33-2.13,24.26,7-9.85,2.86,1.71.61L577,183.19l24.26,7-12.57,3.65,1.71.61,12.77-3.71,24.26,7-15.28,4.44,1.71.61,15.48-4.49,24.27,7-18,5.22,1.72.62,18.2-5.28,24.26,7L659,219l1.72.61,20.92-6.06,24.26,7-23.44,6.8,1.71.61,23.64-6.85,24.26,7-24.26,7-18.21-5.28,18,6.44.18,0,24.26,7-2.7.78,1.72.61,2.9-.84,24.26,7-5.42,1.57,1.72.61,5.61-1.63,24.26,7-8.13,2.36,1.72.61,8.32-2.41,20.88,6.05v-1.11l-19-5.5,19-5.5v-1.11L786.34,258l-24.26-7,24.26-7L807.22,250v-1.11l-19-5.5,19-5.5v-1.11l-20.88,6.05-24.26-7,24.26-7,20.88,6.06v-1.11l-19-5.5,19-5.51v-1.11l-20.88,6.06-24.26-7,24.26-7,20.88,6.05V218.5l-19-5.5,19-5.5v-1.11l-20.88,6.06-24.26-7,24.26-7,20.88,6.05v-1.11l-19-5.5,19-5.5v-1.11l-20.88,6.06-24.26-7,24.26-7,20.88,6.06v-1.11l-19-5.5,19-5.5V176l-20.88,6.05-24.26-7,24.26-7,20.88,6.06V173l-19-5.5,19-5.51v-1.11l-20.88,6.06-24.26-7,24.26-7,20.88,6v-1.11l-19-5.5,19-5.5v-1.11l-20.88,6.06-24.26-7,24.26-7,20.88,6v-1.11l-19-5.5,19-5.5v-1.11l-20.88,6.06-24.26-7,24.26-7,20.88,6.06v-1.11l-19-5.5,19-5.51v-1.11l-20.88,6.06-24.26-7,24.26-7,20.88,6v-1.11l-19-5.49,19-5.51v-1.11l-20.88,6.06-24.26-7,24.26-7,20.88,6.05V97l-19-5.5,19-5.5V84.93L786.34,91l-24.26-7,24.26-7L807.22,83V81.86l-19-5.5,19-5.5V69.75l-20.88,6.06-24.26-7,24.26-7,20.88,6.06V66.68l-19-5.5,19-5.51V54.56l-20.88,6.06-24.26-7,24.26-7,20.88,6.05V51.5l-19-5.5,19-5.51V39.38l-20.88,6.06-24.26-7,24.26-7,20.88,6.05V36.31l-19-5.5,19-5.5V24.2l-20.88,6.06-24.26-7,24.26-7,20.88,6.06V21.13l-19-5.5,19-5.5V9l-20.88,6.06L762.08,8l24.26-7,20.88,6.06V6l-19-5.5ZM734,1l24.26,7-24.26,7L709.73,8ZM132,54.14l24.26,7-24.26,7-24.26-7Zm-26.17,6.48-24.26-7,24.26-7,24.26,7Zm392.61,8.7,24.26,7-24.26,7-24.26-7Zm-26.18,6.49-24.26-7,24.26-7,24.27,7ZM605,99.13l24.26-7,24.27,7-24.27,7Zm48.53,15.18-24.27,7-24.26-7,24.26-7ZM603.12,84.5l24.26,7-24.26,7-24.26-7ZM577,91l-24.26-7,24.26-7,24.26,7ZM605,84l24.26-7,24.27,7-24.27,7Zm0-15.18,24.26-7,24.27,7-24.27,7Zm22.35,7.59-24.26,7-24.26-7,24.26-7ZM577,75.81l-24.26-7,24.26-7,24.26,7Zm-1.92.55-24.26,7-24.26-7,24.26-7Zm-50.43-.55-24.26-7,24.26-7,24.26,7Zm0,1.1,24.26,7L524.6,91l-24.26-7Zm26.17,7.59,24.26,7-24.26,7-24.26-7ZM577,92.1l24.26,7-24.26,7-24.26-7Zm26.17,7.59,24.26,7-24.26,7-24.26-7Zm24.26,22.22-24.26,7-24.26-7,24.26-7Zm1.91.55,24.27,7-24.27,7-24.26-7Zm26.18,7.59,24.26,7-24.26,7-24.26-7Zm-24.26-8.14,24.26-7,24.26,7-24.26,7Zm0-15.18,24.26-7,24.26,7-24.26,7Zm0-15.19,24.26-7,24.26,7-24.26,7Zm0-15.18,24.26-7,24.26,7-24.26,7Zm0-15.18,24.26-7,24.26,7-24.26,7Zm-1.92-.56-24.26-7,24.26-7,24.27,7Zm-1.91.56-24.26,7-24.26-7,24.26-7ZM577,60.62l-24.26-7,24.26-7,24.26,7Zm-1.92.56-24.26,7-24.26-7,24.26-7Zm-50.43-.56-24.26-7,24.26-7,24.26,7Zm-1.91.56-24.26,7-24.26-7,24.26-7Zm-50.44-.56-24.26-7,24.26-7,24.27,7Zm-1.91.56-24.26,7-24.26-7,24.26-7Zm-157,15.18-24.26,7-24.26-7,24.26-7Zm-22.35-7.59,24.27-7,24.26,7-24.26,7ZM287.12,84l-24.26,7L238.6,84l24.26-7Zm-24.26-8.14-24.26-7,24.26-7,24.26,7Zm-1.91.55-24.26,7-24.26-7,24.26-7Zm-50.44-.55-24.26-7,24.26-7,24.26,7ZM234.77,84l-24.26,7-24.26-7,24.26-7Zm1.92.55,24.26,7-24.26,7-24.26-7Zm26.17,7.6,24.26,7-24.26,7-24.26-7Zm1.91-.56,24.26-7,24.26,7-24.26,7ZM290.94,84l24.27-7,24.26,7-24.26,7Zm26.18-7.59,24.26-7,24.27,7-24.27,7Zm26.17-7.59,24.27-7,24.26,7-24.26,7Zm50.45.55,24.26,7-24.27,7-24.26-7Zm1.91-.55,24.26-7,24.26,7-24.26,7Zm24.26-8.15-24.26-7,24.26-7,24.26,7Zm-1.91.56-24.26,7-24.27-7,24.26-7Zm-50.44-.56-24.27-7,24.27-7,24.26,7Zm-1.91.56-24.27,7-24.26-7,24.26-7Zm-50.44-.56-24.27-7,24.27-7,24.26,7Zm-1.92.56-24.26,7-24.26-7,24.26-7Zm-50.43-.56-24.26-7,24.26-7,24.26,7Zm-1.91.56-24.26,7-24.27-7,24.27-7Zm-50.44-.56-24.26-7,24.26-7,24.26,7Zm-1.91.56-24.26,7-24.26-7,24.26-7Zm-50.43-.56-24.26-7,24.26-7,24.26,7Zm0,1.11,24.26,7-24.26,7-24.26-7Zm26.17,7.59,24.26,7-24.26,7-24.26-7ZM208.6,91.54l-24.26,7-24.26-7,24.26-7Zm1.91.56,24.26,7-24.26,7-24.26-7Zm26.18,7.59,24.26,7-24.26,7-24.27-7Zm26.17,7.59,24.26,7-24.26,7-24.26-7Zm1.91-.55,24.26-7,24.26,7-24.26,7Zm26.17-7.6,24.27-7,24.26,7-24.26,7Zm26.18-7.59,24.26-7,24.27,7-24.27,7ZM343.29,84l24.27-7,24.26,7-24.26,7Zm50.44.55,24.27,7-24.26,7-24.27-7Zm1.92-.55,24.26-7,24.26,7-24.26,7Zm26.17-7.59,24.26-7,24.26,7-24.26,7Zm50.43.55,24.27,7-24.27,7L448,84Zm26.18,7.59,24.26,7-24.26,7-24.26-7Zm26.17,7.6,24.26,7-24.26,7-24.26-7Zm26.17,7.59,24.26,7-24.26,7-24.26-7ZM577,107.28l24.26,7-24.26,7-24.26-7Zm24.26,22.22-24.26,7-24.26-7,24.26-7Zm1.91.55,24.26,7-24.26,7-24.26-7Zm26.17,7.6,24.27,7-24.27,7-24.26-7Zm26.18,7.58,24.26,7-24.26,7-24.26-7Zm26.18,7.6,24.26,7-24.26,7-24.27-7Zm-24.27-8.15,24.27-7,24.26,7-24.26,7Zm0-15.18,24.27-7,24.26,7-24.26,7Zm0-15.19,24.27-7,24.26,7-24.26,7Zm0-15.18,24.27-7,24.26,7-24.26,7Zm0-15.18,24.27-7,24.26,7-24.26,7Zm0-15.18,24.27-7,24.26,7-24.26,7Zm0-15.19,24.27-7,24.26,7-24.26,7Zm0-15.18,24.27-7,24.26,7-24.26,7ZM679.73,46l-24.26,7-24.26-7,24.26-7Zm-50.44-.56L605,38.4l24.26-7,24.27,7Zm-1.91.56-24.26,7-24.26-7,24.26-7ZM577,45.44l-24.26-7,24.26-7,24.26,7ZM575,46l-24.26,7-24.26-7,24.26-7Zm-50.43-.56-24.26-7,24.26-7,24.26,7Zm-1.91.56-24.26,7-24.26-7,24.26-7Zm-50.44-.56L448,38.4l24.26-7,24.27,7Zm-1.91.56-24.26,7-24.26-7,24.26-7Zm-50.43-.56-24.26-7,24.26-7,24.26,7ZM418,46l-24.27,7-24.26-7,24.26-7Zm-50.44-.56-24.27-7,24.27-7,24.26,7Zm-1.91.56-24.27,7-24.26-7,24.26-7Zm-50.44-.56L291,38.4l24.26-7,24.26,7Zm-1.92.56L289,53l-24.26-7L289,39Zm-50.43-.56-24.26-7,24.26-7,24.26,7ZM261,46l-24.26,7-24.26-7,24.26-7Zm-50.44-.56-24.26-7,24.26-7,24.26,7ZM208.6,46l-24.26,7-24.26-7,24.26-7Zm-50.43-.56-24.26-7,24.26-7,24.26,7Zm-1.92.56L132,53l-24.26-7L132,39Zm-50.43-.56-24.26-7,24.26-7,24.26,7Zm-1.91.56L79.65,53,55.39,46l24.26-7Zm0,15.18-24.26,7-24.26-7,24.26-7Zm1.91.55,24.26,7-24.26,7-24.26-7ZM132,69.32l24.26,7-24.26,7-24.26-7Zm26.18,7.59,24.26,7-24.26,7-24.26-7Zm24.26,22.22-24.26,7-24.26-7,24.26-7Zm1.91.56,24.26,7-24.26,7-24.26-7Zm26.17,7.59,24.26,7-24.26,7-24.26-7Zm26.18,7.59,24.26,7-24.26,7-24.26-7Zm26.17,7.59,24.26,7-24.26,7-24.26-7Zm1.91-.55,24.26-7,24.26,7-24.26,7Zm26.17-7.6,24.27-7,24.26,7-24.26,7Zm26.18-7.58,24.26-7,24.27,7-24.27,7Zm26.17-7.6,24.27-7,24.26,7-24.26,7Zm50.45.56,24.26,7-24.27,7-24.26-7Zm1.91-.56,24.26-7,24.26,7-24.26,7Zm26.17-7.59,24.26-7,24.26,7-24.26,7Zm50.43.56,24.26,7-24.26,7-24.26-7Zm26.18,7.59,24.26,7-24.26,7-24.26-7Zm26.17,7.59,24.26,7-24.26,7-24.26-7Zm26.17,7.59,24.26,7-24.26,7-24.26-7ZM575,137.09l-24.26,7-24.26-7,24.26-7Zm1.92.56,24.26,7-24.26,7-24.26-7Zm26.17,7.58,24.26,7-24.26,7-24.26-7Zm26.17,7.6,24.27,7-24.27,7-24.26-7Zm26.18,7.59,24.26,7-24.26,7-24.26-7ZM681.65,168l24.26,7-24.26,7-24.27-7Zm26.17,7.59,24.26,7-24.26,7-24.26-7Zm-24.26-8.14,24.26-7,24.26,7-24.26,7Zm0-15.19,24.26-7,24.26,7-24.26,7Zm0-15.18,24.26-7,24.26,7-24.26,7Zm0-15.18,24.26-7,24.26,7-24.26,7Zm0-15.18,24.26-7,24.26,7-24.26,7Zm0-15.19,24.26-7,24.26,7-24.26,7Zm0-15.18,24.26-7,24.26,7-24.26,7Zm0-15.18,24.26-7,24.26,7-24.26,7Zm0-15.18,24.26-7,24.26,7-24.26,7Zm0-15.19,24.26-7,24.26,7-24.26,7Zm-1.91-.55-24.27-7,24.27-7,24.26,7Zm-1.92.55-24.26,7-24.26-7,24.26-7Zm-50.44-.55-24.26-7,24.26-7,24.27,7Zm-1.91.55-24.26,7-24.26-7,24.26-7ZM577,30.26l-24.26-7,24.26-7,24.26,7Zm-1.92.55-24.26,7-24.26-7,24.26-7Zm-50.43-.55-24.26-7,24.26-7,24.26,7Zm-1.91.55-24.26,7-24.26-7,24.26-7Zm-50.44-.55-24.26-7,24.26-7,24.26,7Zm-1.91.55-24.26,7-24.26-7,24.26-7Zm-50.43-.55-24.26-7,24.26-7,24.26,7Zm-1.91.55-24.27,7-24.26-7,24.27-7Zm-50.44-.55-24.27-7,24.27-7,24.26,7Zm-1.91.55-24.27,7-24.26-7,24.26-7Zm-50.44-.55-24.27-7,24.27-7,24.26,7Zm-1.92.55-24.26,7-24.26-7,24.26-7Zm-50.43-.55-24.26-7,24.26-7,24.26,7Zm-1.91.55-24.26,7-24.27-7,24.27-7Zm-50.44-.55-24.26-7,24.26-7,24.26,7Zm-1.91.55-24.26,7-24.26-7,24.26-7Zm-50.43-.55-24.26-7,24.26-7,24.26,7Zm-1.92.55-24.26,7-24.26-7,24.26-7Zm-50.43-.55-24.26-7,24.26-7,24.26,7Zm-1.91.55-24.26,7-24.26-7,24.26-7Zm-50.44-.55-24.26-7,24.26-7,24.26,7ZM77.74,38.4l-24.27,7-24.26-7,24.26-7Zm0,15.18-24.27,7-24.26-7,24.26-7Zm0,15.19-24.26,7-24.26-7,24.26-7Zm1.92.55,24.26,7-24.26,7-24.26-7Zm26.17,7.59,24.26,7-24.26,7L81.56,84ZM132,84.5l24.26,7-24.26,7-24.26-7Zm24.26,22.23-24.26,7-24.26-7,24.26-7Zm1.92.55,24.26,7-24.26,7-24.26-7Zm26.17,7.59,24.26,7-24.26,7-24.26-7Zm26.17,7.59,24.26,7-24.26,7-24.26-7Zm26.18,7.59,24.26,7-24.26,7-24.27-7Zm26.17,7.6,24.26,7-24.26,7-24.26-7Zm1.91-.56,24.26-7,24.26,7-24.26,7Zm26.17-7.59,24.27-7,24.26,7-24.26,7Zm26.18-7.59,24.26-7,24.27,7-24.27,7Zm26.17-7.6,24.27-7,24.26,7-24.26,7Zm50.44.56,24.26,7-24.26,7-24.26-7Zm1.92-.56,24.26-7,24.26,7-24.26,7Zm26.17-7.58,24.26-7,24.26,7-24.26,7Zm50.43.55,24.27,7-24.27,7-24.26-7Zm26.18,7.59,24.26,7-24.26,7-24.26-7Zm26.17,7.59,24.26,7-24.26,7-24.26-7Zm24.26,22.22-24.26,7-24.26-7,24.26-7Zm1.91.55,24.26,7-24.26,7-24.26-7Zm26.18,7.6,24.26,7-24.26,7-24.26-7Zm26.17,7.59,24.26,7-24.26,7-24.26-7ZM629.29,168l24.27,7-24.27,7-24.26-7Zm26.18,7.59,24.26,7-24.26,7-24.26-7Zm26.18,7.59,24.26,7-24.26,7-24.27-7Zm26.17,7.59,24.26,7-24.26,7-24.26-7Zm26.18,7.6,24.26,7-24.26,7-24.27-7Zm-24.27-8.15,24.26-7,24.27,7-24.26,7Zm0-15.18L734,168l24.26,7-24.27,7Zm0-15.19,24.27-7,24.26,7-24.26,7Zm0-15.18,24.27-7,24.26,7-24.26,7Zm0-15.18,24.27-7,24.26,7-24.26,7Zm0-15.19,24.27-7,24.26,7-24.26,7Zm0-15.18,24.27-7,24.26,7-24.26,7Zm0-15.18,24.27-7,24.26,7L734,91Zm0-15.18,24.27-7,24.26,7-24.26,7Zm0-15.19,24.27-7,24.26,7-24.26,7Zm0-15.18,24.27-7,24.26,7-24.26,7Zm0-15.18,24.27-7,24.26,7-24.26,7Zm22.35-7.59-24.26,7-24.26-7,24.26-7ZM681.65,1l24.26,7-24.26,7L657.38,8Zm-1.92,14.63-24.26,7-24.26-7,24.26-7ZM629.29,1l24.27,7-24.27,7L605,8Zm-1.91,14.63-24.26,7-24.26-7,24.26-7ZM577,1l24.26,7-24.26,7L552.69,8ZM575,15.63l-24.26,7-24.26-7,24.26-7ZM524.6,1l24.26,7-24.26,7L500.34,8Zm-1.91,14.63-24.26,7-24.26-7,24.26-7ZM472.25,1l24.27,7-24.27,7L448,8Zm-1.91,14.63-24.26,7-24.26-7,24.26-7ZM419.91,1l24.26,7-24.26,7L395.65,8ZM418,15.63l-24.26,7-24.27-7,24.26-7ZM367.56,1l24.26,7-24.26,7L343.29,8Zm-1.91,14.63-24.27,7-24.26-7,24.26-7ZM315.21,1l24.26,7-24.26,7L290.94,8Zm-1.92,14.63-24.26,7-24.26-7,24.26-7ZM262.86,1l24.26,7-24.26,7L238.6,8ZM261,15.63l-24.26,7-24.26-7,24.26-7ZM210.51,1l24.26,7-24.26,7L186.25,8ZM208.6,15.63l-24.26,7-24.26-7,24.26-7ZM158.17,1l24.26,7-24.26,7L133.91,8Zm-1.92,14.63-24.26,7-24.26-7,24.26-7ZM105.82,1l24.26,7-24.26,7L81.56,8Zm-1.91,14.63-24.26,7-24.26-7,24.26-7ZM53.47,1,77.74,8l-24.27,7L29.21,8ZM3,15.63l24.27-7,24.26,7-24.26,7ZM3,30.81l24.27-7,24.26,7-24.26,7ZM3,46,27.3,39l24.26,7L27.3,53ZM3,61.18l24.27-7,24.26,7-24.26,7ZM3,76.36l24.27-7,24.26,7-24.26,7ZM29.21,84l24.26-7,24.27,7L53.47,91Zm26.18,7.59,24.26-7,24.26,7-24.26,7Zm26.17,7.59,24.26-7,24.26,7-24.26,7Zm0,15.19,24.26-7,24.26,7-24.26,7Zm26.17,7.59,24.26-7,24.26,7-24.26,7Zm26.18,7.59,24.26-7,24.26,7-24.26,7Zm26.17,7.59,24.26-7,24.26,7-24.26,7Zm26.17,7.59,24.26-7,24.26,7-24.26,7Zm26.18,7.59,24.26-7,24.26,7-24.26,7Zm50.43,14.63-24.26-7,24.26-7,24.26,7ZM289,159.31l-24.26-7,24.26-7,24.26,7Zm26.18-7.59-24.27-7,24.27-7,24.26,7Zm26.17-7.6-24.26-7,24.26-7,24.27,7Zm1.91-14.62,24.27-7,24.26,7-24.26,7Zm50.45,14.63-24.27-7,24.26-7,24.27,7Zm26.17-7.59-24.26-7,24.26-7,24.26,7Zm1.91-14.63,24.26-7,24.26,7-24.26,7ZM448,129.5l24.26-7,24.27,7-24.27,7Zm26.18,7.59,24.26-7,24.26,7-24.26,7Zm0,15.18,24.26-7,24.26,7-24.26,7Zm26.17,7.59,24.26-7,24.26,7-24.26,7Zm26.17,7.6,24.26-7,24.26,7-24.26,7Zm26.18,7.59L577,168l24.26,7-24.26,7Zm26.17,7.59,24.26-7,24.26,7-24.26,7ZM605,190.23l24.26-7,24.27,7-24.27,7Zm26.18,7.59,24.26-7,24.26,7-24.26,7Zm26.17,7.59,24.27-7,24.26,7-24.26,7ZM683.56,213l24.26-7,24.26,7-24.26,7Zm26.17,7.59,24.26-7,24.27,7-24.26,7Zm0,15.19,24.27-7,24.26,7-24.26,7Zm74.7,7.59-24.26,7-24.26-7,24.26-7Zm0-15.18-24.26,7-24.26-7,24.26-7Zm0-15.19-24.26,7-24.26-7,24.26-7Zm0-15.18-24.26,7-24.26-7,24.26-7Zm0-15.18-24.26,7-24.26-7,24.26-7Zm0-15.18-24.26,7-24.26-7,24.26-7Zm0-15.19-24.26,7-24.26-7,24.26-7Zm0-15.18-24.26,7-24.26-7,24.26-7Zm0-15.18-24.26,7-24.26-7,24.26-7Zm0-15.18-24.26,7-24.26-7,24.26-7Zm0-15.19-24.26,7-24.26-7,24.26-7Zm0-15.18-24.26,7-24.26-7,24.26-7Zm0-15.18-24.26,7-24.26-7,24.26-7Zm0-15.18-24.26,7-24.26-7,24.26-7Zm0-15.19-24.26,7-24.26-7,24.26-7Zm0-15.18-24.26,7-24.26-7,24.26-7Z"/><g class="cls-5"><ellipse class="cls-6" cx="25.73" cy="177.06" rx="16.47" ry="17.15"/><path class="cls-7" d="M46.59,164.48a28.71,28.71,0,0,0,0-39.44,26,26,0,0,0-37.88,0,28.71,28.71,0,0,0,0,39.44A26,26,0,0,0,46.59,164.48Zm-34.3-3.73a23.28,23.28,0,0,1,0-32,21.13,21.13,0,0,1,30.72,0,23.28,23.28,0,0,1,0,32,21.13,21.13,0,0,1-30.72,0Z"/></g><path class="cls-8" d="M796.53,366A33.16,33.16,0,0,0,790,330.45a30.05,30.05,0,0,0-43.73,0A33.15,33.15,0,0,0,739.77,366Z"/><path class="cls-9" d="M807.22,347.05a21.22,21.22,0,0,1-2.05.8,24.51,24.51,0,0,1-19.54-1.58,26.18,26.18,0,0,1-12.74-15.5,27.49,27.49,0,0,1,1.52-20.35,25.79,25.79,0,0,1,14.89-13.26,24.44,24.44,0,0,1,17.92.8v-6.65c-14.59-5.08-31,1.59-38.14,16.3-7.9,16.18-1.7,36,13.84,44.21a30.38,30.38,0,0,0,24.3,1.88Z"/></g></g></svg>