<svg xmlns="http://www.w3.org/2000/svg" xmlns:xlink="http://www.w3.org/1999/xlink" viewBox="0 0 807.22 365.96"><defs><style>.cls-1{isolation:isolate;}.cls-2{fill:url(#linear-gradient);}.cls-3,.cls-4{fill-opacity:0.8;opacity:0.5;mix-blend-mode:overlay;}.cls-3{fill:url(#linear-gradient-2);}.cls-4{fill:url(#linear-gradient-3);}.cls-5{opacity:0.8;}.cls-6{fill:url(#linear-gradient-4);}.cls-7{fill:url(#linear-gradient-5);}.cls-8{fill:url(#linear-gradient-6);}.cls-9{fill:url(#linear-gradient-7);}.cls-10{fill:#fff;}</style><linearGradient id="linear-gradient" y1="138.18" x2="807.22" y2="138.18" gradientUnits="userSpaceOnUse"><stop offset="0" stop-color="#1c3852"/><stop offset="0.15" stop-color="#1c4068"/><stop offset="0.37" stop-color="#1b4a82"/><stop offset="0.57" stop-color="#1b5091"/><stop offset="0.73" stop-color="#1b5297"/></linearGradient><linearGradient id="linear-gradient-2" x1="803.49" y1="269.14" x2="803.49" y2="267.54" gradientUnits="userSpaceOnUse"><stop offset="0" stop-color="#293b83"/><stop offset="1" stop-color="#344c96" stop-opacity="0"/></linearGradient><linearGradient id="linear-gradient-3" x1="403.61" y1="176.73" x2="403.61" y2="-54.15" xlink:href="#linear-gradient-2"/><linearGradient id="linear-gradient-4" x1="1649.7" y1="4922.18" x2="1649.7" y2="4955.81" gradientTransform="translate(-2300.13 4835.92) rotate(-135)" gradientUnits="userSpaceOnUse"><stop offset="0" stop-color="#f47d53" stop-opacity="0"/><stop offset="0.1" stop-color="#f47b52" stop-opacity="0.03"/><stop offset="0.23" stop-color="#f47750" stop-opacity="0.1"/><stop offset="0.38" stop-color="#f3704d" stop-opacity="0.22"/><stop offset="0.54" stop-color="#f26648" stop-opacity="0.38"/><stop offset="0.72" stop-color="#f15942" stop-opacity="0.59"/><stop offset="0.9" stop-color="#f04a3b" stop-opacity="0.85"/><stop offset="1" stop-color="#ef4137"/></linearGradient><linearGradient id="linear-gradient-5" x1="-2924.86" y1="2791.39" x2="-2869.09" y2="2791.39" gradientTransform="translate(2819.04 3041.74) rotate(90)" gradientUnits="userSpaceOnUse"><stop offset="0" stop-color="#f47d53" stop-opacity="0"/><stop offset="0.17" stop-color="#ee7b54" stop-opacity="0.03"/><stop offset="0.35" stop-color="#db7559" stop-opacity="0.12"/><stop offset="0.52" stop-color="#bc6b60" stop-opacity="0.28"/><stop offset="0.7" stop-color="#905c6b" stop-opacity="0.49"/><stop offset="0.88" stop-color="#584a78" stop-opacity="0.77"/><stop offset="1" stop-color="#293b83"/></linearGradient><linearGradient id="linear-gradient-6" x1="746.7" y1="372.91" x2="789.6" y2="330.02" gradientTransform="matrix(1, 0, 0, 1, 0, 0)" xlink:href="#linear-gradient-4"/><linearGradient id="linear-gradient-7" x1="806.8" y1="322.6" x2="722.93" y2="321.75" gradientUnits="userSpaceOnUse"><stop offset="0" stop-color="#f47d53" stop-opacity="0"/><stop offset="0.11" stop-color="#cf715c" stop-opacity="0.18"/><stop offset="0.34" stop-color="#6f5272" stop-opacity="0.65"/><stop offset="0.5" stop-color="#293b83"/><stop offset="1" stop-color="#293b83"/></linearGradient></defs><g class="cls-1"><g id="Layer_1" data-name="Layer 1"><path class="cls-2" d="M0,0V86.22L214.33,164.6C233,171.44,255.05,173,275.52,169l123.16-24.12c20.47-4,42.48-2.41,61.19,4.43l347.35,127V0Z"/><polygon class="cls-3" points="807.22 267.12 799.76 269.29 801.05 269.75 807.22 267.96 807.22 267.12"/><path class="cls-4" d="M789.79,0h-6.9l1.54.45-24.26,7-24.26-7L737.44,0h-6.9l1.54.45-24.26,7-24.26-7L685.09,0H678.2l1.53.45-24.26,7-24.26-7L632.75,0h-6.9l1.53.45-24.26,7-24.26-7L580.4,0h-6.9L575,.45l-24.26,7-24.26-7L528.05,0h-6.9l1.54.45-24.26,7-24.26-7L475.7,0h-6.9l1.54.45-24.26,7-24.26-7L423.35,0h-6.89L418,.45l-24.27,7-24.26-7L371,0h-6.89l1.54.45-24.27,7-24.26-7L318.66,0h-6.9l1.53.45L289,7.48l-24.26-7L266.31,0h-6.89L261,.45l-24.26,7-24.26-7L214,0h-6.9l1.53.45-24.26,7-24.26-7L161.61,0h-6.9l1.54.45L132,7.48l-24.26-7L109.26,0h-6.89l1.54.45-24.26,7L55.39.45,56.92,0H50l1.54.45-24.26,7L3,.45,4.57,0H0V1.33L1.12,1,25.39,8l-24.27,7L0,14.75v1.76l1.12-.33,24.27,7-24.27,7L0,29.93v1.76l1.12-.32,24.27,7-24.27,7L0,45.11v1.77l1.12-.33,24.27,7-24.27,7L0,60.29v1.77l1.12-.33,24.27,7-24.27,7L0,75.48v1.76l1.12-.33,24.27,7L7.86,89l1.71.61L27.3,84.5l24.26,7L31.32,97.41,33,98,53.47,92.1l24.26,7-23,6.66,1.71.61,23.16-6.71,24.26,7-24.26,7-13.57-3.93,16.46,5.88,21.37,6.2-2.22.64,1.72.61,2.41-.7,24.26,7-4.93,1.43,1.71.61,5.13-1.49,24.26,7-7.64,2.22,1.71.61,7.85-2.27,24.26,7-10.36,3,1.71.61,10.56-3.07,24.26,7-13.08,3.8,1.72.61,13.27-3.85,24.26,7-15.55,4.51,1.89.57,15.58-4.52,24.26,7-6,1.73c1.44,0,2.87-.06,4.31-.14l3.59-1,2.1.61c.93-.09,1.87-.18,2.8-.3l-3-.86,24.26-7,8.53,2.47,2.31-.44-8.93-2.59,24.27-7,13.9,4,2.31-.44-14.3-4.15,24.26-7,19.28,5.6,2.3-.45-19.67-5.7,24.27-7,24.26,7-1.9.55,8.76-1.68c.7-.13,1.41-.24,2.11-.36l19.12-5.54,16.26,4.71q4.29.52,8.47,1.35l-22.82-6.62,24.26-7,24.26,7-24,7q1.1.23,2.16.48l23.78-6.89,24.26,7-24.26,7-8.71-2.53,16.52,5.9,16.46,4.77-1.71.5,1.71.61,1.91-.55,24.26,7-4.42,1.28,1.71.61L524.6,168l24.26,7-7.14,2.07,1.72.61,7.33-2.13,24.26,7-9.85,2.86,1.71.61L577,183.19l24.26,7-12.57,3.65,1.71.61,12.77-3.71,24.26,7-15.28,4.44,1.71.61,15.48-4.49,24.27,7-18,5.22,1.72.62,18.2-5.28,24.26,7L659,219l1.72.61,20.92-6.06,24.26,7-23.44,6.8,1.71.61,23.64-6.85,24.26,7-24.26,7-18.21-5.28,18,6.44.18,0,24.26,7-2.7.78,1.72.61,2.9-.84,24.26,7-5.42,1.57,1.72.61,5.61-1.63,24.26,7-8.13,2.36,1.72.61,8.32-2.41,20.88,6.05v-1.11l-19-5.5,19-5.5v-1.11L786.34,258l-24.26-7,24.26-7L807.22,250v-1.11l-19-5.5,19-5.5v-1.11l-20.88,6.05-24.26-7,24.26-7,20.88,6.06v-1.11l-19-5.5,19-5.51v-1.11l-20.88,6.06-24.26-7,24.26-7,20.88,6.05V218.5l-19-5.5,19-5.5v-1.11l-20.88,6.06-24.26-7,24.26-7,20.88,6.05v-1.11l-19-5.5,19-5.5v-1.11l-20.88,6.06-24.26-7,24.26-7,20.88,6.06v-1.11l-19-5.5,19-5.5V176l-20.88,6.05-24.26-7,24.26-7,20.88,6.06V173l-19-5.5,19-5.51v-1.11l-20.88,6.06-24.26-7,24.26-7,20.88,6v-1.11l-19-5.5,19-5.5v-1.11l-20.88,6.06-24.26-7,24.26-7,20.88,6v-1.11l-19-5.5,19-5.5v-1.11l-20.88,6.06-24.26-7,24.26-7,20.88,6.06v-1.11l-19-5.5,19-5.51v-1.11l-20.88,6.06-24.26-7,24.26-7,20.88,6v-1.11l-19-5.49,19-5.51v-1.11l-20.88,6.06-24.26-7,24.26-7,20.88,6.05V97l-19-5.5,19-5.5V84.93L786.34,91l-24.26-7,24.26-7L807.22,83V81.86l-19-5.5,19-5.5V69.75l-20.88,6.06-24.26-7,24.26-7,20.88,6.06V66.68l-19-5.5,19-5.51V54.56l-20.88,6.06-24.26-7,24.26-7,20.88,6.05V51.5l-19-5.5,19-5.51V39.38l-20.88,6.06-24.26-7,24.26-7,20.88,6.05V36.31l-19-5.5,19-5.5V24.2l-20.88,6.06-24.26-7,24.26-7,20.88,6.06V21.13l-19-5.5,19-5.5V9l-20.88,6.06L762.08,8l24.26-7,20.88,6.06V6l-19-5.5ZM734,1l24.26,7-24.26,7L709.73,8ZM132,54.14l24.26,7-24.26,7-24.26-7Zm-26.17,6.48-24.26-7,24.26-7,24.26,7Zm392.61,8.7,24.26,7-24.26,7-24.26-7Zm-26.18,6.49-24.26-7,24.26-7,24.27,7ZM605,99.13l24.26-7,24.27,7-24.27,7Zm48.53,15.18-24.27,7-24.26-7,24.26-7ZM603.12,84.5l24.26,7-24.26,7-24.26-7ZM577,91l-24.26-7,24.26-7,24.26,7ZM605,84l24.26-7,24.27,7-24.27,7Zm0-15.18,24.26-7,24.27,7-24.27,7Zm22.35,7.59-24.26,7-24.26-7,24.26-7ZM577,75.81l-24.26-7,24.26-7,24.26,7Zm-1.92.55-24.26,7-24.26-7,24.26-7Zm-50.43-.55-24.26-7,24.26-7,24.26,7Zm0,1.1,24.26,7L524.6,91l-24.26-7Zm26.17,7.59,24.26,7-24.26,7-24.26-7ZM577,92.1l24.26,7-24.26,7-24.26-7Zm26.17,7.59,24.26,7-24.26,7-24.26-7Zm24.26,22.22-24.26,7-24.26-7,24.26-7Zm1.91.55,24.27,7-24.27,7-24.26-7Zm26.18,7.59,24.26,7-24.26,7-24.26-7Zm-24.26-8.14,24.26-7,24.26,7-24.26,7Zm0-15.18,24.26-7,24.26,7-24.26,7Zm0-15.19,24.26-7,24.26,7-24.26,7Zm0-15.18,24.26-7,24.26,7-24.26,7Zm0-15.18,24.26-7,24.26,7-24.26,7Zm-1.92-.56-24.26-7,24.26-7,24.27,7Zm-1.91.56-24.26,7-24.26-7,24.26-7ZM577,60.62l-24.26-7,24.26-7,24.26,7Zm-1.92.56-24.26,7-24.26-7,24.26-7Zm-50.43-.56-24.26-7,24.26-7,24.26,7Zm-1.91.56-24.26,7-24.26-7,24.26-7Zm-50.44-.56-24.26-7,24.26-7,24.27,7Zm-1.91.56-24.26,7-24.26-7,24.26-7Zm-157,15.18-24.26,7-24.26-7,24.26-7Zm-22.35-7.59,24.27-7,24.26,7-24.26,7ZM287.12,84l-24.26,7L238.6,84l24.26-7Zm-24.26-8.14-24.26-7,24.26-7,24.26,7Zm-1.91.55-24.26,7-24.26-7,24.26-7Zm-50.44-.55-24.26-7,24.26-7,24.26,7ZM234.77,84l-24.26,7-24.26-7,24.26-7Zm1.92.55,24.26,7-24.26,7-24.26-7Zm26.17,7.6,24.26,7-24.26,7-24.26-7Zm1.91-.56,24.26-7,24.26,7-24.26,7ZM290.94,84l24.27-7,24.26,7-24.26,7Zm26.18-7.59,24.26-7,24.27,7-24.27,7Zm26.17-7.59,24.27-7,24.26,7-24.26,7Zm50.45.55,24.26,7-24.27,7-24.26-7Zm1.91-.55,24.26-7,24.26,7-24.26,7Zm24.26-8.15-24.26-7,24.26-7,24.26,7Zm-1.91.56-24.26,7-24.27-7,24.26-7Zm-50.44-.56-24.27-7,24.27-7,24.26,7Zm-1.91.56-24.27,7-24.26-7,24.26-7Zm-50.44-.56-24.27-7,24.27-7,24.26,7Zm-1.92.56-24.26,7-24.26-7,24.26-7Zm-50.43-.56-24.26-7,24.26-7,24.26,7Zm-1.91.56-24.26,7-24.27-7,24.27-7Zm-50.44-.56-24.26-7,24.26-7,24.26,7Zm-1.91.56-24.26,7-24.26-7,24.26-7Zm-50.43-.56-24.26-7,24.26-7,24.26,7Zm0,1.11,24.26,7-24.26,7-24.26-7Zm26.17,7.59,24.26,7-24.26,7-24.26-7ZM208.6,91.54l-24.26,7-24.26-7,24.26-7Zm1.91.56,24.26,7-24.26,7-24.26-7Zm26.18,7.59,24.26,7-24.26,7-24.27-7Zm26.17,7.59,24.26,7-24.26,7-24.26-7Zm1.91-.55,24.26-7,24.26,7-24.26,7Zm26.17-7.6,24.27-7,24.26,7-24.26,7Zm26.18-7.59,24.26-7,24.27,7-24.27,7ZM343.29,84l24.27-7,24.26,7-24.26,7Zm50.44.55,24.27,7-24.26,7-24.27-7Zm1.92-.55,24.26-7,24.26,7-24.26,7Zm26.17-7.59,24.26-7,24.26,7-24.26,7Zm50.43.55,24.27,7-24.27,7L448,84Zm26.18,7.59,24.26,7-24.26,7-24.26-7Zm26.17,7.6,24.26,7-24.26,7-24.26-7Zm26.17,7.59,24.26,7-24.26,7-24.26-7ZM577,107.28l24.26,7-24.26,7-24.26-7Zm24.26,22.22-24.26,7-24.26-7,24.26-7Zm1.91.55,24.26,7-24.26,7-24.26-7Zm26.17,7.6,24.27,7-24.27,7-24.26-7Zm26.18,7.58,24.26,7-24.26,7-24.26-7Zm26.18,7.6,24.26,7-24.26,7-24.27-7Zm-24.27-8.15,24.27-7,24.26,7-24.26,7Zm0-15.18,24.27-7,24.26,7-24.26,7Zm0-15.19,24.27-7,24.26,7-24.26,7Zm0-15.18,24.27-7,24.26,7-24.26,7Zm0-15.18,24.27-7,24.26,7-24.26,7Zm0-15.18,24.27-7,24.26,7-24.26,7Zm0-15.19,24.27-7,24.26,7-24.26,7Zm0-15.18,24.27-7,24.26,7-24.26,7ZM679.73,46l-24.26,7-24.26-7,24.26-7Zm-50.44-.56L605,38.4l24.26-7,24.27,7Zm-1.91.56-24.26,7-24.26-7,24.26-7ZM577,45.44l-24.26-7,24.26-7,24.26,7ZM575,46l-24.26,7-24.26-7,24.26-7Zm-50.43-.56-24.26-7,24.26-7,24.26,7Zm-1.91.56-24.26,7-24.26-7,24.26-7Zm-50.44-.56L448,38.4l24.26-7,24.27,7Zm-1.91.56-24.26,7-24.26-7,24.26-7Zm-50.43-.56-24.26-7,24.26-7,24.26,7ZM418,46l-24.27,7-24.26-7,24.26-7Zm-50.44-.56-24.27-7,24.27-7,24.26,7Zm-1.91.56-24.27,7-24.26-7,24.26-7Zm-50.44-.56L291,38.4l24.26-7,24.26,7Zm-1.92.56L289,53l-24.26-7L289,39Zm-50.43-.56-24.26-7,24.26-7,24.26,7ZM261,46l-24.26,7-24.26-7,24.26-7Zm-50.44-.56-24.26-7,24.26-7,24.26,7ZM208.6,46l-24.26,7-24.26-7,24.26-7Zm-50.43-.56-24.26-7,24.26-7,24.26,7Zm-1.92.56L132,53l-24.26-7L132,39Zm-50.43-.56-24.26-7,24.26-7,24.26,7Zm-1.91.56L79.65,53,55.39,46l24.26-7Zm0,15.18-24.26,7-24.26-7,24.26-7Zm1.91.55,24.26,7-24.26,7-24.26-7ZM132,69.32l24.26,7-24.26,7-24.26-7Zm26.18,7.59,24.26,7-24.26,7-24.26-7Zm24.26,22.22-24.26,7-24.26-7,24.26-7Zm1.91.56,24.26,7-24.26,7-24.26-7Zm26.17,7.59,24.26,7-24.26,7-24.26-7Zm26.18,7.59,24.26,7-24.26,7-24.26-7Zm26.17,7.59,24.26,7-24.26,7-24.26-7Zm1.91-.55,24.26-7,24.26,7-24.26,7Zm26.17-7.6,24.27-7,24.26,7-24.26,7Zm26.18-7.58,24.26-7,24.27,7-24.27,7Zm26.17-7.6,24.27-7,24.26,7-24.26,7Zm50.45.56,24.26,7-24.27,7-24.26-7Zm1.91-.56,24.26-7,24.26,7-24.26,7Zm26.17-7.59,24.26-7,24.26,7-24.26,7Zm50.43.56,24.26,7-24.26,7-24.26-7Zm26.18,7.59,24.26,7-24.26,7-24.26-7Zm26.17,7.59,24.26,7-24.26,7-24.26-7Zm26.17,7.59,24.26,7-24.26,7-24.26-7ZM575,137.09l-24.26,7-24.26-7,24.26-7Zm1.92.56,24.26,7-24.26,7-24.26-7Zm26.17,7.58,24.26,7-24.26,7-24.26-7Zm26.17,7.6,24.27,7-24.27,7-24.26-7Zm26.18,7.59,24.26,7-24.26,7-24.26-7ZM681.65,168l24.26,7-24.26,7-24.27-7Zm26.17,7.59,24.26,7-24.26,7-24.26-7Zm-24.26-8.14,24.26-7,24.26,7-24.26,7Zm0-15.19,24.26-7,24.26,7-24.26,7Zm0-15.18,24.26-7,24.26,7-24.26,7Zm0-15.18,24.26-7,24.26,7-24.26,7Zm0-15.18,24.26-7,24.26,7-24.26,7Zm0-15.19,24.26-7,24.26,7-24.26,7Zm0-15.18,24.26-7,24.26,7-24.26,7Zm0-15.18,24.26-7,24.26,7-24.26,7Zm0-15.18,24.26-7,24.26,7-24.26,7Zm0-15.19,24.26-7,24.26,7-24.26,7Zm-1.91-.55-24.27-7,24.27-7,24.26,7Zm-1.92.55-24.26,7-24.26-7,24.26-7Zm-50.44-.55-24.26-7,24.26-7,24.27,7Zm-1.91.55-24.26,7-24.26-7,24.26-7ZM577,30.26l-24.26-7,24.26-7,24.26,7Zm-1.92.55-24.26,7-24.26-7,24.26-7Zm-50.43-.55-24.26-7,24.26-7,24.26,7Zm-1.91.55-24.26,7-24.26-7,24.26-7Zm-50.44-.55-24.26-7,24.26-7,24.26,7Zm-1.91.55-24.26,7-24.26-7,24.26-7Zm-50.43-.55-24.26-7,24.26-7,24.26,7Zm-1.91.55-24.27,7-24.26-7,24.27-7Zm-50.44-.55-24.27-7,24.27-7,24.26,7Zm-1.91.55-24.27,7-24.26-7,24.26-7Zm-50.44-.55-24.27-7,24.27-7,24.26,7Zm-1.92.55-24.26,7-24.26-7,24.26-7Zm-50.43-.55-24.26-7,24.26-7,24.26,7Zm-1.91.55-24.26,7-24.27-7,24.27-7Zm-50.44-.55-24.26-7,24.26-7,24.26,7Zm-1.91.55-24.26,7-24.26-7,24.26-7Zm-50.43-.55-24.26-7,24.26-7,24.26,7Zm-1.92.55-24.26,7-24.26-7,24.26-7Zm-50.43-.55-24.26-7,24.26-7,24.26,7Zm-1.91.55-24.26,7-24.26-7,24.26-7Zm-50.44-.55-24.26-7,24.26-7,24.26,7ZM77.74,38.4l-24.27,7-24.26-7,24.26-7Zm0,15.18-24.27,7-24.26-7,24.26-7Zm0,15.19-24.26,7-24.26-7,24.26-7Zm1.92.55,24.26,7-24.26,7-24.26-7Zm26.17,7.59,24.26,7-24.26,7L81.56,84ZM132,84.5l24.26,7-24.26,7-24.26-7Zm24.26,22.23-24.26,7-24.26-7,24.26-7Zm1.92.55,24.26,7-24.26,7-24.26-7Zm26.17,7.59,24.26,7-24.26,7-24.26-7Zm26.17,7.59,24.26,7-24.26,7-24.26-7Zm26.18,7.59,24.26,7-24.26,7-24.27-7Zm26.17,7.6,24.26,7-24.26,7-24.26-7Zm1.91-.56,24.26-7,24.26,7-24.26,7Zm26.17-7.59,24.27-7,24.26,7-24.26,7Zm26.18-7.59,24.26-7,24.27,7-24.27,7Zm26.17-7.6,24.27-7,24.26,7-24.26,7Zm50.44.56,24.26,7-24.26,7-24.26-7Zm1.92-.56,24.26-7,24.26,7-24.26,7Zm26.17-7.58,24.26-7,24.26,7-24.26,7Zm50.43.55,24.27,7-24.27,7-24.26-7Zm26.18,7.59,24.26,7-24.26,7-24.26-7Zm26.17,7.59,24.26,7-24.26,7-24.26-7Zm24.26,22.22-24.26,7-24.26-7,24.26-7Zm1.91.55,24.26,7-24.26,7-24.26-7Zm26.18,7.6,24.26,7-24.26,7-24.26-7Zm26.17,7.59,24.26,7-24.26,7-24.26-7ZM629.29,168l24.27,7-24.27,7-24.26-7Zm26.18,7.59,24.26,7-24.26,7-24.26-7Zm26.18,7.59,24.26,7-24.26,7-24.27-7Zm26.17,7.59,24.26,7-24.26,7-24.26-7Zm26.18,7.6,24.26,7-24.26,7-24.27-7Zm-24.27-8.15,24.26-7,24.27,7-24.26,7Zm0-15.18L734,168l24.26,7-24.27,7Zm0-15.19,24.27-7,24.26,7-24.26,7Zm0-15.18,24.27-7,24.26,7-24.26,7Zm0-15.18,24.27-7,24.26,7-24.26,7Zm0-15.19,24.27-7,24.26,7-24.26,7Zm0-15.18,24.27-7,24.26,7-24.26,7Zm0-15.18,24.27-7,24.26,7L734,91Zm0-15.18,24.27-7,24.26,7-24.26,7Zm0-15.19,24.27-7,24.26,7-24.26,7Zm0-15.18,24.27-7,24.26,7-24.26,7Zm0-15.18,24.27-7,24.26,7-24.26,7Zm22.35-7.59-24.26,7-24.26-7,24.26-7ZM681.65,1l24.26,7-24.26,7L657.38,8Zm-1.92,14.63-24.26,7-24.26-7,24.26-7ZM629.29,1l24.27,7-24.27,7L605,8Zm-1.91,14.63-24.26,7-24.26-7,24.26-7ZM577,1l24.26,7-24.26,7L552.69,8ZM575,15.63l-24.26,7-24.26-7,24.26-7ZM524.6,1l24.26,7-24.26,7L500.34,8Zm-1.91,14.63-24.26,7-24.26-7,24.26-7ZM472.25,1l24.27,7-24.27,7L448,8Zm-1.91,14.63-24.26,7-24.26-7,24.26-7ZM419.91,1l24.26,7-24.26,7L395.65,8ZM418,15.63l-24.26,7-24.27-7,24.26-7ZM367.56,1l24.26,7-24.26,7L343.29,8Zm-1.91,14.63-24.27,7-24.26-7,24.26-7ZM315.21,1l24.26,7-24.26,7L290.94,8Zm-1.92,14.63-24.26,7-24.26-7,24.26-7ZM262.86,1l24.26,7-24.26,7L238.6,8ZM261,15.63l-24.26,7-24.26-7,24.26-7ZM210.51,1l24.26,7-24.26,7L186.25,8ZM208.6,15.63l-24.26,7-24.26-7,24.26-7ZM158.17,1l24.26,7-24.26,7L133.91,8Zm-1.92,14.63-24.26,7-24.26-7,24.26-7ZM105.82,1l24.26,7-24.26,7L81.56,8Zm-1.91,14.63-24.26,7-24.26-7,24.26-7ZM53.47,1,77.74,8l-24.27,7L29.21,8ZM3,15.63l24.27-7,24.26,7-24.26,7ZM3,30.81l24.27-7,24.26,7-24.26,7ZM3,46,27.3,39l24.26,7L27.3,53ZM3,61.18l24.27-7,24.26,7-24.26,7ZM3,76.36l24.27-7,24.26,7-24.26,7ZM29.21,84l24.26-7,24.27,7L53.47,91Zm26.18,7.59,24.26-7,24.26,7-24.26,7Zm26.17,7.59,24.26-7,24.26,7-24.26,7Zm0,15.19,24.26-7,24.26,7-24.26,7Zm26.17,7.59,24.26-7,24.26,7-24.26,7Zm26.18,7.59,24.26-7,24.26,7-24.26,7Zm26.17,7.59,24.26-7,24.26,7-24.26,7Zm26.17,7.59,24.26-7,24.26,7-24.26,7Zm26.18,7.59,24.26-7,24.26,7-24.26,7Zm50.43,14.63-24.26-7,24.26-7,24.26,7ZM289,159.31l-24.26-7,24.26-7,24.26,7Zm26.18-7.59-24.27-7,24.27-7,24.26,7Zm26.17-7.6-24.26-7,24.26-7,24.27,7Zm1.91-14.62,24.27-7,24.26,7-24.26,7Zm50.45,14.63-24.27-7,24.26-7,24.27,7Zm26.17-7.59-24.26-7,24.26-7,24.26,7Zm1.91-14.63,24.26-7,24.26,7-24.26,7ZM448,129.5l24.26-7,24.27,7-24.27,7Zm26.18,7.59,24.26-7,24.26,7-24.26,7Zm0,15.18,24.26-7,24.26,7-24.26,7Zm26.17,7.59,24.26-7,24.26,7-24.26,7Zm26.17,7.6,24.26-7,24.26,7-24.26,7Zm26.18,7.59L577,168l24.26,7-24.26,7Zm26.17,7.59,24.26-7,24.26,7-24.26,7ZM605,190.23l24.26-7,24.27,7-24.27,7Zm26.18,7.59,24.26-7,24.26,7-24.26,7Zm26.17,7.59,24.27-7,24.26,7-24.26,7ZM683.56,213l24.26-7,24.26,7-24.26,7Zm26.17,7.59,24.26-7,24.27,7-24.26,7Zm0,15.19,24.27-7,24.26,7-24.26,7Zm74.7,7.59-24.26,7-24.26-7,24.26-7Zm0-15.18-24.26,7-24.26-7,24.26-7Zm0-15.19-24.26,7-24.26-7,24.26-7Zm0-15.18-24.26,7-24.26-7,24.26-7Zm0-15.18-24.26,7-24.26-7,24.26-7Zm0-15.18-24.26,7-24.26-7,24.26-7Zm0-15.19-24.26,7-24.26-7,24.26-7Zm0-15.18-24.26,7-24.26-7,24.26-7Zm0-15.18-24.26,7-24.26-7,24.26-7Zm0-15.18-24.26,7-24.26-7,24.26-7Zm0-15.19-24.26,7-24.26-7,24.26-7Zm0-15.18-24.26,7-24.26-7,24.26-7Zm0-15.18-24.26,7-24.26-7,24.26-7Zm0-15.18-24.26,7-24.26-7,24.26-7Zm0-15.19-24.26,7-24.26-7,24.26-7Zm0-15.18-24.26,7-24.26-7,24.26-7Z"/><g class="cls-5"><ellipse class="cls-6" cx="25.73" cy="177.06" rx="16.47" ry="17.15"/><path class="cls-7" d="M46.59,164.48a28.71,28.71,0,0,0,0-39.44,26,26,0,0,0-37.88,0,28.71,28.71,0,0,0,0,39.44A26,26,0,0,0,46.59,164.48Zm-34.3-3.73a23.28,23.28,0,0,1,0-32,21.13,21.13,0,0,1,30.72,0,23.28,23.28,0,0,1,0,32,21.13,21.13,0,0,1-30.72,0Z"/></g><path class="cls-8" d="M796.53,366A33.16,33.16,0,0,0,790,330.45a30.05,30.05,0,0,0-43.73,0A33.15,33.15,0,0,0,739.77,366Z"/><path class="cls-9" d="M807.22,347.05a21.22,21.22,0,0,1-2.05.8,24.51,24.51,0,0,1-19.54-1.58,26.18,26.18,0,0,1-12.74-15.5,27.49,27.49,0,0,1,1.52-20.35,25.79,25.79,0,0,1,14.89-13.26,24.44,24.44,0,0,1,17.92.8v-6.65c-14.59-5.08-31,1.59-38.14,16.3-7.9,16.18-1.7,36,13.84,44.21a30.38,30.38,0,0,0,24.3,1.88Z"/><path class="cls-10" d="M67.19,56.73l-.15,2a10.47,10.47,0,0,1-2.46.3A6,6,0,0,1,60,57.38a5.67,5.67,0,0,1-1.58-4A6.18,6.18,0,0,1,60.08,49a5.93,5.93,0,0,1,4.6-1.83,7.9,7.9,0,0,1,2,.25l-.31,2a6.26,6.26,0,0,0-2-.34,3.14,3.14,0,0,0-2.65,1.13A4.37,4.37,0,0,0,60.89,53a4.26,4.26,0,0,0,1,2.86,3.61,3.61,0,0,0,2.9,1.22A8.51,8.51,0,0,0,67.19,56.73Z"/><path class="cls-10" d="M76.6,58.81H74.26c.13-1.48.19-2.92.19-4.32a3.64,3.64,0,0,0-.39-2.06A1.61,1.61,0,0,0,72.75,52a3.27,3.27,0,0,0-1.88.64q0,3.73.09,6.22H68.62c.07-1.82.1-4,.1-6.53a52,52,0,0,0-.27-5.83l2.48-.14c-.08,1.89-.13,3.53-.13,4.92h.12a3.85,3.85,0,0,1,2.65-1.06,3.51,3.51,0,0,1,2.22.64,2.73,2.73,0,0,1,.81,2.26c0,.11,0,.34,0,.68s0,.57,0,.68C76.55,55.41,76.57,56.87,76.6,58.81Z"/><path class="cls-10" d="M85.7,58.8l-2.07.07a1.75,1.75,0,0,1-.14-.67h-.12a3.82,3.82,0,0,1-2.61.83,2.71,2.71,0,0,1-1.82-.61,2,2,0,0,1-.73-1.62,2.64,2.64,0,0,1,1.13-2.19,7,7,0,0,1,4-.91c0-.1,0-.2,0-.29a1.42,1.42,0,0,0-.46-1.26,3.28,3.28,0,0,0-1.68-.3,9.8,9.8,0,0,0-2.59.35l.19-1.62a11,11,0,0,1,3.38-.41,3.93,3.93,0,0,1,2.46.67,2.79,2.79,0,0,1,.86,2.34c0,.24,0,.69,0,1.34s0,1.09,0,1.3A12.81,12.81,0,0,0,85.7,58.8ZM83.35,57c0-.79,0-1.47,0-2-2,0-3,.5-3,1.52,0,.69.44,1,1.32,1A2.78,2.78,0,0,0,83.35,57Z"/><path class="cls-10" d="M95.33,58.81H93c.12-1.48.19-3,.19-4.5a3.08,3.08,0,0,0-.41-1.87A1.51,1.51,0,0,0,91.54,52a3.12,3.12,0,0,0-1.9.68q0,3.43,0,6.18H87.32c.1-1.83.16-3.27.16-4.32a18.09,18.09,0,0,0-.43-4l2.25-.24.14.93h.15a4.11,4.11,0,0,1,2.76-1,3.38,3.38,0,0,1,2.17.64,2.85,2.85,0,0,1,.81,2.35c0,.17,0,.4,0,.68s0,.58,0,.88C95.29,55.51,95.3,56.87,95.33,58.81Z"/><path class="cls-10" d="M106.06,49.25l-.2,1.63a2.44,2.44,0,0,0-1.71.4v.11a2.36,2.36,0,0,1,.52,1.48,2.84,2.84,0,0,1-.93,2.14,3.82,3.82,0,0,1-2.76.89,6.53,6.53,0,0,1-1.47-.14c-.31.14-.47.33-.47.55a.78.78,0,0,0,.56.76,9.58,9.58,0,0,0,2.6.21c2.35,0,3.52.8,3.52,2.4a3.07,3.07,0,0,1-1.47,2.68,6.19,6.19,0,0,1-3.56,1q-4.12,0-4.12-2.58A2.11,2.11,0,0,1,97,59.41a1.88,1.88,0,0,1,1.07-.68V58.6a1.58,1.58,0,0,1-.74-1.42,1.9,1.9,0,0,1,1-1.62v-.12A2.36,2.36,0,0,1,97,53.21a2.78,2.78,0,0,1,1-2.16,4.46,4.46,0,0,1,3-.87,4.36,4.36,0,0,1,2.27.53h.12c.17-1.11.74-1.66,1.7-1.66A2.31,2.31,0,0,1,106.06,49.25Zm-2.51,11.08a1,1,0,0,0-.5-.94,3.64,3.64,0,0,0-1.7-.29c-.66,0-1.32,0-2-.09a1.48,1.48,0,0,0-.77,1.37q0,1.68,2.25,1.68a3.65,3.65,0,0,0,2-.47A1.44,1.44,0,0,0,103.55,60.33Zm-1-7.23a1.47,1.47,0,0,0-.51-1.21,1.83,1.83,0,0,0-1.16-.41,1.78,1.78,0,0,0-1.16.4,1.63,1.63,0,0,0,0,2.36,1.86,1.86,0,0,0,1.19.4,1.74,1.74,0,0,0,1.14-.39A1.37,1.37,0,0,0,102.51,53.1Z"/><path class="cls-10" d="M109.69,58.81h-2.36q.12-1.81.12-4.17a24.64,24.64,0,0,0-.3-4.1l2.54-.25q-.12,1.7-.12,4.35Q109.57,56.89,109.69,58.81Zm.41-11a1.5,1.5,0,0,1-.41,1,1.45,1.45,0,0,1-1.14.45,1.21,1.21,0,0,1-1-.39,1.33,1.33,0,0,1-.35-.93,1.46,1.46,0,0,1,1.56-1.47,1.19,1.19,0,0,1,1,.38A1.31,1.31,0,0,1,110.1,47.81Z"/><path class="cls-10" d="M119.63,58.81h-2.34c.13-1.48.19-3,.19-4.5a3,3,0,0,0-.41-1.87,1.5,1.5,0,0,0-1.24-.49,3.12,3.12,0,0,0-1.9.68q0,3.43,0,6.18h-2.36c.11-1.83.16-3.27.16-4.32a17.51,17.51,0,0,0-.43-4l2.25-.24.15.93h.14a4.11,4.11,0,0,1,2.77-1,3.37,3.37,0,0,1,2.16.64,2.82,2.82,0,0,1,.82,2.35c0,.17,0,.4,0,.68s0,.58,0,.88C119.58,55.51,119.6,56.87,119.63,58.81Z"/><path class="cls-10" d="M130.35,49.25l-.19,1.63c-.92,0-1.49.14-1.72.4v.11a2.31,2.31,0,0,1,.52,1.48A2.84,2.84,0,0,1,128,55a3.82,3.82,0,0,1-2.76.89,6.53,6.53,0,0,1-1.47-.14c-.31.14-.46.33-.46.55a.77.77,0,0,0,.55.76,9.63,9.63,0,0,0,2.6.21c2.35,0,3.53.8,3.53,2.4a3.07,3.07,0,0,1-1.47,2.68,6.24,6.24,0,0,1-3.57,1q-4.11,0-4.11-2.58a2.06,2.06,0,0,1,.46-1.36,1.83,1.83,0,0,1,1.06-.68V58.6a1.57,1.57,0,0,1-.73-1.42,1.87,1.87,0,0,1,1-1.62v-.12a2.36,2.36,0,0,1-1.43-2.23,2.78,2.78,0,0,1,1-2.16,4.49,4.49,0,0,1,3-.87,4.36,4.36,0,0,1,2.27.53h.12c.17-1.11.74-1.66,1.71-1.66A2.26,2.26,0,0,1,130.35,49.25Zm-2.51,11.08a1,1,0,0,0-.49-.94,3.66,3.66,0,0,0-1.71-.29c-.66,0-1.32,0-2-.09a1.5,1.5,0,0,0-.77,1.37q0,1.68,2.25,1.68a3.62,3.62,0,0,0,2-.47A1.44,1.44,0,0,0,127.84,60.33Zm-1-7.23a1.47,1.47,0,0,0-.51-1.21,1.83,1.83,0,0,0-1.17-.41,1.78,1.78,0,0,0-1.16.4,1.64,1.64,0,0,0,0,2.36,1.83,1.83,0,0,0,1.18.4,1.74,1.74,0,0,0,1.14-.39A1.37,1.37,0,0,0,126.81,53.1Z"/><path class="cls-10" d="M140.61,57.17l-.15,1.56a3.88,3.88,0,0,1-1.55.27,2.77,2.77,0,0,1-2.14-.78,4.42,4.42,0,0,1-.73-3c0-.88,0-1.88,0-3-.3,0-.7,0-1.21,0l.06-1.73c.45,0,.87,0,1.26,0,0-.31,0-1.13.07-2.45l2.08-.26c-.09,1.17-.13,2.07-.13,2.71.49,0,1.23,0,2.2-.07l-.07,1.75c-.89,0-1.61,0-2.17,0,0,.78,0,1.59,0,2.45a4.7,4.7,0,0,0,.31,2.1,1.21,1.21,0,0,0,1.12.53A4,4,0,0,0,140.61,57.17Z"/><path class="cls-10" d="M149.87,58.81h-2.34c.13-1.48.19-2.92.19-4.32a3.64,3.64,0,0,0-.39-2.06A1.59,1.59,0,0,0,146,52a3.23,3.23,0,0,0-1.88.64q0,3.73.09,6.22H141.9c.06-1.82.09-4,.09-6.53a52,52,0,0,0-.27-5.83l2.49-.14c-.09,1.89-.13,3.53-.13,4.92h.11a3.87,3.87,0,0,1,2.66-1.06,3.53,3.53,0,0,1,2.22.64,2.76,2.76,0,0,1,.8,2.26c0,.11,0,.34,0,.68s0,.57,0,.68C149.83,55.41,149.84,56.87,149.87,58.81Z"/><path class="cls-10" d="M159.46,53.74c0,.3,0,.69-.05,1.17l-5.66.1a2.56,2.56,0,0,0,.85,1.65,2.72,2.72,0,0,0,1.91.66,11.13,11.13,0,0,0,2.81-.4l-.18,1.71a9,9,0,0,1-3,.44,4.57,4.57,0,0,1-3.48-1.28,4.28,4.28,0,0,1-1.21-3.07,4.87,4.87,0,0,1,1.15-3.24,3.91,3.91,0,0,1,3.18-1.38,3.53,3.53,0,0,1,2.77,1A3.77,3.77,0,0,1,159.46,53.74Zm-2.06-.08c0-1.35-.57-2-1.72-2s-1.75.7-2,2.09Z"/><path class="cls-10" d="M167.72,58.81h-2.49q.12-2.73.12-6t-.12-5.46h2.49c-.08,1.47-.11,3.29-.11,5.46S167.64,57,167.72,58.81Z"/><path class="cls-10" d="M178.26,47.37l-.06,1.89c-1.18-.09-2.28-.13-3.32-.13,0,1.1,0,2.34,0,3.7,0,2.1,0,4.1.09,6H172.5c.08-1.86.12-3.86.12-6,0-1.34,0-2.57,0-3.7-.83,0-2,0-3.4.14l.07-1.9Z"/><path class="cls-10" d="M186.11,58.81h-2.49c.08-1.82.11-3.81.11-6s0-4-.11-5.46h2.49q-.12,2.21-.12,5.46C186,55,186,57,186.11,58.81Z"/><path class="cls-10" d="M196.29,58.81H194c.12-1.48.19-3,.19-4.5a3.08,3.08,0,0,0-.41-1.87A1.51,1.51,0,0,0,192.5,52a3.12,3.12,0,0,0-1.9.68q0,3.43,0,6.18h-2.36c.1-1.83.16-3.27.16-4.32a18.09,18.09,0,0,0-.43-4l2.25-.24.14.93h.15a4.11,4.11,0,0,1,2.76-1,3.38,3.38,0,0,1,2.17.64,2.85,2.85,0,0,1,.81,2.35c0,.17,0,.4,0,.68s0,.58,0,.88C196.25,55.51,196.26,56.87,196.29,58.81Z"/><path class="cls-10" d="M206.3,58.8l-2.09.07a3.31,3.31,0,0,1-.06-.64H204a3.64,3.64,0,0,1-2.47.84,3.25,3.25,0,0,1-2.68-1.23,4.45,4.45,0,0,1-1-2.9A5.4,5.4,0,0,1,199,51.59a3.56,3.56,0,0,1,3-1.43,3.1,3.1,0,0,1,1.87.47H204c0-1.38-.07-2.78-.2-4.18l2.48-.07q-.13,2.05-.14,5.89C206.1,54.87,206.17,57,206.3,58.8Zm-2.21-2c0-1.87,0-3.42-.13-4.64a2.51,2.51,0,0,0-1.45-.43,1.92,1.92,0,0,0-1.73.87,3.79,3.79,0,0,0-.56,2.11,3.3,3.3,0,0,0,.55,1.91,1.72,1.72,0,0,0,1.51.8A2.27,2.27,0,0,0,204.09,56.81Z"/><path class="cls-10" d="M216,58.8l-2.06.07a3,3,0,0,1-.14-.75h-.14a4.11,4.11,0,0,1-2.69,1,2.91,2.91,0,0,1-2.18-.76,4.51,4.51,0,0,1-.74-3c0-.18,0-.44,0-.77s0-.61,0-.86c0-.65-.06-1.68-.17-3.11l2.45-.09c-.09,1.13-.14,2.2-.14,3.2a8.62,8.62,0,0,0,.32,2.9,1.25,1.25,0,0,0,1.26.75,3.15,3.15,0,0,0,1.78-.49c0-3.08,0-5.18-.11-6.28l2.38-.08c-.06,1.11-.09,2.55-.09,4.31A35.42,35.42,0,0,0,216,58.8Z"/><path class="cls-10" d="M223.86,56.41q0,2.64-3.91,2.64a8.75,8.75,0,0,1-2.48-.31l.3-1.73a6.48,6.48,0,0,0,2.18.39,4.17,4.17,0,0,0,1.47-.17.61.61,0,0,0,.41-.59c0-.43-.5-.83-1.48-1.22a7.32,7.32,0,0,1-1.88-1,2.13,2.13,0,0,1-.81-1.68,2.3,2.3,0,0,1,.87-1.88,3.87,3.87,0,0,1,2.53-.72,8.63,8.63,0,0,1,2.44.28l-.29,1.74a5.86,5.86,0,0,0-2.15-.39q-1.41,0-1.41.72a.68.68,0,0,0,.3.59,5.6,5.6,0,0,0,1.23.57,6.35,6.35,0,0,1,1.85,1A2.27,2.27,0,0,1,223.86,56.41Z"/><path class="cls-10" d="M230.64,57.17l-.15,1.56a3.85,3.85,0,0,1-1.55.27,2.78,2.78,0,0,1-2.14-.78,4.49,4.49,0,0,1-.72-3c0-.88,0-1.88,0-3-.3,0-.71,0-1.22,0l.07-1.73c.45,0,.87,0,1.25,0,0-.31,0-1.13.07-2.45l2.09-.26c-.09,1.17-.14,2.07-.14,2.71.5,0,1.23,0,2.21-.07l-.07,1.75c-.89,0-1.61,0-2.17,0,0,.78,0,1.59,0,2.45a4.67,4.67,0,0,0,.32,2.1,1.19,1.19,0,0,0,1.11.53A4,4,0,0,0,230.64,57.17Z"/><path class="cls-10" d="M237.76,50.46l-.51,2.06a3.39,3.39,0,0,0-1.32-.27,1.64,1.64,0,0,0-1.7,1.16c0,2.34,0,4.14.05,5.4h-2.34q.15-2.64.15-4.32a17.5,17.5,0,0,0-.44-4l2.24-.24c.1.64.15,1,.15,1.13h.14a2.47,2.47,0,0,1,2.16-1.24A4.27,4.27,0,0,1,237.76,50.46Z"/><path class="cls-10" d="M246.43,50.46a17.06,17.06,0,0,1-1.26,3.62,48.78,48.78,0,0,0-1.77,4.78,5.93,5.93,0,0,1-1.54,3,4.2,4.2,0,0,1-2.79.8L238.89,61a2.64,2.64,0,0,0,1.8-.62,2.1,2.1,0,0,0,.7-1.66,15.8,15.8,0,0,0-1.58-4.57c-1.06-2.35-1.58-3.59-1.58-3.7h2.71a25.41,25.41,0,0,0,.8,3,18.1,18.1,0,0,1,.8,3.27h.12a18.51,18.51,0,0,1,.73-3,15.93,15.93,0,0,0,.72-3.24Z"/><path class="cls-10" d="M61.34,80.41h-2.4q.14-3,.13-6.53a53.38,53.38,0,0,0-.27-5.83l2.54-.14q-.14,2.49-.13,6C61.21,76.24,61.25,78.41,61.34,80.41Z"/><path class="cls-10" d="M70.5,80.4l-2.07.07a2,2,0,0,1-.14-.67h-.11a3.92,3.92,0,0,1-2.62.83A2.71,2.71,0,0,1,63.74,80,2,2,0,0,1,63,78.4a2.62,2.62,0,0,1,1.13-2.19,7,7,0,0,1,3.95-.91,1.46,1.46,0,0,0,0-.29,1.44,1.44,0,0,0-.45-1.26,3.33,3.33,0,0,0-1.68-.3,9.88,9.88,0,0,0-2.6.35l.2-1.62A10.91,10.91,0,0,1,67,71.77a3.93,3.93,0,0,1,2.46.67,2.76,2.76,0,0,1,.86,2.34c0,.24,0,.69,0,1.34s0,1.09,0,1.3A13.38,13.38,0,0,0,70.5,80.4Zm-2.34-1.83q-.06-1.18-.06-2c-2,0-3,.5-3,1.52,0,.69.44,1,1.32,1A2.8,2.8,0,0,0,68.16,78.57Z"/><path class="cls-10" d="M80.14,80.41H77.8c.13-1.48.19-3,.19-4.5A3,3,0,0,0,77.58,74a1.5,1.5,0,0,0-1.24-.49,3.05,3.05,0,0,0-1.9.68q0,3.43,0,6.18H72.12c.11-1.83.16-3.27.16-4.32a17.44,17.44,0,0,0-.43-4l2.25-.24.15.93h.14a4.11,4.11,0,0,1,2.77-1,3.37,3.37,0,0,1,2.16.64,2.82,2.82,0,0,1,.82,2.35c0,.17,0,.4,0,.68s0,.58,0,.87C80.09,77.11,80.11,78.47,80.14,80.41Z"/><path class="cls-10" d="M90.14,80.4l-2.08.07a3.3,3.3,0,0,1-.07-.64h-.13a3.63,3.63,0,0,1-2.47.84,3.27,3.27,0,0,1-2.68-1.23,4.45,4.45,0,0,1-1-2.9,5.4,5.4,0,0,1,1.08-3.35,3.56,3.56,0,0,1,3-1.43,3.12,3.12,0,0,1,1.87.47h.12c0-1.38-.07-2.78-.2-4.18L90.09,68C90,69.35,90,71.31,90,73.87S90,78.64,90.14,80.4Zm-2.21-2c0-1.87,0-3.42-.13-4.64a2.41,2.41,0,0,0-1.45-.43,1.9,1.9,0,0,0-1.72.87,3.7,3.7,0,0,0-.56,2.1,3.38,3.38,0,0,0,.54,1.92,1.74,1.74,0,0,0,1.51.8A2.26,2.26,0,0,0,87.93,78.41Z"/><path class="cls-10" d="M98,78q0,2.64-3.9,2.64a8.83,8.83,0,0,1-2.49-.31l.3-1.73a6.49,6.49,0,0,0,2.19.39,4.11,4.11,0,0,0,1.46-.17.61.61,0,0,0,.41-.59c0-.43-.49-.84-1.48-1.22a7.32,7.32,0,0,1-1.88-1,2.13,2.13,0,0,1-.81-1.68,2.3,2.3,0,0,1,.87-1.88,3.9,3.9,0,0,1,2.54-.72,8.68,8.68,0,0,1,2.44.28l-.3,1.74a5.81,5.81,0,0,0-2.14-.39q-1.41,0-1.41.72a.68.68,0,0,0,.3.59,5.46,5.46,0,0,0,1.22.57,6.09,6.09,0,0,1,1.85,1A2.27,2.27,0,0,1,98,78Z"/><path class="cls-10" d="M106.2,78.56l-.15,1.68a4.72,4.72,0,0,1-2.17.43,4.62,4.62,0,0,1-3.49-1.27,4.24,4.24,0,0,1-1.22-3,4.59,4.59,0,0,1,1.28-3.22,4.51,4.51,0,0,1,3.49-1.38,6.62,6.62,0,0,1,1.92.25l-.3,1.79a4.75,4.75,0,0,0-1.81-.33,2.06,2.06,0,0,0-1.68.75,2.82,2.82,0,0,0-.61,1.85,2.92,2.92,0,0,0,.73,2,2.61,2.61,0,0,0,2.06.83A6.83,6.83,0,0,0,106.2,78.56Z"/><path class="cls-10" d="M114.71,80.4l-2.07.07a2,2,0,0,1-.14-.67h-.12a3.87,3.87,0,0,1-2.61.83A2.71,2.71,0,0,1,108,80a2,2,0,0,1-.73-1.62,2.64,2.64,0,0,1,1.13-2.19,7.09,7.09,0,0,1,4-.91,1.46,1.46,0,0,0,0-.29,1.42,1.42,0,0,0-.46-1.26,3.26,3.26,0,0,0-1.67-.3,9.88,9.88,0,0,0-2.6.35l.2-1.62a10.91,10.91,0,0,1,3.37-.41,3.93,3.93,0,0,1,2.46.67,2.79,2.79,0,0,1,.86,2.34c0,.24,0,.69,0,1.34s0,1.09,0,1.3A13.38,13.38,0,0,0,114.71,80.4Zm-2.34-1.83q-.06-1.18-.06-2c-2,0-3,.5-3,1.52,0,.69.44,1,1.32,1A2.8,2.8,0,0,0,112.37,78.57Z"/><path class="cls-10" d="M124.88,75.88a5.35,5.35,0,0,1-1.09,3.34,3.54,3.54,0,0,1-3,1.45,2.5,2.5,0,0,1-1.93-.6h-.11c0,1.43,0,2.89.07,4.36h-2.4c.11-1.68.16-3.62.16-5.82a35.17,35.17,0,0,0-.45-6.49l2.25-.24.13.75h.14a3.63,3.63,0,0,1,2.56-.87A3.27,3.27,0,0,1,123.9,73,4.5,4.5,0,0,1,124.88,75.88Zm-2.34.22a3.25,3.25,0,0,0-.55-1.9,1.75,1.75,0,0,0-1.53-.8,2.09,2.09,0,0,0-1.77.71c.08,1.65.13,3.15.13,4.53a2.3,2.3,0,0,0,1.43.43A1.91,1.91,0,0,0,122,78.2,3.74,3.74,0,0,0,122.54,76.1Z"/><path class="cls-10" d="M134.11,75.34c0,.3,0,.69-.05,1.17l-5.66.09a2.56,2.56,0,0,0,.85,1.66,2.76,2.76,0,0,0,1.92.66,11.06,11.06,0,0,0,2.8-.4l-.18,1.71a8.92,8.92,0,0,1-3,.44,4.58,4.58,0,0,1-3.48-1.28,4.32,4.32,0,0,1-1.21-3.07,4.92,4.92,0,0,1,1.15-3.24,3.93,3.93,0,0,1,3.19-1.38,3.56,3.56,0,0,1,2.77,1A3.82,3.82,0,0,1,134.11,75.34Zm-2.06-.08c0-1.35-.57-2-1.72-2s-1.74.7-2,2.09Z"/><path class="cls-10" d="M148,75.88a5.42,5.42,0,0,1-1.09,3.34,3.57,3.57,0,0,1-3,1.45,2.71,2.71,0,0,1-2-.6h-.11l-.18.34h-2.06c.07-2.06.11-4.23.11-6.53a51.26,51.26,0,0,0-.29-5.83l2.53-.14c-.06,1.37-.09,2.91-.09,4.63h.1a3.5,3.5,0,0,1,2.4-.78A3.27,3.27,0,0,1,147,73,4.45,4.45,0,0,1,148,75.88Zm-2.34.22a3.27,3.27,0,0,0-.56-1.9,1.75,1.75,0,0,0-1.53-.8,2.12,2.12,0,0,0-1.78.71c0,2,.05,3.51.13,4.53a2.33,2.33,0,0,0,1.44.43,1.92,1.92,0,0,0,1.73-.87A3.75,3.75,0,0,0,145.66,76.1Z"/><path class="cls-10" d="M157.11,72.06a17.06,17.06,0,0,1-1.26,3.62,47.85,47.85,0,0,0-1.76,4.78,6,6,0,0,1-1.54,3,4.2,4.2,0,0,1-2.79.8l-.18-1.69a2.62,2.62,0,0,0,1.79-.62,2.12,2.12,0,0,0,.71-1.66,15.62,15.62,0,0,0-1.59-4.57c-1.05-2.36-1.58-3.59-1.58-3.7h2.72a23.26,23.26,0,0,0,.8,3,18.1,18.1,0,0,1,.8,3.27h.12a17.4,17.4,0,0,1,.73-3,15.93,15.93,0,0,0,.72-3.24Z"/><path class="cls-10" d="M168.94,78.56l-.15,1.68a4.66,4.66,0,0,1-2.17.43,4.62,4.62,0,0,1-3.48-1.27,4.24,4.24,0,0,1-1.22-3,4.59,4.59,0,0,1,1.27-3.22,4.53,4.53,0,0,1,3.49-1.38,6.69,6.69,0,0,1,1.93.25l-.3,1.79a4.75,4.75,0,0,0-1.81-.33,2.06,2.06,0,0,0-1.68.75,2.83,2.83,0,0,0-.62,1.85,3,3,0,0,0,.73,2,2.63,2.63,0,0,0,2.07.83A6.77,6.77,0,0,0,168.94,78.56Z"/><path class="cls-10" d="M176.1,72.06l-.5,2.06a3.46,3.46,0,0,0-1.32-.27A1.66,1.66,0,0,0,172.57,75c0,2.34,0,4.14.05,5.4h-2.33q.15-2.64.15-4.32a17.5,17.5,0,0,0-.44-4l2.24-.24c.1.64.15,1,.15,1.13h.14a2.45,2.45,0,0,1,2.15-1.24A4.22,4.22,0,0,1,176.1,72.06Z"/><path class="cls-10" d="M184.88,75.34q0,.45-.06,1.17l-5.66.09a2.61,2.61,0,0,0,.86,1.66,2.72,2.72,0,0,0,1.91.66,11.13,11.13,0,0,0,2.81-.4l-.18,1.71a9,9,0,0,1-3,.44,4.54,4.54,0,0,1-3.47-1.28,4.28,4.28,0,0,1-1.21-3.07A4.87,4.87,0,0,1,178,73.08a3.9,3.9,0,0,1,3.18-1.38,3.55,3.55,0,0,1,2.77,1A3.82,3.82,0,0,1,184.88,75.34Zm-2.06-.08c0-1.35-.57-2-1.72-2s-1.75.7-1.95,2.09Z"/><path class="cls-10" d="M193.61,80.4l-2.07.07a1.75,1.75,0,0,1-.14-.67h-.12a3.87,3.87,0,0,1-2.61.83,2.71,2.71,0,0,1-1.82-.61,2,2,0,0,1-.73-1.62,2.64,2.64,0,0,1,1.13-2.19,7.09,7.09,0,0,1,4-.91c0-.1,0-.2,0-.29a1.42,1.42,0,0,0-.46-1.26,3.26,3.26,0,0,0-1.67-.3,9.88,9.88,0,0,0-2.6.35l.2-1.62a10.91,10.91,0,0,1,3.37-.41,3.93,3.93,0,0,1,2.46.67,2.79,2.79,0,0,1,.86,2.34c0,.24,0,.69,0,1.34s0,1.09,0,1.3A13.38,13.38,0,0,0,193.61,80.4Zm-2.34-1.83q-.06-1.18-.06-2c-2,0-3,.5-3,1.52,0,.69.44,1,1.31,1A2.81,2.81,0,0,0,191.27,78.57Z"/><path class="cls-10" d="M200.51,78.77l-.15,1.56a3.83,3.83,0,0,1-1.54.27,2.79,2.79,0,0,1-2.15-.78,4.49,4.49,0,0,1-.72-3c0-.88,0-1.88,0-3-.3,0-.7,0-1.21,0l.06-1.73c.45,0,.87,0,1.25,0,0-.31,0-1.13.07-2.45l2.09-.26c-.09,1.17-.13,2.07-.13,2.71.49,0,1.22,0,2.2-.07l-.07,1.75c-.89,0-1.61,0-2.17,0,0,.78,0,1.59,0,2.45a4.67,4.67,0,0,0,.32,2.1,1.19,1.19,0,0,0,1.11.53A4,4,0,0,0,200.51,78.77Z"/><path class="cls-10" d="M204.33,80.41H202c.08-1.21.13-2.6.13-4.17a24.64,24.64,0,0,0-.3-4.1l2.53-.25q-.12,1.69-.12,4.35C204.2,77.74,204.24,79.13,204.33,80.41Zm.4-11a1.5,1.5,0,0,1-.41,1,1.45,1.45,0,0,1-1.14.45,1.21,1.21,0,0,1-1-.39,1.33,1.33,0,0,1-.35-.93,1.46,1.46,0,0,1,.41-1,1.49,1.49,0,0,1,1.15-.44,1.18,1.18,0,0,1,1,.38A1.31,1.31,0,0,1,204.73,69.41Z"/><path class="cls-10" d="M214.26,80.41h-2.34c.13-1.48.19-3,.19-4.5A3,3,0,0,0,211.7,74a1.5,1.5,0,0,0-1.24-.49,3.05,3.05,0,0,0-1.9.68q0,3.43.05,6.18h-2.37c.11-1.83.16-3.27.16-4.32a17.44,17.44,0,0,0-.43-4l2.25-.24.15.93h.14a4.13,4.13,0,0,1,2.77-1,3.42,3.42,0,0,1,2.17.64,2.85,2.85,0,0,1,.81,2.35c0,.17,0,.4,0,.68s0,.58,0,.87C214.21,77.11,214.23,78.47,214.26,80.41Z"/><path class="cls-10" d="M225,70.85l-.19,1.63c-.92,0-1.49.13-1.72.4V73a2.31,2.31,0,0,1,.52,1.48,2.84,2.84,0,0,1-.93,2.14,3.79,3.79,0,0,1-2.76.89,6.53,6.53,0,0,1-1.47-.14c-.31.14-.46.33-.46.55a.77.77,0,0,0,.56.76,9.49,9.49,0,0,0,2.59.21c2.35,0,3.53.8,3.53,2.4A3.07,3.07,0,0,1,223.18,84a6.24,6.24,0,0,1-3.57,1q-4.11,0-4.11-2.58A2.06,2.06,0,0,1,216,81a1.85,1.85,0,0,1,1.07-.68V80.2a1.56,1.56,0,0,1-.74-1.42,1.9,1.9,0,0,1,1-1.62V77a2.35,2.35,0,0,1-1.42-2.23,2.75,2.75,0,0,1,1-2.16,4.45,4.45,0,0,1,3-.87,4.36,4.36,0,0,1,2.27.53h.12c.17-1.11.74-1.66,1.71-1.66A2.26,2.26,0,0,1,225,70.85Zm-2.5,11.08A1,1,0,0,0,222,81a3.66,3.66,0,0,0-1.71-.29c-.66,0-1.32,0-2-.09a1.5,1.5,0,0,0-.77,1.37q0,1.68,2.25,1.68a3.68,3.68,0,0,0,2-.47A1.47,1.47,0,0,0,222.48,81.93Zm-1-7.23a1.47,1.47,0,0,0-.51-1.21,1.83,1.83,0,0,0-1.17-.41,1.8,1.8,0,0,0-1.16.4,1.64,1.64,0,0,0,0,2.36,1.83,1.83,0,0,0,1.18.4,1.79,1.79,0,0,0,1.14-.39A1.37,1.37,0,0,0,221.44,74.7Z"/><path class="cls-10" d="M239.14,78.77,239,80.33a3.88,3.88,0,0,1-1.55.27,2.77,2.77,0,0,1-2.14-.78,4.49,4.49,0,0,1-.72-3c0-.88,0-1.88,0-3-.3,0-.71,0-1.22,0l.06-1.73c.46,0,.87,0,1.26,0,0-.31,0-1.13.07-2.45l2.08-.26c-.08,1.17-.13,2.07-.13,2.71.5,0,1.23,0,2.21-.07l-.07,1.75c-.89,0-1.62,0-2.17,0,0,.78,0,1.59,0,2.45a4.67,4.67,0,0,0,.32,2.1,1.19,1.19,0,0,0,1.11.53A4,4,0,0,0,239.14,78.77Z"/><path class="cls-10" d="M248.4,80.41h-2.33c.12-1.48.19-2.92.19-4.32a3.53,3.53,0,0,0-.4-2.06,1.58,1.58,0,0,0-1.3-.48,3.25,3.25,0,0,0-1.88.64q0,3.74.09,6.22h-2.34c.07-1.82.1-4,.1-6.53a52,52,0,0,0-.27-5.83l2.48-.14c-.08,1.89-.13,3.53-.13,4.92h.12a3.83,3.83,0,0,1,2.65-1.06,3.47,3.47,0,0,1,2.22.64,2.73,2.73,0,0,1,.8,2.26c0,.11,0,.34,0,.68s0,.57,0,.68C248.36,77,248.37,78.47,248.4,80.41Z"/><path class="cls-10" d="M258,75.34c0,.3,0,.69-.05,1.17l-5.66.09a2.6,2.6,0,0,0,.85,1.66,2.76,2.76,0,0,0,1.92.66,11.06,11.06,0,0,0,2.8-.4l-.17,1.71a9,9,0,0,1-3,.44,4.58,4.58,0,0,1-3.48-1.28,4.31,4.31,0,0,1-1.2-3.07,4.91,4.91,0,0,1,1.14-3.24,3.93,3.93,0,0,1,3.19-1.38,3.56,3.56,0,0,1,2.77,1A3.82,3.82,0,0,1,258,75.34Zm-2.05-.08c0-1.35-.58-2-1.73-2s-1.74.7-2,2.09Z"/><path class="cls-10" d="M66.65,102H64.32c.13-1.48.19-3,.19-4.5a3.08,3.08,0,0,0-.41-1.87,1.51,1.51,0,0,0-1.24-.49,3.12,3.12,0,0,0-1.9.68q0,3.44,0,6.18H58.64c.1-1.83.16-3.27.16-4.32a18.09,18.09,0,0,0-.43-4l2.25-.24.15.93h.14a4.11,4.11,0,0,1,2.77-1,3.37,3.37,0,0,1,2.16.64,2.85,2.85,0,0,1,.81,2.35c0,.17,0,.4,0,.68s0,.58,0,.88C66.61,98.71,66.63,100.07,66.65,102Z"/><path class="cls-10" d="M76.24,96.94c0,.3,0,.69,0,1.17l-5.66.1a2.6,2.6,0,0,0,.85,1.65,2.76,2.76,0,0,0,1.92.66,10.62,10.62,0,0,0,2.8-.4l-.17,1.71a9,9,0,0,1-3,.44A4.54,4.54,0,0,1,69.45,101a4.28,4.28,0,0,1-1.21-3.07,4.91,4.91,0,0,1,1.14-3.24,3.93,3.93,0,0,1,3.19-1.38,3.56,3.56,0,0,1,2.77,1A3.82,3.82,0,0,1,76.24,96.94Zm-2-.08c0-1.35-.58-2-1.73-2s-1.74.7-1.95,2.09Z"/><path class="cls-10" d="M85.84,102H83.09a6.67,6.67,0,0,0-.72-1.58,20.2,20.2,0,0,0-1.05-1.79H81.2a14.85,14.85,0,0,0-1,1.76,7.13,7.13,0,0,0-.66,1.61H77.15A10.59,10.59,0,0,1,78.42,100a22.41,22.41,0,0,1,1.77-2.35v-.13q-.42-.47-1.53-2a9,9,0,0,1-1.18-1.83h2.74A5,5,0,0,0,80.81,95a13.54,13.54,0,0,0,.87,1.52h.11a9.51,9.51,0,0,0,.81-1.49,5.69,5.69,0,0,0,.54-1.39H85.5a9.81,9.81,0,0,1-1.17,1.76,18.87,18.87,0,0,1-1.55,1.93v.13a27.2,27.2,0,0,1,1.76,2.39A9.79,9.79,0,0,1,85.84,102Z"/><path class="cls-10" d="M92.31,100.37l-.15,1.56a3.88,3.88,0,0,1-1.55.27,2.77,2.77,0,0,1-2.14-.78,4.49,4.49,0,0,1-.72-3c0-.88,0-1.88,0-3-.3,0-.71,0-1.22,0l.06-1.73c.46,0,.87,0,1.26,0,0-.31,0-1.13.07-2.45L90,91.1c-.08,1.17-.13,2.07-.13,2.71.5,0,1.23,0,2.21-.07L92,95.49c-.89,0-1.62,0-2.17,0,0,.78,0,1.59,0,2.45a4.67,4.67,0,0,0,.32,2.1,1.19,1.19,0,0,0,1.11.53A4,4,0,0,0,92.31,100.37Z"/><path class="cls-10" d="M106,97.48a5.35,5.35,0,0,1-1.09,3.34,3.51,3.51,0,0,1-3,1.45,2.5,2.5,0,0,1-1.93-.6H99.9c0,1.43,0,2.89.07,4.36h-2.4c.11-1.68.16-3.62.16-5.82a35.17,35.17,0,0,0-.45-6.49l2.25-.24.13.75h.14a3.63,3.63,0,0,1,2.56-.87A3.27,3.27,0,0,1,105,94.58,4.5,4.5,0,0,1,106,97.48Zm-2.34.22a3.25,3.25,0,0,0-.55-1.9,1.75,1.75,0,0,0-1.53-.8,2.09,2.09,0,0,0-1.77.71c.08,1.65.13,3.15.13,4.53a2.3,2.3,0,0,0,1.43.43,1.91,1.91,0,0,0,1.73-.87A3.74,3.74,0,0,0,103.67,97.7Z"/><path class="cls-10" d="M116.08,97.64a4.48,4.48,0,0,1-1.37,3.47,4.56,4.56,0,0,1-3.2,1.24,4.33,4.33,0,0,1-3-1.13A4.11,4.11,0,0,1,107.23,98a4.5,4.5,0,0,1,1.37-3.48,4.62,4.62,0,0,1,3.22-1.26,4.29,4.29,0,0,1,3,1.15A4.14,4.14,0,0,1,116.08,97.64Zm-2.3.27a3.65,3.65,0,0,0-.6-2.14,1.82,1.82,0,0,0-3.07-.06,3.35,3.35,0,0,0-.58,2,3.67,3.67,0,0,0,.6,2.14,1.82,1.82,0,0,0,3.07.06A3.35,3.35,0,0,0,113.78,97.91Z"/><path class="cls-10" d="M123.63,99.61q0,2.64-3.9,2.64a8.83,8.83,0,0,1-2.49-.31l.3-1.73a6.58,6.58,0,0,0,2.19.39,4.21,4.21,0,0,0,1.47-.17.6.6,0,0,0,.4-.59c0-.43-.49-.83-1.47-1.22a7.32,7.32,0,0,1-1.88-1,2.13,2.13,0,0,1-.81-1.68,2.3,2.3,0,0,1,.87-1.88,3.87,3.87,0,0,1,2.53-.71,8.69,8.69,0,0,1,2.44.27l-.3,1.74a5.77,5.77,0,0,0-2.14-.39q-1.41,0-1.41.72a.68.68,0,0,0,.3.59,5.7,5.7,0,0,0,1.22.57,6.3,6.3,0,0,1,1.86,1A2.26,2.26,0,0,1,123.63,99.61Z"/><path class="cls-10" d="M131.18,99.61q0,2.64-3.9,2.64a8.83,8.83,0,0,1-2.49-.31l.3-1.73a6.58,6.58,0,0,0,2.19.39,4.11,4.11,0,0,0,1.46-.17.6.6,0,0,0,.41-.59c0-.43-.49-.83-1.47-1.22a7.32,7.32,0,0,1-1.88-1,2.13,2.13,0,0,1-.81-1.68,2.3,2.3,0,0,1,.87-1.88,3.87,3.87,0,0,1,2.53-.71,8.69,8.69,0,0,1,2.44.27l-.3,1.74a5.77,5.77,0,0,0-2.14-.39q-1.41,0-1.41.72a.68.68,0,0,0,.3.59,5.7,5.7,0,0,0,1.22.57,6.3,6.3,0,0,1,1.86,1A2.26,2.26,0,0,1,131.18,99.61Z"/><path class="cls-10" d="M135.25,102h-2.36q.12-1.82.12-4.17a24.64,24.64,0,0,0-.3-4.1l2.53-.25c-.07,1.13-.11,2.58-.11,4.35Q135.13,100.09,135.25,102Zm.41-11a1.5,1.5,0,0,1-.41,1,1.45,1.45,0,0,1-1.14.45,1.21,1.21,0,0,1-1-.39,1.33,1.33,0,0,1-.35-.93,1.46,1.46,0,0,1,1.56-1.47,1.21,1.21,0,0,1,1,.38A1.36,1.36,0,0,1,135.66,91Z"/><path class="cls-10" d="M145.64,97.48a5.35,5.35,0,0,1-1.09,3.34,3.52,3.52,0,0,1-3,1.45,2.71,2.71,0,0,1-2-.6h-.12l-.17.34h-2.07c.08-2.06.12-4.23.12-6.53a53.68,53.68,0,0,0-.29-5.83l2.52-.14c-.06,1.37-.09,2.91-.09,4.63h.11a3.5,3.5,0,0,1,2.4-.78,3.27,3.27,0,0,1,2.67,1.22A4.45,4.45,0,0,1,145.64,97.48Zm-2.34.22a3.27,3.27,0,0,0-.55-1.9,1.8,1.8,0,0,0-1.54-.8,2.09,2.09,0,0,0-1.77.71c0,2,0,3.51.13,4.53a2.32,2.32,0,0,0,1.43.43,1.94,1.94,0,0,0,1.74-.87A3.74,3.74,0,0,0,143.3,97.7Z"/><path class="cls-10" d="M149.85,102h-2.4q.13-3,.13-6.53a53.38,53.38,0,0,0-.27-5.83l2.54-.14q-.14,2.49-.13,6C149.72,97.84,149.76,100,149.85,102Z"/><path class="cls-10" d="M159.5,96.94c0,.3,0,.69-.05,1.17l-5.66.1a2.6,2.6,0,0,0,.85,1.65,2.76,2.76,0,0,0,1.92.66,10.62,10.62,0,0,0,2.8-.4l-.17,1.71a9,9,0,0,1-3,.44A4.58,4.58,0,0,1,152.7,101a4.31,4.31,0,0,1-1.2-3.07,4.91,4.91,0,0,1,1.14-3.24,3.93,3.93,0,0,1,3.19-1.38,3.56,3.56,0,0,1,2.77,1A3.82,3.82,0,0,1,159.5,96.94Zm-2.05-.08c0-1.35-.58-2-1.73-2s-1.74.7-1.95,2.09Z"/><path class="cls-10" d="M163.89,100.48a1.6,1.6,0,0,1-.45,1.13,1.54,1.54,0,0,1-1.22.49,1.31,1.31,0,0,1-1-.42,1.47,1.47,0,0,1-.37-1,1.61,1.61,0,0,1,.44-1.12,1.64,1.64,0,0,1,1.24-.47,1.32,1.32,0,0,1,1,.41A1.47,1.47,0,0,1,163.89,100.48Zm0-8.61a22.81,22.81,0,0,1-1,5.42h-.89a32,32,0,0,1-.76-5.37c0-1.11.47-1.67,1.41-1.67S163.86,90.79,163.86,91.87Z"/></g></g></svg>