<?xml version="1.0" encoding="utf-8"?>
<!-- Generator: Adobe Illustrator 24.3.0, SVG Export Plug-In . SVG Version: 6.00 Build 0)  -->
<svg version="1.1" xmlns="http://www.w3.org/2000/svg" xmlns:xlink="http://www.w3.org/1999/xlink" x="0px" y="0px"
	 viewBox="0 0 1000 1000" style="enable-background:new 0 0 1000 1000;" xml:space="preserve">
<style type="text/css">
	.st0{display:none;}
	.st1{display:inline;fill:#323232;stroke:#000000;stroke-miterlimit:10;}
	.st2{opacity:0.8;fill:#1A374D;}
	.st3{fill:#E13927;}
	.st4{font-family:'CenturyGothic';}
	.st5{font-size:89.0147px;}
	.st6{fill:#FFFFFF;stroke:#000000;stroke-miterlimit:10;}
</style>
<g id="Layer_3" class="st0">
	<rect x="-27.5" y="-22.5" class="st1" width="1053" height="1053"/>
</g>
<g id="Layer_1" class="st0">
	
		<image style="display:inline;overflow:visible;" width="864" height="720" xlink:href="../../../Downloads/120200248_610827089502853_1683559919547147058_n.png"  transform="matrix(1 0 0 1 68 140)">
	</image>
</g>
<g id="Layer_2">
	<g>
		<polygon class="st2" points="310.7,189.3 107.9,666.3 235.9,666.3 436.2,189.8 		"/>
		<path class="st2" d="M677.2,547.3c-66.6,0-120.5-53.9-120.5-120.5s53.9-120.5,120.5-120.5c41.4,0,77.9,20.8,99.6,52.6l104.1-55.3
			c-41.7-68.8-117.3-114.8-203.7-114.8c-131.4,0-238,106.6-238,238l191.3,136.8L677.2,547.3"/>
		<path class="st3" d="M351.7,390.9H225l-53.3,125.3h238.8C395.1,487.4,375.3,446.8,351.7,390.9z"/>
		<g>
			<path class="st2" d="M658.7,545.8C658.7,545.8,658.7,545.8,658.7,545.8C658.7,545.8,658.7,545.8,658.7,545.8z"/>
			<path class="st2" d="M653.9,545c0.3,0.1,0.5,0.1,0.8,0.1C654.4,545.1,654.1,545,653.9,545z"/>
			<path class="st2" d="M645.1,542.9c0.2,0.1,0.4,0.1,0.7,0.2C645.6,543,645.3,543,645.1,542.9z"/>
			<path class="st2" d="M662.8,546.4c0.3,0,0.6,0.1,0.9,0.1C663.4,546.5,663.1,546.4,662.8,546.4z"/>
			<path class="st2" d="M667.8,546.9C667.8,546.9,667.8,546.9,667.8,546.9C667.8,546.9,667.8,546.9,667.8,546.9z"/>
			<path class="st2" d="M672,547.1c0.3,0,0.7,0,1,0C672.7,547.2,672.3,547.1,672,547.1z"/>
			<path class="st2" d="M474.7,551.9c0,0,0-0.1-0.1-0.1"/>
			<path class="st3" d="M667.9,546.9c1.4,0.1,2.8,0.2,4.1,0.2C670.6,547.1,669.2,547,667.9,546.9z"/>
			<path class="st3" d="M663.7,546.5c1.3,0.1,2.7,0.3,4.1,0.4C666.4,546.8,665.1,546.6,663.7,546.5z"/>
			<path class="st3" d="M775.7,496.1c-21.8,30.9-57.8,51.1-98.5,51.1c-12.6,0-24.7-1.9-36.1-5.5c-0.1,0-0.1,0-0.2-0.1
				c-116.3-31.5-204.5-352.6-204.3-352.5h-126c101,285,163.1,361,163.9,362.4c0,0.1,0.1,0.1,0.1,0.2
				c42,67.7,116.9,112.9,202.5,112.9c85.7,0,160.9-45.3,202.8-113.3L775.7,496.1z"/>
			<g>
				<path class="st2" d="M641,541.7C641,541.7,641,541.7,641,541.7c-7.5-2.4-14.7-5.5-21.5-9.2C626.5,536.6,633.7,539.7,641,541.7z"
					/>
			</g>
			<path class="st3" d="M641.1,541.8c-0.1,0-0.1,0-0.2-0.1c0,0,0,0,0,0c1.4,0.4,2.8,0.8,4.2,1.2
				C643.8,542.6,642.4,542.2,641.1,541.8z"/>
			<path class="st3" d="M658.7,545.8c1.4,0.2,2.7,0.4,4.1,0.6C661.4,546.2,660.1,546.1,658.7,545.8z"/>
			<path class="st3" d="M654.6,545.1c1.3,0.3,2.7,0.5,4.1,0.7C657.3,545.6,656,545.4,654.6,545.1z"/>
			<path class="st3" d="M645.8,543.1c2.7,0.7,5.4,1.3,8.1,1.9C651.1,544.5,648.4,543.8,645.8,543.1z"/>
		</g>
		<text transform="matrix(1 0 0 1 108.2921 780.1582)" class="st3 st4 st5">AUTOMATA</text>
		<text transform="matrix(1 0 0 1 640.6237 783.9541)" class="st2 st4 st5">CREO</text>
	</g>
	<path class="st6" d="M677.2,547.3"/>
</g>
</svg>
