<?xml version="1.0" encoding="utf-8"?>
<!-- Generator: Adobe Illustrator 17.0.0, SVG Export Plug-In . SVG Version: 6.00 Build 0)  -->
<!DOCTYPE svg PUBLIC "-//W3C//DTD SVG 1.1//EN" "http://www.w3.org/Graphics/SVG/1.1/DTD/svg11.dtd">
<svg version="1.1" id="Layer_1" xmlns="http://www.w3.org/2000/svg" xmlns:xlink="http://www.w3.org/1999/xlink" x="0px" y="0px"
	 width="464px" height="420.803px" viewBox="0 0 464 420.803" enable-background="new 0 0 464 420.803" xml:space="preserve">
<g>
	<g>
		<g>
			<g>
				<linearGradient id="SVGID_1_" gradientUnits="userSpaceOnUse" x1="232.0014" y1="332.0092" x2="232.0014" y2="374.6197">
					<stop  offset="0" style="stop-color:#1C3852"/>
					<stop  offset="0.0441" style="stop-color:#1D3B58"/>
					<stop  offset="0.2428" style="stop-color:#204572"/>
					<stop  offset="0.4286" style="stop-color:#1F4C86"/>
					<stop  offset="0.5951" style="stop-color:#1D5092"/>
					<stop  offset="0.7258" style="stop-color:#1B5297"/>
				</linearGradient>
				<polygon fill="url(#SVGID_1_)" points="281.515,374.62 182.488,374.62 188.152,332.009 276.657,332.009 				"/>
				<path fill="#D1D2D3" d="M36.717,296.327v26.311c0,5.339,4.369,9.713,9.714,9.713h371.142c5.337,0,9.71-4.374,9.71-9.713v-26.311
					H36.717z"/>
				<linearGradient id="SVGID_2_" gradientUnits="userSpaceOnUse" x1="36.7172" y1="179.7667" x2="427.2828" y2="179.7667">
					<stop  offset="0" style="stop-color:#1C3852"/>
					<stop  offset="0.0441" style="stop-color:#1D3B58"/>
					<stop  offset="0.2428" style="stop-color:#204572"/>
					<stop  offset="0.4286" style="stop-color:#1F4C86"/>
					<stop  offset="0.5951" style="stop-color:#1D5092"/>
					<stop  offset="0.7258" style="stop-color:#1B5297"/>
				</linearGradient>
				<path fill="url(#SVGID_2_)" d="M427.283,72.918c0-5.341-4.372-9.712-9.71-9.712H46.431c-5.346,0-9.714,4.371-9.714,9.712
					v223.409h390.566V72.918z"/>
				<rect x="50.477" y="76.157" fill="#D0D6DE" width="363.048" height="207.221"/>
				<polygon fill="#D0D6DE" points="182.488,374.62 281.515,374.62 298.93,378.737 165.067,378.837 				"/>
				<polygon fill="#83868F" points="298.021,381.025 165.977,381.025 165.101,378.837 298.93,378.737 				"/>
				<circle fill="#3D3D3C" cx="232.768" cy="314.314" r="4.268"/>
				<circle fill="#FFFFFF" cx="232.768" cy="69.575" r="1.562"/>
			</g>
		</g>
	</g>
	<g>
		<g>
			<path fill="#F15B2A" d="M389.065,205.036h-13.568c-6.766,0-12.296,5.514-12.296,12.28v0.823c0,6.766,5.53,12.324,12.296,12.324
				h4.391l-2.754,7.286l10.494-7.286h1.438c6.766,0,12.296-5.558,12.296-12.324v-0.823
				C401.36,210.55,395.831,205.036,389.065,205.036z"/>
			<g>
				<circle fill="#FFFFFF" cx="372.44" cy="217.191" r="2.795"/>
				<circle fill="#FFFFFF" cx="382.281" cy="217.191" r="2.795"/>
				<circle fill="#FFFFFF" cx="392.121" cy="217.191" r="2.795"/>
			</g>
		</g>
		<g>
			<path fill="#F15B2A" d="M373.276,106.645H342.8c-15.197,0-27.617,12.385-27.617,27.582v1.849
				c0,15.197,12.42,27.681,27.617,27.681h9.864l-6.187,16.364l23.57-16.364h3.229c15.197,0,27.617-12.484,27.617-27.681v-1.849
				C400.893,119.029,388.473,106.645,373.276,106.645z"/>
			<g>
				<circle fill="#FFFFFF" cx="335.935" cy="133.946" r="6.278"/>
				<circle fill="#FFFFFF" cx="358.038" cy="133.946" r="6.278"/>
				<circle fill="#FFFFFF" cx="380.14" cy="133.946" r="6.278"/>
			</g>
		</g>
		<g>
			<g>
				<path fill="#FFFFFF" d="M103.019,94.282h38.897c19.396,0,35.249,14.29,35.249,31.824v2.134
					c0,17.535-15.852,31.939-35.249,31.939h-12.589l7.896,18.882l-30.082-18.882h-4.121c-19.396,0-35.249-14.404-35.249-31.939
					v-2.134C67.771,108.572,83.623,94.282,103.019,94.282z"/>
			</g>
			<g>
				<linearGradient id="SVGID_3_" gradientUnits="userSpaceOnUse" x1="85.852" y1="126.0356" x2="102.001" y2="126.0356">
					<stop  offset="0" style="stop-color:#1C3852"/>
					<stop  offset="0.0441" style="stop-color:#1D3B58"/>
					<stop  offset="0.2428" style="stop-color:#204572"/>
					<stop  offset="0.4286" style="stop-color:#1F4C86"/>
					<stop  offset="0.5951" style="stop-color:#1D5092"/>
					<stop  offset="0.7258" style="stop-color:#1B5297"/>
				</linearGradient>
				<path fill="url(#SVGID_3_)" d="M88.656,115.172v9.09h10.508v-9.09h2.837v21.727h-2.837v-10.187H88.656v10.187h-2.804v-21.727
					H88.656z"/>
				<linearGradient id="SVGID_4_" gradientUnits="userSpaceOnUse" x1="105.6425" y1="129.0818" x2="119.4067" y2="129.0818">
					<stop  offset="0" style="stop-color:#1C3852"/>
					<stop  offset="0.0441" style="stop-color:#1D3B58"/>
					<stop  offset="0.2428" style="stop-color:#204572"/>
					<stop  offset="0.4286" style="stop-color:#1F4C86"/>
					<stop  offset="0.5951" style="stop-color:#1D5092"/>
					<stop  offset="0.7258" style="stop-color:#1B5297"/>
				</linearGradient>
				<path fill="url(#SVGID_4_)" d="M108.351,129.614c0.064,3.836,2.514,5.415,5.351,5.415c2.031,0,3.256-0.355,4.319-0.806
					l0.484,2.031c-0.999,0.451-2.708,0.967-5.189,0.967c-4.803,0-7.673-3.159-7.673-7.866c0-4.706,2.772-8.413,7.317-8.413
					c5.094,0,6.447,4.481,6.447,7.35c0,0.581-0.064,1.032-0.097,1.321H108.351z M116.667,127.583c0.033-1.805-0.741-4.61-3.932-4.61
					c-2.869,0-4.126,2.644-4.352,4.61H116.667z"/>
				<linearGradient id="SVGID_5_" gradientUnits="userSpaceOnUse" x1="122.919" y1="125.4556" x2="125.7556" y2="125.4556">
					<stop  offset="0" style="stop-color:#1C3852"/>
					<stop  offset="0.0441" style="stop-color:#1D3B58"/>
					<stop  offset="0.2428" style="stop-color:#204572"/>
					<stop  offset="0.4286" style="stop-color:#1F4C86"/>
					<stop  offset="0.5951" style="stop-color:#1D5092"/>
					<stop  offset="0.7258" style="stop-color:#1B5297"/>
				</linearGradient>
				<path fill="url(#SVGID_5_)" d="M122.919,114.012h2.837v22.887h-2.837V114.012z"/>
				<linearGradient id="SVGID_6_" gradientUnits="userSpaceOnUse" x1="130.5252" y1="125.4556" x2="133.3619" y2="125.4556">
					<stop  offset="0" style="stop-color:#1C3852"/>
					<stop  offset="0.0441" style="stop-color:#1D3B58"/>
					<stop  offset="0.2428" style="stop-color:#204572"/>
					<stop  offset="0.4286" style="stop-color:#1F4C86"/>
					<stop  offset="0.5951" style="stop-color:#1D5092"/>
					<stop  offset="0.7258" style="stop-color:#1B5297"/>
				</linearGradient>
				<path fill="url(#SVGID_6_)" d="M130.525,114.012h2.837v22.887h-2.837V114.012z"/>
				<linearGradient id="SVGID_7_" gradientUnits="userSpaceOnUse" x1="137.0041" y1="129.0978" x2="152.2517" y2="129.0978">
					<stop  offset="0" style="stop-color:#1C3852"/>
					<stop  offset="0.0441" style="stop-color:#1D3B58"/>
					<stop  offset="0.2428" style="stop-color:#204572"/>
					<stop  offset="0.4286" style="stop-color:#1F4C86"/>
					<stop  offset="0.5951" style="stop-color:#1D5092"/>
					<stop  offset="0.7258" style="stop-color:#1B5297"/>
				</linearGradient>
				<path fill="url(#SVGID_7_)" d="M152.252,128.969c0,5.77-3.997,8.284-7.769,8.284c-4.223,0-7.479-3.095-7.479-8.026
					c0-5.222,3.417-8.285,7.736-8.285C149.221,120.942,152.252,124.198,152.252,128.969z M139.873,129.131
					c0,3.416,1.966,5.995,4.738,5.995c2.707,0,4.739-2.546,4.739-6.06c0-2.643-1.322-5.996-4.674-5.996
					C141.323,123.07,139.873,126.165,139.873,129.131z"/>
				<linearGradient id="SVGID_8_" gradientUnits="userSpaceOnUse" x1="155.2801" y1="126.2128" x2="159.0836" y2="126.2128">
					<stop  offset="0" style="stop-color:#1C3852"/>
					<stop  offset="0.0441" style="stop-color:#1D3B58"/>
					<stop  offset="0.2428" style="stop-color:#204572"/>
					<stop  offset="0.4286" style="stop-color:#1F4C86"/>
					<stop  offset="0.5951" style="stop-color:#1D5092"/>
					<stop  offset="0.7258" style="stop-color:#1B5297"/>
				</linearGradient>
				<path fill="url(#SVGID_8_)" d="M155.28,135.255c0-1.161,0.806-1.998,1.902-1.998c1.161,0,1.902,0.837,1.902,1.998
					c0,1.128-0.741,1.998-1.902,1.998C156.054,137.253,155.28,136.383,155.28,135.255z M156.086,130.645l-0.451-15.473h3.094
					l-0.451,15.473H156.086z"/>
			</g>
		</g>
		<g>
			<g>
				<linearGradient id="SVGID_9_" gradientUnits="userSpaceOnUse" x1="314.7154" y1="207.7819" x2="373.9575" y2="207.7819">
					<stop  offset="0" style="stop-color:#1C3852"/>
					<stop  offset="0.0441" style="stop-color:#1D3B58"/>
					<stop  offset="0.2428" style="stop-color:#204572"/>
					<stop  offset="0.4286" style="stop-color:#1F4C86"/>
					<stop  offset="0.5951" style="stop-color:#1D5092"/>
					<stop  offset="0.7258" style="stop-color:#1B5297"/>
				</linearGradient>
				<path fill="url(#SVGID_9_)" d="M360.167,216.409c0-1.914,0.378-3.773,1.123-5.527c0.718-1.69,1.746-3.209,3.053-4.514
					c1.307-1.305,2.827-2.329,4.519-3.046c1.622-0.687,3.334-1.061,5.095-1.113v-0.742c0-10.504-8.585-19.063-19.089-19.063h-21.064
					c-10.504,0-19.089,8.559-19.089,19.063v1.278c0,10.504,8.585,19.104,19.089,19.104h6.818l-4.276,11.311l16.291-11.311h2.232
					c2.017,0,3.963-0.317,5.791-0.904c-0.327-1.205-0.493-2.447-0.493-3.712V216.409z"/>
			</g>
			<g>
				<circle fill="#FFFFFF" cx="331.483" cy="202.351" r="3.79"/>
				<circle fill="#FFFFFF" cx="344.826" cy="202.351" r="3.79"/>
				<circle fill="#FFFFFF" cx="358.17" cy="202.351" r="3.79"/>
			</g>
		</g>
	</g>
	<g>
		<path fill="#DCB99D" d="M192.936,96.478c0.19,5.503-0.934,10.299-3.777,10.397c-2.843,0.098-4.903-4.297-5.093-9.799
			c-0.19-5.503,1.993-10.044,4.836-10.142C191.745,86.836,192.746,90.976,192.936,96.478z"/>
		<g>
			<path fill="#DCB99D" d="M271.341,171.6l-17.907-6.61c-13.409-4.413-10.524-12.127-10.524-12.127h-13.785h-0.217h-13.785
				c0,0,2.885,7.713-10.524,12.127l-17.907,6.615l42.325-0.449L271.341,171.6z"/>
			<path fill="#DCB99D" d="M229.139,41.679v114.549c-21.436,0.01-38.984-24.736-38.984-55.873
				C190.156,68.55,206.423,42.228,229.139,41.679z"/>
			<path fill="#D2AE94" d="M228.91,156.676l-20.498,16.919l-18.448-7.009l26.357-4.98l-2.015-4.196c0,0,1.574-1.062,0.934-4.143
				C215.24,153.266,221.445,156.704,228.91,156.676z"/>
			<rect x="231.677" y="133.484" fill="#303030" width="25.335" height="3.187"/>
			<g>
				<circle fill="#303030" cx="228.733" cy="135.078" r="5.254"/>
			</g>
			<path fill="#EED3B7" d="M267.434,99.604c0,31.273-17.299,56.624-38.639,56.624s-38.639-25.351-38.639-56.624
				c0-31.272,17.299-57.925,38.639-57.925S267.434,68.332,267.434,99.604z"/>
			<path fill="#231F20" d="M273.147,80.949c0.155-6.484-0.341-14.198-2.873-21.996c-5.117-21.75-15.744-25.945-15.744-25.945
				c-3.542-0.975-6.686-1.412-9.557-1.508l0.001-0.005c0,0-7.014-1.018-16.063-0.833c-9.049-0.186-16.063,0.833-16.063,0.833
				l0.001,0.005c-2.87,0.096-6.014,0.533-9.557,1.508c0,0-10.627,4.195-15.744,25.945c-2.532,7.798-3.028,15.512-2.873,21.996
				c-0.054,2.265-0.033,4.722,0.116,7.306c0.095,1.641,1.532,8.691,2.941,11.312h-0.004c0,0,0.485,1.118,1.513,1.471
				c0.131,0.063,0.293,0.1,0.498,0.102c0.132,0.009,0.238-0.003,0.331-0.024c0.045-0.004,0.096,0,0.136-0.009
				c0.827-0.103,1.08-0.486,1.143-0.774l0.002-0.001c0.001-0.005,0.001-0.015,0.002-0.02c0.033-0.168,0.011-0.298,0.011-0.298
				c-0.006-0.212-0.028-0.494-0.069-0.844c0.022-0.726-0.066-1.857-0.199-3.121c-0.574-11.212,0.945-16.197,0.972-16.286
				c1.927-6.249,5.33-13.647,10.7-16.161c0.016-0.008,0.659-0.211,1.831-0.309c3.466-0.225,6.625,1.062,7.498,1.47
				c0.135,0.063,2.639,1.486,2.782,1.525c0.975,0.269,3.111,1.817,6.693,2.702c7.152,2.27,23.947,6.548,41.299,3.463
				c1.4,2.797,2.464,5.821,3.241,8.538c0.007,0.049,0.922,6.638,0.638,14.816c-0.149,1.363-0.249,2.592-0.225,3.364
				c-0.066,0.579-0.092,0.998-0.055,1.162c0,0,0.417,0.964,1.517,0.797c0.007-0.001,0.013-0.001,0.02-0.002
				c0.107-0.017,0.221-0.046,0.341-0.087c0.037-0.013,0.078-0.031,0.118-0.046c0.102-0.04,0.207-0.09,0.318-0.148
				c0.041-0.022,0.08-0.041,0.123-0.065c0.012-0.007,0.023-0.011,0.035-0.018c0.047-0.028,0.083-0.056,0.126-0.084
				c0.118-0.072,0.231-0.137,0.362-0.231c1.583-1.128,3.492-10.292,3.601-12.192C273.18,85.67,273.201,83.214,273.147,80.949z"/>
			<g>
				
					<rect x="262.385" y="99.968" transform="matrix(-0.7772 -0.6292 0.6292 -0.7772 394.8437 376.5282)" fill="#454544" width="3.388" height="36.794"/>
				<path fill="#454544" d="M274.91,86.041h-3.503c0-32.644-16.01-48.96-44.5-48.96c-28.49,0-39.41,28.066-39.41,60.71h-0.581
					c0-34.575,9.57-64.213,39.991-64.213C257.328,33.578,274.91,51.466,274.91,86.041z"/>
				<g>
					<g>
						<path fill="#454544" d="M280.547,103.541c0,1.935-1.568,3.503-3.503,3.503h-5.508c-1.935,0-3.503-1.568-3.503-3.503V82.803
							c0-1.935,1.568-3.503,3.503-3.503h5.508c1.934,0,3.503,1.568,3.503,3.503V103.541z"/>
					</g>
				</g>
			</g>
			<g>
				<rect x="199.816" y="169.471" fill="#FFFFFF" width="58.815" height="112.88"/>
				<g>
					
						<linearGradient id="SVGID_10_" gradientUnits="userSpaceOnUse" x1="-888.1727" y1="5171.5894" x2="-882.5826" y2="5171.5894" gradientTransform="matrix(4.489659e-011 -1 1 4.489659e-011 -4941.8379 -659.768)">
						<stop  offset="0" style="stop-color:#1C3852"/>
						<stop  offset="0.0441" style="stop-color:#1D3B58"/>
						<stop  offset="0.2428" style="stop-color:#204572"/>
						<stop  offset="0.4286" style="stop-color:#1F4C86"/>
						<stop  offset="0.5951" style="stop-color:#1D5092"/>
						<stop  offset="0.7258" style="stop-color:#1B5297"/>
					</linearGradient>
					<circle fill="url(#SVGID_10_)" cx="229.751" cy="225.61" r="2.795"/>
					
						<linearGradient id="SVGID_11_" gradientUnits="userSpaceOnUse" x1="-873.3291" y1="5171.5894" x2="-867.7391" y2="5171.5894" gradientTransform="matrix(4.489659e-011 -1 1 4.489659e-011 -4941.8379 -659.768)">
						<stop  offset="0" style="stop-color:#1C3852"/>
						<stop  offset="0.0441" style="stop-color:#1D3B58"/>
						<stop  offset="0.2428" style="stop-color:#204572"/>
						<stop  offset="0.4286" style="stop-color:#1F4C86"/>
						<stop  offset="0.5951" style="stop-color:#1D5092"/>
						<stop  offset="0.7258" style="stop-color:#1B5297"/>
					</linearGradient>
					<circle fill="url(#SVGID_11_)" cx="229.751" cy="210.766" r="2.795"/>
					
						<linearGradient id="SVGID_12_" gradientUnits="userSpaceOnUse" x1="-858.4855" y1="5171.5894" x2="-852.8956" y2="5171.5894" gradientTransform="matrix(4.489659e-011 -1 1 4.489659e-011 -4941.8379 -659.768)">
						<stop  offset="0" style="stop-color:#1C3852"/>
						<stop  offset="0.0441" style="stop-color:#1D3B58"/>
						<stop  offset="0.2428" style="stop-color:#204572"/>
						<stop  offset="0.4286" style="stop-color:#1F4C86"/>
						<stop  offset="0.5951" style="stop-color:#1D5092"/>
						<stop  offset="0.7258" style="stop-color:#1B5297"/>
					</linearGradient>
					<circle fill="url(#SVGID_12_)" cx="229.751" cy="195.923" r="2.795"/>
				</g>
				<linearGradient id="SVGID_13_" gradientUnits="userSpaceOnUse" x1="203.7549" y1="168.3617" x2="228.9556" y2="168.3617">
					<stop  offset="0" style="stop-color:#1C3852"/>
					<stop  offset="0.0441" style="stop-color:#1D3B58"/>
					<stop  offset="0.2428" style="stop-color:#204572"/>
					<stop  offset="0.4286" style="stop-color:#1F4C86"/>
					<stop  offset="0.5951" style="stop-color:#1D5092"/>
					<stop  offset="0.7258" style="stop-color:#1B5297"/>
				</linearGradient>
				<path fill="url(#SVGID_13_)" d="M215.313,155.636c0.157,0.029,13.643,13.661,13.643,13.661l-20.492,11.791l-4.709-17.403
					L215.313,155.636z"/>
				<linearGradient id="SVGID_14_" gradientUnits="userSpaceOnUse" x1="228.8638" y1="168.3617" x2="253.8408" y2="168.3617">
					<stop  offset="0" style="stop-color:#1C3852"/>
					<stop  offset="0.0441" style="stop-color:#1D3B58"/>
					<stop  offset="0.2428" style="stop-color:#204572"/>
					<stop  offset="0.4286" style="stop-color:#1F4C86"/>
					<stop  offset="0.5951" style="stop-color:#1D5092"/>
					<stop  offset="0.7258" style="stop-color:#1B5297"/>
				</linearGradient>
				<path fill="url(#SVGID_14_)" d="M242.72,155.636c-0.157,0.029-13.856,13.661-13.856,13.661l20.705,11.791l4.272-17.422
					L242.72,155.636z"/>
				<linearGradient id="SVGID_15_" gradientUnits="userSpaceOnUse" x1="131.0647" y1="223.8505" x2="328.4375" y2="223.8505">
					<stop  offset="0" style="stop-color:#1C3852"/>
					<stop  offset="0.0441" style="stop-color:#1D3B58"/>
					<stop  offset="0.2428" style="stop-color:#204572"/>
					<stop  offset="0.4286" style="stop-color:#1F4C86"/>
					<stop  offset="0.5951" style="stop-color:#1D5092"/>
					<stop  offset="0.7258" style="stop-color:#1B5297"/>
				</linearGradient>
				<path fill="url(#SVGID_15_)" d="M300.735,181.909c-0.001-0.004-0.002-0.008-0.003-0.012c-0.026-0.141-0.035-0.153-0.045-0.227
					c-0.081-0.59-0.385-1.524-0.529-1.884c-2.886-3.231-30.654-15.352-46.586-16.038c0,0-0.002,0-0.005,0l-7.589,39.171
					l-6.174,31.87l-4.394,22.681v0.002l-5.102,18.938l-0.549,2.766l-1.264,2.518l-0.526-1.765l-0.571-1.091l-8.092-41.769
					l-0.127-0.651l-6.237-32.196l-8.921-40.666c-0.041,0.002-0.335,0.022-0.375,0.025c-2.832,0.132-4.72,0.721-8.089,1.508
					c-0.063,0.015-0.125,0.031-0.187,0.046c-0.743,0.176-1.495,0.364-2.253,0.564c-0.003,0-0.005,0.002-0.008,0.002
					c-15.084,3.986-32.406,12.508-34.651,15.02l0,0.001l-0.563,1.314l-26.832,102.11h32.072l0.481-1.514l13.285-36.525l6.24-15.886
					l0,0c0.571,4.537,1.002,10.166,1.318,16.342c0.462,9.037,0.682,19.245,0.743,28.916c0.019,2.956,0.024,5.86,0.017,8.667
					l42.942-0.049v0.049h45.737c-0.015-3.106-0.016-6.354,0.002-9.677v-0.002c0.049-9.637,0.251-19.889,0.693-29.038
					c0.303-6.256,0.719-11.995,1.277-16.671l6.176,15.722l13.285,36.525l0.939,3.141h32.164L300.735,181.909z"/>
				<path fill="#F15B2A" d="M228.907,281.683l-15.752-77.68l-8.872-40.686c-5.378,0-9.557,1.949-11.038,2.328l-2.368,30.394
					l8.298,2.857l-11.368,4.799L228.907,281.683z"/>
				<path fill="#F15B2A" d="M228.499,281.683l17.037-77.68l7.883-40.526c3.414,0.048,10.683,1.738,11.835,2.128l2.339,30.434
					l-8.215,2.857l11.255,4.799L228.499,281.683z"/>
			</g>
		</g>
	</g>
</g>
</svg>
