<?xml version="1.0" encoding="utf-8"?>
<!-- Generator: Adobe Illustrator 17.0.0, SVG Export Plug-In . SVG Version: 6.00 Build 0)  -->
<!DOCTYPE svg PUBLIC "-//W3C//DTD SVG 1.1//EN" "http://www.w3.org/Graphics/SVG/1.1/DTD/svg11.dtd">
<svg version="1.1" id="Layer_1" xmlns="http://www.w3.org/2000/svg" xmlns:xlink="http://www.w3.org/1999/xlink" x="0px" y="0px"
	 width="464px" height="420.803px" viewBox="0 0 464 420.803" enable-background="new 0 0 464 420.803" xml:space="preserve">
<g>
	<g>
		<g>
			<g>
				<linearGradient id="SVGID_1_" gradientUnits="userSpaceOnUse" x1="217.9538" y1="330.8853" x2="217.9538" y2="373.4957">
					<stop  offset="0" style="stop-color:#1C3852"/>
					<stop  offset="0.0441" style="stop-color:#1D3B58"/>
					<stop  offset="0.2428" style="stop-color:#204572"/>
					<stop  offset="0.4286" style="stop-color:#1F4C86"/>
					<stop  offset="0.5951" style="stop-color:#1D5092"/>
					<stop  offset="0.7258" style="stop-color:#1B5297"/>
				</linearGradient>
				<polygon fill="url(#SVGID_1_)" points="267.468,373.496 168.44,373.496 174.104,330.885 262.609,330.885 				"/>
				<path fill="#D1D2D3" d="M22.67,295.203v26.311c0,5.339,4.369,9.713,9.714,9.713h371.142c5.337,0,9.71-4.374,9.71-9.713v-26.311
					H22.67z"/>
				<linearGradient id="SVGID_2_" gradientUnits="userSpaceOnUse" x1="22.6696" y1="178.6428" x2="413.2352" y2="178.6428">
					<stop  offset="0" style="stop-color:#1C3852"/>
					<stop  offset="0.0441" style="stop-color:#1D3B58"/>
					<stop  offset="0.2428" style="stop-color:#204572"/>
					<stop  offset="0.4286" style="stop-color:#1F4C86"/>
					<stop  offset="0.5951" style="stop-color:#1D5092"/>
					<stop  offset="0.7258" style="stop-color:#1B5297"/>
				</linearGradient>
				<path fill="url(#SVGID_2_)" d="M413.235,71.794c0-5.341-4.372-9.712-9.71-9.712H32.384c-5.346,0-9.714,4.371-9.714,9.712
					v223.409h390.566V71.794z"/>
				<rect x="36.429" y="75.033" fill="#D0D6DE" width="363.048" height="207.221"/>
				<polygon fill="#D0D6DE" points="168.44,373.496 267.468,373.496 284.882,377.613 151.02,377.714 				"/>
				<polygon fill="#83868F" points="283.973,379.901 151.929,379.901 151.053,377.714 284.882,377.613 				"/>
				<circle fill="#3D3D3C" cx="218.721" cy="313.19" r="4.268"/>
				<circle fill="#FFFFFF" cx="218.721" cy="68.451" r="1.562"/>
			</g>
		</g>
	</g>
	<g>
		<g>
			<g>
				<g>
					<path fill="#FFFFFF" d="M314.647,163.688H271.12c-3.008,0-5.446-2.438-5.446-5.446V97.993c0-3.008,2.439-5.446,5.446-5.446
						h27.605l21.369,22.025v43.67C320.094,161.25,317.655,163.688,314.647,163.688z"/>
				</g>
			</g>
			<g>
				<g>
					<linearGradient id="SVGID_3_" gradientUnits="userSpaceOnUse" x1="265.6731" y1="152.8952" x2="320.0939" y2="152.8952">
						<stop  offset="0" style="stop-color:#1C3852"/>
						<stop  offset="0.0441" style="stop-color:#1D3B58"/>
						<stop  offset="0.2428" style="stop-color:#204572"/>
						<stop  offset="0.4286" style="stop-color:#1F4C86"/>
						<stop  offset="0.5951" style="stop-color:#1D5092"/>
						<stop  offset="0.7258" style="stop-color:#1B5297"/>
					</linearGradient>
					<path fill="url(#SVGID_3_)" d="M314.008,163.688h-42.249c-3.361,0-6.086-2.725-6.086-6.086v-15.5h54.421v15.5
						C320.094,160.963,317.369,163.688,314.008,163.688z"/>
				</g>
			</g>
			<g opacity="0.2">
				<g>
					<path fill="#D0D6DE" d="M298.725,92.013v16.956c0,2.797,2.268,5.065,5.065,5.066l16.304,0.003L298.725,92.013z"/>
				</g>
			</g>
			<g opacity="0.2">
				<g>
					<path d="M298.948,110.457c0,0-0.215,4.112,4.467,5.465c0.176,0.051,0.356,0.089,0.536,0.121
						c2.129,0.381,16.143,2.873,16.143,2.552c0-0.348,0-4.557,0-4.557H303.79C303.79,114.037,299.719,113.898,298.948,110.457z"/>
				</g>
			</g>
		</g>
		<g>
			<g>
				<path fill="#2E368F" d="M288.023,123.744l-6.533,2.394l6.533,2.374v2.453l-9.338-3.551v-2.55l9.338-3.551V123.744z"/>
			</g>
			<g>
				<path fill="#2E368F" d="M295.043,116.485h2.727l-6.474,18.48h-2.727L295.043,116.485z"/>
			</g>
			<g>
				<path fill="#2E368F" d="M307.459,124.862v2.55l-9.338,3.551v-2.453l6.533-2.374l-6.533-2.394v-2.433L307.459,124.862z"/>
			</g>
		</g>
		<g>
			<g>
				<path fill="#FAFBFB" d="M285.801,149.601v7.314h-1.693v-2.999h-3.323v2.999h-1.692v-7.314h1.692v2.884h3.323v-2.884H285.801z"/>
			</g>
			<g>
				<path fill="#FAFBFB" d="M289.049,150.98h-2.341v-1.379h6.374v1.379h-2.341v5.935h-1.693V150.98z"/>
			</g>
			<g>
				<path fill="#FAFBFB" d="M300.646,156.915l-0.01-4.388l-2.153,3.615h-0.763l-2.142-3.521v4.295h-1.588v-7.314h1.4l2.738,4.545
					l2.696-4.545h1.39l0.021,7.314H300.646z"/>
			</g>
			<g>
				<path fill="#FAFBFB" d="M303.966,149.601h1.693v5.935h3.668v1.379h-5.36V149.601z"/>
			</g>
		</g>
	</g>
	<g>
		<g>
			<g>
				<g>
					<path fill="#FEFFFF" d="M374.179,191.652h-43.528c-3.008,0-5.446-2.438-5.446-5.446v-60.248c0-3.008,2.438-5.446,5.446-5.446
						h27.605l21.369,22.025v43.67C379.625,189.214,377.187,191.652,374.179,191.652z"/>
				</g>
			</g>
			<g>
				<g>
					<linearGradient id="SVGID_4_" gradientUnits="userSpaceOnUse" x1="325.2042" y1="180.8592" x2="379.625" y2="180.8592">
						<stop  offset="0" style="stop-color:#1C3852"/>
						<stop  offset="0.0441" style="stop-color:#1D3B58"/>
						<stop  offset="0.2428" style="stop-color:#204572"/>
						<stop  offset="0.4286" style="stop-color:#1F4C86"/>
						<stop  offset="0.5951" style="stop-color:#1D5092"/>
						<stop  offset="0.7258" style="stop-color:#1B5297"/>
					</linearGradient>
					<path fill="url(#SVGID_4_)" d="M373.539,191.652H331.29c-3.361,0-6.086-2.725-6.086-6.086v-15.5h54.421v15.5
						C379.625,188.927,376.9,191.652,373.539,191.652z"/>
				</g>
			</g>
			<g opacity="0.2">
				<g>
					<path fill="#D0D6DE" d="M358.256,119.977v16.956c0,2.798,2.267,5.065,5.065,5.066l16.304,0.003L358.256,119.977z"/>
				</g>
			</g>
			<g opacity="0.2">
				<g>
					<path d="M358.479,138.421c0,0-0.215,4.112,4.467,5.465c0.176,0.051,0.356,0.089,0.536,0.121
						c2.129,0.38,16.143,2.873,16.143,2.551c0-0.348,0-4.557,0-4.557h-16.304C363.321,142.001,359.25,141.862,358.479,138.421z"/>
				</g>
			</g>
		</g>
		<g>
			<g>
				<path fill="#2E368F" d="M339.29,159.55l1.532-1.795c1.003,1.426,2.297,2.191,3.855,2.191c2.086,0,3.169-1.267,3.169-3.749
					v-10.377h-6.681v-2.298h9.295v12.543c0,4.119-2.007,6.152-5.783,6.152C342.485,162.217,340.478,161.266,339.29,159.55z"/>
			</g>
			<g>
				<path fill="#2E368F" d="M353.71,160.527l1.056-2.007c1.188,0.845,3.089,1.452,4.911,1.452c2.35,0,3.327-0.713,3.327-1.901
					c0-3.142-8.846-0.422-8.846-5.994c0-2.508,2.244-4.198,5.836-4.198c1.822,0,3.881,0.475,5.096,1.267l-1.083,2.007
					c-1.267-0.818-2.667-1.109-4.04-1.109c-2.218,0-3.301,0.818-3.301,1.927c0,3.301,8.872,0.607,8.872,6.047
					c0,2.535-2.324,4.146-6.047,4.146C357.169,162.164,354.872,161.451,353.71,160.527z"/>
			</g>
		</g>
		<g>
			<g>
				<path fill="#FAFBFB" d="M344.015,185.135l0.98-1.149c0.642,0.913,1.47,1.402,2.467,1.402c1.335,0,2.028-0.811,2.028-2.4v-6.641
					h-4.275v-1.47h5.948v8.027c0,2.636-1.284,3.937-3.701,3.937C346.06,186.841,344.776,186.233,344.015,185.135z"/>
			</g>
			<g>
				<path fill="#FAFBFB" d="M353.244,185.76l0.676-1.284c0.76,0.541,1.977,0.929,3.143,0.929c1.504,0,2.129-0.456,2.129-1.217
					c0-2.011-5.661-0.27-5.661-3.836c0-1.605,1.436-2.687,3.734-2.687c1.166,0,2.484,0.304,3.261,0.811l-0.693,1.284
					c-0.811-0.524-1.707-0.71-2.585-0.71c-1.419,0-2.112,0.524-2.112,1.233c0,2.112,5.678,0.389,5.678,3.87
					c0,1.622-1.487,2.653-3.87,2.653C355.457,186.808,353.987,186.351,353.244,185.76z"/>
			</g>
		</g>
	</g>
	<g>
		<g>
			<g>
				<g>
					<path fill="#FEFFFF" d="M323.998,240.825H280.47c-3.008,0-5.446-2.438-5.446-5.447V175.13c0-3.008,2.438-5.447,5.446-5.447
						h27.605l21.369,22.025v43.67C329.444,238.386,327.006,240.825,323.998,240.825z"/>
				</g>
			</g>
			<g>
				<g>
					<linearGradient id="SVGID_5_" gradientUnits="userSpaceOnUse" x1="275.0236" y1="230.0322" x2="329.4443" y2="230.0322">
						<stop  offset="0" style="stop-color:#1C3852"/>
						<stop  offset="0.0441" style="stop-color:#1D3B58"/>
						<stop  offset="0.2428" style="stop-color:#204572"/>
						<stop  offset="0.4286" style="stop-color:#1F4C86"/>
						<stop  offset="0.5951" style="stop-color:#1D5092"/>
						<stop  offset="0.7258" style="stop-color:#1B5297"/>
					</linearGradient>
					<path fill="url(#SVGID_5_)" d="M323.358,240.825h-42.249c-3.361,0-6.086-2.725-6.086-6.086v-15.5h54.421v15.5
						C329.444,238.1,326.72,240.825,323.358,240.825z"/>
				</g>
			</g>
			<g opacity="0.2">
				<g>
					<path fill="#D0D6DE" d="M308.075,169.15v16.956c0,2.797,2.267,5.065,5.065,5.066l16.304,0.003L308.075,169.15z"/>
				</g>
			</g>
			<g opacity="0.2">
				<g>
					<path d="M308.298,187.594c0,0-0.215,4.113,4.467,5.465c0.176,0.051,0.356,0.089,0.536,0.121
						c2.129,0.381,16.143,2.873,16.143,2.551c0-0.348,0-4.557,0-4.557H313.14C313.14,191.174,309.069,191.035,308.298,187.594z"/>
				</g>
			</g>
		</g>
		<g>
			<g>
				<path fill="#2E368F" d="M293.346,201.006c0.897,0.273,1.306,0.838,1.306,2.183v3.118c0,0.915,0.468,1.442,1.422,1.442h0.351
					v2.377h-1.13c-2.436,0-3.684-1.247-3.684-3.489v-3.526c0-0.624-0.331-0.917-0.857-0.917h-0.643v-2.377h0.643
					c0.526,0,0.857-0.293,0.857-0.916v-3.527c0-2.241,1.247-3.488,3.684-3.488h1.13v2.377h-0.351c-0.954,0-1.422,0.526-1.422,1.442
					v3.118C294.652,200.169,294.243,200.733,293.346,201.006z"/>
			</g>
			<g>
				<path fill="#2E368F" d="M314.356,199.818v2.377h-0.643c-0.526,0-0.857,0.293-0.857,0.917v3.526c0,2.241-1.247,3.489-3.684,3.489
					h-1.13v-2.377h0.351c0.954,0,1.423-0.527,1.423-1.442v-3.118c0-1.345,0.409-1.91,1.306-2.183
					c-0.896-0.273-1.306-0.838-1.306-2.183v-3.118c0-0.916-0.468-1.442-1.423-1.442h-0.351v-2.377h1.13
					c2.436,0,3.684,1.247,3.684,3.488v3.527c0,0.624,0.331,0.916,0.857,0.916H314.356z"/>
			</g>
		</g>
		<g>
			<g>
				<path fill="#FAFBFB" d="M285.973,229.604c0-2.892,2.221-4.96,5.207-4.96c1.658,0,3.042,0.603,3.946,1.699l-1.425,1.315
					c-0.644-0.74-1.452-1.124-2.411-1.124c-1.795,0-3.069,1.261-3.069,3.069c0,1.809,1.274,3.069,3.069,3.069
					c0.959,0,1.768-0.384,2.411-1.138l1.425,1.316c-0.904,1.11-2.288,1.713-3.96,1.713
					C288.194,234.564,285.973,232.496,285.973,229.604z"/>
			</g>
			<text transform="matrix(1 0 0 1 296.96 234.4876)" fill="#FAFBFB" font-family="'MyriadPro-Bold'" font-size="18.5322">++</text>
		</g>
	</g>
	<g>
		<path opacity="0.2" fill="#29ABE2" d="M246.227,206.396H79.471c-2.38,0-4.309-1.929-4.309-4.309V96.854
			c0-2.38,1.929-4.309,4.309-4.309h166.756c2.38,0,4.309,1.929,4.309,4.309v105.233
			C250.536,204.467,248.607,206.396,246.227,206.396z"/>
		<path opacity="0.53" fill="#FFFFFF" d="M246.227,205.816H79.471c-2.38,0-4.309-1.929-4.309-4.309v0.579
			c0,2.38,1.929,4.309,4.309,4.309h166.756c2.38,0,4.309-1.929,4.309-4.309v-0.579C250.536,203.887,248.607,205.816,246.227,205.816
			z"/>
		<path opacity="0.3" fill="#45ADE2" d="M245.548,91.485H80.15c-2.755,0-4.988,2.233-4.988,4.988v1.06
			c0-2.755,2.233-4.988,4.988-4.988h165.398c2.755,0,4.988,2.233,4.988,4.988v-1.06C250.536,93.719,248.303,91.485,245.548,91.485z"
			/>
		<linearGradient id="SVGID_6_" gradientUnits="userSpaceOnUse" x1="75.1623" y1="101.7303" x2="250.5364" y2="101.7303">
			<stop  offset="0" style="stop-color:#1C3852"/>
			<stop  offset="0.0441" style="stop-color:#1D3B58"/>
			<stop  offset="0.2428" style="stop-color:#204572"/>
			<stop  offset="0.4286" style="stop-color:#1F4C86"/>
			<stop  offset="0.5951" style="stop-color:#1D5092"/>
			<stop  offset="0.7258" style="stop-color:#1B5297"/>
		</linearGradient>
		<path fill="url(#SVGID_6_)" d="M245.548,92.545H80.15c-2.755,0-4.988,2.233-4.988,4.988v13.382h175.374V97.533
			C250.536,94.779,248.303,92.545,245.548,92.545z"/>
		<path opacity="0.4" fill="#60CAE7" d="M245.548,92.545H80.15c-2.755,0-4.988,2.233-4.988,4.988v0.178
			c0-2.755,2.233-4.988,4.988-4.988h165.398c2.755,0,4.988,2.233,4.988,4.988v-0.178C250.536,94.779,248.303,92.545,245.548,92.545z
			"/>
		<rect x="75.162" y="110.174" opacity="0.4" fill="#60CAE7" width="175.374" height="0.741"/>
		<linearGradient id="SVGID_7_" gradientUnits="userSpaceOnUse" x1="82.2621" y1="158.4174" x2="243.8283" y2="158.4174">
			<stop  offset="0" style="stop-color:#1C3852"/>
			<stop  offset="0.0441" style="stop-color:#1D3B58"/>
			<stop  offset="0.2428" style="stop-color:#204572"/>
			<stop  offset="0.4286" style="stop-color:#1F4C86"/>
			<stop  offset="0.5951" style="stop-color:#1D5092"/>
			<stop  offset="0.7258" style="stop-color:#1B5297"/>
		</linearGradient>
		<path fill="url(#SVGID_7_)" d="M240.275,200.399H85.815c-1.962,0-3.553-1.591-3.553-3.553v-76.858
			c0-1.962,1.591-3.553,3.553-3.553h154.46c1.962,0,3.553,1.591,3.553,3.553v76.858
			C243.828,198.809,242.238,200.399,240.275,200.399z"/>
		<circle opacity="0.3" fill="#3050A3" cx="85.004" cy="101.73" r="4.963"/>
		<path opacity="0.4" fill="#60CAE7" d="M85.004,106.506c-2.709,0-4.902-2.173-4.954-4.869c-0.001,0.032-0.009,0.062-0.009,0.094
			c0,2.741,2.222,4.963,4.963,4.963c2.741,0,4.963-2.222,4.963-4.963c0-0.032-0.009-0.062-0.009-0.094
			C89.906,104.333,87.713,106.506,85.004,106.506z"/>
		<circle opacity="0.3" fill="#45ADE2" cx="85.004" cy="101.73" r="3.85"/>
		<circle fill="#EF4346" cx="85.004" cy="101.73" r="3.144"/>
		<path fill="#F58D8F" d="M85.004,98.674c1.721,0,3.116,1.384,3.14,3.1c0-0.015,0.005-0.029,0.005-0.044
			c0-1.737-1.408-3.144-3.144-3.144c-1.737,0-3.144,1.408-3.144,3.144c0,0.015,0.004,0.029,0.004,0.044
			C81.888,100.059,83.283,98.674,85.004,98.674z"/>
		<circle fill="#C22B27" cx="85.004" cy="101.73" r="1.897"/>
		<path fill="#F58D8F" d="M85.004,99.933c1.031,0,1.865,0.823,1.892,1.847c0-0.017,0.005-0.033,0.005-0.05
			c0-1.048-0.849-1.897-1.897-1.897c-1.048,0-1.897,0.849-1.897,1.897c0,0.017,0.004,0.033,0.005,0.05
			C83.139,100.756,83.973,99.933,85.004,99.933z"/>
		<circle opacity="0.3" fill="#3050A3" cx="99.384" cy="101.73" r="4.963"/>
		<path opacity="0.4" fill="#60CAE7" d="M99.384,106.506c-2.709,0-4.903-2.173-4.954-4.869c-0.001,0.032-0.009,0.062-0.009,0.094
			c0,2.741,2.222,4.963,4.963,4.963c2.741,0,4.963-2.222,4.963-4.963c0-0.032-0.009-0.062-0.009-0.094
			C104.286,104.333,102.093,106.506,99.384,106.506z"/>
		<circle opacity="0.3" fill="#45ADE2" cx="99.384" cy="101.73" r="3.85"/>
		<circle fill="#FFCE04" cx="99.384" cy="101.73" r="3.144"/>
		<path fill="#FDEB03" d="M99.384,98.674c1.721,0,3.116,1.384,3.14,3.1c0-0.015,0.004-0.029,0.004-0.044
			c0-1.737-1.408-3.144-3.144-3.144c-1.737,0-3.144,1.408-3.144,3.144c0,0.015,0.004,0.029,0.004,0.044
			C96.268,100.059,97.662,98.674,99.384,98.674z"/>
		<circle fill="#FAA51A" cx="99.384" cy="101.73" r="1.897"/>
		<path fill="#FEBC11" d="M99.384,99.933c1.031,0,1.865,0.823,1.892,1.847c0-0.017,0.005-0.033,0.005-0.05
			c0-1.048-0.849-1.897-1.897-1.897c-1.048,0-1.897,0.849-1.897,1.897c0,0.017,0.005,0.033,0.005,0.05
			C97.519,100.756,98.353,99.933,99.384,99.933z"/>
		<circle opacity="0.3" fill="#3050A3" cx="113.763" cy="101.73" r="4.963"/>
		<path opacity="0.4" fill="#60CAE7" d="M113.763,106.506c-2.709,0-4.902-2.173-4.954-4.869c-0.001,0.032-0.009,0.062-0.009,0.094
			c0,2.741,2.222,4.963,4.963,4.963c2.741,0,4.963-2.222,4.963-4.963c0-0.032-0.009-0.062-0.009-0.094
			C118.666,104.333,116.472,106.506,113.763,106.506z"/>
		<circle opacity="0.3" fill="#45ADE2" cx="113.763" cy="101.73" r="3.85"/>
		<circle fill="#63C083" cx="113.763" cy="101.73" r="3.144"/>
		<path fill="#A0D3A1" d="M113.763,98.674c1.722,0,3.116,1.384,3.14,3.1c0-0.015,0.004-0.029,0.004-0.044
			c0-1.737-1.408-3.144-3.144-3.144c-1.736,0-3.144,1.408-3.144,3.144c0,0.015,0.004,0.029,0.004,0.044
			C110.648,100.059,112.042,98.674,113.763,98.674z"/>
		<circle fill="#12AB6B" cx="113.763" cy="101.73" r="1.897"/>
		<path fill="#A0D3A1" d="M113.763,99.933c1.031,0,1.865,0.823,1.892,1.847c0.001-0.017,0.005-0.033,0.005-0.05
			c0-1.048-0.849-1.897-1.897-1.897c-1.048,0-1.897,0.849-1.897,1.897c0,0.017,0.005,0.033,0.005,0.05
			C111.898,100.756,112.733,99.933,113.763,99.933z"/>
		
			<polyline fill="none" stroke="#FFFFFF" stroke-width="2" stroke-linecap="round" stroke-linejoin="round" stroke-miterlimit="10" points="
			90.785,121.358 86.924,125.219 90.78,129.075 		"/>
		
			<polyline fill="none" stroke="#FFFFFF" stroke-width="2" stroke-linecap="round" stroke-linejoin="round" stroke-miterlimit="10" points="
			100.486,121.358 104.347,125.219 100.491,129.075 		"/>
		
			<line fill="none" stroke="#FFFFFF" stroke-width="2" stroke-linecap="round" stroke-linejoin="round" stroke-miterlimit="10" x1="94.002" y1="129.737" x2="97.065" y2="121.358"/>
		<circle fill="#F69321" stroke="#FFFFFF" stroke-miterlimit="10" cx="108.448" cy="129.805" r="1.089"/>
		<circle fill="#F69321" stroke="#FFFFFF" stroke-miterlimit="10" cx="112.955" cy="129.805" r="1.089"/>
		<circle fill="#F69321" stroke="#FFFFFF" stroke-miterlimit="10" cx="117.462" cy="129.805" r="1.089"/>
		
			<line fill="none" stroke="#FFFFFF" stroke-width="2" stroke-linecap="round" stroke-linejoin="round" stroke-miterlimit="10" x1="88.62" y1="137.652" x2="204.662" y2="137.652"/>
		
			<line fill="none" stroke="#FFFFFF" stroke-width="2" stroke-linecap="round" stroke-linejoin="round" stroke-miterlimit="10" x1="211.934" y1="137.652" x2="220.876" y2="137.652"/>
		
			<line fill="none" stroke="#FFFFFF" stroke-width="2" stroke-linecap="round" stroke-linejoin="round" stroke-miterlimit="10" x1="225.898" y1="137.652" x2="237.313" y2="137.652"/>
		
			<line fill="none" stroke="#FFFFFF" stroke-width="2" stroke-linecap="round" stroke-linejoin="round" stroke-miterlimit="10" x1="88.62" y1="146.783" x2="161.217" y2="146.783"/>
		
			<line fill="none" stroke="#FFFFFF" stroke-width="2" stroke-linecap="round" stroke-linejoin="round" stroke-miterlimit="10" x1="167.999" y1="146.783" x2="181.012" y2="146.783"/>
		
			<line fill="none" stroke="#FFFFFF" stroke-width="2" stroke-linecap="round" stroke-linejoin="round" stroke-miterlimit="10" x1="185.264" y1="152.034" x2="149.939" y2="152.034"/>
		
			<line fill="none" stroke="#FFFFFF" stroke-width="2" stroke-linecap="round" stroke-linejoin="round" stroke-miterlimit="10" x1="142.855" y1="152.034" x2="125.194" y2="152.034"/>
		
			<line fill="none" stroke="#FFFFFF" stroke-width="2" stroke-linecap="round" stroke-linejoin="round" stroke-miterlimit="10" x1="119.539" y1="152.034" x2="112.42" y2="152.034"/>
		
			<line fill="none" stroke="#FFFFFF" stroke-width="2" stroke-linecap="round" stroke-linejoin="round" stroke-miterlimit="10" x1="106.765" y1="152.034" x2="99.646" y2="152.034"/>
		
			<line fill="none" stroke="#FFFFFF" stroke-width="2" stroke-linecap="round" stroke-linejoin="round" stroke-miterlimit="10" x1="152.417" y1="158.417" x2="99.646" y2="158.417"/>
		
			<line fill="none" stroke="#FFFFFF" stroke-width="2" stroke-linecap="round" stroke-linejoin="round" stroke-miterlimit="10" x1="91.189" y1="152.034" x2="88.62" y2="152.034"/>
		
			<line fill="none" stroke="#FFFFFF" stroke-width="2" stroke-linecap="round" stroke-linejoin="round" stroke-miterlimit="10" x1="91.189" y1="158.417" x2="88.62" y2="158.417"/>
		
			<line fill="none" stroke="#FFFFFF" stroke-width="2" stroke-linecap="round" stroke-linejoin="round" stroke-miterlimit="10" x1="91.189" y1="164.801" x2="88.62" y2="164.801"/>
		
			<line fill="none" stroke="#FFFFFF" stroke-width="2" stroke-linecap="round" stroke-linejoin="round" stroke-miterlimit="10" x1="91.189" y1="171.185" x2="88.62" y2="171.185"/>
		
			<line fill="none" stroke="#FFFFFF" stroke-width="2" stroke-linecap="round" stroke-linejoin="round" stroke-miterlimit="10" x1="216.405" y1="158.417" x2="231.606" y2="158.417"/>
		
			<line fill="none" stroke="#FFFFFF" stroke-width="2" stroke-linecap="round" stroke-linejoin="round" stroke-miterlimit="10" x1="99.384" y1="164.801" x2="129.844" y2="164.801"/>
		
			<line fill="none" stroke="#FFFFFF" stroke-width="2" stroke-linecap="round" stroke-linejoin="round" stroke-miterlimit="10" x1="99.384" y1="171.342" x2="129.844" y2="171.342"/>
		
			<line fill="none" stroke="#FFFFFF" stroke-width="2" stroke-linecap="round" stroke-linejoin="round" stroke-miterlimit="10" x1="99.384" y1="177.882" x2="129.844" y2="177.882"/>
		
			<line fill="none" stroke="#FFFFFF" stroke-width="2" stroke-linecap="round" stroke-linejoin="round" stroke-miterlimit="10" x1="99.384" y1="184.422" x2="129.844" y2="184.422"/>
		
			<line fill="none" stroke="#FFFFFF" stroke-width="2" stroke-linecap="round" stroke-linejoin="round" stroke-miterlimit="10" x1="135.271" y1="177.882" x2="197.266" y2="177.882"/>
		
			<line fill="none" stroke="#FFFFFF" stroke-width="2" stroke-linecap="round" stroke-linejoin="round" stroke-miterlimit="10" x1="170.445" y1="171.185" x2="180.466" y2="171.185"/>
		
			<line fill="none" stroke="#FFFFFF" stroke-width="2" stroke-linecap="round" stroke-linejoin="round" stroke-miterlimit="10" x1="237.079" y1="142.198" x2="121.036" y2="142.198"/>
		
			<line fill="none" stroke="#FFFFFF" stroke-width="2" stroke-linecap="round" stroke-linejoin="round" stroke-miterlimit="10" x1="113.999" y1="142.198" x2="105.056" y2="142.198"/>
		
			<line fill="none" stroke="#FFFFFF" stroke-width="2" stroke-linecap="round" stroke-linejoin="round" stroke-miterlimit="10" x1="100.034" y1="142.198" x2="88.62" y2="142.198"/>
		
			<line fill="none" stroke="#FFFFFF" stroke-width="2" stroke-linecap="round" stroke-linejoin="round" stroke-miterlimit="10" x1="188.613" y1="146.783" x2="217.012" y2="146.783"/>
		
			<line fill="none" stroke="#FFFFFF" stroke-width="2" stroke-linecap="round" stroke-linejoin="round" stroke-miterlimit="10" x1="223.155" y1="146.783" x2="236.167" y2="146.783"/>
		
			<line fill="none" stroke="#FFFFFF" stroke-width="2" stroke-linecap="round" stroke-linejoin="round" stroke-miterlimit="10" x1="222.249" y1="152.034" x2="204.588" y2="152.034"/>
		
			<line fill="none" stroke="#FFFFFF" stroke-width="2" stroke-linecap="round" stroke-linejoin="round" stroke-miterlimit="10" x1="198.934" y1="152.034" x2="191.815" y2="152.034"/>
		
			<line fill="none" stroke="#FFFFFF" stroke-width="2" stroke-linecap="round" stroke-linejoin="round" stroke-miterlimit="10" x1="210.326" y1="158.417" x2="157.555" y2="158.417"/>
		
			<line fill="none" stroke="#FFFFFF" stroke-width="2" stroke-linecap="round" stroke-linejoin="round" stroke-miterlimit="10" x1="134.02" y1="164.801" x2="196.225" y2="164.801"/>
		
			<line fill="none" stroke="#FFFFFF" stroke-width="2" stroke-linecap="round" stroke-linejoin="round" stroke-miterlimit="10" x1="200.081" y1="164.801" x2="230.541" y2="164.801"/>
		
			<line fill="none" stroke="#FFFFFF" stroke-width="2" stroke-linecap="round" stroke-linejoin="round" stroke-miterlimit="10" x1="165.157" y1="171.342" x2="147.496" y2="171.342"/>
		
			<line fill="none" stroke="#FFFFFF" stroke-width="2" stroke-linecap="round" stroke-linejoin="round" stroke-miterlimit="10" x1="141.841" y1="171.342" x2="134.722" y2="171.342"/>
		
			<line fill="none" stroke="#FFFFFF" stroke-width="2" stroke-linecap="round" stroke-linejoin="round" stroke-miterlimit="10" x1="165.305" y1="184.422" x2="147.644" y2="184.422"/>
		
			<line fill="none" stroke="#FFFFFF" stroke-width="2" stroke-linecap="round" stroke-linejoin="round" stroke-miterlimit="10" x1="141.989" y1="184.422" x2="134.87" y2="184.422"/>
		
			<line fill="none" stroke="#FFFFFF" stroke-width="2" stroke-linecap="round" stroke-linejoin="round" stroke-miterlimit="10" x1="91.189" y1="184.422" x2="88.62" y2="184.422"/>
		
			<line fill="none" stroke="#FFFFFF" stroke-width="2" stroke-linecap="round" stroke-linejoin="round" stroke-miterlimit="10" x1="91.189" y1="177.882" x2="88.62" y2="177.882"/>
	</g>
	<g>
		<path opacity="0.2" fill="#29ABE2" d="M194.598,267.147H57.365c-1.958,0-3.546-1.588-3.546-3.546V177
			c0-1.958,1.588-3.546,3.546-3.546h137.232c1.958,0,3.546,1.588,3.546,3.546v86.601
			C198.144,265.56,196.556,267.147,194.598,267.147z"/>
		<path opacity="0.53" fill="#FFFFFF" d="M194.598,266.67H57.365c-1.958,0-3.546-1.588-3.546-3.546v0.477
			c0,1.958,1.588,3.546,3.546,3.546h137.232c1.958,0,3.546-1.588,3.546-3.546v-0.477C198.144,265.083,196.556,266.67,194.598,266.67
			z"/>
		<path opacity="0.3" fill="#45ADE2" d="M194.039,172.581H57.924c-2.267,0-4.105,1.838-4.105,4.105v0.872
			c0-2.267,1.838-4.105,4.105-4.105h136.115c2.267,0,4.105,1.838,4.105,4.105v-0.872
			C198.144,174.419,196.306,172.581,194.039,172.581z"/>
		<linearGradient id="SVGID_8_" gradientUnits="userSpaceOnUse" x1="53.8192" y1="181.0125" x2="198.1437" y2="181.0125">
			<stop  offset="0" style="stop-color:#1C3852"/>
			<stop  offset="0.0441" style="stop-color:#1D3B58"/>
			<stop  offset="0.2428" style="stop-color:#204572"/>
			<stop  offset="0.4286" style="stop-color:#1F4C86"/>
			<stop  offset="0.5951" style="stop-color:#1D5092"/>
			<stop  offset="0.7258" style="stop-color:#1B5297"/>
		</linearGradient>
		<path fill="url(#SVGID_8_)" d="M194.039,173.454H57.924c-2.267,0-4.105,1.838-4.105,4.105v11.013h144.324v-11.013
			C198.144,175.292,196.306,173.454,194.039,173.454z"/>
		<path opacity="0.4" fill="#60CAE7" d="M194.039,173.454H57.924c-2.267,0-4.105,1.838-4.105,4.105v0.146
			c0-2.267,1.838-4.105,4.105-4.105h136.115c2.267,0,4.105,1.838,4.105,4.105v-0.146
			C198.144,175.292,196.306,173.454,194.039,173.454z"/>
		<rect x="53.819" y="187.961" opacity="0.4" fill="#60CAE7" width="144.324" height="0.61"/>
		<linearGradient id="SVGID_9_" gradientUnits="userSpaceOnUse" x1="59.6621" y1="227.6632" x2="192.6233" y2="227.6632">
			<stop  offset="0" style="stop-color:#1C3852"/>
			<stop  offset="0.0441" style="stop-color:#1D3B58"/>
			<stop  offset="0.2428" style="stop-color:#204572"/>
			<stop  offset="0.4286" style="stop-color:#1F4C86"/>
			<stop  offset="0.5951" style="stop-color:#1D5092"/>
			<stop  offset="0.7258" style="stop-color:#1B5297"/>
		</linearGradient>
		<path fill="url(#SVGID_9_)" d="M189.699,262.212H62.586c-1.615,0-2.924-1.309-2.924-2.924v-63.25c0-1.615,1.309-2.924,2.924-2.924
			h127.113c1.615,0,2.924,1.309,2.924,2.924v63.25C192.623,260.903,191.314,262.212,189.699,262.212z"/>
		<circle opacity="0.3" fill="#3050A3" cx="61.918" cy="181.012" r="4.084"/>
		<path opacity="0.4" fill="#60CAE7" d="M61.918,184.943c-2.229,0-4.035-1.788-4.077-4.007c0,0.026-0.008,0.051-0.008,0.077
			c0,2.256,1.829,4.085,4.084,4.085c2.256,0,4.084-1.829,4.084-4.085c0-0.026-0.007-0.051-0.008-0.077
			C65.953,183.155,64.148,184.943,61.918,184.943z"/>
		<circle opacity="0.3" fill="#45ADE2" cx="61.918" cy="181.012" r="3.169"/>
		<circle fill="#EF4346" cx="61.918" cy="181.012" r="2.588"/>
		<path fill="#F58D8F" d="M61.918,178.497c1.417,0,2.564,1.139,2.584,2.551c0-0.012,0.004-0.024,0.004-0.036
			c0-1.429-1.159-2.587-2.588-2.587c-1.429,0-2.588,1.158-2.588,2.587c0,0.012,0.003,0.024,0.004,0.036
			C59.354,179.637,60.502,178.497,61.918,178.497z"/>
		<circle fill="#C22B27" cx="61.918" cy="181.012" r="1.561"/>
		<path fill="#F58D8F" d="M61.918,179.533c0.848,0,1.535,0.677,1.557,1.52c0-0.014,0.004-0.027,0.004-0.041
			c0-0.862-0.699-1.561-1.561-1.561c-0.862,0-1.561,0.699-1.561,1.561c0,0.014,0.004,0.027,0.004,0.041
			C60.384,180.21,61.07,179.533,61.918,179.533z"/>
		<circle opacity="0.3" fill="#3050A3" cx="73.752" cy="181.012" r="4.084"/>
		<path opacity="0.4" fill="#60CAE7" d="M73.752,184.943c-2.229,0-4.035-1.788-4.077-4.007c0,0.026-0.008,0.051-0.008,0.077
			c0,2.256,1.829,4.085,4.084,4.085c2.256,0,4.085-1.829,4.085-4.085c0-0.026-0.007-0.051-0.008-0.077
			C77.787,183.155,75.982,184.943,73.752,184.943z"/>
		<circle opacity="0.3" fill="#45ADE2" cx="73.752" cy="181.012" r="3.169"/>
		<circle fill="#FFCE04" cx="73.752" cy="181.012" r="2.588"/>
		<path fill="#FDEB03" d="M73.752,178.497c1.417,0,2.564,1.139,2.584,2.551c0-0.012,0.004-0.024,0.004-0.036
			c0-1.429-1.159-2.587-2.588-2.587c-1.429,0-2.588,1.158-2.588,2.587c0,0.012,0.004,0.024,0.004,0.036
			C71.188,179.637,72.336,178.497,73.752,178.497z"/>
		<circle fill="#FAA51A" cx="73.752" cy="181.012" r="1.561"/>
		<path fill="#FEBC11" d="M73.752,179.533c0.848,0,1.535,0.677,1.557,1.52c0-0.014,0.004-0.027,0.004-0.041
			c0-0.862-0.699-1.561-1.561-1.561c-0.862,0-1.561,0.699-1.561,1.561c0,0.014,0.004,0.027,0.004,0.041
			C72.217,180.21,72.904,179.533,73.752,179.533z"/>
		<circle opacity="0.3" fill="#3050A3" cx="85.586" cy="181.012" r="4.084"/>
		<path opacity="0.4" fill="#60CAE7" d="M85.586,184.943c-2.229,0-4.035-1.788-4.077-4.007c-0.001,0.026-0.008,0.051-0.008,0.077
			c0,2.256,1.829,4.085,4.084,4.085s4.085-1.829,4.085-4.085c0-0.026-0.007-0.051-0.008-0.077
			C89.62,183.155,87.815,184.943,85.586,184.943z"/>
		<circle opacity="0.3" fill="#45ADE2" cx="85.586" cy="181.012" r="3.169"/>
		<circle fill="#63C083" cx="85.586" cy="181.012" r="2.588"/>
		<path fill="#A0D3A1" d="M85.586,178.497c1.417,0,2.564,1.139,2.584,2.551c0-0.012,0.004-0.024,0.004-0.036
			c0-1.429-1.159-2.587-2.588-2.587s-2.588,1.158-2.588,2.587c0,0.012,0.004,0.024,0.004,0.036
			C83.022,179.637,84.169,178.497,85.586,178.497z"/>
		<circle fill="#12AB6B" cx="85.586" cy="181.012" r="1.561"/>
		<path fill="#A0D3A1" d="M85.586,179.533c0.848,0,1.535,0.677,1.557,1.52c0-0.014,0.004-0.027,0.004-0.041
			c0-0.862-0.699-1.561-1.561-1.561c-0.862,0-1.561,0.699-1.561,1.561c0,0.014,0.004,0.027,0.004,0.041
			C84.051,180.21,84.738,179.533,85.586,179.533z"/>
		
			<polyline fill="none" stroke="#FFFFFF" stroke-width="2" stroke-linecap="round" stroke-linejoin="round" stroke-miterlimit="10" points="
			66.676,197.165 63.499,200.343 66.672,203.516 		"/>
		
			<polyline fill="none" stroke="#FFFFFF" stroke-width="2" stroke-linecap="round" stroke-linejoin="round" stroke-miterlimit="10" points="
			74.66,197.165 77.837,200.343 74.663,203.516 		"/>
		
			<line fill="none" stroke="#FFFFFF" stroke-width="2" stroke-linecap="round" stroke-linejoin="round" stroke-miterlimit="10" x1="69.323" y1="204.061" x2="71.844" y2="197.165"/>
		<circle fill="#F69321" stroke="#FFFFFF" stroke-miterlimit="10" cx="81.212" cy="204.117" r="0.896"/>
		<circle fill="#F69321" stroke="#FFFFFF" stroke-miterlimit="10" cx="84.921" cy="204.117" r="0.896"/>
		<circle fill="#F69321" stroke="#FFFFFF" stroke-miterlimit="10" cx="88.63" cy="204.117" r="0.896"/>
		
			<line fill="none" stroke="#FFFFFF" stroke-width="2" stroke-linecap="round" stroke-linejoin="round" stroke-miterlimit="10" x1="64.894" y1="210.574" x2="160.391" y2="210.574"/>
		
			<line fill="none" stroke="#FFFFFF" stroke-width="2" stroke-linecap="round" stroke-linejoin="round" stroke-miterlimit="10" x1="166.376" y1="210.574" x2="173.735" y2="210.574"/>
		
			<line fill="none" stroke="#FFFFFF" stroke-width="2" stroke-linecap="round" stroke-linejoin="round" stroke-miterlimit="10" x1="177.868" y1="210.574" x2="187.261" y2="210.574"/>
		
			<line fill="none" stroke="#FFFFFF" stroke-width="2" stroke-linecap="round" stroke-linejoin="round" stroke-miterlimit="10" x1="64.894" y1="218.089" x2="124.638" y2="218.089"/>
		
			<line fill="none" stroke="#FFFFFF" stroke-width="2" stroke-linecap="round" stroke-linejoin="round" stroke-miterlimit="10" x1="130.22" y1="218.089" x2="140.928" y2="218.089"/>
		
			<line fill="none" stroke="#FFFFFF" stroke-width="2" stroke-linecap="round" stroke-linejoin="round" stroke-miterlimit="10" x1="144.428" y1="222.41" x2="115.357" y2="222.41"/>
		
			<line fill="none" stroke="#FFFFFF" stroke-width="2" stroke-linecap="round" stroke-linejoin="round" stroke-miterlimit="10" x1="109.527" y1="222.41" x2="94.993" y2="222.41"/>
		
			<line fill="none" stroke="#FFFFFF" stroke-width="2" stroke-linecap="round" stroke-linejoin="round" stroke-miterlimit="10" x1="90.339" y1="222.41" x2="84.481" y2="222.41"/>
		
			<line fill="none" stroke="#FFFFFF" stroke-width="2" stroke-linecap="round" stroke-linejoin="round" stroke-miterlimit="10" x1="79.827" y1="222.41" x2="73.968" y2="222.41"/>
		
			<line fill="none" stroke="#FFFFFF" stroke-width="2" stroke-linecap="round" stroke-linejoin="round" stroke-miterlimit="10" x1="117.396" y1="227.663" x2="73.968" y2="227.663"/>
		
			<line fill="none" stroke="#FFFFFF" stroke-width="2" stroke-linecap="round" stroke-linejoin="round" stroke-miterlimit="10" x1="67.008" y1="222.41" x2="64.894" y2="222.41"/>
		
			<line fill="none" stroke="#FFFFFF" stroke-width="2" stroke-linecap="round" stroke-linejoin="round" stroke-miterlimit="10" x1="67.008" y1="227.663" x2="64.894" y2="227.663"/>
		
			<line fill="none" stroke="#FFFFFF" stroke-width="2" stroke-linecap="round" stroke-linejoin="round" stroke-miterlimit="10" x1="67.008" y1="232.917" x2="64.894" y2="232.917"/>
		
			<line fill="none" stroke="#FFFFFF" stroke-width="2" stroke-linecap="round" stroke-linejoin="round" stroke-miterlimit="10" x1="67.008" y1="238.17" x2="64.894" y2="238.17"/>
		
			<line fill="none" stroke="#FFFFFF" stroke-width="2" stroke-linecap="round" stroke-linejoin="round" stroke-miterlimit="10" x1="170.055" y1="227.663" x2="182.565" y2="227.663"/>
		
			<line fill="none" stroke="#FFFFFF" stroke-width="2" stroke-linecap="round" stroke-linejoin="round" stroke-miterlimit="10" x1="73.752" y1="232.917" x2="98.819" y2="232.917"/>
		
			<line fill="none" stroke="#FFFFFF" stroke-width="2" stroke-linecap="round" stroke-linejoin="round" stroke-miterlimit="10" x1="73.752" y1="238.299" x2="98.819" y2="238.299"/>
		
			<line fill="none" stroke="#FFFFFF" stroke-width="2" stroke-linecap="round" stroke-linejoin="round" stroke-miterlimit="10" x1="73.752" y1="243.682" x2="98.819" y2="243.682"/>
		
			<line fill="none" stroke="#FFFFFF" stroke-width="2" stroke-linecap="round" stroke-linejoin="round" stroke-miterlimit="10" x1="73.752" y1="249.064" x2="98.819" y2="249.064"/>
		
			<line fill="none" stroke="#FFFFFF" stroke-width="2" stroke-linecap="round" stroke-linejoin="round" stroke-miterlimit="10" x1="103.286" y1="243.682" x2="154.305" y2="243.682"/>
		
			<line fill="none" stroke="#FFFFFF" stroke-width="2" stroke-linecap="round" stroke-linejoin="round" stroke-miterlimit="10" x1="132.232" y1="238.17" x2="140.479" y2="238.17"/>
		
			<line fill="none" stroke="#FFFFFF" stroke-width="2" stroke-linecap="round" stroke-linejoin="round" stroke-miterlimit="10" x1="187.068" y1="214.315" x2="91.571" y2="214.315"/>
		
			<line fill="none" stroke="#FFFFFF" stroke-width="2" stroke-linecap="round" stroke-linejoin="round" stroke-miterlimit="10" x1="85.78" y1="214.315" x2="78.421" y2="214.315"/>
		
			<line fill="none" stroke="#FFFFFF" stroke-width="2" stroke-linecap="round" stroke-linejoin="round" stroke-miterlimit="10" x1="74.288" y1="214.315" x2="64.894" y2="214.315"/>
		
			<line fill="none" stroke="#FFFFFF" stroke-width="2" stroke-linecap="round" stroke-linejoin="round" stroke-miterlimit="10" x1="147.183" y1="218.089" x2="170.555" y2="218.089"/>
		
			<line fill="none" stroke="#FFFFFF" stroke-width="2" stroke-linecap="round" stroke-linejoin="round" stroke-miterlimit="10" x1="175.61" y1="218.089" x2="186.318" y2="218.089"/>
		
			<line fill="none" stroke="#FFFFFF" stroke-width="2" stroke-linecap="round" stroke-linejoin="round" stroke-miterlimit="10" x1="174.865" y1="222.41" x2="160.331" y2="222.41"/>
		
			<line fill="none" stroke="#FFFFFF" stroke-width="2" stroke-linecap="round" stroke-linejoin="round" stroke-miterlimit="10" x1="155.677" y1="222.41" x2="149.819" y2="222.41"/>
		
			<line fill="none" stroke="#FFFFFF" stroke-width="2" stroke-linecap="round" stroke-linejoin="round" stroke-miterlimit="10" x1="165.052" y1="227.663" x2="121.625" y2="227.663"/>
		
			<line fill="none" stroke="#FFFFFF" stroke-width="2" stroke-linecap="round" stroke-linejoin="round" stroke-miterlimit="10" x1="102.256" y1="232.917" x2="153.448" y2="232.917"/>
		
			<line fill="none" stroke="#FFFFFF" stroke-width="2" stroke-linecap="round" stroke-linejoin="round" stroke-miterlimit="10" x1="156.622" y1="232.917" x2="181.689" y2="232.917"/>
		
			<line fill="none" stroke="#FFFFFF" stroke-width="2" stroke-linecap="round" stroke-linejoin="round" stroke-miterlimit="10" x1="127.88" y1="238.299" x2="113.346" y2="238.299"/>
		
			<line fill="none" stroke="#FFFFFF" stroke-width="2" stroke-linecap="round" stroke-linejoin="round" stroke-miterlimit="10" x1="108.693" y1="238.299" x2="102.834" y2="238.299"/>
		
			<line fill="none" stroke="#FFFFFF" stroke-width="2" stroke-linecap="round" stroke-linejoin="round" stroke-miterlimit="10" x1="128.002" y1="249.064" x2="113.468" y2="249.064"/>
		
			<line fill="none" stroke="#FFFFFF" stroke-width="2" stroke-linecap="round" stroke-linejoin="round" stroke-miterlimit="10" x1="108.815" y1="249.064" x2="102.956" y2="249.064"/>
		
			<line fill="none" stroke="#FFFFFF" stroke-width="2" stroke-linecap="round" stroke-linejoin="round" stroke-miterlimit="10" x1="67.008" y1="249.064" x2="64.894" y2="249.064"/>
		
			<line fill="none" stroke="#FFFFFF" stroke-width="2" stroke-linecap="round" stroke-linejoin="round" stroke-miterlimit="10" x1="67.008" y1="243.682" x2="64.894" y2="243.682"/>
	</g>
	<g>
		<path opacity="0.2" fill="#29ABE2" d="M264.857,259.372h-79.969c-1.141,0-2.066-0.925-2.066-2.066v-50.465
			c0-1.141,0.925-2.066,2.066-2.066h79.969c1.141,0,2.066,0.925,2.066,2.066v50.465
			C266.924,258.447,265.999,259.372,264.857,259.372z"/>
		<path opacity="0.53" fill="#FFFFFF" d="M264.857,259.094h-79.969c-1.141,0-2.066-0.925-2.066-2.066v0.278
			c0,1.141,0.925,2.066,2.066,2.066h79.969c1.141,0,2.066-0.925,2.066-2.066v-0.278
			C266.924,258.169,265.999,259.094,264.857,259.094z"/>
		<path opacity="0.3" fill="#45ADE2" d="M264.532,204.266h-79.318c-1.321,0-2.392,1.071-2.392,2.392v0.508
			c0-1.321,1.071-2.392,2.392-2.392h79.318c1.321,0,2.392,1.071,2.392,2.392v-0.508
			C266.924,205.337,265.853,204.266,264.532,204.266z"/>
		<linearGradient id="SVGID_10_" gradientUnits="userSpaceOnUse" x1="182.8219" y1="209.1793" x2="266.9236" y2="209.1793">
			<stop  offset="0" style="stop-color:#1C3852"/>
			<stop  offset="0.0441" style="stop-color:#1D3B58"/>
			<stop  offset="0.2428" style="stop-color:#204572"/>
			<stop  offset="0.4286" style="stop-color:#1F4C86"/>
			<stop  offset="0.5951" style="stop-color:#1D5092"/>
			<stop  offset="0.7258" style="stop-color:#1B5297"/>
		</linearGradient>
		<path fill="url(#SVGID_10_)" d="M264.532,204.775h-79.318c-1.321,0-2.392,1.071-2.392,2.392v6.417h84.102v-6.417
			C266.924,205.846,265.853,204.775,264.532,204.775z"/>
		<path opacity="0.4" fill="#60CAE7" d="M264.532,204.775h-79.318c-1.321,0-2.392,1.071-2.392,2.392v0.085
			c0-1.321,1.071-2.392,2.392-2.392h79.318c1.321,0,2.392,1.071,2.392,2.392v-0.085
			C266.924,205.846,265.853,204.775,264.532,204.775z"/>
		<rect x="182.822" y="213.229" opacity="0.4" fill="#60CAE7" width="84.102" height="0.356"/>
		<linearGradient id="SVGID_11_" gradientUnits="userSpaceOnUse" x1="186.2267" y1="236.3639" x2="263.7067" y2="236.3639">
			<stop  offset="0" style="stop-color:#1C3852"/>
			<stop  offset="0.0441" style="stop-color:#1D3B58"/>
			<stop  offset="0.2428" style="stop-color:#204572"/>
			<stop  offset="0.4286" style="stop-color:#1F4C86"/>
			<stop  offset="0.5951" style="stop-color:#1D5092"/>
			<stop  offset="0.7258" style="stop-color:#1B5297"/>
		</linearGradient>
		<path fill="url(#SVGID_11_)" d="M262.003,256.497h-74.072c-0.941,0-1.704-0.763-1.704-1.704v-36.858
			c0-0.941,0.763-1.704,1.704-1.704h74.072c0.941,0,1.704,0.763,1.704,1.704v36.858
			C263.707,255.734,262.944,256.497,262.003,256.497z"/>
		<circle opacity="0.3" fill="#3050A3" cx="187.542" cy="209.179" r="2.38"/>
		<path opacity="0.4" fill="#60CAE7" d="M187.542,211.469c-1.299,0-2.351-1.042-2.376-2.335c0,0.015-0.005,0.029-0.005,0.045
			c0,1.314,1.066,2.38,2.38,2.38s2.38-1.066,2.38-2.38c0-0.015-0.004-0.03-0.005-0.045
			C189.893,210.428,188.841,211.469,187.542,211.469z"/>
		<circle opacity="0.3" fill="#45ADE2" cx="187.542" cy="209.179" r="1.846"/>
		<circle fill="#EF4346" cx="187.542" cy="209.179" r="1.508"/>
		<path fill="#F58D8F" d="M187.542,207.714c0.826,0,1.494,0.664,1.506,1.487c0-0.007,0.002-0.014,0.002-0.021
			c0-0.833-0.675-1.508-1.508-1.508c-0.833,0-1.508,0.675-1.508,1.508c0,0.007,0.002,0.014,0.002,0.021
			C186.047,208.378,186.716,207.714,187.542,207.714z"/>
		<circle fill="#C22B27" cx="187.542" cy="209.179" r="0.91"/>
		<path fill="#F58D8F" d="M187.542,208.317c0.494,0,0.894,0.395,0.907,0.886c0-0.008,0.002-0.016,0.002-0.024
			c0-0.502-0.407-0.91-0.91-0.91c-0.502,0-0.91,0.407-0.91,0.91c0,0.008,0.002,0.016,0.002,0.024
			C186.647,208.712,187.047,208.317,187.542,208.317z"/>
		<circle opacity="0.3" fill="#3050A3" cx="194.437" cy="209.179" r="2.38"/>
		<path opacity="0.4" fill="#60CAE7" d="M194.437,211.469c-1.299,0-2.351-1.042-2.376-2.335c0,0.015-0.005,0.029-0.005,0.045
			c0,1.314,1.066,2.38,2.38,2.38s2.38-1.066,2.38-2.38c0-0.015-0.004-0.03-0.005-0.045
			C196.788,210.428,195.736,211.469,194.437,211.469z"/>
		<circle opacity="0.3" fill="#45ADE2" cx="194.437" cy="209.179" r="1.846"/>
		<circle fill="#FFCE04" cx="194.437" cy="209.179" r="1.508"/>
		<path fill="#FDEB03" d="M194.437,207.714c0.826,0,1.494,0.664,1.506,1.487c0-0.007,0.002-0.014,0.002-0.021
			c0-0.833-0.675-1.508-1.508-1.508c-0.833,0-1.508,0.675-1.508,1.508c0,0.007,0.002,0.014,0.002,0.021
			C192.943,208.378,193.612,207.714,194.437,207.714z"/>
		<circle fill="#FAA51A" cx="194.437" cy="209.179" r="0.91"/>
		<path fill="#FEBC11" d="M194.437,208.317c0.494,0,0.894,0.395,0.907,0.886c0-0.008,0.002-0.016,0.002-0.024
			c0-0.502-0.407-0.91-0.91-0.91c-0.502,0-0.91,0.407-0.91,0.91c0,0.008,0.002,0.016,0.002,0.024
			C193.543,208.712,193.943,208.317,194.437,208.317z"/>
		<circle opacity="0.3" fill="#3050A3" cx="201.333" cy="209.179" r="2.38"/>
		<path opacity="0.4" fill="#60CAE7" d="M201.333,211.469c-1.299,0-2.351-1.042-2.376-2.335c0,0.015-0.005,0.029-0.005,0.045
			c0,1.314,1.066,2.38,2.38,2.38s2.38-1.066,2.38-2.38c0-0.015-0.004-0.03-0.005-0.045
			C203.684,210.428,202.632,211.469,201.333,211.469z"/>
		<circle opacity="0.3" fill="#45ADE2" cx="201.333" cy="209.179" r="1.846"/>
		<circle fill="#63C083" cx="201.333" cy="209.179" r="1.508"/>
		<path fill="#A0D3A1" d="M201.333,207.714c0.826,0,1.494,0.664,1.506,1.487c0-0.007,0.002-0.014,0.002-0.021
			c0-0.833-0.675-1.508-1.508-1.508s-1.508,0.675-1.508,1.508c0,0.007,0.002,0.014,0.002,0.021
			C199.839,208.378,200.508,207.714,201.333,207.714z"/>
		<circle fill="#12AB6B" cx="201.333" cy="209.179" r="0.91"/>
		<path fill="#A0D3A1" d="M201.333,208.317c0.494,0,0.894,0.395,0.907,0.886c0-0.008,0.002-0.016,0.002-0.024
			c0-0.502-0.407-0.91-0.91-0.91s-0.91,0.407-0.91,0.91c0,0.008,0.002,0.016,0.002,0.024
			C200.439,208.712,200.839,208.317,201.333,208.317z"/>
		<polyline fill="none" stroke="#FFFFFF" stroke-linecap="round" stroke-linejoin="round" stroke-miterlimit="10" points="
			190.314,218.592 188.462,220.443 190.312,222.293 		"/>
		<polyline fill="none" stroke="#FFFFFF" stroke-linecap="round" stroke-linejoin="round" stroke-miterlimit="10" points="
			194.966,218.592 196.818,220.443 194.968,222.293 		"/>
		
			<line fill="none" stroke="#FFFFFF" stroke-linecap="round" stroke-linejoin="round" stroke-miterlimit="10" x1="191.857" y1="222.61" x2="193.326" y2="218.592"/>
		<circle fill="#F69321" stroke="#FFFFFF" stroke-miterlimit="10" cx="198.784" cy="222.643" r="0.522"/>
		<circle fill="#F69321" stroke="#FFFFFF" stroke-miterlimit="10" cx="200.946" cy="222.643" r="0.522"/>
		<circle fill="#F69321" stroke="#FFFFFF" stroke-miterlimit="10" cx="203.107" cy="222.643" r="0.522"/>
		
			<line fill="none" stroke="#FFFFFF" stroke-linecap="round" stroke-linejoin="round" stroke-miterlimit="10" x1="189.276" y1="226.406" x2="244.924" y2="226.406"/>
		
			<line fill="none" stroke="#FFFFFF" stroke-linecap="round" stroke-linejoin="round" stroke-miterlimit="10" x1="248.412" y1="226.406" x2="252.7" y2="226.406"/>
		
			<line fill="none" stroke="#FFFFFF" stroke-linecap="round" stroke-linejoin="round" stroke-miterlimit="10" x1="255.108" y1="226.406" x2="260.582" y2="226.406"/>
		
			<line fill="none" stroke="#FFFFFF" stroke-linecap="round" stroke-linejoin="round" stroke-miterlimit="10" x1="189.276" y1="230.785" x2="224.09" y2="230.785"/>
		
			<line fill="none" stroke="#FFFFFF" stroke-linecap="round" stroke-linejoin="round" stroke-miterlimit="10" x1="227.343" y1="230.785" x2="233.583" y2="230.785"/>
		
			<line fill="none" stroke="#FFFFFF" stroke-linecap="round" stroke-linejoin="round" stroke-miterlimit="10" x1="235.622" y1="233.302" x2="218.682" y2="233.302"/>
		
			<line fill="none" stroke="#FFFFFF" stroke-linecap="round" stroke-linejoin="round" stroke-miterlimit="10" x1="215.284" y1="233.302" x2="206.815" y2="233.302"/>
		
			<line fill="none" stroke="#FFFFFF" stroke-linecap="round" stroke-linejoin="round" stroke-miterlimit="10" x1="204.103" y1="233.302" x2="200.689" y2="233.302"/>
		
			<line fill="none" stroke="#FFFFFF" stroke-linecap="round" stroke-linejoin="round" stroke-miterlimit="10" x1="197.977" y1="233.302" x2="194.564" y2="233.302"/>
		
			<line fill="none" stroke="#FFFFFF" stroke-linecap="round" stroke-linejoin="round" stroke-miterlimit="10" x1="219.87" y1="236.364" x2="194.564" y2="236.364"/>
		
			<line fill="none" stroke="#FFFFFF" stroke-linecap="round" stroke-linejoin="round" stroke-miterlimit="10" x1="190.507" y1="233.302" x2="189.276" y2="233.302"/>
		
			<line fill="none" stroke="#FFFFFF" stroke-linecap="round" stroke-linejoin="round" stroke-miterlimit="10" x1="190.507" y1="236.364" x2="189.276" y2="236.364"/>
		
			<line fill="none" stroke="#FFFFFF" stroke-linecap="round" stroke-linejoin="round" stroke-miterlimit="10" x1="190.507" y1="239.425" x2="189.276" y2="239.425"/>
		
			<line fill="none" stroke="#FFFFFF" stroke-linecap="round" stroke-linejoin="round" stroke-miterlimit="10" x1="190.507" y1="242.487" x2="189.276" y2="242.487"/>
		
			<line fill="none" stroke="#FFFFFF" stroke-linecap="round" stroke-linejoin="round" stroke-miterlimit="10" x1="250.556" y1="236.364" x2="257.845" y2="236.364"/>
		
			<line fill="none" stroke="#FFFFFF" stroke-linecap="round" stroke-linejoin="round" stroke-miterlimit="10" x1="194.437" y1="239.425" x2="209.045" y2="239.425"/>
		
			<line fill="none" stroke="#FFFFFF" stroke-linecap="round" stroke-linejoin="round" stroke-miterlimit="10" x1="194.437" y1="242.562" x2="209.045" y2="242.562"/>
		
			<line fill="none" stroke="#FFFFFF" stroke-linecap="round" stroke-linejoin="round" stroke-miterlimit="10" x1="194.437" y1="245.698" x2="209.045" y2="245.698"/>
		
			<line fill="none" stroke="#FFFFFF" stroke-linecap="round" stroke-linejoin="round" stroke-miterlimit="10" x1="194.437" y1="248.835" x2="209.045" y2="248.835"/>
		
			<line fill="none" stroke="#FFFFFF" stroke-linecap="round" stroke-linejoin="round" stroke-miterlimit="10" x1="211.648" y1="245.698" x2="241.377" y2="245.698"/>
		
			<line fill="none" stroke="#FFFFFF" stroke-linecap="round" stroke-linejoin="round" stroke-miterlimit="10" x1="228.515" y1="242.487" x2="233.321" y2="242.487"/>
		
			<line fill="none" stroke="#FFFFFF" stroke-linecap="round" stroke-linejoin="round" stroke-miterlimit="10" x1="260.47" y1="228.586" x2="204.821" y2="228.586"/>
		
			<line fill="none" stroke="#FFFFFF" stroke-linecap="round" stroke-linejoin="round" stroke-miterlimit="10" x1="201.446" y1="228.586" x2="197.158" y2="228.586"/>
		
			<line fill="none" stroke="#FFFFFF" stroke-linecap="round" stroke-linejoin="round" stroke-miterlimit="10" x1="194.749" y1="228.586" x2="189.276" y2="228.586"/>
		
			<line fill="none" stroke="#FFFFFF" stroke-linecap="round" stroke-linejoin="round" stroke-miterlimit="10" x1="237.228" y1="230.785" x2="250.847" y2="230.785"/>
		
			<line fill="none" stroke="#FFFFFF" stroke-linecap="round" stroke-linejoin="round" stroke-miterlimit="10" x1="253.793" y1="230.785" x2="260.033" y2="230.785"/>
		
			<line fill="none" stroke="#FFFFFF" stroke-linecap="round" stroke-linejoin="round" stroke-miterlimit="10" x1="253.358" y1="233.302" x2="244.889" y2="233.302"/>
		
			<line fill="none" stroke="#FFFFFF" stroke-linecap="round" stroke-linejoin="round" stroke-miterlimit="10" x1="242.177" y1="233.302" x2="238.763" y2="233.302"/>
		
			<line fill="none" stroke="#FFFFFF" stroke-linecap="round" stroke-linejoin="round" stroke-miterlimit="10" x1="247.64" y1="236.364" x2="222.334" y2="236.364"/>
		
			<line fill="none" stroke="#FFFFFF" stroke-linecap="round" stroke-linejoin="round" stroke-miterlimit="10" x1="211.047" y1="239.425" x2="240.878" y2="239.425"/>
		
			<line fill="none" stroke="#FFFFFF" stroke-linecap="round" stroke-linejoin="round" stroke-miterlimit="10" x1="242.728" y1="239.425" x2="257.335" y2="239.425"/>
		
			<line fill="none" stroke="#FFFFFF" stroke-linecap="round" stroke-linejoin="round" stroke-miterlimit="10" x1="225.979" y1="242.562" x2="217.51" y2="242.562"/>
		
			<line fill="none" stroke="#FFFFFF" stroke-linecap="round" stroke-linejoin="round" stroke-miterlimit="10" x1="214.798" y1="242.562" x2="211.384" y2="242.562"/>
		
			<line fill="none" stroke="#FFFFFF" stroke-linecap="round" stroke-linejoin="round" stroke-miterlimit="10" x1="226.05" y1="248.835" x2="217.581" y2="248.835"/>
		
			<line fill="none" stroke="#FFFFFF" stroke-linecap="round" stroke-linejoin="round" stroke-miterlimit="10" x1="214.869" y1="248.835" x2="211.455" y2="248.835"/>
		
			<line fill="none" stroke="#FFFFFF" stroke-linecap="round" stroke-linejoin="round" stroke-miterlimit="10" x1="190.508" y1="248.835" x2="189.276" y2="248.835"/>
		
			<line fill="none" stroke="#FFFFFF" stroke-linecap="round" stroke-linejoin="round" stroke-miterlimit="10" x1="190.507" y1="245.698" x2="189.276" y2="245.698"/>
	</g>
	<linearGradient id="SVGID_12_" gradientUnits="userSpaceOnUse" x1="342.5674" y1="287.5443" x2="453.1554" y2="287.5443">
		<stop  offset="0" style="stop-color:#1C3852"/>
		<stop  offset="0.0441" style="stop-color:#1D3B58"/>
		<stop  offset="0.2428" style="stop-color:#204572"/>
		<stop  offset="0.4286" style="stop-color:#1F4C86"/>
		<stop  offset="0.5951" style="stop-color:#1D5092"/>
		<stop  offset="0.7258" style="stop-color:#1B5297"/>
	</linearGradient>
	<path fill="url(#SVGID_12_)" d="M433.081,261.038c-2.393-3.184-5.181-5.979-8.26-8.356l6.178-10.204
		c-7.084-5.199-15.314-8.671-23.981-10.117l-2.998,11.546c-3.851-0.547-7.799-0.594-11.749-0.086l-2.843-11.571
		c-4.245,0.651-8.482,1.788-12.634,3.477c-4.152,1.688-7.981,3.83-11.476,6.326l6.037,10.272c-3.184,2.392-5.979,5.181-8.356,8.26
		l-10.204-6.179c-5.199,7.084-8.671,15.314-10.117,23.981l11.546,2.998c-0.547,3.851-0.594,7.799-0.086,11.749l-11.571,2.843
		c0.651,4.245,1.788,8.482,3.476,12.634c1.688,4.152,3.83,7.981,6.326,11.475l10.272-6.037c2.393,3.184,5.181,5.979,8.26,8.356
		l-6.178,10.205c7.084,5.198,15.314,8.671,23.981,10.117l2.998-11.546c3.851,0.547,7.799,0.594,11.749,0.086l2.843,11.571
		c4.245-0.651,8.482-1.788,12.634-3.476c4.152-1.688,7.981-3.83,11.476-6.326l-6.038-10.272c3.184-2.393,5.979-5.181,8.356-8.26
		l10.205,6.178c5.198-7.084,8.67-15.313,10.117-23.98l-11.546-2.998c0.547-3.851,0.594-7.799,0.086-11.749l11.571-2.843
		c-0.651-4.245-1.788-8.482-3.476-12.634c-1.688-4.152-3.83-7.981-6.326-11.476L433.081,261.038z M423.75,277.019
		c5.813,14.298-1.065,30.601-15.363,36.414c-14.298,5.813-30.601-1.065-36.415-15.363c-5.813-14.298,1.065-30.601,15.363-36.414
		C401.634,255.842,417.937,262.721,423.75,277.019z M416.257,280.065c4.131,10.16-0.757,21.744-10.917,25.875
		c-10.16,4.131-21.744-0.757-25.875-10.916c-4.131-10.16,0.757-21.744,10.916-25.875
		C400.542,265.018,412.126,269.905,416.257,280.065z"/>
	<linearGradient id="SVGID_13_" gradientUnits="userSpaceOnUse" x1="297.026" y1="342.8383" x2="358.759" y2="342.8383">
		<stop  offset="0" style="stop-color:#1C3852"/>
		<stop  offset="0.0441" style="stop-color:#1D3B58"/>
		<stop  offset="0.2428" style="stop-color:#204572"/>
		<stop  offset="0.4286" style="stop-color:#1F4C86"/>
		<stop  offset="0.5951" style="stop-color:#1D5092"/>
		<stop  offset="0.7258" style="stop-color:#1B5297"/>
	</linearGradient>
	<path fill="url(#SVGID_13_)" d="M347.553,328.042c-1.336-1.777-2.892-3.338-4.611-4.664l3.449-5.696
		c-3.954-2.902-8.548-4.84-13.387-5.648l-1.674,6.445c-2.15-0.305-4.354-0.332-6.559-0.048l-1.587-6.459
		c-2.37,0.363-4.735,0.998-7.053,1.941c-2.318,0.942-4.455,2.138-6.406,3.531l3.37,5.734c-1.777,1.335-3.337,2.892-4.664,4.611
		l-5.696-3.449c-2.902,3.954-4.84,8.548-5.648,13.387l6.445,1.674c-0.306,2.15-0.332,4.354-0.048,6.559l-6.459,1.587
		c0.363,2.37,0.998,4.735,1.941,7.053c0.942,2.318,2.138,4.455,3.531,6.406l5.734-3.37c1.336,1.777,2.892,3.337,4.611,4.664
		l-3.449,5.696c3.954,2.902,8.548,4.84,13.387,5.648l1.674-6.445c2.15,0.305,4.354,0.331,6.559,0.048l1.587,6.459
		c2.369-0.363,4.735-0.998,7.053-1.941c2.318-0.942,4.455-2.138,6.406-3.531l-3.37-5.734c1.777-1.336,3.338-2.892,4.664-4.611
		l5.697,3.449c2.902-3.954,4.84-8.548,5.648-13.387l-6.445-1.674c0.305-2.15,0.332-4.354,0.048-6.559l6.459-1.587
		c-0.363-2.37-0.998-4.735-1.941-7.053c-0.942-2.318-2.138-4.455-3.531-6.406L347.553,328.042z M342.344,336.963
		c3.245,7.982-0.595,17.082-8.576,20.327c-7.981,3.245-17.082-0.595-20.327-8.576c-3.245-7.981,0.595-17.082,8.576-20.327
		C329.998,325.141,339.099,328.981,342.344,336.963z M338.161,338.663c2.306,5.671-0.423,12.138-6.094,14.444
		c-5.671,2.306-12.138-0.422-14.444-6.094c-2.306-5.671,0.422-12.138,6.094-14.444C329.389,330.264,335.855,332.992,338.161,338.663
		z"/>
</g>
</svg>
